<?xml version="1.0" encoding="utf-8"?>
<!-- Generator: Adobe Illustrator 21.0.2, SVG Export Plug-In . SVG Version: 6.00 Build 0)  -->
<svg version="1.1" id="Layer_1" xmlns="http://www.w3.org/2000/svg" xmlns:xlink="http://www.w3.org/1999/xlink" x="0px" y="0px"
	 viewBox="0 0 1062 280" style="enable-background:new 0 0 1062 280;" xml:space="preserve">
<style type="text/css">
	.st0{fill:#EDD7FB;}
</style>
<g>
	<path class="st0" d="M164,211.1c-4-2.4-8.2-4.5-9.4-8.5c0,0,0-18.8,0-23.2c0-0.5-0.4-0.8-0.8-0.9l-7.1,1.5l0,0h-0.5
		c3-1,5.7-2.5,8.2-4.5c2.4-2.5,4.2-5.5,5.4-8.8c0.9-2.4,1.4-4.9,1.6-7.4l1.3-8.5c-0.7,0.3-1.4,0.5-2.1,0.7c-1,0.2-2.1,0.4-3.1,0.4
		h-0.6c-0.7,0.1-1.4,0.1-2.2,0c-0.2-0.1-0.4-0.3-0.4-0.5c0-0.1,0-0.2,0-0.3l0,0l2.2-1.4c2-1.3,3.5-3.2,4.4-5.4l1.6-3.9
		c-0.2-1-0.3-2.1-0.3-3.1c-2.6-0.7-5-2-7.1-3.8c-0.4-0.4-0.9-0.7-1.4-0.9c-0.1,0.9-0.5,1.7-1.2,2.2H152l0,0c0.7-0.5,1.1-1.4,1.1-2.2
		c-0.8-0.4-1.6-0.6-2.4-0.8c0.6,0.3,0.8,0.9,0.5,1.5c-0.2,0.4-0.6,0.7-1,0.7c-0.6,0-1.1-0.3-1.3-0.9c0.4,0.3,1,0.2,1.3-0.2
		c0.1-0.1,0.2-0.3,0.2-0.5c0-0.3-0.2-0.6-0.4-0.8h-0.8h-0.3h-1.3c-0.3,0.9-0.1,1.9,0.5,2.6l0,0h-0.6c-0.6-0.8-0.8-1.8-0.6-2.7
		c-1.1,0.3-2,0.8-2.9,1.5c-0.1,0.1-0.3,0.1-0.4,0c-0.3,0-0.5,0-0.7-0.5c-0.2-0.2-0.2-0.5,0-0.7c2.1-1.4,4.5-2.2,7-2.2
		c3,0.1,5.9,1.3,8,3.5c0.7,0.4,1.5,0.5,2.3,0.4h1.5c0.1-2.3-0.1-4.6-0.6-6.8c-0.1-0.1-0.2-0.1-0.3-0.3c-1-1.7-2.3-3.1-3.9-4.2
		c-1.5-0.6-3.1-1-4.7-1c-0.8,0-1.5,0.1-2.3,0.3c-2.7,0.6-5.4,0.9-8.1,0.9l0,0c-0.7,0.1-1.4-0.5-1.5-1.2c0-0.2,0-0.3,0.1-0.5v-0.7
		c0.2-0.6,0.7-1,1.3-1c1.5,0,2.9-0.2,4.4-0.4c1.8-0.3,3.6-0.5,5.4-0.5h2.4c2,0.2,3.9,1.1,5.4,2.6c-2.7-4.9-7.4-8.4-12.8-9.7
		c-2.8-0.7-5.8-1.1-8.7-1.1h-2.7h-0.3h-2.7c-2.9,0-5.8,0.3-8.7,1.1c-5.4,1.2-10,4.6-12.8,9.3c1.4-1.5,3.4-2.4,5.4-2.6h2.4
		c1.8,0,3.6,0.2,5.4,0.5c1.4,0.3,2.9,0.4,4.4,0.4c0.6,0,1.2,0.4,1.3,1v0.7c0.2,0.7-0.2,1.5-0.9,1.7c-0.2,0-0.3,0.1-0.5,0.1l0,0
		c-2.7,0-5.4-0.3-8.1-0.9c-0.7-0.2-1.5-0.3-2.3-0.3c-1.6,0-3.2,0.3-4.7,1c-1.6,1.1-3,2.5-3.9,4.2c-0.1,0.1-0.2,0.2-0.3,0.3
		c-0.5,2.2-0.7,4.5-0.6,6.8h1.5c0.8,0.1,1.6-0.1,2.3-0.4c2-2.1,4.7-3.3,7.6-3.5c2.5,0,5,0.8,7,2.2c0.2,0.2,0.2,0.5,0,0.7
		c0,0.3-0.4,0.6-0.7,0.5c-0.1,0.1-0.3,0.1-0.4,0c-0.9-0.7-1.9-1.2-2.9-1.5c0,0.2,0,0.5,0,0.7c0,0.7-0.2,1.5-0.7,2.1h-0.6l0,0
		c0.6-0.7,0.8-1.7,0.5-2.6h-1.3h-0.3h-0.8c-0.3,0.2-0.4,0.4-0.4,0.8c0,0.5,0.4,0.8,0.8,0.9c0.2,0.1,0.5,0.1,0.7,0
		c-0.2,0.6-0.7,0.9-1.3,0.9c-0.6,0-1.1-0.5-1.1-1.1c0-0.4,0.3-0.8,0.7-1c-0.8,0.2-1.6,0.5-2.4,0.8c0,0.9,0.4,1.7,1.1,2.2l0,0h-0.5
		c-0.7-0.6-1.2-1.4-1.3-2.3c-0.5,0.3-1,0.6-1.4,0.9c-2.1,1.8-4.5,3.1-7.1,3.8c0,1-0.2,2.1-0.3,3.1l1.6,3.9c0.9,2.2,2.4,4.1,4.4,5.4
		l2.2,1.4l0,0c0,0.1,0,0.2,0,0.3c0,0.3-0.1,0.5-0.4,0.5c-0.7,0.1-1.4,0.1-2.2,0h-0.6c-1.1,0-2.1-0.1-3.1-0.4
		c-0.7-0.2-1.4-0.4-2.1-0.7l2,8.4c0.2,2.5,0.8,5,1.6,7.4c1.2,3.3,3,6.3,5.4,8.8c2.5,1.9,5.2,3.4,8.2,4.5h-0.5l0,0l-7.1-1.5
		c-0.5,0.1-0.8,0.5-0.8,0.9c0,4.4,0,23.2,0,23.2c-1.2,4.1-5.4,6.1-9.4,8.5c-3.2,1.7-6.8,2.9-10.4,3.4l39.4,39.7l39.2-39.2
		C170.8,214.1,167.3,212.9,164,211.1z M136.7,141.8h0.4c0.5,0,1,0.2,1.5,0.4c1.3,0.9,1.4,1.6,1.2,1.8c-0.2,0.1-0.4,0.1-0.6,0
		c-0.4,0-0.9-0.1-1.2-0.4c-0.5-0.3-0.9-0.8-1.3-1.3C136.5,142.2,136.5,141.9,136.7,141.8z M131.3,142.1c0.4-0.3,0.9-0.4,1.5-0.4h0.4
		c0.2,0.2,0.2,0.6,0,0.8c-0.4,0.5-0.8,0.9-1.3,1.3c-0.4,0.3-0.8,0.4-1.2,0.4c0,0-0.1-0.1-0.1-0.2c0,0-0.3-1,1-1.9L131.3,142.1z
		 M123.4,159.2c-0.3-0.4-0.3-0.8,0-1.2c0.4-0.6,1-1.6,1.9-2.8c1.4-2.3,3.5-4.2,5.9-5.4l0,0h0.3l0,0h0.4h1.2c0.6,0,1.2,0.1,1.7,0.4
		l0,0c0.5-0.3,1.1-0.4,1.7-0.4h1.2h0.4l0,0h0.3l0,0c2.4,1.2,4.5,3.1,5.9,5.4c0.9,1.1,1.5,2.1,1.9,2.8c0.3,0.4,0.3,0.8,0,1.2
		c-0.8,0.8-1.8,1.3-2.8,1.6c-1.1,0.4-2.3,0.6-3.5,0.5h-1.6c-1.2,0.1-2.3,0.1-3.5,0h-0.5c-1.2,0.1-2.3,0.1-3.5,0h-1.6
		c-1.2,0-2.3-0.2-3.5-0.5C125,160.5,124.1,159.9,123.4,159.2z M135.3,250L135.3,250L135.3,250L135.3,250L135.3,250l-19-19l0,0
		c12.3,2.7,25.1,2.7,37.4,0l0,0L135.3,250z"/>
	<path class="st0" d="M128.9,157.5c2-0.4,4-0.6,6-0.8l0,0c2,0.1,4,0.4,6,0.8c-0.4-0.4-0.8-0.9-1.2-1.3c-2.5-2.8-6.8-3-9.5-0.5
		c-0.2,0.1-0.3,0.3-0.5,0.5c-0.4,0.4-0.8,0.8-1.2,1.3H128.9z"/>
	<path class="st0" d="M173.6,169.2c-0.3,2.8-1.9,5.3-4.4,6.7c-1,0.8-1.8,1.8-2.3,3c-1.7,4.7-6.1,8-11.1,8.3c0,2.7,0,7.3,0,10.9
		c30.2-11.6,45.3-45.7,33.7-76.1c-11.5-30.4-45.3-45.6-75.5-34C84,99.5,68.9,133.6,80.4,164c5.9,15.7,18.2,28,33.7,34
		c0-3.5,0-8.1,0-10.9c-5-0.3-9.4-3.5-11.1-8.3c-0.5-1.2-1.3-2.2-2.3-3c-2.4-1.4-4.1-3.9-4.4-6.7c-2.6-1.9-4-5.1-3.7-8.3
		c-1.9-2.1-1.9-5.3,0-7.4c2.6-3.4,5-7.1,7-10.9c-3.2-10.5-2.1-21.9,3.1-31.6c1.7-3.4,4-6.4,6.9-8.9c6.9-6,15.8-9.2,25-8.9l0,0
		c9.1-0.3,18,2.9,25,8.9c2.9,2.5,5.2,5.5,6.9,8.9c5.2,9.7,6.3,21.1,3.1,31.6c2,3.8,4.4,7.4,7,10.9c1.9,2.1,1.9,5.3,0,7.4
		C177.2,164,176,167.1,173.6,169.2z"/>
	<path class="st0" d="M107.9,134.9c1-0.3,1.9-0.8,2.6-1.5h-0.4c-0.7,0-2,0-2.3-0.8c0,0,0,0.5,0,0.7
		C107.8,133.6,107.9,134.4,107.9,134.9z"/>
	<path class="st0" d="M240.1,135.8L135,29.8l-105,106l-6.2,6.3l4.7,4.8l66,66.5l3.5-0.7l-42-42.3l0,0l-0.3-0.3
		c-6.2-18.5-6-38.6,0.8-56.9l0.3-0.3l0,0L105.4,64l0,0l0,0c9.4-3.6,19.3-5.4,29.4-5.4l0,0c10,0,20,1.9,29.4,5.4l0,0l0,0l48.5,48.9
		l0,0l0.3,0.3c6.8,18.3,7,38.4,0.8,56.9l-0.3,0.3l0,0L172,212.7l3.5,0.7l66.1-66.6l4.7-4.8L240.1,135.8z M47.8,161.9L47.8,161.9
		L47.8,161.9l-19.7-19.8l20.1-20.2l0,0l0,0c-3.1,13.1-3.2,26.8-0.4,40H47.8z M155.6,55c-13.6-3.3-27.7-3.3-41.2,0l0,0l20.7-20.9l0,0
		l0,0l0,0l0,0L155.8,55l0,0H155.6z M222.7,161.9L222.7,161.9L222.7,161.9c2.8-13.2,2.6-26.9-0.5-40l0,0l0,0l20.1,20.2L222.7,161.9z"
		/>
	<path class="st0" d="M243.7,122.2v-90h-89.1l-19.7-19.8l-19.7,19.8H26.2v90L6.5,142l19.7,19.8v90h89.2l19.5,19.7l19.5-19.7h89.3
		v-90.2l19.5-19.6L243.7,122.2z M218.6,57.8v39l-38.7-39H218.6z M51.5,57.8H90L51.5,96.6V57.8z M51.5,226.3v-38.8l38.7,39
		L51.5,226.3z M218.6,226.3h-38.9l38.9-39.2V226.3z M135,266.7L135,266.7L11.4,142.1L135,17.3l0,0l123.7,124.7L135,266.7z"/>
	<path class="st0" d="M159.6,133.4c0.8,0.7,1.7,1.2,2.6,1.5c0-0.5,0-1,0-1.5v-0.7c-0.4,0.6-1.7,0.7-2.3,0.7H159.6z"/>
	<path class="st0" d="M320.6,141.9h16.7v4.3h-16.7v19.6h25.2v4.3H303v-51.6h42.6v3.9h-25.1V141.9z M315.9,141.9v-19.6h-8.1v19.4
		L315.9,141.9z M315.9,165.6v-19.5h-8.1v19.6L315.9,165.6z"/>
	<path class="st0" d="M378.5,146.1h-4.3v19.6h20.4v4.3H357v-51.6h17.5v23.7h4.1V146.1z M369.6,141.8v-19.6h-7.8v19.4L369.6,141.8z
		 M369.6,165.5v-19.4h-7.8v19.6L369.6,165.5z"/>
	<path class="st0" d="M422.7,141.9h16.7v4.3h-16.7v19.6h25.2v4.3h-42.6v-51.6h42.6v3.9h-25.2V141.9z M418,141.9v-19.6h-8.1v19.4
		L418,141.9z M418,165.6v-19.5h-8.1v19.6L418,165.6z"/>
	<path class="st0" d="M505.3,130.1l-3.9,2.3c-4.2-7-11.8-11.2-19.9-11.2c-11.8-0.1-21.7,8.8-22.9,20.7h8.1c1.3-7.1,7.6-12.2,14.8-12
		c5.1-0.1,10,2.5,12.8,6.7l-4,2.3c-1.9-3-5.2-4.8-8.8-4.8c-5.4,0-9.8,4.4-9.8,9.9c0,5.5,4.4,9.9,9.8,9.9c0,0,0,0,0,0
		c3.6,0,6.9-1.8,8.8-4.8l4,2.3c-2.9,4.3-7.7,6.8-12.8,6.7c-7.2,0.2-13.4-4.9-14.8-12h-8.1c1.2,11.8,11.1,20.7,22.9,20.7
		c8.1,0,15.7-4.2,19.9-11.2l3.9,2.3c-5.1,8.3-14.1,13.3-23.8,13.2c-14.9,0-27-12.2-27-27.2c0-15,12.1-27.2,27-27.2
		C491.2,116.8,500.2,121.8,505.3,130.1z"/>
	<path class="st0" d="M542.8,141.9h4.3v4.3h-4.3v23.7h-17.5v-23.8H521v-4.3h4.3v-19.6h-15.6v-4.3h48.5v4.3h-15.6L542.8,141.9z
		 M538.1,141.9v-19.6H530v19.4L538.1,141.9z M538.1,165.6v-19.5H530v19.6L538.1,165.6z"/>
	<path class="st0" d="M594.2,118.2c10-1.1,19.1,6.2,20.1,16.3c1.1,10.1-6.2,19.2-16.2,20.3c-1.1,0.1-2.3,0.1-3.4,0.1l18,14.8h-7.1
		l-18-14.8h-0.4v14.8h-18v-51.6L594.2,118.2z M582.5,122.5h-8.6V138l8.6,7V122.5z M574,144v7h8.4L574,144z M582.6,165.7v-10.9H574
		v10.9H582.6z M594.2,150.7c7.7,0,14-6.3,14-14.1c0-7.8-6.3-14.1-14-14.1c0,0,0,0,0,0h-7v26.4l2.3,1.8H594.2z"/>
	<path class="st0" d="M623.6,118.2h17.5v51.6h-17.5V118.2z M636.4,165.7v-43.5h-8.1v43.5H636.4z"/>
	<path class="st0" d="M702,130.1l-3.9,2.3c-4.2-7-11.8-11.2-19.9-11.2c-11.8-0.1-21.7,8.8-22.9,20.7h8.1c1.3-7.1,7.6-12.2,14.8-12
		c5.2-0.2,10.1,2.4,13,6.7l-4,2.3c-1.9-3-5.2-4.8-8.8-4.8c-5.4,0-9.8,4.4-9.8,9.9c0,5.5,4.4,9.9,9.8,9.9c0,0,0,0,0,0
		c3.6,0,6.9-1.8,8.8-4.8l4,2.3c-2.9,4.3-7.7,6.8-12.8,6.7c-7.2,0.2-13.4-4.9-14.8-12h-8.1c1.2,11.8,11.1,20.7,22.9,20.7
		c8.1,0,15.7-4.2,19.9-11.2l3.9,2.3c-5.1,8.3-14.2,13.3-23.9,13.3c-14.9,0-27-12.2-27-27.2c0-15,12.1-27.2,27-27.2
		C688,116.8,697,121.8,702,130.1z"/>
	<path class="st0" d="M780.3,134.6h-4.7c0-7.6-7.4-13.5-16.6-13.5c-9.2,0-16.7,5.9-16.7,13.5v1h16.6c11.8,0,21.3,7.8,21.3,17.8
		c0,10-9.4,17.8-21.2,17.8c-11.8,0-21.6-7.8-21.6-17.8h4.7c0,7.6,7.4,13.5,16.7,13.5s16.6-5.9,16.6-13.5v-1h-16.6
		c-11.8,0-21.6-7.8-21.6-17.8s9.6-17.8,21.6-17.8C770.8,116.9,780.3,124.6,780.3,134.6z M743.6,140.1c3.2,5.4,9.2,8.6,15.4,8.3h15.4
		c-3.2-5.4-9.1-8.6-15.4-8.3H743.6z"/>
	<path class="st0" d="M843.5,144c-0.1,5.7-2,11.2-5.4,15.7l4.1,3.4v5.8l-7-5.8c-5.2,5.1-12.2,8-19.5,8.1
		c-14.9-0.4-26.6-12.9-26.2-27.9c0.4-15,12.8-26.8,27.7-26.4C831.8,117.2,843.4,129.3,843.5,144L843.5,144z M792.7,144
		c0.1,12.7,10.4,22.9,23,22.8c0,0,0,0,0.1,0c6,0,11.8-2.4,16.2-6.6l-6.5-5.4c-2.8,2.2-6.2,3.3-9.7,3.3c-7.8-0.5-13.6-7.3-13.1-15.1
		c0.5-7.8,7.2-13.7,15-13.2c7.4,0.5,13.2,6.7,13.2,14.2c0,2.7-0.8,5.3-2.3,7.5l6.4,5.4c6.9-10.7,3.8-25-6.8-31.9
		c-10.6-6.9-24.8-3.8-31.7,6.9C794,135.5,792.7,139.7,792.7,144z M806.6,139.4c-0.8,1.4-1.2,3-1.2,4.6c0.1,5.6,4.7,10,10.2,9.9h0
		c2.2,0,4.3-0.7,6.1-1.9L806.6,139.4z M809.7,136.1l15.2,12.6c0.8-1.4,1.2-3,1.2-4.6c-0.1-5.6-4.8-10-10.3-9.9
		c-2.1,0-4.1,0.7-5.9,1.9L809.7,136.1z"/>
	<path class="st0" d="M895.6,150.2c-1.8,11.9-12.8,20-24.6,18.2c-9.3-1.4-16.7-8.8-18.1-18.2v-32.1h18v48.3c1.1,0.3,2.3,0.4,3.5,0.4
		c9,0.1,16.4-7.2,16.6-16.3v-32.1h4.7L895.6,150.2z M857.9,150.2c0,6,3.3,11.6,8.6,14.5v-42.5h-8.6V150.2z"/>
	<path class="st0" d="M936.3,154.9h-10.8l-6.9,14.8h-5.1l14.9-32.1l-4.7-9.9l-19.4,41.9h-5.1l24.5-52.8l24.4,52.9h-5.1L936.3,154.9z
		 M930.9,143l-3.5,7.5h7L930.9,143z"/>
	<path class="st0" d="M980.5,118.2c10.1-0.7,18.8,7,19.4,17.2c0.7,10.2-7,18.9-17.1,19.6c-0.6,0-1.3,0-1.9,0l18,14.8h-7.1l-18-14.9
		h-0.4v14.8h-18v-51.6L980.5,118.2z M968.8,122.5h-8.6V138l8.6,7V122.5z M960.2,144v7h8.4L960.2,144z M968.8,165.7v-10.9h-8.6v10.9
		H968.8z M980.5,150.9c7.7,0,14-6.3,14-14.1c0-7.8-6.3-14.1-14-14.1h-7v26.3l2.3,1.8L980.5,150.9z"/>
	<path class="st0" d="M1027.3,141.9h16.7v4.3h-16.7v19.6h25.2v4.3h-42.6v-51.6h42.6v3.9h-25.2V141.9z M1022.6,141.9v-19.6h-7.9v19.4
		L1022.6,141.9z M1022.6,165.6v-19.5h-7.9v19.6L1022.6,165.6z"/>
	<path class="st0" d="M318.3,204.3l12.2,27.2h-3.7l-3-6.7H313l-3,6.7h-3.7L318.3,204.3z M318.3,212.5l-4.4,9.3h8.4L318.3,212.5z"/>
	<path class="st0" d="M393.6,209.5l-2.6,2.6c-2.4-2.5-5.7-3.9-9.2-3.9c-2.8-0.1-5.6,1-7.6,2.9c-3.9,3.9-4,10.3-0.1,14.2
		c0,0,0.1,0.1,0.1,0.1c2.1,2.1,5.1,3.2,8.1,3.1c4.5,0.5,8.6-2.4,9.8-6.8h-7v-3.6h10.8c0,1.4-0.1,2.9-0.4,4.3
		c-0.3,1.2-0.8,2.4-1.5,3.5c-0.8,1.3-1.8,2.5-3,3.4c-1.2,1-2.5,1.7-4,2.2c-1.6,0.5-3.4,0.7-5.1,0.7c-4,0.2-8-1.3-10.8-4.2
		c-2.6-2.6-4-6.1-4-9.7c-0.1-3.7,1.4-7.2,4.1-9.8c2.6-2.6,6.2-4.1,9.9-4c2.1,0,4.3,0.3,6.3,1C389.8,206.4,391.8,207.8,393.6,209.5z"
		/>
	<path class="st0" d="M411.2,218.2c0-3.7,1.5-7.2,4.2-9.7c2.7-2.7,6.4-4.1,10.2-4c3.7,0,7.3,1.4,10,4.1c2.7,2.5,4.2,6,4.2,9.7
		c0.1,3.8-1.4,7.4-4.2,10c-5.7,5.5-14.6,5.5-20.3,0C412.6,225.7,411.1,222,411.2,218.2z M436,218.2c0.1-2.8-1.1-5.4-3.1-7.3
		c-2.1-1.9-4.8-3-7.6-2.9c-2.7,0-5.4,1-7.3,3c-2,1.9-3.1,4.5-3.1,7.2c-0.1,2.8,1.1,5.4,3.1,7.3c2.1,2,4.9,3,7.7,2.9
		c2.7,0,5.3-1,7.2-2.9c1.9-1.9,3-4.4,3-7.1V218.2z"/>
	<path class="st0" d="M456.6,205.4h4.1c2.3-0.1,4.7,0.5,6.6,1.8c1.6,1,2.5,2.6,2.6,4.5c-0.2,2.4-1.6,4.5-3.8,5.4
		c3.9,1.3,5.9,3.6,5.9,6.8c0,2.2-1.1,4.3-3,5.4c-2.4,1.5-5.2,2.2-8.1,2.1h-4.3L456.6,205.4z M460.1,208.5v7.7
		c1.6,0.1,3.1-0.3,4.5-1.1c1-0.6,1.6-1.8,1.6-3c0.1-1.1-0.4-2.2-1.3-2.9c-1.1-0.7-2.4-1.1-3.8-1L460.1,208.5z M460.1,219.4v8.9h0.3
		c2.2,0.2,4.4-0.3,6.3-1.5c1-0.7,1.6-1.8,1.7-3c0-1.4-0.7-2.6-1.9-3.3c-1.6-0.9-3.5-1.3-5.4-1.2L460.1,219.4z"/>
	<path class="st0" d="M487.5,218.2c0-3.7,1.5-7.2,4.3-9.7c2.7-2.7,6.4-4.1,10.2-4c3.7,0,7.3,1.4,10,4.1c2.7,2.5,4.2,6,4.2,9.7
		c0.1,3.8-1.4,7.4-4.2,10c-5.7,5.5-14.6,5.5-20.3,0C489,225.7,487.4,222,487.5,218.2z M512.3,218.2c0.1-2.8-1.1-5.4-3.1-7.3
		c-2.1-1.9-4.8-3-7.6-2.9c-2.7,0-5.4,1-7.3,3c-2,1.9-3.1,4.5-3.1,7.2c-0.1,2.8,1.1,5.4,3.1,7.3c2.1,2,4.9,3,7.7,2.9
		c2.7,0,5.3-1,7.2-2.9c2-1.8,3.1-4.4,3.1-7.1V218.2z"/>
	<path class="st0" d="M571.3,208.2l-2.9,2.3c-0.6-0.7-1.3-1.3-2-1.8c-0.8-0.4-1.7-0.6-2.6-0.6c-1.1,0-2.2,0.3-3.1,0.9
		c-0.7,0.5-1.2,1.3-1.2,2.2c0,0.8,0.4,1.6,1,2.1c1.1,0.8,2.3,1.5,3.6,2c1.3,0.6,2.6,1.2,3.9,2c0.9,0.6,1.6,1.3,2.3,2.1
		c0.6,0.7,1,1.5,1.3,2.4c0.3,0.9,0.4,1.8,0.4,2.7c0,2.1-0.9,4-2.4,5.4c-1.5,1.5-3.5,2.3-5.7,2.3c-2.1,0-4.1-0.6-5.8-1.8
		c-1.8-1.4-3.1-3.3-3.8-5.4l3.6-1c0.8,2.6,3.2,4.4,5.9,4.4c1.2,0.1,2.3-0.4,3.2-1.1c0.8-0.7,1.3-1.8,1.3-2.9c0-0.8-0.2-1.5-0.6-2.1
		c-0.4-0.7-1-1.3-1.7-1.8c-1-0.6-2.1-1.2-3.2-1.6c-1.2-0.5-2.3-1-3.3-1.6c-0.8-0.5-1.5-1.1-2-1.8c-0.5-0.6-0.9-1.3-1.2-2.1
		c-0.3-0.7-0.4-1.4-0.4-2.2c0-1.8,0.8-3.6,2.2-4.8c1.5-1.3,3.4-2,5.4-2c1.5,0,3,0.3,4.3,0.9C569.2,206,570.4,207,571.3,208.2z"/>
	<path class="st0" d="M586.4,205.4h15.9v3.6H596v22.6h-3.5v-22.6h-6.1V205.4z"/>
	<path class="st0" d="M617.8,205.4h3.4v16.3c-0.1,2,0.5,3.9,1.7,5.4c1.2,1.3,3,2.1,4.8,2c1.8,0.1,3.5-0.5,4.8-1.8
		c1.2-1.4,1.8-3.2,1.7-5.1v-16.9h3.6v16.3c0.1,2.8-0.8,5.6-2.7,7.7c-1.9,1.9-4.5,3-7.2,2.9c-2.8,0.1-5.4-0.9-7.4-2.9
		c-2-2.4-3-5.5-2.7-8.6L617.8,205.4z"/>
	<path class="st0" d="M654.8,205.4h6.3c4.1-0.3,8.1,1.1,11.1,4c2.4,2.4,3.7,5.7,3.7,9.1c0,3.4-1.4,6.7-3.8,9.1
		c-2.9,2.8-6.8,4.2-10.8,4H655L654.8,205.4z M658.3,208.8V228l0,0c2,0,4-0.1,5.9-0.4c1.4-0.3,2.6-0.8,3.8-1.6
		c1.2-0.8,2.2-1.9,2.9-3.2c0.7-1.4,1.1-2.9,1.1-4.4c0-1.9-0.6-3.8-1.7-5.4c-1-1.5-2.4-2.6-4-3.3c-2-0.6-4.2-0.9-6.3-0.8L658.3,208.8
		z"/>
	<path class="st0" d="M691.3,205.4h3.5v26.1h-3.5V205.4z"/>
	<path class="st0" d="M711.2,218.2c0-3.7,1.5-7.2,4.2-9.7c2.7-2.7,6.4-4.1,10.2-4c3.7,0,7.3,1.4,10,4.1c2.7,2.5,4.2,6,4.2,9.7
		c0.1,3.8-1.4,7.4-4.2,10c-5.7,5.5-14.6,5.5-20.3,0C712.6,225.7,711.1,222,711.2,218.2z M736,218.2c0.1-2.8-1.1-5.4-3.1-7.3
		c-2.1-1.9-4.8-3-7.6-2.9c-2.7,0-5.4,1-7.3,3c-2,1.9-3.1,4.5-3.1,7.2c0,2.8,1.2,5.5,3.3,7.3c2.1,2,4.9,3,7.7,2.9
		c2.7,0,5.3-1.1,7.2-3c1.9-1.9,2.9-4.4,2.9-7V218.2z"/>
</g>
</svg>
