<svg xmlns="http://www.w3.org/2000/svg" viewBox="0 0 922 1108"><defs><style>.cls-1{fill:#fff;}</style></defs><title>electric_square_logo_white</title><g id="Layer_4" data-name="Layer 4"><path class="cls-1" d="M110.06,921.14h16.42v4.18H110.06v18.94h24.77v4.18h-42V898h42v4.18H110.06Zm-4.61,0V902.21h-8v18.94Zm0,23.11V925.32h-8v18.94Z"/><path class="cls-1" d="M167.37,925.32H163.2v18.94h19.73v4.18H146V898H163.2v23.11h4.18Zm-8.78-4.18V902.21h-8v18.94Zm0,23.11V925.32h-8v18.94Z"/><path class="cls-1" d="M210.57,921.14H227v4.18H210.57v18.94h24.77v4.18h-42V898h42v4.18H210.57Zm-4.61,0V902.21h-8v18.94Zm0,23.11V925.32h-8v18.94Z"/><path class="cls-1" d="M291.86,909.69,288,911.93A22.81,22.81,0,0,0,268.39,901a22.49,22.49,0,0,0-22.54,20.16h8c1.08-6.7,7.2-11.74,14.55-11.74A15,15,0,0,1,281,916l-4,2.3a10.11,10.11,0,0,0-8.64-4.68,9.66,9.66,0,1,0,0,19.3A10.11,10.11,0,0,0,277,928.2l4,2.3a15,15,0,0,1-12.6,6.55c-7.34,0-13.47-5-14.55-11.74h-8a22.49,22.49,0,0,0,22.54,20.16A22.81,22.81,0,0,0,288,934.54l3.89,2.23a27.38,27.38,0,0,1-23.47,13c-15,0-27.29-11.88-27.29-26.5s12.24-26.5,27.29-26.5A27.38,27.38,0,0,1,291.86,909.69Z"/><path class="cls-1" d="M328.73,921.14h4.18v4.18h-4.18v23.11H311.52V925.32h-4.18v-4.18h4.18V902.21H296.18V898h47.88v4.18H328.73Zm-4.61,0V902.21h-8v18.94Zm0,23.11V925.32h-8v18.94Z"/><path class="cls-1" d="M379.41,898c10.58,0,19.15,8.06,19.15,18s-8.35,17.71-18.72,17.93l17.71,14.47h-7L372.93,934h-.43v14.47H354.86V898Zm-11.52,4.18h-8.42v15.12l8.42,6.84ZM359.47,923v6.77h8.28Zm8.42,21.24V934h-8.42v10.3Zm11.52-14.47c8,0,14.47-6.19,14.47-13.75s-6.48-13.83-14.47-13.83H372.5V928l2.23,1.8Z"/><path class="cls-1" d="M408.28,898h17.21v50.4H408.28Zm12.6,46.23V902.21h-8v42.05Z"/><path class="cls-1" d="M485.61,909.69l-3.89,2.23A22.81,22.81,0,0,0,462.14,901a22.49,22.49,0,0,0-22.54,20.16h8c1.08-6.7,7.2-11.74,14.54-11.74a15,15,0,0,1,12.6,6.55l-4,2.3a10.11,10.11,0,0,0-8.64-4.68,9.66,9.66,0,1,0,0,19.3,10.11,10.11,0,0,0,8.64-4.68l4,2.3a15,15,0,0,1-12.6,6.55c-7.34,0-13.46-5-14.54-11.74h-8a22.49,22.49,0,0,0,22.54,20.16,22.81,22.81,0,0,0,19.59-10.95l3.89,2.23a27.38,27.38,0,0,1-23.47,13c-15,0-27.29-11.88-27.29-26.5s12.24-26.5,27.29-26.5A27.38,27.38,0,0,1,485.61,909.69Z"/><path class="cls-1" d="M562.44,914.09h-4.61c0-7.42-7.34-13.18-16.35-13.18s-16.42,5.76-16.42,13.18l.07.94h16.35c11.59,0,21,7.56,21,17.35s-9.36,17.35-21,17.35-21-7.63-21-17.35h4.61c0,7.42,7.34,13.18,16.42,13.18s16.35-5.76,16.35-13.18v-.94H541.48c-11.59,0-21-7.56-21-17.35s9.43-17.35,21-17.35S562.44,904.37,562.44,914.09Zm-36.15,5.11c2.45,4.82,8.35,8.06,15.19,8.06H556.6c-2.45-4.82-8.28-8.06-15.12-8.06Z"/><path class="cls-1" d="M624.57,923.23a25.91,25.91,0,0,1-5,15.34l4,3.31v5.69l-6.91-5.69a27.75,27.75,0,0,1-19.37,7.85c-15,0-27.29-11.88-27.29-26.5s12.24-26.5,27.29-26.5S624.57,908.61,624.57,923.23Zm-50,0a22.45,22.45,0,0,0,22.68,22.25,22.86,22.86,0,0,0,15.91-6.41l-6.41-5.26a15.46,15.46,0,0,1-9.5,3.24c-8.14,0-14.69-6.19-14.69-13.83s6.55-13.83,14.69-13.83S612,915.6,612,923.23a12.88,12.88,0,0,1-2.3,7.34l6.34,5.18a22.54,22.54,0,1,0-41.48-12.53Zm13.75-4.46a9.36,9.36,0,0,0-1.15,4.46,9.89,9.89,0,0,0,10.08,9.65,10.92,10.92,0,0,0,6-1.87Zm3-3.31,15,12.24a9.35,9.35,0,0,0,1.15-4.46,9.9,9.9,0,0,0-10.15-9.65A10.51,10.51,0,0,0,591.31,915.46Z"/><path class="cls-1" d="M675.91,929.35c0,11.23-9.36,20.38-21,20.38s-21-9.14-21-20.38V898h17.64v47.09a13.19,13.19,0,0,0,3.38.36,16.24,16.24,0,0,0,16.34-16.13V898h4.61Zm-37.37,0A16.16,16.16,0,0,0,647,943.47V902.21h-8.42Z"/><path class="cls-1" d="M715.94,934H705.07l-6.77,14.47h-5L708,917l-4.39-9.43-19.08,40.9h-5l24.12-51.63,24,51.63h-5Zm-5.47-11.59L707,929.71h6.91Z"/><path class="cls-1" d="M759.43,898c10.58,0,19.15,8.06,19.15,18s-8.35,17.71-18.72,17.93l17.71,14.47h-7L752.95,934h-.43v14.47H734.87V898Zm-11.52,4.18h-8.42v15.12l8.42,6.84ZM739.48,923v6.77h8.28Zm8.42,21.24V934h-8.42v10.3Zm11.52-14.47c8,0,14.47-6.19,14.47-13.75s-6.48-13.83-14.47-13.83h-6.91V928l2.23,1.8Z"/><path class="cls-1" d="M805.51,921.14h16.42v4.18H805.51v18.94h24.77v4.18h-42V898h42v4.18H805.51Zm-4.61,0V902.21h-8v18.94Zm0,23.11V925.32h-8v18.94Z"/><path class="cls-1" d="M313.5,998.67l8.81,19.38h-2.67l-2.17-4.78h-7.92l-2.14,4.78h-2.65Zm0,5.82-3,6.66h6Z"/><path class="cls-1" d="M367.76,1002.38l-1.89,1.86a9.16,9.16,0,0,0-6.61-2.8,7.55,7.55,0,0,0-5.46,2.11,7.18,7.18,0,0,0-.07,10.25,7.69,7.69,0,0,0,5.84,2.22q5.58,0,7-4.85h-5v-2.55h8a14.52,14.52,0,0,1-.26,3.06,9,9,0,0,1-1.06,2.52,9.12,9.12,0,0,1-2.15,2.46,8.47,8.47,0,0,1-2.87,1.56,12.6,12.6,0,0,1-3.65.47,10.13,10.13,0,0,1-7.71-3,9.81,9.81,0,0,1-2.88-6.95,9.45,9.45,0,0,1,2.94-7,9.81,9.81,0,0,1,7.13-2.89,13.15,13.15,0,0,1,4.55.75A12.46,12.46,0,0,1,367.76,1002.38Z"/><path class="cls-1" d="M380.49,1008.61a9.2,9.2,0,0,1,3-6.92,10.28,10.28,0,0,1,7.32-2.88,10,10,0,0,1,7.19,2.91,9.26,9.26,0,0,1,3,6.9,9.63,9.63,0,0,1-3,7.15,10.55,10.55,0,0,1-14.6,0A9.61,9.61,0,0,1,380.49,1008.61Zm17.87.12a6.89,6.89,0,0,0-2.23-5.2,7.66,7.66,0,0,0-5.48-2.11,7.31,7.31,0,0,0-5.3,2.15,7,7,0,0,0-2.2,5.17,6.81,6.81,0,0,0,2.26,5.17A7.82,7.82,0,0,0,391,1016a7.17,7.17,0,0,0,5.21-2.16A7,7,0,0,0,398.36,1008.73Z"/><path class="cls-1" d="M413.16,999.39h3a8.25,8.25,0,0,1,4.76,1.27,3.77,3.77,0,0,1,1.85,3.2q0,2.36-2.72,3.94,4.22,1.41,4.22,4.88a4.52,4.52,0,0,1-2.18,3.9,10.19,10.19,0,0,1-5.82,1.48h-3.06Zm2.52,2.26v5.52a5.79,5.79,0,0,0,3.23-.81,2.46,2.46,0,0,0,1.12-2.14,2.21,2.21,0,0,0-1-1.9,4.63,4.63,0,0,0-2.71-.71A5.81,5.81,0,0,0,415.68,1001.65Zm0,7.73v6.39h.21q3.3,0,4.5-1.05a2.94,2.94,0,0,0,1.2-2.15,2.64,2.64,0,0,0-1.35-2.31,6.79,6.79,0,0,0-3.69-.86Z"/><path class="cls-1" d="M435.42,1008.61a9.2,9.2,0,0,1,3-6.92,10.28,10.28,0,0,1,7.32-2.88,10,10,0,0,1,7.19,2.91,9.26,9.26,0,0,1,3,6.9,9.63,9.63,0,0,1-3,7.15,10.55,10.55,0,0,1-14.6,0A9.61,9.61,0,0,1,435.42,1008.61Zm17.87.12a6.89,6.89,0,0,0-2.23-5.2,7.66,7.66,0,0,0-5.48-2.11,7.31,7.31,0,0,0-5.3,2.15,7,7,0,0,0-2.2,5.17,6.81,6.81,0,0,0,2.26,5.17,7.82,7.82,0,0,0,5.54,2.11,7.17,7.17,0,0,0,5.21-2.16A7,7,0,0,0,453.29,1008.73Z"/><path class="cls-1" d="M495.8,1001.47l-2.07,1.66a8.22,8.22,0,0,0-1.48-1.27,3.63,3.63,0,0,0-1.92-.42,3.71,3.71,0,0,0-2.23.62,1.9,1.9,0,0,0-.85,1.6,1.94,1.94,0,0,0,.75,1.5,10.18,10.18,0,0,0,2.54,1.42,18.14,18.14,0,0,1,2.8,1.44,7.15,7.15,0,0,1,1.64,1.47,5.79,5.79,0,0,1,1,1.7,5.63,5.63,0,0,1,.31,1.89,5.32,5.32,0,0,1-1.69,4,5.67,5.67,0,0,1-4.09,1.64,6.93,6.93,0,0,1-4.14-1.28,8,8,0,0,1-2.76-3.84l2.55-.72q1.39,3.15,4.26,3.15a3.33,3.33,0,0,0,2.31-.83,2.71,2.71,0,0,0,.92-2.1,2.85,2.85,0,0,0-.48-1.53,4.32,4.32,0,0,0-1.2-1.26,12.83,12.83,0,0,0-2.29-1.14,16.25,16.25,0,0,1-2.41-1.18,6.25,6.25,0,0,1-1.46-1.27,5.41,5.41,0,0,1-.9-1.47,4.27,4.27,0,0,1-.29-1.57,4.39,4.39,0,0,1,1.61-3.42,5.72,5.72,0,0,1,3.91-1.41,7.93,7.93,0,0,1,3.09.66A6.35,6.35,0,0,1,495.8,1001.47Z"/><path class="cls-1" d="M506.66,999.39h11.41v2.55h-4.45v16.11H511.1v-16.11h-4.44Z"/><path class="cls-1" d="M529.25,999.42h2.55v11.47a5.77,5.77,0,0,0,1.22,3.94,4.37,4.37,0,0,0,3.46,1.39,4.59,4.59,0,0,0,3.46-1.28,5,5,0,0,0,1.24-3.61V999.42h2.55v11.73a7.61,7.61,0,0,1-2,5.48,6.86,6.86,0,0,1-5.21,2.05,7,7,0,0,1-5.33-2.08q-2-2.08-2-6.14Z"/><path class="cls-1" d="M555.89,999.39h4.53q5.38,0,8,2.84a9.3,9.3,0,0,1,2.62,6.49,9.13,9.13,0,0,1-2.71,6.5q-2.71,2.83-7.88,2.83h-4.56Zm2.55,2.49v13.65h.15a26.35,26.35,0,0,0,4.28-.26,7.1,7.1,0,0,0,2.72-1.12,6.24,6.24,0,0,0,2.05-2.29,6.57,6.57,0,0,0,.76-3.14,6.65,6.65,0,0,0-1.22-3.9,6,6,0,0,0-2.91-2.34,14,14,0,0,0-4.55-.6Z"/><path class="cls-1" d="M582.34,999.39h2.52v18.66h-2.52Z"/><path class="cls-1" d="M596.58,1008.61a9.2,9.2,0,0,1,3-6.92,10.28,10.28,0,0,1,7.32-2.88,10,10,0,0,1,7.19,2.91,9.26,9.26,0,0,1,3,6.9,9.63,9.63,0,0,1-3,7.15,10.55,10.55,0,0,1-14.6,0A9.61,9.61,0,0,1,596.58,1008.61Zm17.87.12a6.89,6.89,0,0,0-2.23-5.2,7.66,7.66,0,0,0-5.48-2.11,7.31,7.31,0,0,0-5.29,2.15,7,7,0,0,0-2.21,5.17,6.81,6.81,0,0,0,2.26,5.17,7.82,7.82,0,0,0,5.54,2.11,7.17,7.17,0,0,0,5.21-2.16A7,7,0,0,0,614.45,1008.73Z"/><path class="cls-1" d="M560,678.69c-13.76-8.31-27.89-15.08-32.1-28.78-.05-.17-.75-63.43-.92-78.31a3.26,3.26,0,0,0-2.77-3.18L500,573.36l-.13-.07-.33.07-1.81-.9s18.27-6.21,27.79-15.06c6-5.6,14.69-17.91,19-29.78a100.33,100.33,0,0,0,5.58-25.21l4.55-28.8a52.06,52.06,0,0,1-7.12,2.18,47.51,47.51,0,0,1-10.68,1.35h-1.19l-.86,0a45.37,45.37,0,0,1-7.37-.84,1.66,1.66,0,0,1-1.32-1.89,1.62,1.62,0,0,1,.81-1.1l.14-.07c1.68-.92,4.47-2.68,7.34-4.56a40.1,40.1,0,0,0,15.12-18.28L555,437.14a86.4,86.4,0,0,1-1.16-10.47c-10.42-2.6-18.65-8.48-24.06-12.89a29.17,29.17,0,0,0-4.71-3,10.9,10.9,0,0,1-4.25,7.6l-1.74-.66.4-.32a9.69,9.69,0,0,0,3.83-7.5,42.54,42.54,0,0,0-8-2.83,3.84,3.84,0,0,1-1.63,7.32c-1.86,0-3.94-1.28-4.33-3,2.95,1.64,5-.61,5-2.15a3,3,0,0,0-1.45-2.54,18.13,18.13,0,0,0-2.58-.37c-.37,0-.73,0-1.08,0a27.39,27.39,0,0,0-4.41.48,9.69,9.69,0,0,0,1.68,8.86l.5.53-2.06.24a10.77,10.77,0,0,1-2.09-9.17,29.17,29.17,0,0,0-9.92,5.22,1.74,1.74,0,0,1-1.35.3c-1.12.21-1.92-.82-2.41-1.77a1.68,1.68,0,0,1,.6-2.15c8.89-5.74,17-7.66,23.92-7.53,15.47,0,25.6,10.22,27.29,11.7,1.3,1.14,4.85,1.42,7.93,1.44,2.55,0,4.65-.2,4.65-.2l0,0,.5,0a90.87,90.87,0,0,0-2.08-23.09,2.42,2.42,0,0,1-1.08-1c-.06-.11-6.27-10.6-13.45-14.05-4.54-2.18-10.67-3.22-16-3.26a23.92,23.92,0,0,0-7.75,1.15c-3.55,1.36-12.52,2.39-27.44,3.16a4.71,4.71,0,0,1-.61,0h-.25a4.65,4.65,0,0,1-4.73-5.82l.56-2.15a4.68,4.68,0,0,1,4.5-3.47,95.33,95.33,0,0,0,14.85-1.55,103.17,103.17,0,0,1,18.15-1.71,75.62,75.62,0,0,1,8.17.43c7.16.77,13,4.44,17.63,8.75-7.57-13.25-20.81-25.41-43.67-31.51-10.3-2.93-21.53-3.6-29.51-3.62-4.62,0-8,.24-9.39.34h-1.11c-1.34-.11-4.77-.33-9.39-.34-8,0-19.21.69-29.51,3.62-22.86,6.1-36.1,18.26-43.67,31.51,4.58-4.31,10.47-8,17.63-8.75a75.62,75.62,0,0,1,8.17-.43,103.17,103.17,0,0,1,18.15,1.71A95.33,95.33,0,0,0,437,365.77a4.68,4.68,0,0,1,4.5,3.47l.56,2.15a4.65,4.65,0,0,1-4.73,5.82h-.25a4.71,4.71,0,0,1-.61,0c-14.92-.77-23.89-1.8-27.44-3.16a23.92,23.92,0,0,0-7.75-1.15c-5.29,0-11.43,1.08-16,3.26-7.17,3.45-13.38,13.95-13.45,14.05a2.42,2.42,0,0,1-1.08,1,90.87,90.87,0,0,0-2.08,23.09c.1,0,2.57.17,5.12.19,3.09,0,6.64-.3,7.93-1.44,1.7-1.49,11.83-11.68,27.29-11.7,7-.13,15,1.79,23.92,7.53a1.68,1.68,0,0,1,.6,2.15c-.48,1-1.29,2-2.41,1.77a1.74,1.74,0,0,1-1.35-.3,29.17,29.17,0,0,0-9.92-5.22,10.8,10.8,0,0,1,.28,2.36,11.22,11.22,0,0,1-2.45,6.9l-2-.33.5-.53a9.69,9.69,0,0,0,1.68-8.86,27.39,27.39,0,0,0-4.41-.48c-.36,0-.71,0-1.08,0a16.26,16.26,0,0,0-2.58.37,3,3,0,0,0-1.45,2.54,3,3,0,0,0,2.68,2.94,3.45,3.45,0,0,0,2.33-.79c-.8,3.12-4.23,3-4.33,3a3.84,3.84,0,0,1-1.63-7.32,42.54,42.54,0,0,0-8,2.83,9.69,9.69,0,0,0,3.83,7.5l.4.32-1.62.82a11.37,11.37,0,0,1-4.36-7.76,29.17,29.17,0,0,0-4.71,3c-5.42,4.41-13.64,10.29-24.06,12.89a86.4,86.4,0,0,1-1.16,10.47l5.46,13.24a40.1,40.1,0,0,0,15.12,18.28c2.87,1.88,5.66,3.64,7.34,4.56l.14.07a1.62,1.62,0,0,1,.81,1.1,1.66,1.66,0,0,1-1.32,1.89,45.37,45.37,0,0,1-7.37.84l-.86,0h-1.19a47.51,47.51,0,0,1-10.68-1.35,52.06,52.06,0,0,1-7.12-2.18l4.55,28.8a100.33,100.33,0,0,0,5.58,25.21c4.3,11.88,13,24.19,19,29.78,9.51,8.85,27.79,15.06,27.79,15.06l-1.81.9-.33-.07-.13.07-24.23-4.95a3.26,3.26,0,0,0-2.77,3.18c-.17,14.89-.86,78.15-.92,78.31-4.21,13.69-18.34,20.47-32.1,28.78-10.59,6.39-24,9.41-35.39,11.47L461.38,824.21,595.43,690.16C584.06,688.1,570.62,685.08,560,678.69Zm-93-233.89a2.16,2.16,0,0,1,1.24-.15,9.82,9.82,0,0,1,5,1.4c4.56,2.87,4.82,5.34,4.19,6.24a2.29,2.29,0,0,1-2.16.74,7.08,7.08,0,0,1-4.14-1.29,19.15,19.15,0,0,1-4.49-4.14A2,2,0,0,1,467.06,444.79ZM449.47,446a9.82,9.82,0,0,1,5-1.4,2.16,2.16,0,0,1,1.24.15,2,2,0,0,1,.38,2.8,19.15,19.15,0,0,1-4.49,4.14,7.08,7.08,0,0,1-4.14,1.29,2.29,2.29,0,0,1-2.16-.74C444.64,451.38,444.9,448.91,449.47,446Zm-27.62,57.74a3.48,3.48,0,0,1-.43-4.1c1.31-2.1,3.57-5.55,6.47-9.33,8-10.61,14.79-15.58,20.14-17.69l.13,0q.59-.23,1.15-.41l.42-.14c.44-.13.88-.25,1.29-.35l.25-.05c.45-.1.88-.17,1.3-.23h0a15.56,15.56,0,0,1,2.71-.13,12.34,12.34,0,0,1,5.64,1.23.66.66,0,0,0,.81,0,12.34,12.34,0,0,1,5.64-1.23,15.56,15.56,0,0,1,2.71.13h0c.42.06.85.13,1.3.23l.25.05c.42.1.85.21,1.29.35l.42.14q.56.18,1.15.41l.13,0c5.35,2.11,12.17,7.08,20.14,17.69,2.9,3.78,5.16,7.23,6.47,9.33a3.48,3.48,0,0,1-.43,4.1,22.49,22.49,0,0,1-9.46,5.43,34.61,34.61,0,0,1-11.8,1.76c-.77,0-1.55,0-2.35-.05-1,0-2,0-3-.06a81,81,0,0,1-11.94-.63c-.31,0-.62-.07-.94-.09s-.62,0-.94.09a81,81,0,0,1-11.94.63c-1,0-2,.05-3,.06-.8,0-1.58.05-2.35.05a34.61,34.61,0,0,1-11.8-1.76A22.49,22.49,0,0,1,421.85,503.78ZM462,810.07h0l-.31-.31-.31.31h0l-63.93-63.93.78.16-.16-.16a300.87,300.87,0,0,0,127.24,0l-.16.16.78-.16Z"/><path class="cls-1" d="M440.56,498c4.45-.79,15.14-2.59,20.46-2.59h.71c5.32,0,16,1.8,20.46,2.59a.66.66,0,0,0,.22-1,41.06,41.06,0,0,0-4.08-4.21c-4-3.49-9.91-7.34-17-7.49-7,.15-13,4-17,7.49a41.06,41.06,0,0,0-4.08,4.21A.66.66,0,0,0,440.56,498Z"/><path class="cls-1" d="M592.44,537.3c-.57,4-3.25,17-14.81,22.63-1,.83-6.08,5.16-7.74,10.15-5.53,16.6-21.41,26.42-37.73,27.85,0,9,.07,24.72.17,36.37A199.1,199.1,0,0,0,660.11,448.4c0-109.82-88.95-198.87-198.73-199-109.78.17-198.73,89.21-198.73,199A199.1,199.1,0,0,0,390.43,634.29c.1-11.66.21-27.41.17-36.37-16.32-1.43-32.2-11.25-37.73-27.85-1.66-5-6.72-9.32-7.74-10.15-11.56-5.67-14.24-18.58-14.81-22.63-13.33-9.14-13-23.64-12.6-28-4-4.7-8.18-14.8.72-25,9.1-10.4,21.17-31.71,23.84-36.49-2.77-7.65-16.83-52.28,10.4-106.5.54-1.22,7.12-15.52,23.39-30,15.32-13.62,42.49-29.9,85-30.07h.72c42.47.17,69.64,16.45,85,30.07,16.27,14.47,22.85,28.77,23.39,30,27.23,54.22,13.17,98.85,10.4,106.5,2.67,4.78,14.74,26.09,23.84,36.49,8.89,10.16,4.72,20.27.72,25C605.46,513.65,605.77,528.16,592.44,537.3Z"/><path class="cls-1" d="M369,421.81a22.86,22.86,0,0,0,9-5c-.35,0-.83,0-1.4,0-2.3,0-6.7-.43-7.91-2.52,0,.79.08,1.73.12,2.45Q369,419.27,369,421.81Z"/><path class="cls-1" d="M818.68,424.87,461.38,67.57l-357.3,357.3-21,21,16.05,16.05L323.79,686.62c3.74-.65,7.74-1.39,11.82-2.32L192.69,541.38h0l-1-1a285.76,285.76,0,0,1,2.82-191.88l1-1h0L360.82,182.27h0l.38-.38a282.93,282.93,0,0,1,99.86-18h.63a282.93,282.93,0,0,1,99.86,18l.38.38h0L727.19,347.53h0l1,1A285.76,285.76,0,0,1,731,540.42l-1,1h0L587.14,684.3c4.07.93,8.08,1.68,11.82,2.32L823.64,461.94l16.05-16.05Zm-654.1,87.77-.78-.78c.05.26.1.52.16.78L97.2,445.89l68.22-68.22-.19.81.81-.81a306.39,306.39,0,0,0-1.46,135ZM531.8,152.13a301.27,301.27,0,0,0-140.22,0l.19-.19-.81.19,70.42-70.42h0l.31.31.31-.31h0l70.42,70.42-.81-.19ZM759.42,512.65c.06-.26.1-.52.16-.78l-.78.78a306.4,306.4,0,0,0-1.46-135l.81.81-.19-.81,68.22,68.22Z"/><path class="cls-1" d="M831.67,379.36V75.59H527.91L461,8.69,394.09,75.59h-303v303l-67,67,67,67V816.19H394.61L461,882.57l66.39-66.39H831.67V511.9l66.27-66.27Zm-86-217.76V293.36L613.91,161.59Zm-568.59,0h131l-131,131Zm0,568.59V598.65L308.61,730.19Zm568.59,0H613.39L745.67,597.9ZM461.38,866.64h0L40.63,445.89,461.37,25.15h0L882.12,445.89Z"/><path class="cls-1" d="M544.72,416.78a22.86,22.86,0,0,0,9,5q0-2.54.17-5.09c0-.71.08-1.47.11-2.25-1.21,2.08-5.6,2.34-7.9,2.32C545.55,416.8,545.07,416.8,544.72,416.78Z"/></g></svg>