<?xml version="1.0" encoding="UTF-8" standalone="no"?>
<!-- Created with Inkscape (http://www.inkscape.org/) -->

<svg
   xmlns:dc="http://purl.org/dc/elements/1.1/"
   xmlns:cc="http://creativecommons.org/ns#"
   xmlns:rdf="http://www.w3.org/1999/02/22-rdf-syntax-ns#"
   xmlns:svg="http://www.w3.org/2000/svg"
   xmlns="http://www.w3.org/2000/svg"
   xmlns:sodipodi="http://sodipodi.sourceforge.net/DTD/sodipodi-0.dtd"
   xmlns:inkscape="http://www.inkscape.org/namespaces/inkscape"
   version="1.1"
   id="svg2"
   xml:space="preserve"
   width="2560"
   height="1440"
   viewBox="0 0 2560 1440"
   sodipodi:docname="studiogobo-logo.svg"
   inkscape:version="0.92.1 r15371"><metadata
     id="metadata8"><rdf:RDF><cc:Work
         rdf:about=""><dc:format>image/svg+xml</dc:format><dc:type
           rdf:resource="http://purl.org/dc/dcmitype/StillImage" /><dc:title></dc:title></cc:Work></rdf:RDF></metadata><defs
     id="defs6"><clipPath
       clipPathUnits="userSpaceOnUse"
       id="clipPath18"><path
         d="M 0,1080 H 1920 V 0 H 0 Z"
         id="path16"
         inkscape:connector-curvature="0" /></clipPath></defs><sodipodi:namedview
     pagecolor="#ffffff"
     bordercolor="#666666"
     borderopacity="1"
     objecttolerance="10"
     gridtolerance="10"
     guidetolerance="10"
     inkscape:pageopacity="0"
     inkscape:pageshadow="2"
     inkscape:window-width="3000"
     inkscape:window-height="1875"
     id="namedview4"
     showgrid="false"
     inkscape:zoom="0.32777778"
     inkscape:cx="1041.2402"
     inkscape:cy="615.07847"
     inkscape:window-x="-13"
     inkscape:window-y="-13"
     inkscape:window-maximized="1"
     inkscape:current-layer="g10" /><g
     id="g10"
     inkscape:groupmode="layer"
     inkscape:label="StudioGobo_Logo_RedOnWhite"
     transform="matrix(1.3333333,0,0,-1.3333333,0,1440)"><g
       id="g12"><g
         id="g14"
         clip-path="url(#clipPath18)"><g
           id="g20"
           transform="translate(162.9614,567.8242)"><path
             d="m 0,0 -13.898,-11.183 c -3.685,3.81 -7.022,6.65 -10.016,8.52 -2.991,1.871 -7.311,2.8 -12.957,2.788 -6.173,-0.011 -11.18,-1.414 -15.017,-4.21 -3.834,-2.801 -5.747,-6.397 -5.739,-10.792 0.009,-3.807 1.69,-7.166 5.053,-10.078 3.357,-2.912 9.085,-6.098 17.17,-9.556 8.088,-3.454 14.385,-6.673 18.892,-9.658 4.508,-2.981 8.208,-6.279 11.106,-9.891 2.899,-3.612 5.056,-7.421 6.477,-11.426 1.422,-4.012 2.137,-8.255 2.144,-12.722 0.022,-10.462 -3.759,-19.382 -11.348,-26.76 -7.589,-7.381 -16.778,-11.084 -27.574,-11.106 -10.53,-0.021 -19.835,2.843 -27.907,8.585 -8.072,5.745 -14.294,14.367 -18.659,25.881 l 17.168,4.871 c 6.279,-14.14 15.87,-21.198 28.772,-21.171 6.25,0.012 11.446,1.891 15.587,5.641 4.139,3.747 6.201,8.476 6.19,14.187 -0.007,3.41 -1.101,6.838 -3.28,10.281 -2.182,3.439 -4.887,6.27 -8.12,8.495 -3.234,2.227 -8.375,4.776 -15.42,7.649 -7.051,2.874 -12.476,5.509 -16.278,7.902 -3.803,2.392 -7.095,5.247 -9.876,8.561 -2.781,3.318 -4.818,6.618 -6.111,9.904 -1.297,3.285 -1.948,6.805 -1.955,10.552 -0.018,9.01 3.587,16.694 10.816,23.056 7.226,6.363 16.006,9.553 26.341,9.574 6.844,0.013 13.792,-1.452 20.838,-4.402 C -10.552,10.545 -4.686,6.047 0,0"
             style="fill:#f2f2f2;fill-opacity:1;fill-rule:nonzero;stroke:none"
             id="path22"
             inkscape:connector-curvature="0" /></g><g
           id="g24"
           transform="translate(240.1782,581.999)"><path
             d="m 0,0 76.907,0.154 0.033,-17.179 -30.012,-0.06 0.217,-108.601 -16.981,-0.034 -0.216,108.601 -29.913,-0.06 z"
             style="fill:#f2f2f2;fill-opacity:1;fill-rule:nonzero;stroke:none"
             id="path26"
             inkscape:connector-curvature="0" /></g><g
           id="g28"
           transform="translate(396.502,582.1108)"><path
             d="m 0,0 17.178,0.033 0.153,-77.3 c 0.024,-11.449 2.787,-20.303 8.298,-26.541 5.507,-6.243 13.298,-9.352 23.367,-9.33 10.002,0.018 17.781,2.91 23.33,8.68 5.551,5.77 8.316,13.89 8.296,24.353 l -0.16,80.264 17.179,0.035 0.157,-79.076 c 0.031,-15.404 -4.339,-27.724 -13.107,-36.953 -8.77,-9.236 -20.459,-13.865 -35.071,-13.892 -14.94,-0.031 -26.91,4.621 -35.914,13.949 -9.003,9.326 -13.523,23.108 -13.559,41.339 z"
             style="fill:#f2f2f2;fill-opacity:1;fill-rule:nonzero;stroke:none"
             id="path30"
             inkscape:connector-curvature="0" /></g><g
           id="g32"
           transform="translate(597.2856,565.9238)"><path
             d="m 0,0 0.183,-92.014 0.986,0.002 c 12.769,0.027 22.377,0.623 28.826,1.785 6.446,1.164 12.563,3.693 18.348,7.588 5.784,3.896 10.379,9.056 13.792,15.479 3.406,6.424 5.105,13.487 5.09,21.187 -0.019,9.677 -2.769,18.422 -8.247,26.244 -5.479,7.823 -12.02,13.075 -19.627,15.759 -7.608,2.683 -17.829,4.012 -30.663,3.987 z m -17.213,16.75 30.507,0.062 c 24.156,0.046 42.135,-6.305 53.944,-19.049 11.806,-12.746 17.725,-27.311 17.757,-43.701 0.034,-16.521 -6.026,-31.142 -18.176,-43.87 -12.152,-12.727 -29.845,-19.114 -53.078,-19.16 l -30.703,-0.06 z"
             style="fill:#f2f2f2;fill-opacity:1;fill-rule:nonzero;stroke:none"
             id="path34"
             inkscape:connector-curvature="0" /></g><g
           id="g36"
           transform="translate(762.3618,583.0356)"><path
             d="m 0,0 16.982,0.034 0.249,-125.779 -16.982,-0.034 z"
             style="fill:#f2f2f2;fill-opacity:1;fill-rule:nonzero;stroke:none"
             id="path38"
             inkscape:connector-curvature="0" /></g><g
           id="g40"
           transform="translate(982.9824,520.5332)"><path
             d="m 0,0 c -0.028,13.878 -5.052,25.553 -15.077,35.031 -10.024,9.483 -22.338,14.21 -36.95,14.18 -13.888,-0.026 -25.774,-4.879 -35.662,-14.568 -9.886,-9.687 -14.815,-21.299 -14.788,-34.848 0.027,-13.739 5.135,-25.352 15.322,-34.836 10.189,-9.477 22.653,-14.205 37.396,-14.175 13.558,0.028 25.248,4.901 35.069,14.619 C -4.87,-24.876 0.024,-13.346 0,0 m -120.448,0.553 c -0.036,18.15 6.778,33.718 20.443,46.7 13.662,12.986 30.104,19.496 49.325,19.535 18.759,0.036 34.93,-6.461 48.512,-19.486 C 11.416,34.274 18.229,18.779 18.266,0.827 18.303,-18.18 11.635,-34.258 -1.73,-47.408 -15.1,-60.556 -31.524,-67.147 -51.007,-67.187 c -19.219,-0.038 -35.588,6.54 -49.108,19.734 -13.515,13.196 -20.296,29.193 -20.333,48.006"
             style="fill:#f2f2f2;fill-opacity:1;fill-rule:nonzero;stroke:none"
             id="path42"
             inkscape:connector-curvature="0" /></g><g
           id="g44"
           transform="translate(1818.0059,463.5449)"><path
             d="m 0,0 c -40.245,-66.508 -137.136,-73.725 -186.677,-13.559 -32.327,-39.746 -88.842,-53.396 -135.657,-32.519 -41.334,18.427 -68.49,60.655 -67.956,105.889 l -0.068,-0.047 0.155,1.978 c 0.106,4.398 0.489,8.704 1.078,12.961 l 16.468,195.044 c 30.186,-5.19 51.487,-31.94 50.573,-58.644 -0.848,-24.816 -1.486,-29.029 -2.572,-48.85 47.003,22.306 104.423,9.397 137.485,-30.729 20.946,25.775 52.838,42.295 88.631,42.415 12.014,0.044 24.03,-1.797 35.479,-5.457 39.854,-12.803 67.206,-46.006 76.069,-83.761 -13.435,204.502 -183.897,365.9 -391.65,365.202 -206.676,-0.692 -375.384,-161.54 -388.995,-364.625 2.765,11.437 7.383,22.629 14.011,33.155 41.284,65.521 137.719,71.258 186.397,10.772 20.915,26.35 53.144,43.334 89.408,43.453 9.23,0.042 18.485,-1.045 27.464,-3.215 24.8,-6.029 45.411,-20.048 60.409,-38.388 l -4.971,-59.281 c -0.589,-4.238 -0.974,-8.544 -1.078,-12.94 l -0.158,-1.978 0.067,0.043 c -0.232,-21.083 5.585,-41.462 15.983,-59.122 -38.699,-62.249 -129.429,-72.88 -180.809,-18.197 -5.418,-42.572 -27.825,-83.055 -68.486,-100.402 -19.313,-8.257 -41.646,-12.237 -62.662,-10.693 l -8.981,46.045 30.248,0.471 c 30.761,3.538 47.583,25.07 53.74,34.866 -24.554,-9.028 -51.764,-9.446 -76.536,-1.003 -38.788,13.235 -65.241,45.804 -74.013,82.744 13.951,-203.988 184.187,-364.789 391.558,-364.117 206.366,0.706 374.875,161.052 388.954,363.688 C 10.286,20.476 6.031,9.961 0,0"
             style="fill:#f2f2f2;fill-opacity:1;fill-rule:nonzero;stroke:none"
             id="path46"
             inkscape:connector-curvature="0" /></g><g
           id="g48"
           transform="translate(1163.8857,457.6465)"><path
             d="m 0,0 c 29.312,1.091 54.668,23.102 59.904,51.977 3.277,13.264 5.551,26.803 9.161,39.976 6.961,25.336 16.205,40.982 16.205,40.982 L 51.702,96.176 C 35.144,123.397 -0.215,134.283 -29.155,120.806 -56.241,108.163 -71.054,77.336 -63.988,48.3 -56.956,19.356 -29.715,-1.145 0,0"
             style="fill:#f2f2f2;fill-opacity:1;fill-rule:nonzero;stroke:none"
             id="path50"
             inkscape:connector-curvature="0" /></g><g
           id="g52"
           transform="translate(1515.5596,579.7187)"><path
             d="m 0,0 c -27.091,-12.625 -41.923,-43.452 -34.843,-72.508 7.031,-28.922 34.279,-49.424 64.017,-48.304 30.105,1.144 55.828,24.326 60.164,54.119 6.686,29.063 5.447,26.207 8.65,37.859 6.947,25.312 16.212,40.958 16.212,40.958 L 80.785,-24.449 C 64.213,2.704 28.862,13.452 0,0"
             style="fill:#f2f2f2;fill-opacity:1;fill-rule:nonzero;stroke:none"
             id="path54"
             inkscape:connector-curvature="0" /></g><g
           id="g56"
           transform="translate(1340.7656,458.2051)"><path
             d="M 0,0 C 51.585,0.146 81.568,61.502 49.838,102.254 18.524,142.47 -47.374,129.655 -61.157,80.53 -65.903,66.275 -67.658,51.193 -71.496,36.683 -75.473,21.578 -80.712,6.284 -88.521,-7.337 l 34.347,37.613 C -42.984,12.065 -22.924,-0.095 0,0"
             style="fill:#f2f2f2;fill-opacity:1;fill-rule:nonzero;stroke:none"
             id="path58"
             inkscape:connector-curvature="0" /></g><g
           id="g60"
           transform="translate(1657.2744,532.1885)"><path
             d="m 0,0 c -6.187,-26.807 -10.897,-54.205 -24.752,-78.446 l 33.141,36.315 c 11.133,-18.391 31.319,-30.688 54.408,-30.598 53.4,0.179 82.687,65.377 47.229,105.383 C 75.055,72.104 7.743,52.196 0,0"
             style="fill:#f2f2f2;fill-opacity:1;fill-rule:nonzero;stroke:none"
             id="path62"
             inkscape:connector-curvature="0" /></g></g></g></g></svg>