<?xml version="1.0" encoding="utf-8"?>
<!-- Generator: Adobe Illustrator 21.0.2, SVG Export Plug-In . SVG Version: 6.00 Build 0)  -->
<svg version="1.1"
	 id="svg2" inkscape:version="0.92.1 r15371" sodipodi:docname="studiogobo-logo.svg" xmlns:cc="http://creativecommons.org/ns#" xmlns:dc="http://purl.org/dc/elements/1.1/" xmlns:inkscape="http://www.inkscape.org/namespaces/inkscape" xmlns:rdf="http://www.w3.org/1999/02/22-rdf-syntax-ns#" xmlns:sodipodi="http://sodipodi.sourceforge.net/DTD/sodipodi-0.dtd" xmlns:svg="http://www.w3.org/2000/svg"
	 xmlns="http://www.w3.org/2000/svg" xmlns:xlink="http://www.w3.org/1999/xlink" x="0px" y="0px" viewBox="0 0 2560 1440"
	 style="enable-background:new 0 0 2560 1440;" xml:space="preserve">
<style type="text/css">
	.st0{clip-path:url(#SVGID_2_);}
	.st1{fill:#EDD7FB;}
</style>
<sodipodi:namedview  bordercolor="#666666" borderopacity="1" gridtolerance="10" guidetolerance="10" id="namedview4" inkscape:current-layer="g10" inkscape:cx="1041.2402" inkscape:cy="615.07847" inkscape:pageopacity="0" inkscape:pageshadow="2" inkscape:window-height="1875" inkscape:window-maximized="1" inkscape:window-width="3000" inkscape:window-x="-13" inkscape:window-y="-13" inkscape:zoom="0.32777778" objecttolerance="10" pagecolor="#ffffff" showgrid="false">
	</sodipodi:namedview>
<g id="g10" transform="matrix(1.3333333,0,0,-1.3333333,0,1440)" inkscape:groupmode="layer" inkscape:label="StudioGobo_Logo_RedOnWhite">
	<g id="g12">
		<g>
			<defs>
				<rect id="SVGID_1_" x="-320" y="-180" width="2560" height="1440"/>
			</defs>
			<clipPath id="SVGID_2_">
				<use xlink:href="#SVGID_1_"  style="overflow:visible;"/>
			</clipPath>
			<g id="g14" class="st0">
				<g id="g20" transform="translate(162.9614,567.8242)">
					<path id="path22" inkscape:connector-curvature="0" class="st1" d="M0,0l-13.9-11.2c-3.7,3.8-7,6.7-10,8.5
						c-3,1.9-7.3,2.8-13,2.8c-6.2,0-11.2-1.4-15-4.2c-3.8-2.8-5.7-6.4-5.7-10.8c0-3.8,1.7-7.2,5.1-10.1c3.4-2.9,9.1-6.1,17.2-9.6
						c8.1-3.5,14.4-6.7,18.9-9.7c4.5-3,8.2-6.3,11.1-9.9c2.9-3.6,5.1-7.4,6.5-11.4c1.4-4,2.1-8.3,2.1-12.7
						c0-10.5-3.8-19.4-11.3-26.8c-7.6-7.4-16.8-11.1-27.6-11.1c-10.5,0-19.8,2.8-27.9,8.6c-8.1,5.7-14.3,14.4-18.7,25.9l17.2,4.9
						c6.3-14.1,15.9-21.2,28.8-21.2c6.3,0,11.4,1.9,15.6,5.6c4.1,3.7,6.2,8.5,6.2,14.2c0,3.4-1.1,6.8-3.3,10.3
						c-2.2,3.4-4.9,6.3-8.1,8.5c-3.2,2.2-8.4,4.8-15.4,7.6c-7.1,2.9-12.5,5.5-16.3,7.9c-3.8,2.4-7.1,5.2-9.9,8.6
						c-2.8,3.3-4.8,6.6-6.1,9.9c-1.3,3.3-1.9,6.8-2,10.6c0,9,3.6,16.7,10.8,23.1c7.2,6.4,16,9.6,26.3,9.6c6.8,0,13.8-1.5,20.8-4.4
						C-10.6,10.5-4.7,6,0,0"/>
				</g>
				<g id="g24" transform="translate(240.1782,581.999)">
					<path id="path26" inkscape:connector-curvature="0" class="st1" d="M0,0l76.9,0.2l0-17.2l-30-0.1l0.2-108.6l-17,0L29.9-17.1
						L0-17.2L0,0z"/>
				</g>
				<g id="g28" transform="translate(396.502,582.1108)">
					<path id="path30" inkscape:connector-curvature="0" class="st1" d="M0,0l17.2,0l0.2-77.3c0-11.4,2.8-20.3,8.3-26.5
						c5.5-6.2,13.3-9.4,23.4-9.3c10,0,17.8,2.9,23.3,8.7c5.6,5.8,8.3,13.9,8.3,24.4L80.5,0.2l17.2,0l0.2-79.1
						c0-15.4-4.3-27.7-13.1-37c-8.8-9.2-20.5-13.9-35.1-13.9c-14.9,0-26.9,4.6-35.9,13.9c-9,9.3-13.5,23.1-13.6,41.3L0,0z"/>
				</g>
				<g id="g32" transform="translate(597.2856,565.9238)">
					<path id="path34" inkscape:connector-curvature="0" class="st1" d="M0,0l0.2-92l1,0c12.8,0,22.4,0.6,28.8,1.8
						c6.4,1.2,12.6,3.7,18.3,7.6c5.8,3.9,10.4,9.1,13.8,15.5c3.4,6.4,5.1,13.5,5.1,21.2c0,9.7-2.8,18.4-8.2,26.2
						C53.5-11.9,47-6.7,39.4-4C31.7-1.3,21.5,0,8.7,0L0,0z M-17.2,16.8l30.5,0.1c24.2,0,42.1-6.3,53.9-19C79-15,85-29.5,85-45.9
						c0-16.5-6-31.1-18.2-43.9C54.7-102.5,37-108.9,13.7-109L-17-109L-17.2,16.8z"/>
				</g>
				<g id="g36" transform="translate(762.3618,583.0356)">
					<path id="path38" inkscape:connector-curvature="0" class="st1" d="M0,0l17,0l0.2-125.8l-17,0L0,0z"/>
				</g>
				<g id="g40" transform="translate(982.9824,520.5332)">
					<path id="path42" inkscape:connector-curvature="0" class="st1" d="M0,0c0,13.9-5.1,25.6-15.1,35c-10,9.5-22.3,14.2-37,14.2
						c-13.9,0-25.8-4.9-35.7-14.6c-9.9-9.7-14.8-21.3-14.8-34.8c0-13.7,5.1-25.4,15.3-34.8c10.2-9.5,22.7-14.2,37.4-14.2
						c13.6,0,25.2,4.9,35.1,14.6C-4.9-24.9,0-13.3,0,0 M-120.4,0.6c0,18.2,6.8,33.7,20.4,46.7c13.7,13,30.1,19.5,49.3,19.5
						c18.8,0,34.9-6.5,48.5-19.5c13.6-13,20.4-28.5,20.4-46.5c0-19-6.6-35.1-20-48.2C-15.1-60.6-31.5-67.1-51-67.2
						c-19.2,0-35.6,6.5-49.1,19.7C-113.6-34.3-120.4-18.3-120.4,0.6"/>
				</g>
				<g id="g44" transform="translate(1818.0059,463.5449)">
					<path id="path46" inkscape:connector-curvature="0" class="st1" d="M0,0c-40.2-66.5-137.1-73.7-186.7-13.6
						C-219-53.3-275.5-67-322.3-46.1c-41.3,18.4-68.5,60.7-68,105.9l-0.1,0l0.2,2c0.1,4.4,0.5,8.7,1.1,13l16.5,195
						c30.2-5.2,51.5-31.9,50.6-58.6c-0.8-24.8-1.5-29-2.6-48.8c47,22.3,104.4,9.4,137.5-30.7c20.9,25.8,52.8,42.3,88.6,42.4
						c12,0,24-1.8,35.5-5.5c39.9-12.8,67.2-46,76.1-83.8C-0.4,289.2-170.9,450.6-378.6,449.9c-206.7-0.7-375.4-161.5-389-364.6
						c2.8,11.4,7.4,22.6,14,33.2c41.3,65.5,137.7,71.3,186.4,10.8c20.9,26.4,53.1,43.3,89.4,43.5c9.2,0,18.5-1,27.5-3.2
						c24.8-6,45.4-20,60.4-38.4l-5-59.3c-0.6-4.2-1-8.5-1.1-12.9l-0.2-2l0.1,0c-0.2-21.1,5.6-41.5,16-59.1
						c-38.7-62.2-129.4-72.9-180.8-18.2c-5.4-42.6-27.8-83.1-68.5-100.4c-19.3-8.3-41.6-12.2-62.7-10.7l-9,46l30.2,0.5
						c30.8,3.5,47.6,25.1,53.7,34.9c-24.6-9-51.8-9.4-76.5-1c-38.8,13.2-65.2,45.8-74,82.7c14-204,184.2-364.8,391.6-364.1
						c206.4,0.7,374.9,161.1,389,363.7C10.3,20.5,6,10,0,0"/>
				</g>
				<g id="g48" transform="translate(1163.8857,457.6465)">
					<path id="path50" inkscape:connector-curvature="0" class="st1" d="M0,0c29.3,1.1,54.7,23.1,59.9,52c3.3,13.3,5.6,26.8,9.2,40
						c7,25.3,16.2,41,16.2,41L51.7,96.2c-16.6,27.2-51.9,38.1-80.9,24.6C-56.2,108.2-71.1,77.3-64,48.3C-57,19.4-29.7-1.1,0,0"/>
				</g>
				<g id="g52" transform="translate(1515.5596,579.7187)">
					<path id="path54" inkscape:connector-curvature="0" class="st1" d="M0,0c-27.1-12.6-41.9-43.5-34.8-72.5
						c7-28.9,34.3-49.4,64-48.3c30.1,1.1,55.8,24.3,60.2,54.1C96-37.6,94.8-40.5,98-28.8c6.9,25.3,16.2,41,16.2,41L80.8-24.4
						C64.2,2.7,28.9,13.5,0,0"/>
				</g>
				<g id="g56" transform="translate(1340.7656,458.2051)">
					<path id="path58" inkscape:connector-curvature="0" class="st1" d="M0,0c51.6,0.1,81.6,61.5,49.8,102.3
						c-31.3,40.2-97.2,27.4-111-21.7c-4.7-14.3-6.5-29.3-10.3-43.8c-4-15.1-9.2-30.4-17-44l34.3,37.6C-43,12.1-22.9-0.1,0,0"/>
				</g>
				<g id="g60" transform="translate(1657.2744,532.1885)">
					<path id="path62" inkscape:connector-curvature="0" class="st1" d="M0,0c-6.2-26.8-10.9-54.2-24.8-78.4L8.4-42.1
						c11.1-18.4,31.3-30.7,54.4-30.6c53.4,0.2,82.7,65.4,47.2,105.4C75.1,72.1,7.7,52.2,0,0"/>
				</g>
			</g>
		</g>
	</g>
</g>
</svg>
