<svg id="Layer_1" data-name="Layer 1" xmlns="http://www.w3.org/2000/svg" viewBox="0 0 1610 1080"><defs><style>.cls-1{fill:#fff;}.cls-2{opacity:0;}.cls-10,.cls-3{fill:none;stroke:#fff;stroke-miterlimit:10;}.cls-3{stroke-width:10px;}.cls-4{fill:#7bd149;}.cls-5{fill:#f15a24;}.cls-6{fill:#4769ff;}.cls-7{fill:#94602e;}.cls-8{fill:#bb7aff;}.cls-9{opacity:0.5;}.cls-10{stroke-width:2px;}</style></defs><title>git-foreground</title><path class="cls-1" d="M504.1045,524.9082v4.4189H495.47v23.6768H490.32V529.3271h-8.6348v-4.4189Z"/><path class="cls-1" d="M541.24,538.9355a17.4587,17.4587,0,0,1-1.0742,6.3652,13.1725,13.1725,0,0,1-2.9189,4.6016,12.0422,12.0422,0,0,1-4.3174,2.7764,14.81,14.81,0,0,1-5.2705.9326,14.97,14.97,0,0,1-5.291-.9326,11.9975,11.9975,0,0,1-4.3379-2.7764,13.3822,13.3822,0,0,1-2.9395-4.6016,18.9929,18.9929,0,0,1,0-12.71,13.3372,13.3372,0,0,1,2.98-4.6016,12.31,12.31,0,0,1,4.3574-2.7974,15.1308,15.1308,0,0,1,10.46,0,11.93,11.93,0,0,1,4.3184,2.7974,13.6554,13.6554,0,0,1,2.9385,4.6016A16.9877,16.9877,0,0,1,541.24,538.9355Zm-21.9326,0a14.5081,14.5081,0,0,0,.5674,4.1963,9.1906,9.1906,0,0,0,1.6416,3.2021,7.4325,7.4325,0,0,0,2.6152,2.0479,8.051,8.051,0,0,0,3.4863.7295,7.9538,7.9538,0,0,0,3.4463-.7295,7.4412,7.4412,0,0,0,2.6152-2.0479,9.2071,9.2071,0,0,0,1.6416-3.2021,15.8013,15.8013,0,0,0,0-8.3926,9.2138,9.2138,0,0,0-1.6416-3.2026,7.451,7.451,0,0,0-2.6152-2.0474,7.954,7.954,0,0,0-3.4463-.73,8.0511,8.0511,0,0,0-3.4863.73,7.3436,7.3436,0,0,0-2.6152,2.0674,9.4472,9.4472,0,0,0-1.6416,3.2031A14.2988,14.2988,0,0,0,519.3076,538.9355Z"/><path class="cls-1" d="M581.0527,538.9355a17.4587,17.4587,0,0,1-1.0742,6.3652,13.1725,13.1725,0,0,1-2.9189,4.6016,12.0422,12.0422,0,0,1-4.3174,2.7764,14.81,14.81,0,0,1-5.2705.9326,14.97,14.97,0,0,1-5.291-.9326,11.9975,11.9975,0,0,1-4.3379-2.7764,13.3822,13.3822,0,0,1-2.9395-4.6016,18.9929,18.9929,0,0,1,0-12.71,13.3372,13.3372,0,0,1,2.98-4.6016,12.31,12.31,0,0,1,4.3574-2.7974,15.1308,15.1308,0,0,1,10.46,0,11.93,11.93,0,0,1,4.3184,2.7974,13.6554,13.6554,0,0,1,2.9385,4.6016A16.9877,16.9877,0,0,1,581.0527,538.9355Zm-21.9326,0a14.5081,14.5081,0,0,0,.5674,4.1963,9.1906,9.1906,0,0,0,1.6416,3.2021,7.4325,7.4325,0,0,0,2.6152,2.0479,8.051,8.051,0,0,0,3.4863.7295,7.9538,7.9538,0,0,0,3.4463-.7295,7.4412,7.4412,0,0,0,2.6152-2.0479,9.2071,9.2071,0,0,0,1.6416-3.2021,15.8013,15.8013,0,0,0,0-8.3926,9.2138,9.2138,0,0,0-1.6416-3.2026,7.451,7.451,0,0,0-2.6152-2.0474,7.954,7.954,0,0,0-3.4463-.73,8.0511,8.0511,0,0,0-3.4863.73,7.3436,7.3436,0,0,0-2.6152,2.0674,9.4472,9.4472,0,0,0-1.6416,3.2031A14.2988,14.2988,0,0,0,559.12,538.9355Z"/><path class="cls-1" d="M612.5127,548.584v4.42H594.7559V524.9082h5.1084V548.584Z"/><path class="cls-1" d="M631.7705,549.1924a6.8073,6.8073,0,0,0,4.0137-.9326,3.0877,3.0877,0,0,0,1.2568-2.6348,3.396,3.396,0,0,0-.4258-1.7432,4.4511,4.4511,0,0,0-1.2158-1.3184,10.2965,10.2965,0,0,0-1.9258-1.0937q-1.1353-.5068-2.5947-.9937-1.459-.5266-2.8174-1.1558a9.4631,9.4631,0,0,1-2.3926-1.5605,7.18,7.18,0,0,1-1.6621-2.23,7.1038,7.1038,0,0,1-.6279-3.1216,7.325,7.325,0,0,1,2.6348-5.98,10.9616,10.9616,0,0,1,7.1758-2.1689,17.009,17.009,0,0,1,4.6826.5879,14.4024,14.4024,0,0,1,3.2236,1.2769l-1.5811,4.1353a12.163,12.163,0,0,0-3.0205-1.1753,14.0882,14.0882,0,0,0-3.3857-.4058,5.3417,5.3417,0,0,0-3.2227.8516,2.7986,2.7986,0,0,0-1.1553,2.3921,3.1537,3.1537,0,0,0,.3848,1.6011,3.9465,3.9465,0,0,0,1.0947,1.1963,9.5469,9.5469,0,0,0,1.6621.9727q.9521.4468,2.0879.8516,1.9863.7295,3.5479,1.48a10.03,10.03,0,0,1,2.6348,1.7837,6.9841,6.9841,0,0,1,1.6416,2.4321,8.9977,8.9977,0,0,1,.5684,3.3857,7.0272,7.0272,0,0,1-2.6963,5.8984q-2.6968,2.0889-7.8857,2.0879a20.899,20.899,0,0,1-3.1826-.2227,20.4124,20.4124,0,0,1-2.5537-.5479,17.077,17.077,0,0,1-1.9258-.6689,11.6467,11.6467,0,0,1-1.2979-.6279l1.5-4.1758a17.3426,17.3426,0,0,0,2.96,1.2158A14.5877,14.5877,0,0,0,631.7705,549.1924Z"/><path class="cls-1" d="M672.4736,553.0039V524.9082H690.23v4.3379H677.582v7.1758h11.2295V540.76H677.582v12.2441Z"/><path class="cls-1" d="M728.583,538.9355a17.4587,17.4587,0,0,1-1.0742,6.3652,13.1725,13.1725,0,0,1-2.9189,4.6016,12.0422,12.0422,0,0,1-4.3174,2.7764,14.81,14.81,0,0,1-5.2705.9326,14.97,14.97,0,0,1-5.291-.9326,11.9975,11.9975,0,0,1-4.3379-2.7764,13.3822,13.3822,0,0,1-2.9395-4.6016,18.9929,18.9929,0,0,1,0-12.71,13.3372,13.3372,0,0,1,2.98-4.6016,12.31,12.31,0,0,1,4.3574-2.7974,15.1308,15.1308,0,0,1,10.46,0,11.93,11.93,0,0,1,4.3184,2.7974,13.6554,13.6554,0,0,1,2.9385,4.6016A16.9877,16.9877,0,0,1,728.583,538.9355Zm-21.9326,0a14.5081,14.5081,0,0,0,.5674,4.1963,9.1906,9.1906,0,0,0,1.6416,3.2021,7.4325,7.4325,0,0,0,2.6152,2.0479,8.051,8.051,0,0,0,3.4863.7295,7.9538,7.9538,0,0,0,3.4463-.7295,7.4412,7.4412,0,0,0,2.6152-2.0479,9.2071,9.2071,0,0,0,1.6416-3.2021,15.8013,15.8013,0,0,0,0-8.3926,9.2138,9.2138,0,0,0-1.6416-3.2026,7.451,7.451,0,0,0-2.6152-2.0474,7.954,7.954,0,0,0-3.4463-.73,8.0511,8.0511,0,0,0-3.4863.73,7.3436,7.3436,0,0,0-2.6152,2.0674,9.4472,9.4472,0,0,0-1.6416,3.2031A14.2988,14.2988,0,0,0,706.65,538.9355Z"/><path class="cls-1" d="M750.0293,524.624q6.082,0,9.3047,2.23a7.7187,7.7187,0,0,1,3.2227,6.811q0,5.7166-5.6348,7.7432.769.9331,1.7432,2.2705t1.9863,2.8984q1.0122,1.5615,1.9463,3.2031.9316,1.6421,1.6621,3.2236H758.543q-.7705-1.46-1.6621-2.9395t-1.8037-2.8789q-.9126-1.3989-1.8047-2.6348t-1.6621-2.21q-.5684.041-.9727.041h-3.2432v10.6221h-5.1084v-27.69a27.4481,27.4481,0,0,1,3.9727-.5474Q748.3667,524.6248,750.0293,524.624Zm.3652,4.4189q-1.623,0-3,.1221v9.0811h2.2295a23.4081,23.4081,0,0,0,3.2842-.2026,6.8941,6.8941,0,0,0,2.3711-.7295,3.5486,3.5486,0,0,0,1.4395-1.4194,4.7071,4.7071,0,0,0,.4863-2.27,4.5242,4.5242,0,0,0-.4863-2.1895,3.6254,3.6254,0,0,0-1.3984-1.4189,6.641,6.641,0,0,0-2.1689-.75A15.8954,15.8954,0,0,0,750.3945,529.043Z"/><path class="cls-1" d="M801.8418,524.624q6.12,0,9.3848,2.23t3.2637,6.9731a9.491,9.491,0,0,1-.8711,4.2368,7.33,7.33,0,0,1-2.5342,2.8784,11.7477,11.7477,0,0,1-4.0537,1.6416,25.581,25.581,0,0,1-5.4736.5273h-2.5537v9.8926h-5.1084v-27.69a25.4554,25.4554,0,0,1,3.9521-.5474Q800.0171,524.6248,801.8418,524.624Zm.3643,4.4189q-1.9453,0-3.2021.1221v9.5679h2.4727a12.5445,12.5445,0,0,0,5.6758-1.0342q1.9863-1.0334,1.9863-3.9121a4.65,4.65,0,0,0-.5264-2.311,3.7981,3.7981,0,0,0-1.46-1.4595,6.8821,6.8821,0,0,0-2.209-.75A15.9908,15.9908,0,0,0,802.2061,529.043Z"/><path class="cls-1" d="M834.9639,524.624q6.082,0,9.3047,2.23a7.7187,7.7187,0,0,1,3.2227,6.811q0,5.7166-5.6348,7.7432.769.9331,1.7432,2.2705t1.9863,2.8984q1.0122,1.5615,1.9463,3.2031.9316,1.6421,1.6621,3.2236h-5.7168q-.7705-1.46-1.6621-2.9395t-1.8037-2.8789q-.9126-1.3989-1.8047-2.6348t-1.6621-2.21q-.5684.041-.9727.041h-3.2432v10.6221h-5.1084v-27.69a27.4481,27.4481,0,0,1,3.9727-.5474Q833.3013,524.6248,834.9639,524.624Zm.3652,4.4189q-1.623,0-3,.1221v9.0811h2.2295a23.4081,23.4081,0,0,0,3.2842-.2026,6.8941,6.8941,0,0,0,2.3711-.7295,3.5486,3.5486,0,0,0,1.4395-1.4194,4.7071,4.7071,0,0,0,.4863-2.27,4.5242,4.5242,0,0,0-.4863-2.1895,3.6254,3.6254,0,0,0-1.3984-1.4189,6.641,6.641,0,0,0-2.1689-.75A15.8954,15.8954,0,0,0,835.3291,529.043Z"/><path class="cls-1" d="M887.0186,538.9355a17.4587,17.4587,0,0,1-1.0742,6.3652,13.1725,13.1725,0,0,1-2.9189,4.6016,12.0422,12.0422,0,0,1-4.3174,2.7764,14.81,14.81,0,0,1-5.2705.9326,14.97,14.97,0,0,1-5.291-.9326,11.9975,11.9975,0,0,1-4.3379-2.7764,13.3822,13.3822,0,0,1-2.9395-4.6016,18.9929,18.9929,0,0,1,0-12.71,13.3372,13.3372,0,0,1,2.98-4.6016,12.31,12.31,0,0,1,4.3574-2.7974,15.1308,15.1308,0,0,1,10.46,0,11.93,11.93,0,0,1,4.3184,2.7974,13.6554,13.6554,0,0,1,2.9385,4.6016A16.9877,16.9877,0,0,1,887.0186,538.9355Zm-21.9326,0a14.5081,14.5081,0,0,0,.5674,4.1963,9.1906,9.1906,0,0,0,1.6416,3.2021,7.4325,7.4325,0,0,0,2.6152,2.0479,8.051,8.051,0,0,0,3.4863.7295,7.9538,7.9538,0,0,0,3.4463-.7295,7.4412,7.4412,0,0,0,2.6152-2.0479,9.2071,9.2071,0,0,0,1.6416-3.2021,15.8013,15.8013,0,0,0,0-8.3926,9.2138,9.2138,0,0,0-1.6416-3.2026,7.451,7.451,0,0,0-2.6152-2.0474,7.954,7.954,0,0,0-3.4463-.73,8.0511,8.0511,0,0,0-3.4863.73,7.3436,7.3436,0,0,0-2.6152,2.0674,9.4472,9.4472,0,0,0-1.6416,3.2031A14.2988,14.2988,0,0,0,865.0859,538.9355Z"/><path class="cls-1" d="M913.8584,528.7593a8.2137,8.2137,0,0,0-6.6289,2.6963q-2.291,2.6968-2.291,7.48a14.8529,14.8529,0,0,0,.5479,4.1553,9.1632,9.1632,0,0,0,1.6211,3.2236,7.4116,7.4116,0,0,0,2.6758,2.0879,8.759,8.759,0,0,0,3.75.75,22.7432,22.7432,0,0,0,2.3115-.1016,9.3423,9.3423,0,0,0,1.54-.2637V538.6924h5.1084v13.5a23.7265,23.7265,0,0,1-3.5674.8926,30.7846,30.7846,0,0,1-5.7979.4863,15.2479,15.2479,0,0,1-5.5537-.9736,11.5,11.5,0,0,1-4.2773-2.8379,12.8731,12.8731,0,0,1-2.7363-4.5811,18.4436,18.4436,0,0,1-.9736-6.2432,16.8949,16.8949,0,0,1,1.0742-6.2437,13.516,13.516,0,0,1,2.9395-4.6016,12.3494,12.3494,0,0,1,4.3789-2.8579,14.6865,14.6865,0,0,1,5.3516-.9731,20.4356,20.4356,0,0,1,3.4658.2637,23.398,23.398,0,0,1,2.6152.5879,10.5825,10.5825,0,0,1,1.8037.689q.709.3647.9941.5273l-1.541,4.1758a12.4194,12.4194,0,0,0-3.0205-1.2368A13.974,13.974,0,0,0,913.8584,528.7593Z"/><path class="cls-1" d="M944.2236,524.624q6.082,0,9.3047,2.23a7.7187,7.7187,0,0,1,3.2227,6.811q0,5.7166-5.6348,7.7432.769.9331,1.7432,2.2705t1.9863,2.8984q1.0122,1.5615,1.9463,3.2031.9316,1.6421,1.6621,3.2236h-5.7168q-.7705-1.46-1.6621-2.9395t-1.8037-2.8789q-.9126-1.3989-1.8047-2.6348t-1.6621-2.21q-.5684.041-.9727.041h-3.2432v10.6221H936.48v-27.69a27.4481,27.4481,0,0,1,3.9727-.5474Q942.561,524.6248,944.2236,524.624Zm.3652,4.4189q-1.623,0-3,.1221v9.0811h2.2295a23.4081,23.4081,0,0,0,3.2842-.2026,6.8941,6.8941,0,0,0,2.3711-.7295,3.5486,3.5486,0,0,0,1.4395-1.4194,4.7071,4.7071,0,0,0,.4863-2.27,4.5242,4.5242,0,0,0-.4863-2.1895,3.6254,3.6254,0,0,0-1.3984-1.4189,6.641,6.641,0,0,0-2.1689-.75A15.8954,15.8954,0,0,0,944.5889,529.043Z"/><path class="cls-1" d="M990.1973,553.0039q-.57-1.6626-1.1787-3.2842-.6108-1.6216-1.1787-3.3242H975.9727q-.5684,1.7021-1.1582,3.3447-.5889,1.6406-1.1582,3.2637h-5.3125q1.5791-4.5015,2.998-8.3115t2.7744-7.2163q1.3564-3.4058,2.6934-6.4868t2.7549-6.0811h4.877q1.418,3,2.7568,6.0811t2.6953,6.4868q1.3594,3.405,2.7979,7.2163t3.0205,8.3115Zm-8.291-22.6631q-.9331,2.1489-2.1279,5.2295-1.1968,3.082-2.4932,6.6895h9.2432q-1.2979-3.6079-2.5137-6.73T981.9063,530.3408Z"/><path class="cls-1" d="M1013.4883,524.9082q.8921,1.541,1.9863,3.77t2.23,4.6826q1.1338,2.4536,2.25,4.9868t2.0469,4.6826q.9331-2.1489,2.0273-4.6826t2.2295-4.9868q1.1353-2.4521,2.23-4.6826,1.0942-2.2288,1.9863-3.77h4.6025q.3721,3.0813.7021,6.5474t.5977,7.0947q.2681,3.6292.4951,7.2974t.3936,7.1563h-5.0273q-.1655-4.9058-.3926-10.0957t-.6816-10.0542q-.4468.9331-1.0547,2.23t-1.2969,2.8174q-.69,1.5205-1.3984,3.1426-.71,1.6216-1.3789,3.1416t-1.2363,2.8379q-.5684,1.3184-.9736,2.25h-3.8105q-.4058-.9316-.9727-2.2705t-1.2363-2.8574q-.6694-1.5205-1.3789-3.1426t-1.3984-3.1216q-.69-1.4993-1.2979-2.8179-.6079-1.3169-1.0537-2.2095-.4556,4.8655-.6826,10.0542t-.3916,10.0957h-5.0273q.1655-3.4863.3916-7.2168.2285-3.7295.4961-7.3989t.5986-7.1152q.33-3.4453.7012-6.3647Z"/><path class="cls-1" d="M1057.3945,524.9082q.8921,1.541,1.9863,3.77t2.23,4.6826q1.1338,2.4536,2.25,4.9868t2.0469,4.6826q.9331-2.1489,2.0273-4.6826t2.2295-4.9868q1.1353-2.4521,2.23-4.6826,1.0942-2.2288,1.9863-3.77h4.6025q.3721,3.0813.7021,6.5474t.5977,7.0947q.2681,3.6292.4951,7.2974t.3936,7.1563h-5.0273q-.1655-4.9058-.3926-10.0957t-.6816-10.0542q-.4468.9331-1.0547,2.23t-1.2969,2.8174q-.69,1.5205-1.3984,3.1426-.71,1.6216-1.3789,3.1416t-1.2363,2.8379q-.5684,1.3184-.9736,2.25h-3.8105q-.4058-.9316-.9727-2.2705t-1.2363-2.8574q-.6694-1.5205-1.3789-3.1426t-1.3984-3.1216q-.69-1.4993-1.2979-2.8179-.6079-1.3169-1.0537-2.2095-.4556,4.8655-.6826,10.0542t-.3916,10.0957h-5.0273q.1655-3.4863.3916-7.2168.2285-3.7295.4961-7.3989t.5986-7.1152q.33-3.4453.7012-6.3647Z"/><path class="cls-1" d="M1095.1992,553.0039V524.9082h18.041v4.3379h-12.9326v6.9326h11.5137v4.2568h-11.5137v8.2295h13.9053v4.3389Z"/><path class="cls-1" d="M1134.7676,524.624q6.082,0,9.3047,2.23a7.7187,7.7187,0,0,1,3.2227,6.811q0,5.7166-5.6348,7.7432.769.9331,1.7432,2.2705t1.9863,2.8984q1.0122,1.5615,1.9463,3.2031.9316,1.6421,1.6621,3.2236h-5.7168q-.7705-1.46-1.6621-2.9395t-1.8037-2.8789q-.9126-1.3989-1.8047-2.6348t-1.6621-2.21q-.5684.041-.9727.041h-3.2432v10.6221h-5.1084v-27.69a27.4481,27.4481,0,0,1,3.9727-.5474Q1133.105,524.6248,1134.7676,524.624Zm.3652,4.4189q-1.623,0-3,.1221v9.0811h2.2295a23.4081,23.4081,0,0,0,3.2842-.2026,6.8941,6.8941,0,0,0,2.3711-.7295,3.5485,3.5485,0,0,0,1.4395-1.4194,4.7071,4.7071,0,0,0,.4863-2.27,4.5242,4.5242,0,0,0-.4863-2.1895,3.6254,3.6254,0,0,0-1.3984-1.4189,6.641,6.641,0,0,0-2.1689-.75A15.8954,15.8954,0,0,0,1135.1328,529.043Z"/><path class="cls-1" d="M1167.8906,549.1924a6.8073,6.8073,0,0,0,4.0137-.9326,3.0877,3.0877,0,0,0,1.2568-2.6348,3.396,3.396,0,0,0-.4258-1.7432,4.4511,4.4511,0,0,0-1.2158-1.3184,10.2964,10.2964,0,0,0-1.9258-1.0937q-1.1353-.5068-2.5947-.9937-1.459-.5266-2.8174-1.1558a9.4631,9.4631,0,0,1-2.3926-1.5605,7.18,7.18,0,0,1-1.6621-2.23,7.1038,7.1038,0,0,1-.6279-3.1216,7.325,7.325,0,0,1,2.6348-5.98,10.9616,10.9616,0,0,1,7.1758-2.1689,17.009,17.009,0,0,1,4.6826.5879,14.4024,14.4024,0,0,1,3.2236,1.2769l-1.5811,4.1353a12.163,12.163,0,0,0-3.0205-1.1753,14.0882,14.0882,0,0,0-3.3857-.4058,5.3417,5.3417,0,0,0-3.2227.8516,2.7986,2.7986,0,0,0-1.1553,2.3921,3.1537,3.1537,0,0,0,.3848,1.6011,3.9465,3.9465,0,0,0,1.0947,1.1963,9.5469,9.5469,0,0,0,1.6621.9727q.9521.4468,2.0879.8516,1.9863.7295,3.5479,1.48a10.03,10.03,0,0,1,2.6348,1.7837,6.9841,6.9841,0,0,1,1.6416,2.4321,8.9977,8.9977,0,0,1,.5684,3.3857,7.0272,7.0272,0,0,1-2.6963,5.8984q-2.6968,2.0889-7.8857,2.0879a20.899,20.899,0,0,1-3.1826-.2227,20.4124,20.4124,0,0,1-2.5537-.5479,17.077,17.077,0,0,1-1.9258-.6689,11.6466,11.6466,0,0,1-1.2979-.6279l1.5-4.1758a17.3426,17.3426,0,0,0,2.96,1.2158A14.5877,14.5877,0,0,0,1167.8906,549.1924Z"/><path class="cls-1" d="M437.5,539.5878l-.4454.4566c-.991,1.0063-2.0491,2.1129-3.2825,3.4331a5.73,5.73,0,0,1-.2165,2.8789l13.22,13.22a3.7875,3.7875,0,0,0,5.3563-5.3563L437.5,539.5878m-1.87-.9467c-1.3907,1.412-2.75,2.8541-4.0986,4.3082,1.3486-1.4541,2.7086-2.8962,4.0986-4.3082m-1.248-2.1716-.4678.4564c-1.4117,1.39-2.8538,2.75-4.3076,4.0985a3.8119,3.8119,0,0,0-1.5436-.3262q-.0811,0-.1621.0035h0q.0807-.0034.1617-.0034a3.8173,3.8173,0,0,1,1.5439.3261c1.4538-1.3486,2.8959-2.7085,4.3076-4.0985l.4678-.4564m-13.0389-17.1556a9.5382,9.5382,0,0,0-2.4561.3214l6.386,6.3867-1.415,5.2808-5.2809,1.4144-6.386-6.386a9.4646,9.4646,0,0,0,12.597,11.2578l1.4141,1.4141a5.8394,5.8394,0,0,1,2.873-.2168c1.3232-1.2364,2.4311-2.2965,3.4424-3.2922l.45-.4388-2.8229-2.8229a9.4568,9.4568,0,0,0-8.8018-12.9185"/><path class="cls-1" d="M450.1473,521.02a19.5528,19.5528,0,0,0-3.3206,2.0367,31.1436,31.1436,0,0,0-2.9282,2.4281c-.5015.391-.3766,1.4087-.7166,1.9619-.3846.5079-.8137.9713-1.2284,1.45h0c-.8125.917-1.6624,1.7968-2.5324,2.6564l-.0843.0831-4.9556,4.8339-.4678.4564c-1.4117,1.39-2.8538,2.75-4.3076,4.0985a3.8173,3.8173,0,0,0-1.5439-.3261q-.0808,0-.1617.0034-.1819.0077-.3626.0328a3.7482,3.7482,0,0,0-2.14,1.0662h0l-10.7136,10.713a3.7882,3.7882,0,0,0,5.357,5.3576h0l10.713-10.7139a3.779,3.779,0,0,0,.8187-4.11q-.02-.0493-.0418-.0981h0c1.3486-1.4541,2.7079-2.8962,4.0986-4.3082h0l5.2895-5.4234c.8868-.8989,1.7937-1.7776,2.74-2.6168.4781-.414.9416-.8437,1.4491-1.2283.554-.3392,1.5713-.2147,1.9626-.7162a31.1526,31.1526,0,0,0,2.428-2.9282,19.574,19.574,0,0,0,2.0364-3.32l-1.388-1.3884"/><path class="cls-2" d="M441.9536,528.8961h0c.4147-.4785.8438-.9419,1.2284-1.45.34-.5532.215-1.5709.7166-1.9619a31.2542,31.2542,0,0,1,2.9282-2.4288,19.593,19.593,0,0,1,3.3206-2.0361l1.388,1.3884h0a19.574,19.574,0,0,1-2.0364,3.32,31.1136,31.1136,0,0,1-2.428,2.9282c-.3914.5015-1.4087.377-1.9626.7162-.5075.3846-.9709.8143-1.4491,1.2283-.9465.8391-1.8534,1.7179-2.74,2.6174l-5.2895,5.4227h0c-1.39,1.412-2.75,2.8541-4.0986,4.3082h0q.0216.0488.0418.0981a3.7778,3.7778,0,0,1-.8187,4.11l-10.713,10.7139h0a3.7882,3.7882,0,0,1-5.357-5.3576l10.7136-10.713h0a3.7447,3.7447,0,0,1,2.14-1.0662q.1805-.0252.3625-.0329.081-.0035.1621-.0035a3.8119,3.8119,0,0,1,1.5436.3262c1.4538-1.3486,2.8959-2.7085,4.3076-4.0985l.4678-.4564,4.9556-4.8339.0843-.0831c.87-.86,1.72-1.74,2.5324-2.6564m8.6158-10.2828-1.2705.5953a21.8581,21.8581,0,0,0-3.6591,2.2378,32.9071,32.9071,0,0,0-3.0577,2.5312,3.59,3.59,0,0,0-1.1,2.2227l-.0461.2324c-.2053.2564-.432.5132-.6688.7823l-.3259.3716c-.7112.8027-1.5369,1.6668-2.5092,2.6247l-4.9655,4.844-.45.4388c-1.0114.9957-2.1192,2.0558-3.4424,3.2922a5.8394,5.8394,0,0,0-2.873.2168,5.7412,5.7412,0,0,0-2.2181,1.3836L413.27,551.1a5.7879,5.7879,0,1,0,8.185,8.1857l10.713-10.7139a5.7332,5.7332,0,0,0,1.6037-5.0939c1.2334-1.32,2.2915-2.4268,3.2825-3.4331l.4454-.4566,4.8514-4.9731c.95-.9643,1.8147-1.79,2.6344-2.5165l.3546-.31c.2688-.2374.5262-.4634.782-.6695l.233-.0457a3.5871,3.5871,0,0,0,2.222-1.1,32.8283,32.8283,0,0,0,2.5422-3.0721,21.0741,21.0741,0,0,0,2.2271-3.6444l.595-1.2705-.992-.9919-1.388-1.388-.9919-.9923"/><path class="cls-1" d="M413.5749,555.1924a3.7915,3.7915,0,0,0,1.7224,3.1764,3.7915,3.7915,0,0,1-1.7224-3.1764m17.9977-12.145a3.779,3.779,0,0,1-.8187,4.11l-10.713,10.7139h0l10.713-10.7139a3.7778,3.7778,0,0,0,.8187-4.11m-.0418-.0981h0m-3.9931-2.2148a3.7447,3.7447,0,0,0-2.14,1.0662,3.7482,3.7482,0,0,1,2.14-1.0662m14.4159-11.8384c-.8125.9167-1.6624,1.7967-2.5324,2.6564.87-.86,1.72-1.7394,2.5324-2.6564m9.5817-6.4882a19.574,19.574,0,0,1-2.0364,3.32,31.1526,31.1526,0,0,1-2.428,2.9282c-.3914.5015-1.4087.377-1.9626.7162-.5075.3846-.9709.8143-1.4491,1.2283-.9465.8391-1.8534,1.7179-2.74,2.6168l-5.2895,5.4234h0l5.2895-5.4227c.8868-.9,1.7937-1.7783,2.74-2.6174.4781-.414.9416-.8437,1.4491-1.2283.554-.3392,1.5713-.2147,1.9626-.7162a31.1136,31.1136,0,0,0,2.428-2.9282,19.574,19.574,0,0,0,2.0364-3.32h0"/><path class="cls-1" d="M451.354,761.9766a8.4717,8.4717,0,0,0-3.2622,1.2676,7.4816,7.4816,0,0,0-2.6284,3.1309q-2.61,5.4434-5.126,10.9795t-4.9395,10.7178q-.7463,1.5659-1.6963,4.0264t-1.5845,4.4736h-6.86q-4.2869-9.9536-7.3252-16.5156-3.04-6.56-6.4312-14.0918a6.0376,6.0376,0,0,0-2.4419-2.7578,8.61,8.61,0,0,0-3.3735-1.23v-2.7217H428.65v2.7217a11.6227,11.6227,0,0,0-2.98.5586q-1.7146.5229-1.7139,1.3418a2.3688,2.3688,0,0,0,.1494.6719c.0986.2979.2236.6328.3726,1.0059q1.1953,2.833,3.6069,8.1611t5.1025,11.2158q1.86-4.0605,3.5542-7.9551t4.187-9.93a6.1269,6.1269,0,0,0,.3911-1.4551c.0376-.3721.0562-.6211.0562-.7451a1.4612,1.4612,0,0,0-.6538-1.1748,6.8164,6.8164,0,0,0-1.55-.875,11.393,11.393,0,0,0-1.7944-.56q-.8591-.186-1.42-.2607v-2.7217h15.397Z"/><path class="cls-1" d="M492.2134,787.3262a22.5859,22.5859,0,0,1-3.15,4.0078,19.0827,19.0827,0,0,1-4.1938,3.2246,22.9636,22.9636,0,0,1-5.0518,2.1445,21.5116,21.5116,0,0,1-5.8716.7266,26.122,26.122,0,0,1-9.5249-1.5664,18.6652,18.6652,0,0,1-6.6172-4.2119,16.848,16.848,0,0,1-3.896-6.2451,23.0319,23.0319,0,0,1-1.2861-7.81,19.6,19.6,0,0,1,5.3682-13.4951,19.0106,19.0106,0,0,1,6.3936-4.2871,21.8488,21.8488,0,0,1,8.63-1.6406,24.5625,24.5625,0,0,1,8.5747,1.2676,15.1753,15.1753,0,0,1,5.5547,3.5039,12.7154,12.7154,0,0,1,3.0942,5.0137,18.94,18.94,0,0,1,.9692,6.0586v2.4238H466.0054q0,7.6421,2.9448,11.6309t9.3574,3.9893a10.8689,10.8689,0,0,0,6.3-1.92,17.9731,17.9731,0,0,0,4.772-4.8652ZM477.9722,773.16q0-2.2368-.2236-4.5859a15.2761,15.2761,0,0,0-.7827-3.84,5.91,5.91,0,0,0-1.7339-2.6465,4.262,4.262,0,0,0-2.7773-.8945,5.1652,5.1652,0,0,0-4.5854,2.9082q-1.7153,2.9063-1.8638,9.208Z"/><path class="cls-1" d="M532.9233,766.0771a7.6315,7.6315,0,0,1-1.752,4.9766,5.6761,5.6761,0,0,1-4.623,2.1436,7.596,7.596,0,0,1-4.604-1.373,4.6913,4.6913,0,0,1-1.8828-4.0469,8.525,8.525,0,0,1,.1865-2.0234q.186-.7236.3354-1.3545a7.9183,7.9183,0,0,0-3.6162,1.1826,11.8786,11.8786,0,0,0-3.355,2.9551v20.4668a4.9917,4.9917,0,0,0,.41,2.1621,2.89,2.89,0,0,0,1.3794,1.3428,9.6064,9.6064,0,0,0,2.6655.6895q1.845.28,2.6655.3174v2.7207H495.792v-2.7207q.9316-.0747,1.8828-.2051a9.0688,9.0688,0,0,0,1.6216-.3545,2.735,2.735,0,0,0,1.6406-1.2676,4.8414,4.8414,0,0,0,.4473-2.2373V767.7539a4.6056,4.6056,0,0,0-.6338-2.4043,5.476,5.476,0,0,0-1.5283-1.6953,6.1606,6.1606,0,0,0-1.6963-.7461,11.9042,11.9042,0,0,0-2.2559-.41v-2.7217l17.7827-.97.56.5605v5.4043h.1489a21.984,21.984,0,0,1,5.4614-4.6777,11.7277,11.7277,0,0,1,6.021-1.6973,7.46,7.46,0,0,1,5.5732,2.1445A7.5682,7.5682,0,0,1,532.9233,766.0771Z"/><path class="cls-1" d="M552.7563,797.5039a23.8368,23.8368,0,0,1-7.0645-1.0625,23.0867,23.0867,0,0,1-5.35-2.2549l-1.1187,2.5352h-2.9077l-.4849-13.9053h2.7217A18.4907,18.4907,0,0,0,540.417,786.6a20.83,20.83,0,0,0,2.9824,3.7842,16.852,16.852,0,0,0,4.0073,2.833,10.4245,10.4245,0,0,0,4.8281,1.1563,8.0168,8.0168,0,0,0,5.0513-1.3242,4.9049,4.9049,0,0,0,1.6592-4.082,3.92,3.92,0,0,0-.7456-2.46,6.3762,6.3762,0,0,0-2.0508-1.6777,18.9876,18.9876,0,0,0-3.1875-1.2676q-1.7329-.5215-4.2686-1.2676a40.9759,40.9759,0,0,1-4.3433-1.51,14.8229,14.8229,0,0,1-3.7466-2.4053,10.5237,10.5237,0,0,1-3.69-8.3877,10.0664,10.0664,0,0,1,4.4175-8.499q4.418-3.2446,11.5757-3.2441a26.5993,26.5993,0,0,1,6.2446.6895,31.7151,31.7151,0,0,1,4.7905,1.51l.7827-2.1992h2.8335l.5962,12.7129h-2.6094A15.4117,15.4117,0,0,0,561.07,764.27a10.1046,10.1046,0,0,0-6.8228-2.8154,7.5371,7.5371,0,0,0-4.5107,1.1924,3.8742,3.8742,0,0,0-1.64,3.3184,4.3023,4.3023,0,0,0,2.4,4.1016,32.0851,32.0851,0,0,0,6.7173,2.3857q6.6621,1.7153,9.7515,4.6787a10.009,10.009,0,0,1,3.0889,7.5488,10.888,10.888,0,0,1-4.7905,9.4688Q560.4734,797.5044,552.7563,797.5039Z"/><path class="cls-1" d="M598.2012,796.2363H574.64v-2.7207q.969-.0747,1.9014-.1865a6.6153,6.6153,0,0,0,1.603-.373,3.09,3.09,0,0,0,1.6777-1.2861,4.4173,4.4173,0,0,0,.4849-2.2187V767.7539a4.351,4.351,0,0,0-.5967-2.292,4.95,4.95,0,0,0-1.4912-1.585,7.9739,7.9739,0,0,0-2.0317-.8574,13.223,13.223,0,0,0-2.479-.5215v-2.7217l18.2671-.97.5591.5605v29.6a4.1683,4.1683,0,0,0,.56,2.2188,3.3793,3.3793,0,0,0,1.603,1.36,12.5589,12.5589,0,0,0,1.64.5967,11.2225,11.2225,0,0,0,1.8643.373Zm-5.4429-50.85a6.307,6.307,0,0,1-2.1812,4.8281,7.73,7.73,0,0,1-10.3638,0,6.4548,6.4548,0,0,1,0-9.6748,7.7009,7.7009,0,0,1,10.3823,0A6.3879,6.3879,0,0,1,592.7583,745.3867Z"/><path class="cls-1" d="M639.6943,763.6543a17.0973,17.0973,0,0,1,4.2124,6.15,20.4058,20.4058,0,0,1,1.4541,7.7549,21.2612,21.2612,0,0,1-1.4351,7.81,17.0769,17.0769,0,0,1-4.1943,6.2822,20.0463,20.0463,0,0,1-7.0273,4.2871,27.141,27.141,0,0,1-9.3384,1.4912,25.7721,25.7721,0,0,1-8.37-1.3047,19.6559,19.6559,0,0,1-6.7666-3.9141,17.7466,17.7466,0,0,1-4.4736-6.17,19.9348,19.9348,0,0,1-1.64-8.2207,20.7528,20.7528,0,0,1,1.4351-7.959,17.8576,17.8576,0,0,1,4.3062-6.207,18.9723,18.9723,0,0,1,6.8037-4.0449,29.6537,29.6537,0,0,1,18.23,0A19.8809,19.8809,0,0,1,639.6943,763.6543Zm-9.5439,25.835a21.721,21.721,0,0,0,1.2119-5.07,53.9963,53.9963,0,0,0,.3911-6.9346,54.8169,54.8169,0,0,0-.3726-5.9648,22.034,22.034,0,0,0-1.1187-5.293,8.833,8.833,0,0,0-2.479-3.6914,6.7728,6.7728,0,0,0-8.2388.1113,9.48,9.48,0,0,0-2.4419,3.7656,20.6382,20.6382,0,0,0-1.0811,4.9775,57.0875,57.0875,0,0,0-.2983,5.9463q0,4.0635.2607,6.7285a21.0311,21.0311,0,0,0,1.2676,5.35,8.484,8.484,0,0,0,2.46,3.6543,6.6766,6.6766,0,0,0,7.9033.0928A8.285,8.285,0,0,0,630.15,789.4893Z"/><path class="cls-1" d="M699.38,796.2363H676.9746v-2.7207q.7075-.0747,1.7148-.1865a4.7066,4.7066,0,0,0,1.5288-.373,2.3683,2.3683,0,0,0,1.1182-1.1924,6.1406,6.1406,0,0,0,.3354-2.3125V772.0039a9.6737,9.6737,0,0,0-1.4019-5.7217,4.7894,4.7894,0,0,0-4.1309-1.92,8.45,8.45,0,0,0-2.7847.4473,10.3824,10.3824,0,0,0-2.5234,1.3047,8.5793,8.5793,0,0,0-1.7383,1.5283q-.6548.7822-1.1025,1.3789v20.02a5.5851,5.5851,0,0,0,.3726,2.1816,2.5987,2.5987,0,0,0,1.23,1.3232,7.12,7.12,0,0,0,1.4912.5967,11.5954,11.5954,0,0,0,1.752.373v2.7207H650.17v-2.7207q.9316-.0747,1.8828-.2051a9.0688,9.0688,0,0,0,1.6216-.3545,2.735,2.735,0,0,0,1.6406-1.2676,4.8414,4.8414,0,0,0,.4473-2.2373V767.7539a4.7875,4.7875,0,0,0-.5967-2.2734,5.3236,5.3236,0,0,0-1.5654-1.8262,6.1606,6.1606,0,0,0-1.6963-.7461,11.9042,11.9042,0,0,0-2.2559-.41v-2.7217l17.7827-.97.56.5605v5.4043h.1489q1.0437-.93,2.5352-2.2363a24.4574,24.4574,0,0,1,2.7588-2.125,13.4183,13.4183,0,0,1,3.6162-1.5283,17.4179,17.4179,0,0,1,4.772-.6338q6.0762,0,9.1147,3.4492a13.34,13.34,0,0,1,3.0386,9.1514v18.2676a4.9541,4.9541,0,0,0,.41,2.2,2.8945,2.8945,0,0,0,1.5283,1.3047,12.9511,12.9511,0,0,0,1.4727.5215,10.7421,10.7421,0,0,0,1.9946.373Z"/><path class="cls-1" d="M743.52,797.43a25.6648,25.6648,0,0,1-9.1523-1.51,18.0032,18.0032,0,0,1-6.5425-4.1191,16.8654,16.8654,0,0,1-3.84-6.2637,23.6187,23.6187,0,0,1-1.2676-7.8652,18.0846,18.0846,0,0,1,1.5469-7.3828,19.4117,19.4117,0,0,1,10.96-10.4941,23.79,23.79,0,0,1,8.9287-1.6211q6.8591,0,10.8486,2.5908a7.9687,7.9687,0,0,1,3.9893,6.9893,6.3833,6.3833,0,0,1-1.417,4.3252q-1.4172,1.6406-4.8838,1.64a7.8541,7.8541,0,0,1-4.6782-1.3418,4.1191,4.1191,0,0,1-1.8828-3.5039,11.3763,11.3763,0,0,1,.5962-3.6162,15.24,15.24,0,0,0,.7085-2.7217,2.851,2.851,0,0,0-1.0439-1.0254,4.2211,4.2211,0,0,0-1.9756-.3535,6.0772,6.0772,0,0,0-3.0571.7832,7.53,7.53,0,0,0-2.5723,2.7578,16.1612,16.1612,0,0,0-1.8457,4.9961,35.5,35.5,0,0,0-.6895,7.53q0,6.6372,3.1128,10.7t7.4375,4.0625a10.6646,10.6646,0,0,0,6.58-1.8447,16.6115,16.6115,0,0,0,4.3433-5.2373l2.7959,1.9375a21.1922,21.1922,0,0,1-2.7588,4.1572,17.6091,17.6091,0,0,1-3.84,3.3369,20.023,20.023,0,0,1-4.772,2.3105A18.32,18.32,0,0,1,743.52,797.43Z"/><path class="cls-1" d="M800.8574,763.6543a17.0973,17.0973,0,0,1,4.2124,6.15,20.4149,20.4149,0,0,1,1.4536,7.7549,21.271,21.271,0,0,1-1.4346,7.81,17.0769,17.0769,0,0,1-4.1943,6.2822,20.0463,20.0463,0,0,1-7.0273,4.2871,27.141,27.141,0,0,1-9.3384,1.4912,25.7721,25.7721,0,0,1-8.37-1.3047,19.6559,19.6559,0,0,1-6.7666-3.9141,17.7466,17.7466,0,0,1-4.4736-6.17,19.9348,19.9348,0,0,1-1.64-8.2207,20.7528,20.7528,0,0,1,1.4351-7.959,17.8576,17.8576,0,0,1,4.3062-6.207,18.9723,18.9723,0,0,1,6.8037-4.0449,29.6537,29.6537,0,0,1,18.23,0A19.8809,19.8809,0,0,1,800.8574,763.6543Zm-9.5439,25.835a21.7209,21.7209,0,0,0,1.2119-5.07,53.9963,53.9963,0,0,0,.3911-6.9346,54.8169,54.8169,0,0,0-.3726-5.9648,22.034,22.034,0,0,0-1.1187-5.293,8.833,8.833,0,0,0-2.479-3.6914,6.7728,6.7728,0,0,0-8.2388.1113,9.48,9.48,0,0,0-2.4419,3.7656,20.6382,20.6382,0,0,0-1.0811,4.9775,57.0875,57.0875,0,0,0-.2983,5.9463q0,4.0635.2607,6.7285a21.0311,21.0311,0,0,0,1.2676,5.35,8.484,8.484,0,0,0,2.46,3.6543,6.6766,6.6766,0,0,0,7.9033.0928A8.285,8.285,0,0,0,791.3135,789.4893Z"/><path class="cls-1" d="M860.543,796.2363H838.1377v-2.7207q.7075-.0747,1.7148-.1865a4.7,4.7,0,0,0,1.5283-.373,2.3682,2.3682,0,0,0,1.1191-1.1924,6.1421,6.1421,0,0,0,.335-2.3125V772.0039a9.67,9.67,0,0,0-1.4023-5.7217,4.7864,4.7864,0,0,0-4.13-1.92,8.45,8.45,0,0,0-2.7852.4473,10.3736,10.3736,0,0,0-2.5234,1.3047,8.5926,8.5926,0,0,0-1.7383,1.5283q-.6548.7822-1.1025,1.3789v20.02a5.5757,5.5757,0,0,0,.373,2.1816,2.6009,2.6009,0,0,0,1.2295,1.3232,7.1526,7.1526,0,0,0,1.4912.5967,11.6071,11.6071,0,0,0,1.7529.373v2.7207H811.333v-2.7207q.9316-.0747,1.8828-.2051a9.075,9.075,0,0,0,1.6221-.3545,2.7328,2.7328,0,0,0,1.64-1.2676,4.8289,4.8289,0,0,0,.4473-2.2373V767.7539a4.7974,4.7974,0,0,0-.5957-2.2734,5.3262,5.3262,0,0,0-1.5664-1.8262,6.1474,6.1474,0,0,0-1.6963-.7461,11.897,11.897,0,0,0-2.2559-.41v-2.7217l17.7832-.97.56.5605v5.4043h.1494q1.043-.93,2.5342-2.2363a24.5454,24.5454,0,0,1,2.7588-2.125,13.4319,13.4319,0,0,1,3.6162-1.5283,17.4215,17.4215,0,0,1,4.7725-.6338q6.0762,0,9.1152,3.4492a13.34,13.34,0,0,1,3.0381,9.1514v18.2676a4.961,4.961,0,0,0,.41,2.2,2.8982,2.8982,0,0,0,1.5283,1.3047,12.9854,12.9854,0,0,0,1.4727.5215,10.752,10.752,0,0,0,1.9941.373Z"/><path class="cls-1" d="M891.7471,794.5215a47.8338,47.8338,0,0,1-5.1074,1.8828,22.744,22.744,0,0,1-6.6357.8389q-5.8154,0-8.63-2.8291t-2.8145-8.082V763.4668h-6.7109v-4.0625h6.8594V748.1074h12.0791v11.2969h10.4756v4.0625H880.8613V783.87q0,4.3564,1.2158,6.1807t4.3584,1.8242q1.0107,0,2.8057-.1484a16.8008,16.8008,0,0,0,2.5059-.3359Z"/><path class="cls-1" d="M931.4883,766.0771a7.6324,7.6324,0,0,1-1.7529,4.9766,5.6742,5.6742,0,0,1-4.6221,2.1436,7.5975,7.5975,0,0,1-4.6045-1.373,4.6925,4.6925,0,0,1-1.8828-4.0469,8.4993,8.4993,0,0,1,.1865-2.0234q.186-.7236.3359-1.3545a7.9183,7.9183,0,0,0-3.6162,1.1826,11.8737,11.8737,0,0,0-3.3555,2.9551v20.4668a4.9845,4.9845,0,0,0,.41,2.1621,2.8936,2.8936,0,0,0,1.3789,1.3428,9.6158,9.6158,0,0,0,2.666.6895q1.8457.28,2.665.3174v2.7207h-24.94v-2.7207q.9316-.0747,1.8828-.2051a9.075,9.075,0,0,0,1.6221-.3545,2.7328,2.7328,0,0,0,1.64-1.2676,4.8289,4.8289,0,0,0,.4473-2.2373V767.7539a4.601,4.601,0,0,0-.6338-2.4043,5.47,5.47,0,0,0-1.5283-1.6953,6.1474,6.1474,0,0,0-1.6963-.7461,11.8864,11.8864,0,0,0-2.2549-.41v-2.7217l17.7822-.97.56.5605v5.4043h.1494a21.9909,21.9909,0,0,1,5.4609-4.6777,11.7294,11.7294,0,0,1,6.0215-1.6973,7.4614,7.4614,0,0,1,5.5732,2.1445A7.57,7.57,0,0,1,931.4883,766.0771Z"/><path class="cls-1" d="M972.124,763.6543a17.1046,17.1046,0,0,1,4.2129,6.15,20.4245,20.4245,0,0,1,1.4541,7.7549,21.2716,21.2716,0,0,1-1.4355,7.81,17.0769,17.0769,0,0,1-4.1943,6.2822,20.0507,20.0507,0,0,1-7.0273,4.2871,27.1419,27.1419,0,0,1-9.3389,1.4912,25.7691,25.7691,0,0,1-8.3691-1.3047,19.6513,19.6513,0,0,1-6.7666-3.9141,17.759,17.759,0,0,1-4.4736-6.17,19.9349,19.9349,0,0,1-1.6406-8.2207,20.7527,20.7527,0,0,1,1.4355-7.959,17.8627,17.8627,0,0,1,4.3057-6.207,18.9891,18.9891,0,0,1,6.8037-4.0449,29.6553,29.6553,0,0,1,18.23,0A19.8809,19.8809,0,0,1,972.124,763.6543Zm-9.5439,25.835a21.672,21.672,0,0,0,1.2119-5.07,53.9887,53.9887,0,0,0,.3916-6.9346,54.828,54.828,0,0,0-.373-5.9648,22.0846,22.0846,0,0,0-1.1182-5.293,8.8428,8.8428,0,0,0-2.4795-3.6914,6.7735,6.7735,0,0,0-8.2393.1113,9.48,9.48,0,0,0-2.4414,3.7656,20.6149,20.6149,0,0,0-1.0811,4.9775,57.0846,57.0846,0,0,0-.2988,5.9463q0,4.0635.2617,6.7285a20.949,20.949,0,0,0,1.2676,5.35,8.4875,8.4875,0,0,0,2.46,3.6543,6.6766,6.6766,0,0,0,7.9033.0928A8.2812,8.2812,0,0,0,962.58,789.4893Z"/><path class="cls-1" d="M1005.3779,796.2363H981.8916v-2.7207q.9756-.0747,1.8945-.1865a7.3238,7.3238,0,0,0,1.6328-.373,2.8368,2.8368,0,0,0,1.6328-1.2861,4.8606,4.8606,0,0,0,.4316-2.2187V748.1445a6.0209,6.0209,0,0,0-.5781-2.6279,4.3861,4.3861,0,0,0-1.5469-1.8447,8.9678,8.9678,0,0,0-2.2549-.9326,12.4508,12.4508,0,0,0-2.666-.5225v-2.7207l18.7881-.9687.5605.5957v49.8438a4.4984,4.4984,0,0,0,.4873,2.2373,3.2635,3.2635,0,0,0,1.5771,1.3418,14.737,14.737,0,0,0,1.5752.5967,9.7051,9.7051,0,0,0,1.9521.373Z"/><path class="cls-1" d="M1092.5391,761.9766a8.5778,8.5778,0,0,0-3.1689,1.1367,6.6716,6.6716,0,0,0-2.46,3.2617q-2.61,6.375-4.1758,10.2891t-4.3994,11.2969q-.5962,1.5293-1.4346,4.2129t-1.3242,4.3984h-7.2871l-9.3877-25.3809-8.7969,25.3809h-7.1855q-3.7661-10.1777-5.9277-15.7881t-5.7783-14.8193a5.4724,5.4724,0,0,0-2.293-2.7578,8.3152,8.3152,0,0,0-3.3359-1.23v-2.7217h22.89v2.7217a17.361,17.361,0,0,0-3.0215.5957q-1.7549.4863-1.7539,1.3047a2.0479,2.0479,0,0,0,.0938.6523q.0923.2813.3164,1.0254,1.0078,2.915,2.7617,7.5293t4.1055,10.74l8.2793-24.5693h7.3936l9.4072,25.3232q2.1606-5.7319,3.334-9.0273,1.1719-3.293,2.9609-8.5059a6.2605,6.2605,0,0,0,.3164-1.3965,3.5114,3.5114,0,0,0,.0186-.8018,1.5539,1.5539,0,0,0-.6689-1.2119,5.53,5.53,0,0,0-1.6-.876,13.87,13.87,0,0,0-1.8047-.5215q-.8745-.186-1.47-.2607v-2.7217h15.3965Z"/><path class="cls-1" d="M1117.7412,796.2363H1094.18v-2.7207q.97-.0747,1.9014-.1865a6.62,6.62,0,0,0,1.6035-.373,3.09,3.09,0,0,0,1.6768-1.2861,4.4119,4.4119,0,0,0,.4854-2.2187V767.7539a4.351,4.351,0,0,0-.5967-2.292,4.9449,4.9449,0,0,0-1.4912-1.585,7.9708,7.9708,0,0,0-2.0322-.8574,13.2187,13.2187,0,0,0-2.4785-.5215v-2.7217l18.2676-.97.5586.5605v29.6a4.1683,4.1683,0,0,0,.56,2.2188,3.385,3.385,0,0,0,1.6025,1.36,12.5666,12.5666,0,0,0,1.6406.5967,11.2325,11.2325,0,0,0,1.8643.373Zm-5.4434-50.85a6.3065,6.3065,0,0,1-2.1807,4.8281,7.73,7.73,0,0,1-10.3643,0,6.4558,6.4558,0,0,1,0-9.6748,7.7015,7.7015,0,0,1,10.3828,0A6.3874,6.3874,0,0,1,1112.2979,745.3867Z"/><path class="cls-1" d="M1148.9063,794.5215a47.8338,47.8338,0,0,1-5.1074,1.8828,22.744,22.744,0,0,1-6.6357.8389q-5.8154,0-8.63-2.8291t-2.8145-8.082V763.4668h-6.7109v-4.0625h6.8594V748.1074h12.0791v11.2969h10.4756v4.0625h-10.4014V783.87q0,4.3564,1.2158,6.1807t4.3584,1.8242q1.0107,0,2.8057-.1484a16.8008,16.8008,0,0,0,2.5059-.3359Z"/><path class="cls-1" d="M1199.9814,796.2363h-22.4053v-2.7207q.7441-.0747,1.752-.1865a4.2855,4.2855,0,0,0,1.4912-.373,2.2864,2.2864,0,0,0,1.1-1.1924,6.4787,6.4787,0,0,0,.3164-2.3125V772.0039q0-3.8379-1.4346-5.74a4.8127,4.8127,0,0,0-4.082-1.9014,8.4136,8.4136,0,0,0-2.7783.4473,10.3453,10.3453,0,0,0-2.5156,1.3047,8.5542,8.5542,0,0,0-1.7334,1.5283q-.6533.7822-1.1006,1.3789v20.02a5.7791,5.7791,0,0,0,.3359,2.1816,2.7512,2.7512,0,0,0,1.2676,1.3232,6.2083,6.2083,0,0,0,1.4727.5967,12.1332,12.1332,0,0,0,1.7705.373v2.7207h-22.7412v-2.7207q.9756-.0747,1.8955-.1865a7.3365,7.3365,0,0,0,1.6328-.373,2.84,2.84,0,0,0,1.6328-1.2861,4.8734,4.8734,0,0,0,.4316-2.2187V747.8848a6.5974,6.5974,0,0,0-.56-2.5352,4.34,4.34,0,0,0-1.5654-2.0137,6.2794,6.2794,0,0,0-2.1631-.7637,20.2027,20.2027,0,0,0-2.5342-.3555v-2.7207l18.5645-.9687.56.5957v25.6484h.1494q1.4136-1.2656,2.55-2.292a21.039,21.039,0,0,1,2.7734-2.0693,13.4178,13.4178,0,0,1,3.5918-1.5283,17.32,17.32,0,0,1,4.7842-.6338q6.0308,0,9.0645,3.4668a13.3707,13.3707,0,0,1,3.0342,9.1338v18.2676a4.961,4.961,0,0,0,.41,2.2,2.8982,2.8982,0,0,0,1.5283,1.3047,10.2949,10.2949,0,0,0,1.4912.5215,14.8784,14.8784,0,0,0,2.0137.373Z"/><path class="cls-1" d="M1264.5508,763.43H1256.35a11.7532,11.7532,0,0,1,2.1807,3.45,10.0958,10.0958,0,0,1,.7266,3.7822,9.1019,9.1019,0,0,1-1.3789,4.8281,11.2116,11.2116,0,0,1-3.6162,3.6719,18.93,18.93,0,0,1-5.3311,2.2744,25.5415,25.5415,0,0,1-6.6357.82h-6.0771a5.2569,5.2569,0,0,0-.9873,1.0693,2.3873,2.3873,0,0,0-.541,1.4082,2.3228,2.3228,0,0,0,1.3047,2.2891,12.6318,12.6318,0,0,0,4.7344.7129q3.3926.0762,6.86.28,3.4658.2051,4.958.2422a14.9314,14.9314,0,0,1,4.2871.876,13.089,13.089,0,0,1,3.69,1.9941,10.4855,10.4855,0,0,1,2.834,3.3369,9.5487,9.5487,0,0,1,1.1182,4.6787,10.9916,10.9916,0,0,1-1.36,5.332,12.1857,12.1857,0,0,1-4.1572,4.3242,23.699,23.699,0,0,1-7.0645,2.9453,42.293,42.293,0,0,1-10.1963,1.043q-9.8057,0-14.9121-2.3848-5.1079-2.3877-5.1074-7.1582a5.6949,5.6949,0,0,1,2.7559-4.8477q2.7568-1.9014,8.5674-2.0869v-.4482a13.5184,13.5184,0,0,1-5.3428-3.082,6.14,6.14,0,0,1-1.917-4.4668,4.4878,4.4878,0,0,1,.7646-2.6543,7.7155,7.7155,0,0,1,1.957-1.9062,10.5052,10.5052,0,0,1,2.5352-1.2148q1.49-.5039,2.4971-.8027v-.4121a18.0663,18.0663,0,0,1-7.3994-4.5479,9.5637,9.5637,0,0,1-2.3672-6.5615q0-5.48,5.0508-8.7607t12.8057-3.28a27.5211,27.5211,0,0,1,4.9023.4277q2.3672.4307,3.5977.7656h14.4648Zm-11.2588,38.4355a5.0581,5.0581,0,0,0-.707-2.5156,5.3139,5.3139,0,0,0-3.1621-2.0312,35.3717,35.3717,0,0,0-4.4092-.2988q-3.0718-.0747-8.4287-.0742a9.9905,9.9905,0,0,0-2.1768,2.6465,7.3222,7.3222,0,0,0-.874,3.6914,4.9049,4.9049,0,0,0,.5205,2.0508,6.3554,6.3554,0,0,0,1.6377,2.0879,10.3262,10.3262,0,0,0,2.9014,1.6953,14.2981,14.2981,0,0,0,4.8379.6152q4.8,0,7.33-1.8633Q1253.293,806.0029,1253.292,801.8652Zm-6.2256-31.3516a14.46,14.46,0,0,0-1.3838-6.8965,4.5486,4.5486,0,0,0-4.2646-2.5352,4.639,4.639,0,0,0-2.5439.6895,5.02,5.02,0,0,0-1.7578,1.9941,9.2988,9.2988,0,0,0-.86,2.9639,26.59,26.59,0,0,0-.2246,3.4854,13.8649,13.8649,0,0,0,1.4219,6.6738,4.4174,4.4174,0,0,0,4.04,2.6094,4.5792,4.5792,0,0,0,4.1328-2.3486A12.739,12.739,0,0,0,1247.0664,770.5137Z"/><path class="cls-1" d="M1290.3867,796.2363h-23.5615v-2.7207q.97-.0747,1.9014-.1865a6.62,6.62,0,0,0,1.6035-.373,3.09,3.09,0,0,0,1.6768-1.2861,4.4119,4.4119,0,0,0,.4854-2.2187V767.7539a4.351,4.351,0,0,0-.5967-2.292,4.9449,4.9449,0,0,0-1.4912-1.585,7.9708,7.9708,0,0,0-2.0322-.8574,13.2187,13.2187,0,0,0-2.4785-.5215v-2.7217l18.2676-.97.5586.5605v29.6a4.1683,4.1683,0,0,0,.56,2.2188,3.385,3.385,0,0,0,1.6025,1.36,12.5666,12.5666,0,0,0,1.6406.5967,11.2325,11.2325,0,0,0,1.8643.373Zm-5.4434-50.85a6.3065,6.3065,0,0,1-2.1807,4.8281,7.73,7.73,0,0,1-10.3643,0,6.4558,6.4558,0,0,1,0-9.6748,7.7015,7.7015,0,0,1,10.3828,0A6.3874,6.3874,0,0,1,1284.9434,745.3867Z"/><path class="cls-1" d="M1321.5527,794.5215a47.8338,47.8338,0,0,1-5.1074,1.8828,22.744,22.744,0,0,1-6.6357.8389q-5.8154,0-8.63-2.8291t-2.8145-8.082V763.4668h-6.7109v-4.0625h6.8594V748.1074h12.0791v11.2969h10.4756v4.0625H1310.667V783.87q0,4.3564,1.2158,6.1807t4.3584,1.8242q1.0107,0,2.8057-.1484a16.8007,16.8007,0,0,0,2.5059-.3359Z"/><path class="cls-3" d="M193,1008V974c0-77-116-89.926-116-168V776"/><path class="cls-3" d="M193,544v34c0,77-116,89.926-116,168v30"/><line class="cls-3" x1="193" x2="193" y2="1080"/><path class="cls-3" d="M193,69v34c0,77,116,89.926,116,168v30"/><path class="cls-4" d="M193,562.5A22.5,22.5,0,1,1,215.5,540,22.5255,22.5255,0,0,1,193,562.5Z"/><path class="cls-1" d="M193,520a20,20,0,1,1-20,20,20,20,0,0,1,20-20m0-5a25,25,0,1,0,25,25,25.0283,25.0283,0,0,0-25-25Z"/><path class="cls-5" d="M193,91.5A22.5,22.5,0,1,1,215.5,69,22.5252,22.5252,0,0,1,193,91.5Z"/><path class="cls-1" d="M193,49a20,20,0,1,1-20,20,20,20,0,0,1,20-20m0-5a25,25,0,1,0,25,25,25.0283,25.0283,0,0,0-25-25Z"/><path class="cls-6" d="M77,798a22.5,22.5,0,1,1,22.5-22.5A22.5255,22.5255,0,0,1,77,798Z"/><path class="cls-1" d="M77,755.5a20,20,0,1,1-20,20,20,20,0,0,1,20-20m0-5a25,25,0,1,0,25,25,25.0283,25.0283,0,0,0-25-25Z"/><path class="cls-7" d="M193,1033.5a22.5,22.5,0,1,1,22.5-22.5A22.5255,22.5255,0,0,1,193,1033.5Z"/><path class="cls-1" d="M193,991a20,20,0,1,1-20,20,20,20,0,0,1,20-20m0-5a25,25,0,1,0,25,25,25.0283,25.0283,0,0,0-25-25Z"/><path class="cls-8" d="M309,327a22.5,22.5,0,1,1,22.5-22.5A22.5252,22.5252,0,0,1,309,327Z"/><path class="cls-1" d="M309,284.5a20,20,0,1,1-20,20,20,20,0,0,1,20-20m0-5a25,25,0,1,0,25,25,25.0283,25.0283,0,0,0-25-25Z"/><g id="Page-1"><g id="hac-logo"><g id="hac-logo-dark"><path id="Fill-1" class="cls-1" d="M416.1607,84.8013l1.9966-.2111c1.7271-.1616,2.376-.5376,2.376-.9135V54.0442c0-.4287-.3228-.59-2.752-.8047l-1.564-.1583-.1631-.8575h15.1644l-.16.8575-2.1064.2144c-1.7271.1583-2.3727.5343-2.3727.9069V68.0574h16.0828V54.0442c0-.4287-.3228-.59-2.752-.8047l-1.6206-.1583-.16-.8575h15.1677l-.1631.8575-2.05.2144c-1.6738.1583-2.3227.5343-2.3227.9069V83.8383c0,.4287.3261.59,2.7553.8014l1.564.1616.1631.8575h-15.171l.1631-.8575,2.1064-.2111c1.7271-.1616,2.3194-.4848,2.3194-.9135V69.182H426.58V83.8383c0,.4287.3228.59,2.752.8014l1.6705.1616.1631.8575H416.0009Z"/><path id="Fill-3" class="cls-1" d="M468.2942,81.0587l.3261-8.1328c-6.4258,1.4973-7.9366,3.6377-7.9366,6.2068a3.651,3.651,0,0,0,3.5107,3.8521,5.5663,5.5663,0,0,0,4.1-1.926m.1631,1.0158-.11-.0528c-2.05,2.2459-4.2628,4.2247-7.0681,4.2247a5.6516,5.6516,0,0,1-5.83-5.4549c0-3.7993,3.1846-6.4212,13.1711-8.776l.0532-1.3885c.1065-4.9767-1.9966-7.1171-5.3443-7.1171-1.89,0-3.7237.91-3.7237,1.3918,0,.376,1.4575,1.4973,1.4575,2.9946a2.7367,2.7367,0,0,1-2.9151,2.5691c-1.6738,0-2.9151-1.0158-2.9151-2.4075,0-3.1034,6.692-6.3124,11.2809-6.3124,5.6671,0,7.88,2.14,7.5572,9.04l-.4858,9.7917c-.11,1.8172.5923,2.6747,1.7271,2.6747A3.96,3.96,0,0,0,477.685,81.86l.4858.4815c-1.2412,1.6589-3.2911,3.9576-5.6671,3.9576-2.3194,0-3.7769-1.4445-4.0465-4.2247"/><path id="Fill-5" class="cls-1" d="M479.0849,74.7464c0-7.3314,5.2877-13.0007,12.6286-13.0007,4.6987,0,8.2594,2.0876,8.2594,5.135a2.9671,2.9671,0,0,1-3.0216,2.9946,3.0851,3.0851,0,0,1-3.0249-3.5289c0-1.1774.812-1.8733.812-2.1932-.1631-.6431-1.6206-1.3918-3.0249-1.3918-3.8868,0-6.9083,3.8521-6.9083,9.8445,0,6.2035,3.4009,10.1644,8.15,10.1644a7.3975,7.3975,0,0,0,6.8018-3.9048l.5957.32c-2.2695,4.6007-5.5606,7.2754-10.256,7.2754-6.316,0-11.0114-5.0294-11.0114-11.7145"/><path id="Fill-7" class="cls-1" d="M501.534,84.8013l.9717-.0528c1.5108-.1583,2.1031-.2671,2.1031-.91V55.2744c0-1.6061-.3228-2.0349-1.7271-2.4075l-1.78-.6431.0532-.587,8.8517-2.3548V74.5313l4.1563-3.9576c2.7553-2.5164,4.4824-4.4424,4.4824-5.5637,0-.91-.812-1.4445-2.8618-1.6061l-.7022-.0528-.1065-.8575h11.444l-.1631.8575-1.0249.1055c-2.376.3232-3.8335,1.6061-8.1529,5.7253l-1.2412,1.1774,6.8018,10.9658c1.6206,2.5691,2.1064,3.2089,3.94,3.3705l.8652.1055.16.8575h-8.9049l-1.0815-1.926-5.6138-9.7357-1.9966,1.8172v8.13c0,.4848.3261.59,2.4825.8047l.9184.0528.11.8575H501.3709Z"/><path id="Fill-9" class="cls-1" d="M543.522,69.7173c.0532-3.6377-1.1348-6.9555-4.1031-6.9555-2.752,0-5.1812,2.9979-5.7736,7.0082,0,0,9.93-.0528,9.8766-.0528m-15.76,4.9734c0-7.3281,5.2345-12.9974,12.3591-12.9974,5.6138,0,8.9049,3.3178,8.9049,7.648a7.5473,7.5473,0,0,1-.16,1.4973s-14.7351-.1583-15.2742-.1583a12.8444,12.8444,0,0,0-.1631,2.0843c.0532,5.9924,3.4542,10.0061,8.2028,10.0061a7.6657,7.6657,0,0,0,7.0181-3.9048l.5923.32c-2.2662,4.6007-5.6671,7.2754-10.4157,7.2754-6.3692,0-11.0646-5.0822-11.0646-11.7705"/><path id="Fill-11" class="cls-1" d="M551.7224,84.8013l1.0249-.0528c1.564-.1088,2.16-.2671,2.16-.91V69.3436c0-3.3178-.4326-3.8521-2.2662-4.2808L551.4,64.7957l.0532-.6431,8.8517-2.3548-.11,7.9712h.1631c1.8336-5.135,3.9932-8.024,7.2344-8.024a3.434,3.434,0,0,1,3.67,3.3178,3.0826,3.0826,0,0,1-3.0781,3.1562,3.4084,3.4084,0,0,1-3.4009-2.9979c-1.78.5376-3.2379,2.7307-4.5889,6.9027v11.82c0,.4848.4326.6959,2.5923.8047l1.6206.0528.16.8575h-13.008Z"/><path id="Fill-13" class="cls-1" d="M573.4144,85.1235l-.3794-6.7939,1.188-.0528,1.2412,3.1c1.4043,2.46,3.2944,4.0137,5.8834,4.0137,2.8086,0,4.8585-1.7644,4.8585-4.2808,0-2.5658-2.5357-3.8521-5.7769-5.0261-3.6139-1.3357-6.9083-2.889-6.9083-7.2226,0-4.172,3.4542-7.1138,8.5289-7.1138a14.1915,14.1915,0,0,1,5.1812.91l1.9434-.59.27,6.9555-1.0782.0528-2.8086-4.9767a6.2994,6.2994,0,0,0-3.67-1.3357c-2.6455,0-4.1563,1.55-4.1563,3.7432,0,2.5691,2.16,3.4794,5.5606,4.7623,3.78,1.4412,7.2344,2.9946,7.2344,7.4864,0,3.9609-3.2944,7.6546-9.5538,7.6546a21.7521,21.7521,0,0,1-7.5572-1.2862"/><path id="Fill-15" class="cls-1" d="M612.9343,82.1345l.2229-6.9983c-6.2528,1.5171-7.69,3.3442-7.69,5.7055a3.0911,3.0911,0,0,0,3.1946,3.298,6.1879,6.1879,0,0,0,4.2728-2.0052m0,.8476-.09-.0429c-1.6639,1.6952-3.554,3.2089-5.7137,3.2089a4.5979,4.5979,0,0,1-4.8119-4.4589c0-3.1661,2.5623-5.26,10.8849-7.2688l.0466-1.5171c.1331-4.5018-1.89-5.7946-4.4558-5.7946-1.8,0-3.7337,1.0257-3.7337,1.5171,0,.3133,1.0349,1.0257,1.0349,2.14a1.8457,1.8457,0,0,1-1.98,1.7842,1.7861,1.7861,0,0,1-1.98-1.7413c0-2.1833,4.9949-4.947,8.5056-4.947,4.0465,0,5.98,1.56,5.71,7.0412l-.4492,9.4982c-.0433,1.339.4492,1.83,1.351,1.83a3.6935,3.6935,0,0,0,2.1131-1.25l.3627.4024c-.9484,1.1576-2.2961,2.8066-3.96,2.8066-1.5773,0-2.7454-1.1114-2.8352-3.2089"/><path id="Fill-17" class="cls-1" d="M622.7793,81.6l.2229-13.2843-3.5074-.0923.1364-.7552,6.0265-4.9965.5391.1352-.0433,3.9246h6.6587l-.5391,1.6919h-6.12s-.3161,12.8886-.3161,12.9314a2.7345,2.7345,0,0,0,3.0615,3.1232,6.2779,6.2779,0,0,0,3.8235-1.5632l.27.4485c-1.6639,1.6028-3.554,3.12-5.76,3.12-2.5157,0-4.4991-1.2038-4.4525-4.6831"/><path id="Fill-19" class="cls-1" d="M642.3359,69.1827c0-10.3788,7.8268-17.7069,19.5935-17.7069a22.6081,22.6081,0,0,1,8.6886,1.82l3.7237-1.1774.1631,10.857H673.32l-4.2129-8.6111A13.2865,13.2865,0,0,0,661.9294,52.6c-8.2594,0-12.9015,7.1138-12.9015,16.1008,0,10.0028,5.4508,16.5823,12.9548,16.5823,4.9649,0,7.8268-2.2459,10.3658-6.0452,0-.0528,1.8336-4.2808,1.8336-4.2808h1.2412l-1.6738,9.5246-2.16.0528a30.6559,30.6559,0,0,1-10.04,1.8733c-11.2277,0-19.2142-6.7411-19.2142-17.2254"/><path id="Fill-21" class="cls-1" d="M692.0924,81.0587l.3261-8.1328c-6.4258,1.4973-7.9366,3.6377-7.9366,6.2068a3.651,3.651,0,0,0,3.5107,3.8521,5.5664,5.5664,0,0,0,4.1-1.926m.1631,1.0158-.1065-.0528c-2.0532,2.2459-4.2661,4.2247-7.0714,4.2247a5.6516,5.6516,0,0,1-5.83-5.4549c0-3.7993,3.1846-6.4212,13.1711-8.776l.05-1.3885c.11-4.9767-1.9933-7.1171-5.341-7.1171-1.89,0-3.7237.91-3.7237,1.3918,0,.376,1.4542,1.4973,1.4542,2.9946a2.7336,2.7336,0,0,1-2.9118,2.5691c-1.6738,0-2.9151-1.0158-2.9151-2.4075,0-3.1034,6.692-6.3124,11.2809-6.3124,5.6671,0,7.88,2.14,7.5539,9.04l-.4825,9.7917c-.1065,1.8172.5956,2.6747,1.7237,2.6747a3.9492,3.9492,0,0,0,2.376-1.3918l.4892.4815c-1.2412,1.6589-3.2944,3.9576-5.6671,3.9576-2.3261,0-3.78-1.4445-4.05-4.2247"/><path id="Fill-23" class="cls-1" d="M702.8293,84.8013l1.0283-.0528c1.564-.1088,2.1564-.2671,2.1564-.91V69.3436c0-3.3178-.4326-3.8521-2.2662-4.2808l-1.2412-.2671.0532-.6431,8.8517-2.3548-.1065,4.3336.1065.0528c2.2129-2.0316,4.915-4.4391,8.4191-4.4391a5.9668,5.9668,0,0,1,4.3194,1.7117,5.13,5.13,0,0,1,1.4609,2.889l.16.0528c2.3227-2.3515,5.128-4.6535,8.6354-4.6535a5.8045,5.8045,0,0,1,4.3194,1.6589c1.2945,1.2829,1.8336,3.4761,1.8336,6.26V83.8943c0,.3727.0532.64,2.539.8542l.8086.0528.1631.8575H731.9234l.1631-.8575,1.0782-.0528c1.78-.1088,1.9966-.4287,1.9966-.91V70.6265c0-3.8521-1.4575-5.191-4.4791-5.191-1.9434,0-4.05.963-4.6954,2.14a12.6662,12.6662,0,0,1-.0566,1.3918V83.9438c0,.376.11.59,2.4825.8047l.8652.0528.1631.8575H717.4046l.1631-.8575,1.0216-.0528c1.73-.1088,2-.4287,2-.91V70.6265c0-3.8521-1.5108-5.191-4.4824-5.191a8.3292,8.3292,0,0,0-4.8019,1.82V83.9438c0,.4848.3261.6464,2.4259.8047l1.0283.0528.1065.8575H702.67Z"/><path id="Fill-25" class="cls-1" d="M764.5153,75.0653c0-5.4549-2.6455-9.5741-6.7985-9.5741a7.3667,7.3667,0,0,0-5.3976,2.5131V80.5235c1.401,2.6186,3.83,4.7623,6.3126,4.7623,3.6172,0,5.8834-4.4952,5.8834-10.22Zm-17.4871-19.844c0-1.5534-.3261-1.9821-1.78-2.4075l-1.78-.6431.05-.587,8.8018-2.3548V66.507l.213.0528c2.2129-2.5658,4.9683-4.5479,8.2061-4.5479,5.5573,0,9.6637,4.8151,9.6637,11.3418A12.6627,12.6627,0,0,1,757.66,86.4071a19.9678,19.9678,0,0,1-6.8518-1.5006h-.0566l-3.2379,1.8766h-.4858Z"/><path id="Fill-27" class="cls-1" d="M772.8216,84.8013l1.0283-.0528c1.564-.1088,2.1563-.2671,2.1563-.91V69.3436c0-3.3178-.4326-3.8521-2.2661-4.2808l-1.2413-.2671.0533-.6431,8.8517-2.3548-.1065,7.9712h.1631c1.8336-5.135,3.9932-8.024,7.2344-8.024a3.431,3.431,0,0,1,3.6671,3.3178,3.08,3.08,0,0,1-3.0781,3.1562,3.4052,3.4052,0,0,1-3.3976-2.9979c-1.78.5376-3.2412,2.7307-4.5889,6.9027v11.82c0,.4848.4326.6959,2.5889.8047l1.6239.0528.1564.8575H772.6619Z"/><path id="Fill-29" class="cls-1" d="M795.7582,54.311a3.4275,3.4275,0,0,1,6.8551,0,3.4275,3.4275,0,0,1-6.8551,0Zm-2,30.49,1.0283-.0528c1.5673-.1088,2.1564-.2671,2.1564-.91V69.29c0-3.265-.376-3.7993-2.2628-4.228l-1.1913-.2671.0566-.6431,8.7452-2.3515V83.9435c0,.4848.3228.6464,2.5357.8047l.8619.0528.1631.8575H793.6018Z"/><path id="Fill-31" class="cls-1" d="M825.8213,80.5756V67.7925c-1.351-2.6219-3.78-4.6568-6.2095-4.6568-3.7769,0-5.9366,4.4424-5.9366,10.1083,0,5.5109,2.6988,9.739,6.9083,9.739a7.2324,7.2324,0,0,0,5.2378-2.4075Zm0,1.3357-.1631-.0495c-2.1064,2.5658-4.9117,4.4919-8.15,4.4919-5.4541,0-9.7169-4.8151-9.7169-11.4473a13.1184,13.1184,0,0,1,17.92-11.9849s.11-.0528.11,0V54.7391c0-1.5534-.3794-2.0876-1.7836-2.3548l-2.2662-.587.1065-.59,9.2311-1.926v32.472c0,1.4445.27,1.7677,1.0249,1.9788l2.5923.59-.0566.64-8.8484,1.5534Z"/><path id="Fill-33" class="cls-1" d="M850.86,70.0906c0-4.3863-1.2978-7.3809-4.4259-7.3809-2.5889,0-4.1563,2.5131-4.1563,6.7939,0,4.5479,1.6173,7.2754,4.1563,7.2754,2.8086,0,4.4259-2.3548,4.4259-6.6883m4.2628,21.2918c0-2.6747-1.8369-4.228-6.3693-4.4391-1.5673-.0561-3.9367.0495-6.15.2111a5.2387,5.2387,0,0,0-3.1347,4.6535c0,3.3705,3.2911,5.6725,7.88,5.6725s7.7735-2.7274,7.7735-6.098M835.2068,93.2c0-3.0473,3.2911-5.0822,6.2062-6.2068v-.1055c-3.1846-.3727-5.4508-2.1932-5.4508-4.3863,0-2.6714,2.9151-4.71,5.7769-5.4549v-.1055a7.2475,7.2475,0,0,1-4.8585-6.9027c0-4.6007,4.1-8.2384,9.6071-8.2384a12.0675,12.0675,0,0,1,6.4225,1.82l7.0714-.8575-.3761,2.9979-5.3975-.8047-.0566.2144a6.1733,6.1733,0,0,1,1.89,4.4391c0,4.5479-4.1563,8.0768-9.77,8.0768a20.3077,20.3077,0,0,1-3.3476-.3166c-1.5108.3166-2.8053,1.28-2.8053,2.5658,0,1.55,1.5141,2.1932,4.1563,2.1932,1.7836,0,4.5856-.1616,6.5289-.1616,4.915,0,7.9366,2.5164,7.9366,6.5795,0,5.8308-5.7237,10.326-14.2492,10.326-5.8867,0-9.2843-2.0876-9.2843-5.6725"/><path id="Fill-35" class="cls-1" d="M876.2764,69.7173c.0565-3.6377-1.1348-6.9555-4.1-6.9555-2.7553,0-5.1846,2.9979-5.78,7.0082,0,0,9.9365-.0528,9.88-.0528m-15.76,4.9734c0-7.3281,5.2345-12.9974,12.3624-12.9974,5.6105,0,8.9016,3.3178,8.9016,7.648a7.0947,7.0947,0,0,1-.1631,1.4973s-14.7317-.1583-15.2708-.1583a12.8444,12.8444,0,0,0-.1631,2.0843c.0532,5.9924,3.4542,10.0061,8.2061,10.0061a7.6641,7.6641,0,0,0,7.0148-3.9048l.5956.32c-2.27,4.6007-5.6671,7.2754-10.419,7.2754-6.3693,0-11.0646-5.0822-11.0646-11.7705"/></g></g></g><g class="cls-9"><line class="cls-10" x1="271.5" y1="775.25" x2="356" y2="775.75"/></g><g class="cls-9"><line class="cls-10" x1="271.5" y1="539.75" x2="356" y2="540.25"/></g><g class="cls-9"><line class="cls-10" x1="271.5" y1="68.75" x2="356" y2="69.25"/></g></svg>