<?xml version="1.0" encoding="UTF-8" standalone="no"?>
<svg width="71px" height="28px" viewBox="0 0 71 28" version="1.1" xmlns="http://www.w3.org/2000/svg" xmlns:xlink="http://www.w3.org/1999/xlink">
    <!-- Generator: Sketch 3.6.1 (26313) - http://www.bohemiancoding.com/sketch -->
    <title>hac-logo-small-dark</title>
    <desc>Created with Sketch.</desc>
    <defs></defs>
    <g id="Page-1" stroke="none" stroke-width="1" fill="none" fill-rule="evenodd">
        <g id="hac-logo" transform="translate(-895.000000, -286.000000)" fill="#161922">
            <g id="hac-logo-small-dark" transform="translate(895.000000, 286.000000)">
                <path d="M0.126726932,26.4657273 L1.69876606,26.2965124 C3.0598107,26.1689504 3.57036524,25.8721736 3.57036524,25.5727934 L3.57036524,2.04021074 C3.57036524,1.69917769 3.31508797,1.5716157 1.4031133,1.40109917 L0.169707289,1.27483884 L0.0420686526,0.59407438 L11.9867006,0.59407438 L11.859062,1.27483884 L10.2010622,1.44535537 C8.84131995,1.5716157 8.33206784,1.86969421 8.33206784,2.16647107 L8.33206784,13.169343 L20.9982488,13.169343 L20.9982488,2.04021074 C20.9982488,1.69917769 20.7429716,1.5716157 18.8309969,1.40109917 L17.5546105,1.27483884 L17.4269719,0.59407438 L29.3729063,0.59407438 L29.2439652,1.27483884 L27.6289458,1.44535537 C26.3108815,1.5716157 25.8003269,1.86969421 25.8003269,2.16647107 L25.8003269,25.7003554 C25.8003269,26.0413884 26.0569066,26.1689504 27.9701837,26.3381653 L29.2022873,26.4657273 L29.329926,27.1464917 L17.385294,27.1464917 L17.5129326,26.4657273 L19.16963,26.2965124 C20.5306747,26.1689504 20.9982488,25.9138264 20.9982488,25.5727934 L20.9982488,14.0622769 L8.33206784,14.0622769 L8.33206784,25.7003554 C8.33206784,26.0413884 8.58604268,26.1689504 10.4993198,26.3381653 L11.8160816,26.4657273 L11.9437203,27.1464917 L0.000390730519,27.1464917 L0.126726932,26.4657273 Z" id="Fill-1"></path>
                <path d="M39.0359325,24.347938 L39.2130637,18.7898802 C34.2885567,19.9952107 33.1554382,21.4452521 33.1554382,23.3222355 C33.1554382,24.951905 34.2520886,25.9411612 35.6704403,25.9411612 C36.9455243,25.9411612 37.9731455,25.3397975 39.0359325,24.347938 M39.0359325,25.0208926 L38.9656011,24.9870496 C37.6540489,26.3329587 36.1653657,27.5343843 34.4656879,27.5343843 C32.3401139,27.5343843 30.6742994,25.9776074 30.6742994,23.9951901 C30.6742994,21.4803967 32.6943762,19.8155826 39.2482295,18.2223595 L39.2846976,17.0170289 C39.3901949,13.4426901 37.7960144,12.415686 35.77724,12.415686 C34.3588882,12.415686 32.8363416,13.2305207 32.8363416,13.6197149 C32.8363416,13.8683306 33.6503636,14.4345496 33.6503636,15.3196736 C33.6503636,16.064219 33.0486386,16.7358719 32.0913488,16.7358719 C31.2056929,16.7358719 30.532334,16.2047975 30.532334,15.3548182 C30.532334,13.6197149 34.4656879,11.4251281 37.2294551,11.4251281 C40.4178162,11.4251281 41.9403627,12.6643017 41.7280658,17.0170289 L41.3738035,24.5601074 C41.3386377,25.6248595 41.7280658,26.0127521 42.4365905,26.0127521 C42.967984,26.0127521 43.5345433,25.5519669 44.102405,25.0208926 L44.3863358,25.3397975 C43.6413429,26.2613678 42.5785559,27.5708306 41.2670038,27.5708306 C40.0270856,27.5708306 39.106264,26.6857066 39.0359325,25.0208926" id="Fill-3"></path>
                <path d="M44.3859451,14.0621467 C44.3859451,5.82008058 50.5503702,0.000390495868 59.8158933,0.000390495868 C62.5353777,0.000390495868 65.3408228,0.807415289 66.6588871,1.44522521 L69.5919709,0.51063843 L69.7196095,9.13408884 L68.7857636,9.13408884 L65.4684615,2.29390289 C64.2793382,1.4868781 62.2827053,0.892022727 59.8158933,0.892022727 C53.312835,0.892022727 49.6568998,6.54249793 49.6568998,13.6794607 C49.6568998,21.6234483 53.9497257,26.8495847 59.8588736,26.8495847 C63.7700861,26.8495847 66.0219964,25.0637169 68.0199318,22.0490888 C68.0199318,22.0048326 69.4669371,18.6491715 69.4669371,18.6491715 L70.4437634,18.6491715 L69.1256991,26.2130764 L67.4247189,26.2534277 C65.8096994,26.9341921 62.3673636,27.7425186 59.5189381,27.7425186 C50.6767064,27.7425186 44.3859451,22.3888202 44.3859451,14.0621467" id="Fill-5"></path>
            </g>
        </g>
    </g>
</svg>