<?xml version="1.0" encoding="UTF-8" standalone="no"?>
<svg width="431px" height="46px" viewBox="0 0 431 46" version="1.1" xmlns="http://www.w3.org/2000/svg" xmlns:xlink="http://www.w3.org/1999/xlink">
    <!-- Generator: Sketch 3.6.1 (26313) - http://www.bohemiancoding.com/sketch -->
    <title>hac-logo-dark</title>
    <desc>Created with Sketch.</desc>
    <defs></defs>
    <g id="Page-1" stroke="none" stroke-width="1" fill="none" fill-rule="evenodd">
        <g id="hac-logo" transform="translate(-535.000000, -152.000000)" fill="#161922">
            <g id="hac-logo-dark" transform="translate(535.000000, 152.000000)">
                <path d="M0.148605396,32.8894337 L1.99463516,32.6942822 C3.5914509,32.5448693 4.19141057,32.1972557 4.19141057,31.849642 L4.19141057,4.45219886 C4.19141057,4.05579735 3.89296909,3.90638447 1.64696622,3.70818371 L0.200909572,3.56182008 L0.0501504751,2.76901705 L14.0707465,2.76901705 L13.9230641,3.56182008 L11.9755027,3.76002083 C10.378687,3.90638447 9.78180402,4.25399811 9.78180402,4.5985625 L9.78180402,17.4084299 L24.6515737,17.4084299 L24.6515737,4.45219886 C24.6515737,4.05579735 24.3531323,3.90638447 22.1071294,3.70818371 L20.6087686,3.56182008 L20.4610862,2.76901705 L34.4847589,2.76901705 L34.3339998,3.56182008 L32.4387426,3.76002083 C30.8911543,3.90638447 30.2911947,4.25399811 30.2911947,4.5985625 L30.2911947,31.9990549 C30.2911947,32.3954564 30.5927128,32.5448693 32.8387157,32.7400208 L34.2847724,32.8894337 L34.4355315,33.6822367 L20.408782,33.6822367 L20.5595411,32.8894337 L22.5071025,32.6942822 C24.1039182,32.5448693 24.6515737,32.2460436 24.6515737,31.849642 L24.6515737,18.4482216 L9.78180402,18.4482216 L9.78180402,31.9990549 C9.78180402,32.3954564 10.0802455,32.5448693 12.3262484,32.7400208 L13.8707599,32.8894337 L14.021519,33.6822367 L0.00092301488,33.6822367 L0.148605396,32.8894337 Z" id="Fill-1"></path>
                <path d="M48.3499808,29.4291534 L48.651499,21.9097216 C42.7103599,23.2940777 41.3135307,25.273036 41.3135307,27.6483958 C41.3135307,29.7737178 42.861119,31.209911 44.5594663,31.209911 C45.9562955,31.209911 47.1039107,30.6640966 48.3499808,29.4291534 M48.5007399,30.3683201 L48.3992082,30.3195322 C46.503951,32.3960663 44.4579347,34.2256117 41.8642629,34.2256117 C38.9198454,34.2256117 36.473856,31.9996648 36.473856,29.1821648 C36.473856,25.6694375 39.4182735,23.2452898 48.651499,21.0681307 L48.7007264,19.7843996 C48.7991813,15.1830928 46.8546967,13.2041345 43.7595201,13.2041345 C42.0119453,13.2041345 40.3166746,14.0457254 40.3166746,14.4909148 C40.3166746,14.8385284 41.6642763,15.8752708 41.6642763,17.2596269 C41.6642763,18.4976193 40.5658886,19.6349867 38.9690729,19.6349867 C37.4214846,19.6349867 36.2738694,18.6958201 36.2738694,17.4090398 C36.2738694,14.5397027 42.4611458,11.5727898 46.7039376,11.5727898 C51.9435854,11.5727898 53.9896017,13.5517481 53.6911602,19.9307633 L53.2419596,28.983964 C53.140428,30.6640966 53.7896151,31.4568996 54.8387754,31.4568996 C55.6356449,31.4568996 56.3340595,30.8135095 57.0324741,30.1701193 L57.4816746,30.6153087 C56.3340595,32.1490777 54.4388023,34.2743996 52.2420268,34.2743996 C50.0975556,34.2743996 48.7499539,32.9388314 48.5007399,30.3683201" id="Fill-3"></path>
                <path d="M58.3268486,23.5929034 C58.3268486,16.8144375 63.2157508,11.5727898 70.0029868,11.5727898 C74.3473102,11.5727898 77.6393966,13.5029602 77.6393966,16.3204602 C77.6393966,18.003642 76.2917949,19.0891723 74.8457382,19.0891723 C73.0981634,19.0891723 71.8520933,17.5584527 72.0490032,15.826483 C72.0490032,14.7379034 72.7997219,14.0945133 72.7997219,13.7987367 C72.6489628,13.2041345 71.3013611,12.5119564 70.0029868,12.5119564 C66.4093822,12.5119564 63.6157239,16.0734716 63.6157239,21.6139451 C63.6157239,27.3495701 66.7601279,31.0117102 71.150602,31.0117102 C73.7473505,31.0117102 75.7441394,30.0725436 77.43941,27.4014072 L77.9901423,27.6971837 C75.8918218,31.9508769 72.8489494,34.4238125 68.5077027,34.4238125 C62.6680953,34.4238125 58.3268486,29.7737178 58.3268486,23.5929034" id="Fill-5"></path>
                <path d="M79.0826842,32.8894337 L79.9810854,32.8406458 C81.3779145,32.6942822 81.92557,32.5936572 81.92557,31.9990549 L81.92557,5.58956629 C81.92557,4.10458523 81.6271286,3.70818371 80.3287543,3.36361932 L78.6827111,2.76901705 L78.7319386,2.22625189 L86.9160038,0.049092803 L86.9160038,23.3940928 L90.7588224,19.7350019 C93.3063435,17.4084299 94.9031592,15.6276723 94.9031592,14.5909299 C94.9031592,13.749339 94.1524405,13.2553617 92.2571833,13.1059489 L91.6079961,13.057161 L91.5095412,12.264358 L102.090368,12.264358 L101.939609,13.057161 L100.991981,13.1547367 C98.7952053,13.4535625 97.4476036,14.6397178 93.4540259,18.4482216 L92.3064107,19.5368011 L98.5952188,29.6755322 C100.09358,32.050892 100.54278,32.6424451 102.238051,32.791858 L103.037997,32.8894337 L103.185679,33.6822367 L94.9523867,33.6822367 L93.9524539,31.9014792 L88.7620336,22.9001155 L86.9160038,24.5802481 L86.9160038,32.0966307 C86.9160038,32.5448693 87.217522,32.6424451 89.2112342,32.8406458 L90.0604078,32.8894337 L90.1619395,33.6822367 L78.9319251,33.6822367 L79.0826842,32.8894337 Z" id="Fill-7"></path>
                <path d="M117.903767,18.9431136 C117.952994,15.5797992 116.854607,12.5122614 114.110176,12.5122614 C111.565732,12.5122614 109.319729,15.2840227 108.772073,18.9919015 C108.772073,18.9919015 117.952994,18.9431136 117.903767,18.9431136 M103.332439,23.5413712 C103.332439,16.7659545 108.172113,11.5243068 114.759363,11.5243068 C119.949783,11.5243068 122.992656,14.5918447 122.992656,18.5955 C122.992656,19.0406894 122.943428,19.4858788 122.844973,19.9798561 C122.844973,19.9798561 109.221274,19.8334924 108.722846,19.8334924 C108.621314,20.2786818 108.572087,21.2666364 108.572087,21.7606136 C108.621314,27.3010871 111.765718,31.0120152 116.156192,31.0120152 C118.802168,31.0120152 120.946639,30.0728485 122.644987,27.4017121 L123.192642,27.6974886 C121.097399,31.9511818 117.952994,34.4241174 113.56252,34.4241174 C107.673685,34.4241174 103.332439,29.7252348 103.332439,23.5413712" id="Fill-9"></path>
                <path d="M125.485719,32.8894337 L126.433348,32.8406458 C127.879404,32.7400208 128.430136,32.5936572 128.430136,31.9990549 L128.430136,18.5976345 C128.430136,15.5300966 128.030163,15.0361193 126.334893,14.6397178 L125.187277,14.3927292 L125.236505,13.7981269 L133.42057,11.6209678 L133.319039,18.9909867 L133.469798,18.9909867 C135.165068,14.2433163 137.161857,11.5721799 140.158579,11.5721799 C142.053836,11.5721799 143.552197,12.8589602 143.552197,14.6397178 C143.552197,16.1216496 142.453809,17.5578428 140.706234,17.5578428 C139.158646,17.5578428 137.860272,16.5180511 137.56183,14.7860814 C135.915787,15.283108 134.568185,17.3108542 133.319039,21.1681458 L133.319039,32.0966307 C133.319039,32.5448693 133.719012,32.7400208 135.715801,32.8406458 L137.214161,32.8894337 L137.361844,33.6822367 L125.33496,33.6822367 L125.485719,32.8894337 Z" id="Fill-11"></path>
                <path d="M145.541602,33.1873447 L145.190856,26.9059053 L146.289244,26.8571174 L147.436859,29.7234053 C148.735233,31.9981402 150.482808,33.4343333 152.876493,33.4343333 C155.473242,33.4343333 157.368499,31.8029886 157.368499,29.4764167 C157.368499,27.1041061 155.024041,25.9149015 152.027319,24.8293712 C148.686006,23.594428 145.640056,22.1582348 145.640056,18.1515303 C145.640056,14.2942386 148.833688,11.5743144 153.52568,11.5743144 C155.420938,11.5743144 157.070057,11.9188788 158.316128,12.4159053 L160.11293,11.8700909 L160.362144,18.3009432 L159.365288,18.3497311 L156.768539,13.7484242 C155.97167,13.1568712 154.77175,12.5134811 153.374921,12.5134811 C150.928932,12.5134811 149.532103,13.946625 149.532103,15.9743712 C149.532103,18.3497311 151.528891,19.191322 154.673295,20.3774773 C158.168445,21.7099962 161.362077,23.1461894 161.362077,27.2992576 C161.362077,30.9613977 158.316128,34.3765492 152.528824,34.3765492 C149.781317,34.3765492 147.387631,33.8795227 145.541602,33.1873447" id="Fill-13"></path>
                <path d="M182.080684,30.4238163 L182.286824,23.9533239 C176.505674,25.3559754 175.176533,27.0452557 175.176533,29.2285133 C175.176533,31.125142 176.465677,32.2777557 178.13018,32.2777557 C179.625464,32.2777557 180.831537,31.5794792 182.080684,30.4238163 M182.080684,31.2074716 L181.997613,31.1678314 C180.459254,32.735142 178.71168,34.1347443 176.714891,34.1347443 C174.219674,34.1347443 172.265959,32.3204451 172.265959,30.0121686 C172.265959,27.0848958 174.635031,25.1486269 182.329898,23.2916383 L182.372972,21.8889867 C182.496041,17.7267708 180.625397,16.5314678 178.253249,16.5314678 C176.588745,16.5314678 174.801173,17.4797822 174.801173,17.9341193 C174.801173,18.2237973 175.758032,18.8824337 175.758032,19.9130777 C175.758032,20.7790625 175.050387,21.5627178 173.927386,21.5627178 C172.887456,21.5627178 172.09674,20.9437216 172.09674,19.9527178 C172.09674,17.9341193 176.714891,15.3788542 179.960826,15.3788542 C183.702113,15.3788542 185.489686,16.8211458 185.240472,21.8889867 L184.825115,30.6708049 C184.785118,31.9087973 185.240472,32.3631345 186.074262,32.3631345 C186.695758,32.3631345 187.363406,31.8264678 188.027976,31.2074716 L188.363339,31.5794792 C187.486474,32.6497633 186.240404,34.1743845 184.702046,34.1743845 C183.243683,34.1743845 182.163755,33.1467898 182.080684,31.2074716" id="Fill-15"></path>
                <path d="M191.183149,29.9295341 L191.389289,17.6471856 L188.14643,17.5618068 L188.272575,16.8635303 L193.844509,12.243928 L194.342937,12.368947 L194.302939,15.9975455 L200.459449,15.9975455 L199.961021,17.5618068 L194.302939,17.5618068 C194.302939,17.5618068 194.010651,29.4782462 194.010651,29.5178864 C193.970654,31.4968447 195.050581,32.4055189 196.84123,32.4055189 C198.296517,32.4055189 199.376444,31.7041932 200.376377,30.960178 L200.625591,31.374875 C199.087233,32.8568068 197.339658,34.2594583 195.299795,34.2594583 C192.973798,34.2594583 191.140075,33.1464848 191.183149,29.9295341" id="Fill-17"></path>
                <path d="M209.264703,18.4488314 C209.264703,8.85286553 216.501139,2.07744886 227.380408,2.07744886 C230.57404,2.07744886 233.866126,3.01661553 235.413714,3.76063068 L238.85656,2.67205114 L239.007319,12.7101572 L237.912008,12.7101572 L234.016885,4.74858523 C232.620056,3.80941856 230.275598,3.11724053 227.380408,3.11724053 C219.743998,3.11724053 215.451979,9.69445644 215.451979,18.003642 C215.451979,27.2519943 220.49164,33.335233 227.429636,33.335233 C232.020096,33.335233 234.666072,31.2586989 237.013607,27.7459716 C237.013607,27.6971837 238.708878,23.7880549 238.708878,23.7880549 L239.856493,23.7880549 L238.308904,32.594267 L236.312116,32.6430549 C234.416858,33.435858 230.374053,34.3750246 227.029663,34.3750246 C216.648822,34.3750246 209.264703,28.1423731 209.264703,18.4488314" id="Fill-19"></path>
                <path d="M255.26838,29.4291534 L255.569898,21.9097216 C249.628759,23.2940777 248.23193,25.273036 248.23193,27.6483958 C248.23193,29.7737178 249.779518,31.209911 251.477865,31.209911 C252.874695,31.209911 254.02231,30.6640966 255.26838,29.4291534 M255.419139,30.3683201 L255.320684,30.3195322 C253.42235,32.3960663 251.376334,34.2256117 248.782662,34.2256117 C245.838244,34.2256117 243.392255,31.9996648 243.392255,29.1821648 C243.392255,25.6694375 246.336672,23.2452898 255.569898,21.0681307 L255.616049,19.7843996 C255.71758,15.1830928 253.773096,13.2041345 250.677919,13.2041345 C248.930344,13.2041345 247.235074,14.0457254 247.235074,14.4909148 C247.235074,14.8385284 248.579599,15.8752708 248.579599,17.2596269 C248.579599,18.4976193 247.484288,19.6349867 245.887472,19.6349867 C244.339884,19.6349867 243.192268,18.6958201 243.192268,17.4090398 C243.192268,14.5397027 249.379545,11.5727898 253.622337,11.5727898 C258.861984,11.5727898 260.908001,13.5517481 260.606483,19.9307633 L260.160359,28.983964 C260.061904,30.6640966 260.711091,31.4568996 261.754098,31.4568996 C262.554044,31.4568996 263.255535,30.8135095 263.950873,30.1701193 L264.40315,30.6153087 C263.255535,32.1490777 261.357201,34.2743996 259.163503,34.2743996 C257.012878,34.2743996 255.668353,32.9388314 255.419139,30.3683201" id="Fill-21"></path>
                <path d="M265.195405,32.8894337 L266.14611,32.8406458 C267.592167,32.7400208 268.139822,32.5936572 268.139822,31.9990549 L268.139822,18.5976345 C268.139822,15.5300966 267.739849,15.0361193 266.044579,14.6397178 L264.896963,14.3927292 L264.946191,13.7981269 L273.130256,11.6209678 L273.031801,15.6276723 L273.130256,15.6764602 C275.176272,13.7981269 277.674566,11.5721799 280.914348,11.5721799 C282.563468,11.5721799 283.91107,12.1667822 284.907926,13.1547367 C285.557113,13.749339 286.055541,14.6885057 286.258604,15.8258731 L286.406287,15.874661 C288.553835,13.7005511 291.147507,11.5721799 294.390365,11.5721799 C296.036409,11.5721799 297.334783,12.0661572 298.383943,13.1059489 C299.580786,14.2921042 300.079214,16.3198504 300.079214,18.893411 L300.079214,32.050892 C300.079214,32.3954564 300.128441,32.6424451 302.426748,32.8406458 L303.17439,32.8894337 L303.32515,33.6822367 L292.095135,33.6822367 L292.245894,32.8894337 L293.24275,32.8406458 C294.888794,32.7400208 295.08878,32.4442443 295.08878,31.9990549 L295.08878,19.7837898 C295.08878,16.2222746 293.741178,14.9842822 290.94752,14.9842822 C289.150718,14.9842822 287.203156,15.874661 286.606273,16.9632405 C286.655501,17.0638655 286.553969,18.100608 286.553969,18.2500208 L286.553969,32.0966307 C286.553969,32.4442443 286.655501,32.6424451 288.849199,32.8406458 L289.649146,32.8894337 L289.799905,33.6822367 L278.671422,33.6822367 L278.822181,32.8894337 L279.766733,32.8406458 C281.366626,32.7400208 281.61584,32.4442443 281.61584,31.9990549 L281.61584,19.7837898 C281.61584,16.2222746 280.21901,14.9842822 277.471503,14.9842822 C275.6747,14.9842822 274.23172,15.8258731 273.031801,16.667464 L273.031801,32.0966307 C273.031801,32.5448693 273.333319,32.6942822 275.274727,32.8406458 L276.225433,32.8894337 L276.323888,33.6822367 L265.047722,33.6822367 L265.195405,32.8894337 Z" id="Fill-23"></path>
                <path d="M322.228802,23.8877652 C322.228802,18.8443182 319.782812,15.0358144 315.943071,15.0358144 C313.84475,15.0358144 312.149479,16.0725568 310.952637,17.3593371 L310.952637,28.9342614 C312.247934,31.3553598 314.493937,33.3373674 316.789168,33.3373674 C320.133558,33.3373674 322.228802,29.18125 322.228802,23.8877652 L322.228802,23.8877652 Z M306.060658,5.54047348 C306.060658,4.1042803 305.75914,3.70787879 304.414615,3.31452652 L302.768572,2.71992424 L302.814722,2.17715909 L310.952637,0 L310.952637,15.9749811 L311.149547,16.0237689 C313.195563,13.6514583 315.743084,11.8188636 318.736729,11.8188636 C323.874845,11.8188636 327.671513,16.2707576 327.671513,22.3052083 C327.671513,29.9222159 321.779601,34.3741098 315.890766,34.3741098 C313.795523,34.3741098 311.251078,33.6819318 309.555808,32.9867045 L309.503503,32.9867045 L306.509859,34.7217235 L306.060658,34.7217235 L306.060658,5.54047348 Z" id="Fill-25"></path>
                <path d="M329.908593,32.8894337 L330.859299,32.8406458 C332.305355,32.7400208 332.853011,32.5936572 332.853011,31.9990549 L332.853011,18.5976345 C332.853011,15.5300966 332.453038,15.0361193 330.757767,14.6397178 L329.610152,14.3927292 L329.659379,13.7981269 L337.843445,11.6209678 L337.74499,18.9909867 L337.895749,18.9909867 C339.591019,14.2433163 341.587808,11.5721799 344.58453,11.5721799 C346.479787,11.5721799 347.975071,12.8589602 347.975071,14.6397178 C347.975071,16.1216496 346.87976,17.5578428 345.129109,17.5578428 C343.58152,17.5578428 342.286223,16.5180511 341.987781,14.7860814 C340.341738,15.283108 338.99106,17.3108542 337.74499,21.1681458 L337.74499,32.0966307 C337.74499,32.5448693 338.144963,32.7400208 340.138675,32.8406458 L341.640113,32.8894337 L341.784718,33.6822367 L329.760911,33.6822367 L329.908593,32.8894337 Z" id="Fill-27"></path>
                <path d="M351.115168,4.69888258 C351.115168,3.21390152 352.164328,1.53376894 354.256495,1.53376894 C356.40712,1.53376894 357.453203,3.21390152 357.453203,4.69888258 C357.453203,6.13202652 356.40712,7.86399621 354.256495,7.86399621 C352.164328,7.86399621 351.115168,6.13202652 351.115168,4.69888258 L351.115168,4.69888258 Z M349.266061,32.8891288 L350.216767,32.8403409 C351.6659,32.7397159 352.210479,32.5933523 352.210479,31.99875 L352.210479,18.5485417 C352.210479,15.5297917 351.86281,15.0358144 350.118312,14.6394129 L349.016847,14.3924242 L349.069152,13.797822 L357.154762,11.6237121 L357.154762,32.0963258 C357.154762,32.5445644 357.453203,32.6939773 359.49922,32.8403409 L360.296089,32.8891288 L360.446848,33.6819318 L349.121456,33.6819318 L349.266061,32.8891288 Z" id="Fill-29"></path>
                <path d="M378.910838,28.9824394 L378.910838,17.1635758 C377.661691,14.739428 375.415688,12.8580455 373.169685,12.8580455 C369.677612,12.8580455 367.680824,16.965375 367.680824,22.2039735 C367.680824,27.2992576 370.176041,31.2083864 374.068087,31.2083864 C376.16333,31.2083864 377.661691,30.2173826 378.910838,28.9824394 L378.910838,28.9824394 Z M378.910838,30.2173826 L378.760079,30.1716439 C376.812518,32.5439545 374.218846,34.3247121 371.225201,34.3247121 C366.182463,34.3247121 362.241189,29.8728182 362.241189,23.7407917 C362.241189,16.1237841 368.130024,11.821303 374.068087,11.821303 C375.914116,11.821303 377.461705,12.0682917 378.809306,12.6598447 C378.809306,12.6598447 378.910838,12.6110568 378.910838,12.6598447 L378.910838,5.09467424 C378.910838,3.65848106 378.560092,3.16450379 377.261718,2.91751515 L375.166474,2.37475 L375.264929,1.82893561 L383.79974,0.0481780303 L383.79974,30.0710189 C383.79974,31.4065871 384.048954,31.7054129 384.747369,31.9005644 L387.144131,32.4463788 L387.091827,33.0379318 L378.910838,34.474125 L378.910838,30.2173826 Z" id="Fill-31"></path>
                <path d="M402.061282,19.2882879 C402.061282,15.2327955 400.861363,12.4640833 397.969249,12.4640833 C395.575564,12.4640833 394.126431,14.7876061 394.126431,18.7455227 C394.126431,22.950428 395.621715,25.4721515 397.969249,25.4721515 C400.565998,25.4721515 402.061282,23.2949924 402.061282,19.2882879 M406.002555,38.974197 C406.002555,36.5012614 404.304208,35.0650682 400.11372,34.8699167 C398.664587,34.8180795 396.473965,34.9156553 394.427949,35.0650682 C392.978815,35.6596705 391.529682,37.339803 391.529682,39.3675492 C391.529682,42.483875 394.572554,44.6122462 398.815346,44.6122462 C403.058138,44.6122462 406.002555,42.0905227 406.002555,38.974197 M387.588409,40.6543295 C387.588409,37.8368295 390.631281,35.955447 393.326484,34.9156553 L393.326484,34.8180795 C390.382067,34.4735152 388.286823,32.7903333 388.286823,30.7625871 C388.286823,28.2927008 390.982027,26.4082689 393.628003,25.7191402 L393.628003,25.6215644 C391.182013,24.6793485 389.135997,22.5021894 389.135997,19.2395 C389.135997,14.9858068 392.926511,11.6224924 398.018477,11.6224924 C400.362934,11.6224924 402.359723,12.3146705 403.956539,13.3056742 L410.494561,12.5128712 L410.146892,15.2846326 L405.156458,14.5406174 L405.104154,14.7388182 C406.10101,15.6779848 406.851729,17.1629659 406.851729,18.8430985 C406.851729,23.0480038 403.00891,26.3106932 397.81849,26.3106932 C396.76933,26.3106932 395.470956,26.1612803 394.723314,26.0179659 C393.326484,26.3106932 392.129642,27.201072 392.129642,28.3902765 C392.129642,29.8234205 393.529548,30.4180227 395.97246,30.4180227 C397.62158,30.4180227 400.212175,30.2686098 402.008978,30.2686098 C406.553288,30.2686098 409.346946,32.5951818 409.346946,36.3518485 C409.346946,41.7429091 404.054994,45.8990265 396.172447,45.8990265 C390.729736,45.8990265 387.588409,43.9688561 387.588409,40.6543295" id="Fill-33"></path>
                <path d="M425.560318,18.9431136 C425.612622,15.5797992 424.511157,12.5122614 421.769803,12.5122614 C419.222282,12.5122614 416.976279,15.2840227 416.425547,18.9919015 C416.425547,18.9919015 425.612622,18.9431136 425.560318,18.9431136 M410.988989,23.5413712 C410.988989,16.7659545 415.828664,11.5243068 422.41899,11.5243068 C427.606334,11.5243068 430.649206,14.5918447 430.649206,18.5955 C430.649206,19.0406894 430.603056,19.4858788 430.498447,19.9798561 C430.498447,19.9798561 416.877824,19.8334924 416.379396,19.8334924 C416.277865,20.2786818 416.228637,21.2666364 416.228637,21.7606136 C416.277865,27.3010871 419.422269,31.0120152 423.81582,31.0120152 C426.458719,31.0120152 428.60319,30.0728485 430.301537,27.4017121 L430.85227,27.6974886 C428.753949,31.9511818 425.612622,34.4241174 421.219071,34.4241174 C415.330236,34.4241174 410.988989,29.7252348 410.988989,23.5413712" id="Fill-35"></path>
            </g>
        </g>
    </g>
</svg>