<svg xmlns="http://www.w3.org/2000/svg" viewBox="0 0 723.2002 584.3003"><defs><style>.cls-1{fill:#fff;}.cls-2{fill:none;stroke:#000;stroke-miterlimit:10;stroke-width:6px;}.cls-2,.cls-3{opacity:0.5;}</style></defs><title>Feature</title><g id="Layer_2" data-name="Layer 2"><g id="Layer_1-2" data-name="Layer 1"><path class="cls-1" d="M6.72,12H42.24v6.24H27.84v43.52h14.4V68H6.72v-6.24h14.4V18.24H6.72Z" transform="translate(-6.7202 -10.8794)"/><path class="cls-1" d="M62.16,68H55.92v-39.68h6.24v6.72h.96Q66.7983,27.2,75.92,27.2q6.88,0,10.96,4.28t4.08,12.84V68H84.72V45.6q0-6.24-2.8-9.36a9.7,9.7,0,0,0-7.6-3.12A10.995,10.995,0,0,0,65.4,37q-3.24,3.8811-3.24,10.36Z" transform="translate(-6.7202 -10.8794)"/><path class="cls-1" d="M103.52,28.3193H116V12h6.24v16.32H137.6v5.76H122.24v25.76q0,2.4,2.16,2.4h11.28V68H122.16a5.9352,5.9352,0,0,1-4.44-1.76,6.14,6.14,0,0,1-1.72-4.48V34.08H103.52Z" transform="translate(-6.7202 -10.8794)"/><path class="cls-1" d="M151.6,28.3193H166V33.6h.96a10.2646,10.2646,0,0,1,4.32-4.84,12.9294,12.9294,0,0,1,6.4-1.56,12.6615,12.6615,0,0,1,9.68,3.92q3.679,3.9207,3.92,11.44l-6.56.96q0-5.52-2.64-7.96a9.195,9.195,0,0,0-6.48-2.44,8.9733,8.9733,0,0,0-4.28.96,8.6455,8.6455,0,0,0-3,2.64,11.4355,11.4355,0,0,0-1.76,3.92,19.7115,19.7115,0,0,0-.56,4.8v16.8h10.08V68H150.64V62.24h9.12V34.08H151.6Z" transform="translate(-6.7202 -10.8794)"/><path class="cls-1" d="M240.24,48.64a21.94,21.94,0,0,1-1.64,8.76,19.31,19.31,0,0,1-4.36,6.4,18.4184,18.4184,0,0,1-6.36,3.96,21.7987,21.7987,0,0,1-15.16,0,18.4879,18.4879,0,0,1-6.32-3.96,19.2666,19.2666,0,0,1-4.36-6.4,21.9228,21.9228,0,0,1-1.64-8.76v-.96A21.7178,21.7178,0,0,1,202.04,39a19.4334,19.4334,0,0,1,4.4-6.44,18.6336,18.6336,0,0,1,6.36-4,21.4727,21.4727,0,0,1,15.04,0,18.6336,18.6336,0,0,1,6.36,4A19.4553,19.4553,0,0,1,238.6,39a21.7347,21.7347,0,0,1,1.64,8.68ZM220.32,63.2a13.8818,13.8818,0,0,0,5.32-1,12.3664,12.3664,0,0,0,4.28-2.92,13.7576,13.7576,0,0,0,2.88-4.6,16.608,16.608,0,0,0,1.04-6.04v-.96a16.1488,16.1488,0,0,0-1.04-5.88,13.7674,13.7674,0,0,0-2.88-4.6,13.2492,13.2492,0,0,0-4.32-3,13.4447,13.4447,0,0,0-10.56,0,13.2286,13.2286,0,0,0-4.32,3,13.7211,13.7211,0,0,0-2.88,4.6,16.118,16.118,0,0,0-1.04,5.88v.96a16.5771,16.5771,0,0,0,1.04,6.04,13.7114,13.7114,0,0,0,2.88,4.6A12.3483,12.3483,0,0,0,215,62.2,13.8765,13.8765,0,0,0,220.32,63.2Z" transform="translate(-6.7202 -10.8794)"/><path class="cls-1" d="M282.48,61.9194h-.96a11.5719,11.5719,0,0,1-2.44,3.2,14.42,14.42,0,0,1-3.2,2.24,15.6222,15.6222,0,0,1-3.64,1.32,16.5269,16.5269,0,0,1-3.68.44,20.0563,20.0563,0,0,1-7.44-1.36A17.5008,17.5008,0,0,1,251,57.4795a23.7593,23.7593,0,0,1-1.48-8.68V47.52a22.9793,22.9793,0,0,1,1.52-8.6,19.0827,19.0827,0,0,1,4.08-6.4,17.2121,17.2121,0,0,1,6-3.96,19.6259,19.6259,0,0,1,7.28-1.36,16.6961,16.6961,0,0,1,7.64,1.8,12.3038,12.3038,0,0,1,5.48,5.56h.96V12h6.24V68h-6.24ZM269.2,63.2a12.9387,12.9387,0,0,0,5.2-1.04,12.52,12.52,0,0,0,4.2-2.96,14.0943,14.0943,0,0,0,2.84-4.6,16.3668,16.3668,0,0,0,1.04-5.96v-.96a16.1488,16.1488,0,0,0-1.04-5.88,14.1022,14.1022,0,0,0-2.84-4.6,12.9079,12.9079,0,0,0-4.24-3,12.6107,12.6107,0,0,0-5.16-1.08,13.2255,13.2255,0,0,0-5.24,1.04,12.417,12.417,0,0,0-4.24,2.96,13.643,13.643,0,0,0-2.8,4.56,16.3526,16.3526,0,0,0-1,5.84v1.28a16.8308,16.8308,0,0,0,1,6,13.197,13.197,0,0,0,2.8,4.52,12.3,12.3,0,0,0,4.2,2.88A13.5806,13.5806,0,0,0,269.2,63.2Z" transform="translate(-6.7202 -10.8794)"/><path class="cls-1" d="M329.04,28.3193h6.24V68h-6.24v-7.2h-.96a16.251,16.251,0,0,1-5.04,6.08,13.2481,13.2481,0,0,1-7.92,2.24,16.44,16.44,0,0,1-6.04-1.08,12.3633,12.3633,0,0,1-4.72-3.24,14.965,14.965,0,0,1-3.04-5.36A23.258,23.258,0,0,1,300.24,52v-23.68h6.24V51.2q0,6.24,2.56,9.12t7.84,2.88a10.993,10.993,0,0,0,8.92-3.88q3.24-3.8789,3.24-10.36Z" transform="translate(-6.7202 -10.8794)"/><path class="cls-1" d="M386.7993,53.9194A20.4934,20.4934,0,0,1,384.6,60a17.1862,17.1862,0,0,1-9.5605,8,21.46,21.46,0,0,1-7.12,1.12,22.7776,22.7776,0,0,1-7.88-1.36,19.0965,19.0965,0,0,1-6.52-3.96,18.7889,18.7889,0,0,1-4.44-6.36,21.4216,21.4216,0,0,1-1.64-8.64v-.96a21.7865,21.7865,0,0,1,1.64-8.64,19.0452,19.0452,0,0,1,4.44-6.48,19.8273,19.8273,0,0,1,6.52-4.08,21.6366,21.6366,0,0,1,7.88-1.44,20.9432,20.9432,0,0,1,6.9595,1.12,17.9737,17.9737,0,0,1,5.6406,3.16,17.1515,17.1515,0,0,1,4,4.84,18.9714,18.9714,0,0,1,2.1191,6.08l-6.24,1.44a12.9654,12.9654,0,0,0-1.16-4.04,11.3723,11.3723,0,0,0-2.4785-3.44A11.6633,11.6633,0,0,0,372.9595,34a14.17,14.17,0,0,0-5.2-.88,13.5573,13.5573,0,0,0-5.4,1.08,13.7179,13.7179,0,0,0-4.44,3.04,13.9677,13.9677,0,0,0-3,4.68,15.9,15.9,0,0,0-1.08,5.92v.96a16.0316,16.0316,0,0,0,1.08,6.04,12.7566,12.7566,0,0,0,3,4.52,13.4752,13.4752,0,0,0,4.48,2.84,15.0153,15.0153,0,0,0,5.52,1,13.3113,13.3113,0,0,0,5.1606-.92,12.2726,12.2726,0,0,0,3.76-2.4,11.5119,11.5119,0,0,0,2.4785-3.4,14.1853,14.1853,0,0,0,1.24-4Z" transform="translate(-6.7202 -10.8794)"/><path class="cls-1" d="M399.6,62.24h13.92V34.08H401.0405v-5.76h18.72V62.24h12.96V68H399.6Zm11.36-45.76a5.6,5.6,0,0,1,11.2,0,5.6,5.6,0,1,1-11.2,0Z" transform="translate(-6.7202 -10.8794)"/><path class="cls-1" d="M453.8394,68h-6.24v-39.68h6.24v6.72h.96q3.6782-7.8391,12.8-7.84,6.8789,0,10.96,4.28t4.08,12.84V68h-6.24V45.6q0-6.24-2.8-9.36a9.6993,9.6993,0,0,0-7.6-3.12A10.993,10.993,0,0,0,457.08,37q-3.24,3.8811-3.24,10.36Z" transform="translate(-6.7202 -10.8794)"/><path class="cls-1" d="M526.72,61.9194h-.96a12.8161,12.8161,0,0,1-5.24,5.4,14.9475,14.9475,0,0,1-7.24,1.8,20.6846,20.6846,0,0,1-7.52-1.36,18.5349,18.5349,0,0,1-6.2-3.92,18.2114,18.2114,0,0,1-4.24-6.36,22.6928,22.6928,0,0,1-1.56-8.68V47.52a21.9636,21.9636,0,0,1,1.6-8.6,19.4575,19.4575,0,0,1,4.24-6.4,17.8529,17.8529,0,0,1,6.16-3.96A20.2486,20.2486,0,0,1,513.12,27.2a14.8023,14.8023,0,0,1,7.5605,1.88,12.9909,12.9909,0,0,1,5.08,5.48h.96v-6.24h6.24v49.44a6.149,6.149,0,0,1-1.7207,4.48A5.94,5.94,0,0,1,526.8,84H500.96V78.24h23.6q2.1606,0,2.16-2.4ZM513.44,63.2a12.937,12.937,0,0,0,5.2-1.04,12.5317,12.5317,0,0,0,4.2-2.96,14.085,14.085,0,0,0,2.84-4.6,16.3668,16.3668,0,0,0,1.04-5.96v-.96a16.1488,16.1488,0,0,0-1.04-5.88,14.0929,14.0929,0,0,0-2.84-4.6,12.915,12.915,0,0,0-4.24-3,12.6123,12.6123,0,0,0-5.16-1.08,13.2313,13.2313,0,0,0-5.24,1.04,12.4085,12.4085,0,0,0-4.2393,2.96,13.6531,13.6531,0,0,0-2.8008,4.56,16.3633,16.3633,0,0,0-1,5.84v1.28a16.8416,16.8416,0,0,0,1,6,13.2066,13.2066,0,0,0,2.8008,4.52A12.2919,12.2919,0,0,0,508.16,62.2,13.5848,13.5848,0,0,0,513.44,63.2Z" transform="translate(-6.7202 -10.8794)"/><path class="cls-1" d="M593.36,12h6.72v24.8H623.92V12h6.72V68h-6.72V43.04H600.08V68h-6.72Z" transform="translate(-6.7202 -10.8794)"/><path class="cls-1" d="M672.2388,61.2793h-.96a13.0158,13.0158,0,0,1-5.3193,5.92,14.3562,14.3562,0,0,1-7.16,1.92,19.7255,19.7255,0,0,1-7.28-1.32,16.4873,16.4873,0,0,1-5.88-3.92,18.51,18.51,0,0,1-3.96-6.36,24.2946,24.2946,0,0,1-1.44-8.72V47.52a24.06,24.06,0,0,1,1.44-8.64,18.5335,18.5335,0,0,1,3.96-6.36,16.9793,16.9793,0,0,1,5.88-3.96,18.8006,18.8006,0,0,1,7.12-1.36,15.2665,15.2665,0,0,1,7.3994,1.8,12.6422,12.6422,0,0,1,5.24,5.56h.96v-6.24h6.24v31.52q0,2.4,2.16,2.4h2V68h-4.24a5.9322,5.9322,0,0,1-4.4395-1.76,6.1372,6.1372,0,0,1-1.7207-4.48Zm-12.8,1.92a12.6585,12.6585,0,0,0,5.16-1.04,11.4274,11.4274,0,0,0,4.04-2.96,14.1248,14.1248,0,0,0,2.64-4.6,17.5535,17.5535,0,0,0,.96-5.96v-.96a17.3167,17.3167,0,0,0-.96-5.88,13.7546,13.7546,0,0,0-2.68-4.6,12.2882,12.2882,0,0,0-4.08-3,12.0641,12.0641,0,0,0-5.08-1.08,12.3819,12.3819,0,0,0-5.12,1.04,12.1736,12.1736,0,0,0-4.04,2.92,13.2983,13.2983,0,0,0-2.68,4.56,17.34,17.34,0,0,0-.96,5.88v1.28q0,6.8013,3.56,10.6A12.0825,12.0825,0,0,0,659.439,63.2Z" transform="translate(-6.7202 -10.8794)"/><path class="cls-1" d="M710.24,62.8794a13.6015,13.6015,0,0,0,5.88-1.16,11.1045,11.1045,0,0,0,4-3.12,13.2857,13.2857,0,0,0,2.32-4.48,18.3532,18.3532,0,0,0,.76-5.32v-.96H729.92v.96a24.3158,24.3158,0,0,1-1.28,7.96,18.6708,18.6708,0,0,1-3.76,6.48,17.1573,17.1573,0,0,1-6.16,4.32,21.5749,21.5749,0,0,1-8.48,1.56q-9.2812,0-14.4795-5.84-5.2017-5.8381-5.2-17.04v-12.48q0-10.8787,5.2-16.88t14.4795-6a21.5749,21.5749,0,0,1,8.48,1.56,17.1573,17.1573,0,0,1,6.16,4.32,18.6708,18.6708,0,0,1,3.76,6.48,24.32,24.32,0,0,1,1.28,7.96v.96H723.2V31.2a20.666,20.666,0,0,0-.84-5.28,13.2476,13.2476,0,0,0-2.32-4.52,11.2156,11.2156,0,0,0-3.96-3.12,13.3462,13.3462,0,0,0-5.84-1.16q-6.479,0-9.72,4.72t-3.24,12.4v11.52q0,8.2412,3.24,12.68T710.24,62.8794Z" transform="translate(-6.7202 -10.8794)"/><path class="cls-1" d="M37.436,377.4873l17.64-27.5293a58.4215,58.4215,0,0,0,43.0308,18.9766c15.769,0,24.3218-8.82,24.3218-19.7783,0-31.2705-79.647-20.58-79.647-80.9834,0-28.0635,21.916-52.1182,58.8-52.1182,21.6489,0,40.3584,6.9492,53.9893,19.7783l-17.1055,26.7275a54.829,54.829,0,0,0-38.22-14.9678c-12.8291,0-20.8472,7.2168-20.8472,18.1748,0,27.7959,79.38,20.3125,79.38,80.4492,0,31.2705-21.3818,54.2559-60.4033,54.2559C71.38,400.4727,51.6016,391.6533,37.436,377.4873Z" transform="translate(-6.7202 -10.8794)"/><path class="cls-1" d="M129.3755,308.2637c0-52.92,27.7964-92.209,74.3018-92.209,46.7729,0,74.5693,39.2891,74.5693,92.209,0,29.9346-8.82,55.3252-24.8564,71.8965l7.4834,11.76-24.856,15.502-7.2163-11.2256a75.0152,75.0152,0,0,1-25.124,4.2764C157.1719,400.4727,129.3755,361.4512,129.3755,308.2637Zm82.0527,59.6016-17.3726-28.0635L219.1792,324.3,233.6118,347.82c5.3457-10.4238,8.0186-24.3223,8.0186-39.5566,0-34.4785-13.3638-60.4033-37.9531-60.4033-24.3218,0-37.418,25.9248-37.418,60.4033,0,33.9434,13.0962,60.4033,37.418,60.4033A36.2431,36.2431,0,0,0,211.4282,367.8652Z" transform="translate(-6.7202 -10.8794)"/><path class="cls-1" d="M257.4,335.793V218.9941h36.082V336.0605c0,21.1143,10.6909,32.874,29.667,32.874,18.7095,0,29.4-11.76,29.4-32.874V218.9941h36.082V335.793c0,41.16-25.3911,64.68-65.4824,64.68C282.791,400.4727,257.4,376.9531,257.4,335.793Z" transform="translate(-6.7202 -10.8794)"/><path class="cls-1" d="M463.4683,397.2656l-8.2852-31.5381h-54.791l-8.2852,31.5381H353.3521l52.92-178.2715h43.2988l52.92,178.2715ZM427.9214,256.68l-20.3125,77.51h40.625Z" transform="translate(-6.7202 -10.8794)"/><path class="cls-1" d="M459.7251,377.4873l17.64-27.5293a58.4243,58.4243,0,0,0,43.0313,18.9766c15.77,0,24.3223-8.82,24.3223-19.7783,0-31.2705-79.6475-20.58-79.6475-80.9834,0-28.0635,21.916-52.1182,58.8-52.1182,21.6494,0,40.3584,6.9492,53.9893,19.7783l-17.1055,26.7275a54.83,54.83,0,0,0-38.22-14.9678c-12.8291,0-20.8477,7.2168-20.8477,18.1748,0,27.7959,79.38,20.3125,79.38,80.4492,0,31.2705-21.3818,54.2559-60.4033,54.2559C493.6685,400.4727,473.89,391.6533,459.7251,377.4873Z" transform="translate(-6.7202 -10.8794)"/><path class="cls-1" d="M653.7632,397.2656V321.36H594.6958v75.9053H558.8813V218.9941h35.8145v70.8281h59.0674V218.9941h36.0811V397.2656Z" transform="translate(-6.7202 -10.8794)"/><line class="cls-2" x1="20.6436" y1="385.9487" x2="20.6436" y2="209.9487"/><line class="cls-2" x1="699.6436" y1="385.9487" x2="699.6436" y2="209.9487"/><path class="cls-1" d="M236.2886,482.2188a29.5642,29.5642,0,0,1-2.5562,12.68,19.2521,19.2521,0,0,1-7.3149,8.4082,21.62,21.62,0,0,1-21.7778.0332,19.4408,19.4408,0,0,1-7.3994-8.3574,28.7187,28.7187,0,0,1-2.6567-12.4951v-2.4219a29.4037,29.4037,0,0,1,2.6064-12.7295,19.4052,19.4052,0,0,1,7.3657-8.4424,21.5818,21.5818,0,0,1,21.7607,0,19.4083,19.4083,0,0,1,7.3657,8.4424,29.3281,29.3281,0,0,1,2.6064,12.6953Zm-10.2241-2.2207q0-7.7021-2.7583-11.7041a9.7417,9.7417,0,0,0-15.7065-.0508q-2.7583,3.9536-2.7915,11.5869v2.3887q0,7.5,2.7578,11.6367a9.6569,9.6569,0,0,0,15.74.15q2.7246-3.9844,2.7583-11.6191Z" transform="translate(-6.7202 -10.8794)"/><path class="cls-1" d="M258.1167,498.43a6.3731,6.3731,0,0,0,4.3726-1.48,5.1864,5.1864,0,0,0,1.749-3.9355h9.1143a12.4671,12.4671,0,0,1-2.0176,6.7773,13.3079,13.3079,0,0,1-5.4321,4.7764,17.0069,17.0069,0,0,1-7.6177,1.6982q-7.8032,0-12.31-4.9609T241.4683,487.6v-.6387q0-8.4082,4.4731-13.42t12.2764-5.0117q6.8276,0,10.9478,3.8848a13.7563,13.7563,0,0,1,4.187,10.3418h-9.1143a6.6838,6.6838,0,0,0-1.749-4.6152,6.5,6.5,0,0,0-9.5688.7012q-1.7322,2.4756-1.7319,8.0332v1.0107q0,5.6265,1.7153,8.085A5.9285,5.9285,0,0,0,258.1167,498.43Z" transform="translate(-6.7202 -10.8794)"/><path class="cls-1" d="M290.54,460.2559v8.9463h6.2222v7.13H290.54v18.1621a4.3343,4.3343,0,0,0,.7734,2.8926,3.88,3.88,0,0,0,2.9595.875,15.3849,15.3849,0,0,0,2.8589-.2363v7.3662a20.0071,20.0071,0,0,1-5.8857.874q-10.2246,0-10.4263-10.3252V476.332h-5.314v-7.13h5.314v-8.9463Z" transform="translate(-6.7202 -10.8794)"/><path class="cls-1" d="M299.6538,487.0605a21.5791,21.5791,0,0,1,2.0854-9.6523,15.2684,15.2684,0,0,1,6.0034-6.5586,17.5158,17.5158,0,0,1,9.0977-2.32,16.57,16.57,0,0,1,12.0239,4.5068q4.6582,4.5073,5.1968,12.2432l.0669,2.4883q0,8.3745-4.6748,13.4365t-12.5454,5.0615q-7.87,0-12.562-5.0449t-4.6919-13.7227Zm9.72.6914q0,5.187,1.9507,7.9316a7.0072,7.0072,0,0,0,11.0991.0342q1.9841-2.7114,1.9844-8.6738,0-5.0859-1.9844-7.8818a6.4535,6.4535,0,0,0-5.5835-2.7969,6.347,6.347,0,0,0-5.5156,2.7793Q309.3735,481.9248,309.374,487.752Z" transform="translate(-6.7202 -10.8794)"/><path class="cls-1" d="M372.9067,487.7344q0,8.7451-3.7324,13.6377a12.3651,12.3651,0,0,1-10.4263,4.8936,11.3632,11.3632,0,0,1-9.4512-4.54l-.437,3.8682h-8.7446V453.9326h9.72v18.5322a11.0687,11.0687,0,0,1,8.8457-3.9355,12.4655,12.4655,0,0,1,10.4429,4.8936q3.7852,4.894,3.7832,13.7725Zm-9.7192-.7412q0-5.5327-1.749-8.08a5.9082,5.9082,0,0,0-5.2129-2.5479q-4.6414,0-6.3906,3.8125V494.584q1.7827,3.8452,6.458,3.8457,4.708,0,6.1885-4.6562A24.0893,24.0893,0,0,0,363.1875,486.9932Z" transform="translate(-6.7202 -10.8794)"/><path class="cls-1" d="M395.6431,506.2656q-8.0039,0-13.0322-4.91t-5.0283-13.084V487.33a21.9916,21.9916,0,0,1,2.1182-9.8037,15.5569,15.5569,0,0,1,6.0039-6.6592,16.8486,16.8486,0,0,1,8.8623-2.3379q7.4663,0,11.7549,4.709T410.61,486.59v3.9688H387.437a9.0294,9.0294,0,0,0,2.8418,5.7188,8.5941,8.5941,0,0,0,6.0039,2.1523,10.4941,10.4941,0,0,0,8.7783-4.07l4.7754,5.3477a14.5884,14.5884,0,0,1-5.9189,4.8262A19.4161,19.4161,0,0,1,395.6431,506.2656Zm-1.1094-29.9a6.0737,6.0737,0,0,0-4.6924,1.9609,10.1513,10.1513,0,0,0-2.3037,5.6074h13.5205v-.7773a7.2369,7.2369,0,0,0-1.749-5.0166A6.2653,6.2653,0,0,0,394.5337,476.3652Z" transform="translate(-6.7202 -10.8794)"/><path class="cls-1" d="M436.5757,478.3164a26.3709,26.3709,0,0,0-3.498-.27q-5.5166,0-7.2314,3.7344v23.8125h-9.72V469.2021h9.1816l.27,4.3389q2.9253-5.0127,8.1055-5.0117a10.2061,10.2061,0,0,1,3.0273.4375Z" transform="translate(-6.7202 -10.8794)"/><path class="cls-1" d="M481.6108,505.5938h-9.72v-37.52l-11.6035,3.583V463.82l20.28-7.2646h1.043Z" transform="translate(-6.7202 -10.8794)"/><path class="cls-1" d="M531.0854,505.5938H497.52v-6.66L513.3608,482.05a39.0071,39.0071,0,0,0,4.8262-6.2217,9.9948,9.9948,0,0,0,1.5645-5.0449,7.4781,7.4781,0,0,0-1.6484-5.1289,5.946,5.946,0,0,0-4.708-1.8672,6.4183,6.4183,0,0,0-5.1973,2.27,8.9957,8.9957,0,0,0-1.8994,5.9707h-9.7539a16.0505,16.0505,0,0,1,2.1357-8.1738,15.0569,15.0569,0,0,1,6.0371-5.8008,18.35,18.35,0,0,1,8.8457-2.1025q7.5674,0,11.7549,3.6328t4.1875,10.2578a16.4608,16.4608,0,0,1-1.8838,7.3994,41.1046,41.1046,0,0,1-6.458,8.7783l-11.1318,11.7383h21.0537Z" transform="translate(-6.7202 -10.8794)"/><path class="cls-1" d="M194.7114,587.5332h18.6621v7.0605H185.9224V551.9375h8.7891Z" transform="translate(-6.7202 -10.8794)"/><path class="cls-1" d="M216.5376,578.4512a18.7929,18.7929,0,0,1,1.8164-8.4082,13.2971,13.2971,0,0,1,5.2295-5.7129,15.2558,15.2558,0,0,1,7.9248-2.0215,14.4354,14.4354,0,0,1,10.4736,3.9258q4.0576,3.9258,4.5264,10.6641l.0586,2.168q0,7.2949-4.0723,11.7031-4.0723,4.4106-10.9277,4.41t-10.9424-4.3945q-4.0869-4.3945-4.0869-11.9531Zm8.4668.6006q0,4.519,1.6992,6.9092a6.1024,6.1024,0,0,0,9.668.0293q1.7285-2.3613,1.7285-7.5547a11.7281,11.7281,0,0,0-1.7285-6.8652,5.6184,5.6184,0,0,0-4.8633-2.4355,5.527,5.527,0,0,0-4.8047,2.42Q225.0044,573.9761,225.0044,579.0518Z" transform="translate(-6.7202 -10.8794)"/><path class="cls-1" d="M264.9653,588.3535a5.5541,5.5541,0,0,0,3.8086-1.2891,4.5182,4.5182,0,0,0,1.5234-3.4277h7.9395a10.8573,10.8573,0,0,1-1.7578,5.9023,11.5949,11.5949,0,0,1-4.7314,4.16,14.8115,14.8115,0,0,1-6.6357,1.48q-6.7969,0-10.7227-4.3223T250.4634,578.92v-.5566q0-7.3242,3.8965-11.6895t10.6934-4.3652a13.3324,13.3324,0,0,1,9.5361,3.3828,11.9867,11.9867,0,0,1,3.6475,9.01h-7.9395a5.82,5.82,0,0,0-1.5234-4.0205,5.663,5.663,0,0,0-8.335.61q-1.51,2.1563-1.5088,6.998v.88q0,4.9,1.4941,7.042A5.1637,5.1637,0,0,0,264.9653,588.3535Z" transform="translate(-6.7202 -10.8794)"/><path class="cls-1" d="M301.44,594.5938a9.3884,9.3884,0,0,1-.85-2.8418,10.2446,10.2446,0,0,1-7.998,3.4277,11.2541,11.2541,0,0,1-7.72-2.6953,8.6685,8.6685,0,0,1-3.0615-6.7969,8.958,8.958,0,0,1,3.7354-7.7344q3.7354-2.6953,10.7959-2.7246h3.8965v-1.8164a5.2262,5.2262,0,0,0-1.1279-3.5156,4.4372,4.4372,0,0,0-3.56-1.3184,5.0437,5.0437,0,0,0-3.3545,1.0254,3.4834,3.4834,0,0,0-1.2158,2.8125h-8.4668a8.505,8.505,0,0,1,1.6992-5.0977,11.2384,11.2384,0,0,1,4.8047-3.6777,17.5085,17.5085,0,0,1,6.9727-1.332q5.8594,0,9.3018,2.9434a10.3022,10.3022,0,0,1,3.4424,8.2773v13.74a15.148,15.148,0,0,0,1.26,6.8262v.498Zm-7.002-5.8887a7.2943,7.2943,0,0,0,3.457-.8359,5.4848,5.4848,0,0,0,2.3438-2.24V580.18h-3.1641q-6.3574,0-6.7676,4.3945l-.0293.498a3.3879,3.3879,0,0,0,1.1133,2.6074A4.3244,4.3244,0,0,0,294.438,588.7051Z" transform="translate(-6.7202 -10.8794)"/><path class="cls-1" d="M325.3755,555.1016v7.793h5.42v6.2109h-5.42v15.82a3.7749,3.7749,0,0,0,.6738,2.52,3.3835,3.3835,0,0,0,2.5781.7617,13.5022,13.5022,0,0,0,2.49-.2051v6.416a17.43,17.43,0,0,1-5.127.7617q-8.9062,0-9.082-8.9941v-17.08H312.28v-6.2109h4.6289v-7.793Z" transform="translate(-6.7202 -10.8794)"/><path class="cls-1" d="M335.4536,554.6914a4.1693,4.1693,0,0,1,1.2744-3.1348,5.4921,5.4921,0,0,1,6.9287,0,4.4738,4.4738,0,0,1-.0146,6.2988,5.43,5.43,0,0,1-6.8848,0A4.1568,4.1568,0,0,1,335.4536,554.6914Zm8.9941,39.9023h-8.4961V562.8945h8.4961Z" transform="translate(-6.7202 -10.8794)"/><path class="cls-1" d="M350.1021,578.4512a18.7929,18.7929,0,0,1,1.8164-8.4082,13.2971,13.2971,0,0,1,5.2295-5.7129,15.2558,15.2558,0,0,1,7.9248-2.0215,14.4346,14.4346,0,0,1,10.4736,3.9258q4.0576,3.9258,4.5264,10.6641l.0586,2.168q0,7.2949-4.0723,11.7031-4.0723,4.4106-10.9277,4.41t-10.9424-4.3945q-4.0869-4.3945-4.0869-11.9531Zm8.4668.6006q0,4.519,1.6992,6.9092a6.1024,6.1024,0,0,0,9.668.0293q1.7285-2.3613,1.7285-7.5547a11.7281,11.7281,0,0,0-1.7285-6.8652,5.6179,5.6179,0,0,0-4.8633-2.4355,5.527,5.527,0,0,0-4.8047,2.42Q358.5688,573.9761,358.5688,579.0518Z" transform="translate(-6.7202 -10.8794)"/><path class="cls-1" d="M393.1392,562.8945l.2637,3.6621a11.0673,11.0673,0,0,1,9.1113-4.248q5.0391,0,7.5,2.959t2.52,8.8477v20.4785h-8.4668v-20.32a5.5139,5.5139,0,0,0-1.1719-3.92,5.238,5.238,0,0,0-3.8965-1.2187,5.8226,5.8226,0,0,0-5.3613,3.0527v22.4063H385.17V562.8945Z" transform="translate(-6.7202 -10.8794)"/><path class="cls-1" d="M464.7993,559.0566H451.7329v35.5371h-8.7891V559.0566H430.0532v-7.1191h34.7461Z" transform="translate(-6.7202 -10.8794)"/><path class="cls-1" d="M469.8091,594.5938V551.9375H484.75q7.7637,0,11.7773,2.9727t4.0137,8.7168a9.6342,9.6342,0,0,1-1.6113,5.5215,9.3034,9.3034,0,0,1-4.4824,3.502,9.0052,9.0052,0,0,1,5.1709,3.3105,9.7873,9.7873,0,0,1,1.89,6.0938q0,6.1523-3.9258,9.3164t-11.1914,3.2227Zm8.7891-24.7852h6.5039q6.65-.1172,6.65-5.3027a4.9023,4.9023,0,0,0-1.6846-4.1758q-1.6846-1.2744-5.3174-1.2734h-6.1523Zm0,6.2109v11.5137h7.5293a7.2662,7.2662,0,0,0,4.8486-1.48,5.07,5.07,0,0,0,1.7432-4.0859q0-5.8594-6.0645-5.9473Z" transform="translate(-6.7202 -10.8794)"/><path class="cls-1" d="M508.1,594.5938V551.9375h13.125a19.9413,19.9413,0,0,1,10.0635,2.5332,17.6713,17.6713,0,0,1,6.9287,7.207,22.2357,22.2357,0,0,1,2.49,10.6211v1.9629a22.292,22.292,0,0,1-2.4463,10.5762,17.52,17.52,0,0,1-6.8994,7.1777,20.0822,20.0822,0,0,1-10.0488,2.5781Zm8.7891-35.5371v28.4766h4.248q5.1563,0,7.8809-3.3691t2.7832-9.6387V572.27q0-6.5039-2.6953-9.8594t-7.8809-3.3535Z" transform="translate(-6.7202 -10.8794)"/><g class="cls-3"><path d="M300.8613,177.4692l4.1938-22.168h6.3979l-6.9116,31.1548H298.08l-5.0713-20.8413-5.0713,20.8413h-6.4619l-6.9111-31.1548h6.3979l4.2148,22.125,5.1357-22.125h5.4346Z" transform="translate(-6.7202 -10.8794)"/><path d="M330.5093,186.4561H324.09V155.3013h6.4194Z" transform="translate(-6.7202 -10.8794)"/><path d="M368.0537,160.501H358.51v25.9551h-6.4189V160.501h-9.415v-5.2h25.3774Z" transform="translate(-6.7202 -10.8794)"/><path d="M405.8325,186.4561h-6.418V173.104H386.897v13.3521h-6.42V155.3013h6.42v12.6245h12.5176V155.3013h6.418Z" transform="translate(-6.7202 -10.8794)"/><path d="M457.4683,180.0366H446.2134l-2.14,6.4194h-6.8262l11.5977-31.1548h5.9482l11.6621,31.1548h-6.8262Zm-9.5215-5.1992h7.7881l-3.915-11.6616Z" transform="translate(-6.7202 -10.8794)"/></g></g></g></svg>