<svg id="Layer_1" data-name="Layer 1" xmlns="http://www.w3.org/2000/svg" viewBox="0 0 1200 1080"><defs><style>.cls-1{fill:#2e6e17;}.cls-2{fill:#f0e552;}.cls-3{opacity:0.7;}.cls-4,.cls-5{fill:#7fc764;}.cls-4{stroke:#2e6e17;stroke-miterlimit:10;stroke-width:23px;}</style></defs><title>Beginners 2017 Snake Game</title><rect class="cls-1" x="-360" width="1920" height="1080"/><path class="cls-2" d="M254.06,712.998l8.4961-1.1934V646.4141l-8.3057-.7148v-3.6279h11.5029q2.1475-.0469,4.2246-.1436,2.0757-.0937,4.2715-.2148,2.1943-.1172,4.6533-.19t5.3223-.0713A38.5238,38.5238,0,0,1,294.2,642.62a21.848,21.848,0,0,1,7.2783,3.3174,14.0893,14.0893,0,0,1,4.4395,5.2266,15.6244,15.6244,0,0,1,1.5029,6.9443,22.7937,22.7937,0,0,1-.8594,6.3,17.5264,17.5264,0,0,1-2.625,5.4648,16.5857,16.5857,0,0,1-4.5342,4.248,18.8089,18.8089,0,0,1-6.5391,2.5547,23.1005,23.1005,0,0,1,7.4463,1.1934,18.7891,18.7891,0,0,1,6.2041,3.459,16.2954,16.2954,0,0,1,4.2246,5.5605,17.2848,17.2848,0,0,1,1.5508,7.4463,21.7424,21.7424,0,0,1-1.8613,9.0449,18.8463,18.8463,0,0,1-5.7031,7.1357,28.1088,28.1088,0,0,1-9.6416,4.6777,49.7182,49.7182,0,0,1-13.6748,1.67q-2.0522,0-4.2-.0957t-4.2236-.19q-2.0771-.0952-3.9141-.2148t-3.27-.167H254.06Zm15.5117-37.9932a30.3656,30.3656,0,0,0,3.2217.2627q1.9336.07,3.9854.0713t3.9385-.0244q1.8838-.0234,3.0781-.0234a23.3785,23.3785,0,0,0,6.5869-.9062,14.6157,14.6157,0,0,0,5.3936-2.84,13.5325,13.5325,0,0,0,3.627-4.94,17.5389,17.5389,0,0,0,1.3369-7.1592,13.3025,13.3025,0,0,0-1.4561-6.4434,12.3709,12.3709,0,0,0-3.9375-4.3672,16.9338,16.9338,0,0,0-5.752-2.459,30.3134,30.3134,0,0,0-6.8965-.7637q-1.4326,0-3.27.0234-1.8384.0264-3.6758.0957-1.8369.0732-3.46.2148a18.7694,18.7694,0,0,0-2.625.3828Zm.0479,36.2744a12.9184,12.9184,0,0,0,2.5059.5967q1.6465.2622,3.58.4531t3.9131.3105q1.98.1187,3.5088.1191a40.0371,40.0371,0,0,0,7.9229-.7881,20.3927,20.3927,0,0,0,6.9922-2.7441A14.9012,14.9012,0,0,0,303.0059,704a16.395,16.395,0,0,0,1.8857-8.2812,17.3351,17.3351,0,0,0-1.4561-7.4932,12.7741,12.7741,0,0,0-4.0566-4.94,17.0156,17.0156,0,0,0-6.1816-2.7207,34.505,34.505,0,0,0-7.8271-.834h-8.21q-2.1958,0-4.2.0469t-3.3408.1436Z"/><path class="cls-2" d="M326.9424,667.6543l-4.916-.9551v-2.8633l10.2617-2.0039,1.4326.8584v32.8857a56.3141,56.3141,0,0,0,.4287,7.5176,13.4956,13.4956,0,0,0,1.6709,5.1777,7.3086,7.3086,0,0,0,3.4844,3.0078,15.0246,15.0246,0,0,0,5.8232.9551,18.7355,18.7355,0,0,0,5.3457-.7637,28.6039,28.6039,0,0,0,8.3281-3.9863,23.0838,23.0838,0,0,0,2.22-1.7422v-37.61l-5.9658-1.05v-3.0547l11.4072-2.1484,1.3838.8115v50.1162H373.86v2.9111q-.668.2856-1.6465.5967a19.3682,19.3682,0,0,1-2.0518.5254q-1.0737.2139-2.1484.3574a14.7276,14.7276,0,0,1-1.9326.1436,5.1971,5.1971,0,0,1-3.27-.8828,3.2789,3.2789,0,0,1-1.1221-2.7451V709.418a36.4552,36.4552,0,0,1-9.5215,5.8223,25.8777,25.8777,0,0,1-9.7607,1.957,22.03,22.03,0,0,1-6.3242-.7871,11.9427,11.9427,0,0,1-4.3193-2.2432,10.1365,10.1365,0,0,1-2.6729-3.5088,19.2126,19.2126,0,0,1-1.4326-4.6055,38.5675,38.5675,0,0,1-.5967-5.5605q-.1187-3.0059-.1191-6.3008Z"/><path class="cls-2" d="M385.0771,712.9492l7.875-.7637V669.85l-6.873-2.3867v-2.4336l11.6934-2.9121,1.8145.9072v49.1143l7.9707.8105v3.2461h-22.48Zm9.5459-64.291a5.1587,5.1587,0,0,1-1.7666-.3105,4.1872,4.1872,0,0,1-1.5029-.9307,5.07,5.07,0,0,1-1.0508-1.4561,4.3688,4.3688,0,0,1-.4053-1.9326,4.8484,4.8484,0,0,1,.501-2.1963,6.1336,6.1336,0,0,1,1.2891-1.7422,5.7359,5.7359,0,0,1,1.79-1.1445,5.3041,5.3041,0,0,1,2.0039-.4062,4.4851,4.4851,0,0,1,3.6279,1.36,4.9777,4.9777,0,0,1,1.1455,3.3174,5.16,5.16,0,0,1-.4775,2.2432,5.4611,5.4611,0,0,1-3.0781,2.8154A5.89,5.89,0,0,1,394.623,648.6582Z"/><path class="cls-2" d="M417.5332,712.9492l7.9707-.8105V644.792l-7.78-1.1455v-3.293l12.9824-1.623,1.6709,1.002v72.4531l8.4.7637v3.2461H417.5332Z"/><path class="cls-2" d="M470.4658,717.3408a20.6943,20.6943,0,0,1-7.9717-1.5752,18.0315,18.0315,0,0,1-6.7295-4.8926,24.4094,24.4094,0,0,1-4.63-8.4,37.9206,37.9206,0,0,1-1.7178-12.1,31.3986,31.3986,0,0,1,2.1475-11.7646,28.4927,28.4927,0,0,1,5.8467-9.2354,26.58,26.58,0,0,1,19.3545-8.21,30.1715,30.1715,0,0,1,3.8184.2148,24.4233,24.4233,0,0,1,2.959.5488q1.2891.3354,2.2676.6924t1.7422.6445v-18.52l-9.7852-1.1455v-3.2939l14.8447-1.5273,1.8135.9551v73.0742h6.4912v2.9111a12.5776,12.5776,0,0,1-1.8613.62q-1.0986.2871-2.291.502t-2.3867.334q-1.1938.1187-2.1953.1191a11.5338,11.5338,0,0,1-1.6709-.1191,3.1622,3.1622,0,0,1-1.4082-.5488,2.9259,2.9259,0,0,1-.9541-1.2656,6.012,6.012,0,0,1-.3584-2.3145v-1.3838a18.5973,18.5973,0,0,1-2.5059,1.8369,22.4485,22.4485,0,0,1-3.7227,1.8379,29.7977,29.7977,0,0,1-4.9639,1.4316A30.493,30.493,0,0,1,470.4658,717.3408Zm2.6729-5.0117a26.3437,26.3437,0,0,0,5.44-.5244,17.596,17.596,0,0,0,5.6084-1.957,20.5643,20.5643,0,0,0,3.3652-2.3867V669.2773a16.2485,16.2485,0,0,0-1.2646-1.2168,9.0373,9.0373,0,0,0-2.1006-1.3125,15.4275,15.4275,0,0,0-3.3174-1.0508,23.9175,23.9175,0,0,0-4.916-.43,19.2771,19.2771,0,0,0-6.9922,1.3369,17.4941,17.4941,0,0,0-6.2529,4.2,21.9006,21.9006,0,0,0-4.5576,7.3027A30.04,30.04,0,0,0,456.29,688.751a34.58,34.58,0,0,0,1.2168,10.3809,22.02,22.02,0,0,0,3.6035,7.3506,14.7541,14.7541,0,0,0,5.3936,4.3906A15.4209,15.4209,0,0,0,473.1387,712.3291Z"/><path class="cls-2" d="M535.3779,701.3037a12.0252,12.0252,0,0,1,2.0039-5.8232,17.4477,17.4477,0,0,1,4.3672-4.4141,26.1734,26.1734,0,0,1,6.0146-3.15,48.73,48.73,0,0,1,6.92-2.0293,61.559,61.559,0,0,1,7.0645-1.0977q3.5083-.334,6.5146-.334v-4.2a19.2283,19.2283,0,0,0-.9775-6.6338,9.7412,9.7412,0,0,0-2.793-4.1523,10.5249,10.5249,0,0,0-4.415-2.1484,25.5169,25.5169,0,0,0-5.8945-.6211,23.7356,23.7356,0,0,0-3.9375.3584,35.1377,35.1377,0,0,0-4.2.9785q-2.0757.6211-3.9854,1.3838a22.09,22.09,0,0,0-3.2451,1.5762l-1.3848-3.39a18.1425,18.1425,0,0,1,4.3438-2.5293,38.8636,38.8636,0,0,1,5.2734-1.8135,44.7949,44.7949,0,0,1,5.2266-1.0742,31.491,31.491,0,0,1,4.2959-.3574,32.4549,32.4549,0,0,1,7.1592.7637,15.0885,15.0885,0,0,1,5.9424,2.72,13.2469,13.2469,0,0,1,4.0332,5.3457,21.7245,21.7245,0,0,1,1.4795,8.64l-.0947,33.5059h6.3v2.625a15.6719,15.6719,0,0,1-3.58,1.1211,23.0632,23.0632,0,0,1-4.6768.4541,11.0606,11.0606,0,0,1-1.623-.12,3.3247,3.3247,0,0,1-1.4561-.5723,3.0471,3.0471,0,0,1-1.0264-1.3838,6.8957,6.8957,0,0,1-.3818-2.5537v-1.9092a19.6869,19.6869,0,0,1-2.9824,2.7686,17.3372,17.3372,0,0,1-3.7471,2.123,23.6106,23.6106,0,0,1-4.7012,1.3848,30.4923,30.4923,0,0,1-5.752.502,18.4989,18.4989,0,0,1-6.1807-1.0508,15.9712,15.9712,0,0,1-5.2744-3.0547,13.7647,13.7647,0,0,1-3.5791-4.9883A14.7625,14.7625,0,0,1,535.3779,701.3037Zm7.0156.0947a12.3773,12.3773,0,0,0,.8594,5.084,8.91,8.91,0,0,0,2.5771,3.4844,10.8189,10.8189,0,0,0,3.9854,2.0039,19.1,19.1,0,0,0,5.1309.6445,18.3139,18.3139,0,0,0,4.7256-.5723,21.257,21.257,0,0,0,3.8184-1.3848,19.4259,19.4259,0,0,0,2.8633-1.67q1.1938-.8584,1.8623-1.4316V698.75q0-2.5518.0234-5.2266.0234-2.6719.0234-5.2021-2.5767,0-5.4883.2393a48.1142,48.1142,0,0,0-5.8.834,37.5533,37.5533,0,0,0-5.5127,1.5762,19.2841,19.2841,0,0,0-4.6289,2.4336,12.0132,12.0132,0,0,0-3.2227,3.4365A8.5375,8.5375,0,0,0,542.3936,701.3984Z"/><path class="cls-2" d="M256.3506,816.2168h3.4844l2.2432,9.7373a12.3447,12.3447,0,0,0,3.5322,2.3623,24.1819,24.1819,0,0,0,4.3193,1.4795,31.7968,31.7968,0,0,0,4.63.7637q2.3613.2153,4.4619.2148a25.0739,25.0739,0,0,0,6.1094-.7637,17.0893,17.0893,0,0,0,5.5137-2.4346,12.797,12.797,0,0,0,3.9854-4.3906,13.3768,13.3768,0,0,0,1.5273-6.6348,10.9,10.9,0,0,0-1.6-5.87,18.8677,18.8677,0,0,0-4.2236-4.7012,38.7546,38.7546,0,0,0-5.99-3.9385q-3.3647-1.8135-6.9443-3.5312-3.8188-1.8618-7.4941-3.8906a38.7125,38.7125,0,0,1-6.5625-4.51,21.7677,21.7677,0,0,1-4.7012-5.6094,14.0372,14.0372,0,0,1-1.8135-7.1826,16.8617,16.8617,0,0,1,1.0254-6.0381,15.8659,15.8659,0,0,1,2.793-4.749,18.4974,18.4974,0,0,1,4.08-3.5322,24.6183,24.6183,0,0,1,4.8926-2.41,30.4733,30.4733,0,0,1,5.25-1.3838,30.8823,30.8823,0,0,1,5.1553-.4541,54.5077,54.5077,0,0,1,6.5869.3584,46.4061,46.4061,0,0,1,5.1787.9072,27.11,27.11,0,0,1,3.89,1.2168,21.3675,21.3675,0,0,1,2.6729,1.2891v12.7441h-3.2461l-2.8154-9.499a12.4993,12.4993,0,0,0-5.585-2.5771,32.1911,32.1911,0,0,0-7.3027-.7158,21.5355,21.5355,0,0,0-5.417.7393,16.4419,16.4419,0,0,0-5.2021,2.3633,12.9957,12.9957,0,0,0-3.8906,4.248,12.52,12.52,0,0,0-1.5273,6.3955,10.1343,10.1343,0,0,0,1.48,5.417,17.399,17.399,0,0,0,3.9131,4.3906,33.7175,33.7175,0,0,0,5.6084,3.6523q3.1743,1.67,6.5625,3.293,2.625,1.2422,5.251,2.5771,2.6235,1.3374,5.0586,2.8164a44.0846,44.0846,0,0,1,4.5352,3.15,22.11,22.11,0,0,1,3.6514,3.6514,16.2231,16.2231,0,0,1,2.4336,4.3428,14.6814,14.6814,0,0,1,.8828,5.1787,19.3571,19.3571,0,0,1-1.957,9.0215,17.2582,17.2582,0,0,1-5.3213,6.1807,23.18,23.18,0,0,1-7.8516,3.5557,38.2684,38.2684,0,0,1-9.498,1.1455,60.6119,60.6119,0,0,1-7.04-.4053q-3.4614-.4072-6.3965-1.0264a50.0765,50.0765,0,0,1-5.1309-1.3369,15.6788,15.6788,0,0,1-3.1973-1.3359Z"/><path class="cls-2" d="M314.1982,830.249l6.8252-.8584V787.293l-7.0166-2.5293v-2.4346l11.3125-2.9111,1.7656.9063v6.5869a32.0725,32.0725,0,0,1,4.0576-2.6729,44.5177,44.5177,0,0,1,5.1777-2.5059,46.5242,46.5242,0,0,1,5.6084-1.8848,24.41,24.41,0,0,1,5.2979-.8594,20.3191,20.3191,0,0,1,7.6133,1.002,10.5109,10.5109,0,0,1,5.06,3.8662,18.262,18.262,0,0,1,2.792,7.1348,58.0769,58.0769,0,0,1,.8594,10.8594v27.5879l7.7793.8105v3.2461H349.3271V830.249l7.3506-.8105V802.71a53.543,53.543,0,0,0-.5967-8.64,15.0384,15.0384,0,0,0-2.0527-5.7988,8.0991,8.0991,0,0,0-3.8662-3.1738,14.7208,14.7208,0,0,0-5.99-.8115,24.8353,24.8353,0,0,0-3.9131.5488,30.9227,30.9227,0,0,0-4.2246,1.2412,40.3985,40.3985,0,0,0-4.2,1.8379,34.03,34.03,0,0,0-3.89,2.291v39.2334l7.541.8105v3.2461H314.1982Z"/><path class="cls-2" d="M379.8271,818.6035a12.0287,12.0287,0,0,1,2.0039-5.8232,17.4671,17.4671,0,0,1,4.3672-4.415,26.2093,26.2093,0,0,1,6.0146-3.1494,48.8577,48.8577,0,0,1,6.92-2.0293,61.5591,61.5591,0,0,1,7.0645-1.0977q3.5083-.3325,6.5146-.334v-4.2a19.2381,19.2381,0,0,0-.9775-6.6348,9.7592,9.7592,0,0,0-2.793-4.1523,10.5236,10.5236,0,0,0-4.415-2.1475,25.52,25.52,0,0,0-5.8945-.62,23.8338,23.8338,0,0,0-3.9375.3574,34.95,34.95,0,0,0-4.2.9785q-2.0757.6211-3.9854,1.3848a22,22,0,0,0-3.2451,1.5742l-1.3848-3.3887a18.1425,18.1425,0,0,1,4.3438-2.5293,39.0027,39.0027,0,0,1,5.2734-1.8145,44.9883,44.9883,0,0,1,5.2266-1.0732,31.3552,31.3552,0,0,1,4.2959-.3584,32.5726,32.5726,0,0,1,7.1592.7637,15.09,15.09,0,0,1,5.9424,2.7207,13.24,13.24,0,0,1,4.0332,5.3457,21.7245,21.7245,0,0,1,1.4795,8.64l-.0947,33.5059h6.3v2.625a15.62,15.62,0,0,1-3.58,1.1221,23.1346,23.1346,0,0,1-4.6768.4531,11.1953,11.1953,0,0,1-1.623-.1191,3.35,3.35,0,0,1-1.4561-.5732,3.0471,3.0471,0,0,1-1.0264-1.3838,6.8992,6.8992,0,0,1-.3818-2.5537v-1.9092a19.6869,19.6869,0,0,1-2.9824,2.7686,17.4217,17.4217,0,0,1-3.7471,2.124,23.6761,23.6761,0,0,1-4.7012,1.3838,30.4961,30.4961,0,0,1-5.752.501,18.498,18.498,0,0,1-6.1807-1.05,15.9712,15.9712,0,0,1-5.2744-3.0547,13.786,13.786,0,0,1-3.5791-4.9873A14.7667,14.7667,0,0,1,379.8271,818.6035Zm7.0156.0957a12.3784,12.3784,0,0,0,.8594,5.083,8.91,8.91,0,0,0,2.5771,3.4844,10.82,10.82,0,0,0,3.9854,2.0049,19.14,19.14,0,0,0,5.1309.6436,18.3139,18.3139,0,0,0,4.7256-.5723,21.257,21.257,0,0,0,3.8184-1.3848,19.4259,19.4259,0,0,0,2.8633-1.67q1.1938-.86,1.8623-1.4316V816.05q0-2.5532.0234-5.2266t.0234-5.2021q-2.5767,0-5.4883.2383a48.3158,48.3158,0,0,0-5.8.8359,37.4319,37.4319,0,0,0-5.5127,1.5752,19.3189,19.3189,0,0,0-4.6289,2.4336,12.0006,12.0006,0,0,0-3.2227,3.4365A8.5385,8.5385,0,0,0,386.8428,818.6992Z"/><path class="cls-2" d="M434.7158,830.249l7.7324-.8105V762.0918l-8.4-1.1455v-3.2939l13.65-1.623,1.6709,1.0029v40.0449l-.1914,10.6436,24.2471-23.625-7.16-.5732v-3.9141h20.9531v3.8662l-7.3975.668-17.7559,16.9922,21.4307,28.3037,7.0166.8584v3.1982H468.7471v-3.1982l7.0635-.9062L457.8643,804.666l-8.7344,8.21.2393,11.2637v5.2988l7.3975.8105v3.2461H434.7158Z"/><path class="cls-2" d="M494.6641,806.957a31.6872,31.6872,0,0,1,1.957-11.2881,27.6849,27.6849,0,0,1,5.417-8.9727,24.6268,24.6268,0,0,1,8.2813-5.9424,26.7453,26.7453,0,0,1,10.5488-2.2432,19.5891,19.5891,0,0,1,7.4453,1.2646,15.7093,15.7093,0,0,1,5.752,3.8662,17.741,17.741,0,0,1,3.7461,6.2764,26.5177,26.5177,0,0,1,1.4316,8.4482,34.2986,34.2986,0,0,1-.0713,4.3193q-.167,1.8867-.4053,3.4131H501.6807v.5244a30.0619,30.0619,0,0,0,1.4082,10.31,20.0939,20.0939,0,0,0,4.1279,7.1836,16.235,16.235,0,0,0,6.1572,4.2,20.7906,20.7906,0,0,0,7.541,1.36,34.9828,34.9828,0,0,0,4.63-.3105,39.726,39.726,0,0,0,4.4395-.835,30.4371,30.4371,0,0,0,3.7939-1.1934,14.6762,14.6762,0,0,0,2.6973-1.3359l1.4795,3.293a13.9952,13.9952,0,0,1-3.6035,2.2432,30.87,30.87,0,0,1-4.8447,1.6943,41.9178,41.9178,0,0,1-5.4893,1.05,44.8953,44.8953,0,0,1-5.584.3584,24.8562,24.8562,0,0,1-10.2139-1.98,20.3312,20.3312,0,0,1-7.4463-5.585,24.5075,24.5075,0,0,1-4.5576-8.71A39.147,39.147,0,0,1,494.6641,806.957Zm37.2773-5.1543a43.7961,43.7961,0,0,0,0-5.752,21.9363,21.9363,0,0,0-.9307-5.083,13.8218,13.8218,0,0,0-2.0771-4.1279,10.1279,10.1279,0,0,0-3.3887-2.8887,13.41,13.41,0,0,0-6.4912-1.4785,15.9168,15.9168,0,0,0-6.2041,1.2168,15.249,15.249,0,0,0-5.2031,3.627,19.8335,19.8335,0,0,0-3.8184,6.0381,29.1408,29.1408,0,0,0-2.0049,8.4482Z"/><path class="cls-2" d="M573.4658,798.6045a42.6739,42.6739,0,0,1,3.0547-16.5146,38.1137,38.1137,0,0,1,8.2813-12.5527,36.1707,36.1707,0,0,1,12.1953-7.9941,39.407,39.407,0,0,1,14.7959-2.793,68.4884,68.4884,0,0,1,7.66.3828q3.3662.3823,5.9424.9063,2.5781.5259,4.4873,1.0742,1.9072.5493,3.293.835l-.62,13.03h-3.9619l-1.9092-8.4482a9.9755,9.9755,0,0,0-2.22-1.2168,23.5094,23.5094,0,0,0-3.6514-1.1689,44.9883,44.9883,0,0,0-4.9639-.8828,44.4416,44.4416,0,0,0-6.2041-.3105,27.7565,27.7565,0,0,0-20.0234,8.8057,31.8625,31.8625,0,0,0-6.4434,10.4766,38.95,38.95,0,0,0-2.41,14.1758,51.6887,51.6887,0,0,0,.7158,8.5918,41.1572,41.1572,0,0,0,2.1963,8.0654,33.171,33.171,0,0,0,3.7461,7.0645,25.3859,25.3859,0,0,0,5.37,5.6318,24.145,24.145,0,0,0,7.04,3.7227,27.108,27.108,0,0,0,8.7578,1.3369,46.5873,46.5873,0,0,0,4.8213-.2627,38.5314,38.5314,0,0,0,4.9395-.835,27.1662,27.1662,0,0,0,4.4629-1.4561,13.2026,13.2026,0,0,0,3.4365-2.0762V803.998l-13.2207-.7158v-3.58h26.7764v3.58l-6.4912.8115V829.915a26.1064,26.1064,0,0,0-4.32.9072q-2.7451.7646-6.252,1.6709t-7.6133,1.6221a49.06,49.06,0,0,1-8.4482.7168,32.8328,32.8328,0,0,1-13.5068-2.7207,31.1847,31.1847,0,0,1-10.501-7.542,34.0025,34.0025,0,0,1-6.8018-11.4785A42.2662,42.2662,0,0,1,573.4658,798.6045Z"/><path class="cls-2" d="M648.2109,818.6035a12.0287,12.0287,0,0,1,2.0039-5.8232,17.4671,17.4671,0,0,1,4.3672-4.415,26.2093,26.2093,0,0,1,6.0146-3.1494,48.8577,48.8577,0,0,1,6.92-2.0293,61.5591,61.5591,0,0,1,7.0645-1.0977q3.5083-.3325,6.5146-.334v-4.2a19.2381,19.2381,0,0,0-.9775-6.6348,9.7592,9.7592,0,0,0-2.793-4.1523,10.5236,10.5236,0,0,0-4.415-2.1475,25.52,25.52,0,0,0-5.8945-.62,23.8338,23.8338,0,0,0-3.9375.3574,34.95,34.95,0,0,0-4.2.9785q-2.0757.6211-3.9854,1.3848a22,22,0,0,0-3.2451,1.5742l-1.3848-3.3887a18.1425,18.1425,0,0,1,4.3438-2.5293,39.0027,39.0027,0,0,1,5.2734-1.8145,44.9884,44.9884,0,0,1,5.2266-1.0732,31.3552,31.3552,0,0,1,4.2959-.3584,32.5726,32.5726,0,0,1,7.1592.7637,15.09,15.09,0,0,1,5.9424,2.7207,13.24,13.24,0,0,1,4.0332,5.3457,21.7245,21.7245,0,0,1,1.4795,8.64l-.0947,33.5059h6.3v2.625a15.62,15.62,0,0,1-3.58,1.1221,23.1346,23.1346,0,0,1-4.6768.4531,11.1953,11.1953,0,0,1-1.623-.1191,3.35,3.35,0,0,1-1.4561-.5732,3.0471,3.0471,0,0,1-1.0264-1.3838,6.8992,6.8992,0,0,1-.3818-2.5537v-1.9092a19.687,19.687,0,0,1-2.9824,2.7686,17.4217,17.4217,0,0,1-3.7471,2.124,23.6761,23.6761,0,0,1-4.7012,1.3838,30.4961,30.4961,0,0,1-5.752.501,18.498,18.498,0,0,1-6.1807-1.05A15.9712,15.9712,0,0,1,652.84,830.44a13.786,13.786,0,0,1-3.5791-4.9873A14.7667,14.7667,0,0,1,648.2109,818.6035Zm7.0156.0957a12.3784,12.3784,0,0,0,.8594,5.083,8.91,8.91,0,0,0,2.5771,3.4844,10.82,10.82,0,0,0,3.9854,2.0049,19.14,19.14,0,0,0,5.1309.6436,18.3139,18.3139,0,0,0,4.7256-.5723,21.257,21.257,0,0,0,3.8184-1.3848,19.4259,19.4259,0,0,0,2.8633-1.67q1.1938-.86,1.8623-1.4316V816.05q0-2.5532.0234-5.2266t.0234-5.2021q-2.5767,0-5.4883.2383a48.3158,48.3158,0,0,0-5.8.8359,37.4319,37.4319,0,0,0-5.5127,1.5752,19.3189,19.3189,0,0,0-4.6289,2.4336,12.0006,12.0006,0,0,0-3.2227,3.4365A8.5385,8.5385,0,0,0,655.2266,818.6992Z"/><path class="cls-2" d="M703.959,830.2969l6.7773-.9062V787.293l-7.0166-2.5293v-2.4824l11.36-2.8633,1.7178.9063v6.5869a30.67,30.67,0,0,1,4.0811-2.6963,46.42,46.42,0,0,1,5.1309-2.4824,41.1756,41.1756,0,0,1,5.5361-1.8379,23.4536,23.4536,0,0,1,5.2988-.7637,17.6105,17.6105,0,0,1,8.2568,1.48,10.4873,10.4873,0,0,1,4.7725,5.2021,24.2664,24.2664,0,0,1,3.9619-2.3623,45.4186,45.4186,0,0,1,5.06-2.1006,46.6369,46.6369,0,0,1,5.417-1.5273,29.8857,29.8857,0,0,1,5.083-.6924,19.6237,19.6237,0,0,1,7.4941,1.002A10.1461,10.1461,0,0,1,781.8057,784a18.4791,18.4791,0,0,1,2.6729,7.1357,61.0149,61.0149,0,0,1,.8115,10.8105v27.4922l8.0664.8584v3.1982H771.5918v-3.1982l6.8252-.8584v-26.3a68.6156,68.6156,0,0,0-.4541-8.4951,16.258,16.258,0,0,0-1.7656-5.9189,7.8243,7.8243,0,0,0-3.7227-3.4121,14.78,14.78,0,0,0-6.3242-.9785,22.1317,22.1317,0,0,0-3.89.4531,35.27,35.27,0,0,0-3.9385,1.05,37.5348,37.5348,0,0,0-3.7939,1.4795q-1.8384.8364-3.4131,1.7422a44.234,44.234,0,0,1,.8359,5.5605q.3091,3.27.31,6.85v27.97l7.542.8584v3.1982H738.085v-3.1982l7.3027-.9062V802.2324a66.6285,66.6285,0,0,0-.43-8.1855,15.268,15.268,0,0,0-1.67-5.6084,7.2,7.2,0,0,0-3.58-3.1748,15.0876,15.0876,0,0,0-6.1094-.8828,19.988,19.988,0,0,0-3.7939.502,32.42,32.42,0,0,0-4.1055,1.2168,37.4714,37.4714,0,0,0-4.1279,1.8145,34.9951,34.9951,0,0,0-3.8662,2.291v20.4756q0,2.3862-.0244,4.9395t-.0234,5.0117v8.8066l7.541.8584v3.1982H703.959Z"/><path class="cls-2" d="M801.04,806.957a31.6872,31.6872,0,0,1,1.957-11.2881,27.6849,27.6849,0,0,1,5.417-8.9727,24.6268,24.6268,0,0,1,8.2813-5.9424,26.7453,26.7453,0,0,1,10.5488-2.2432,19.5891,19.5891,0,0,1,7.4453,1.2646,15.7093,15.7093,0,0,1,5.752,3.8662,17.741,17.741,0,0,1,3.7461,6.2764,26.5177,26.5177,0,0,1,1.4316,8.4482,34.2986,34.2986,0,0,1-.0713,4.3193q-.167,1.8867-.4053,3.4131H808.0566v.5244a30.0619,30.0619,0,0,0,1.4082,10.31,20.0939,20.0939,0,0,0,4.1279,7.1836,16.235,16.235,0,0,0,6.1572,4.2,20.7906,20.7906,0,0,0,7.541,1.36,34.9828,34.9828,0,0,0,4.63-.3105,39.726,39.726,0,0,0,4.4395-.835,30.4371,30.4371,0,0,0,3.7939-1.1934,14.6762,14.6762,0,0,0,2.6973-1.3359l1.4795,3.293a13.9952,13.9952,0,0,1-3.6035,2.2432,30.87,30.87,0,0,1-4.8447,1.6943,41.9178,41.9178,0,0,1-5.4893,1.05,44.8953,44.8953,0,0,1-5.584.3584,24.8562,24.8562,0,0,1-10.2139-1.98,20.3312,20.3312,0,0,1-7.4463-5.585,24.5075,24.5075,0,0,1-4.5576-8.71A39.147,39.147,0,0,1,801.04,806.957Zm37.2773-5.1543a43.7961,43.7961,0,0,0,0-5.752,21.9363,21.9363,0,0,0-.9307-5.083A13.8218,13.8218,0,0,0,835.31,786.84a10.1279,10.1279,0,0,0-3.3887-2.8887,13.41,13.41,0,0,0-6.4912-1.4785,15.9168,15.9168,0,0,0-6.2041,1.2168,15.249,15.249,0,0,0-5.2031,3.627,19.8335,19.8335,0,0,0-3.8184,6.0381,29.1408,29.1408,0,0,0-2.0049,8.4482Z"/><g class="cls-3"><path class="cls-2" d="M255.82,918.043l4.8071-.7783V881.708l-4.7-.4561v-2.6328H270.51v2.6328l-4.6465.4824v35.5039l4.8887.8047v2.2832H255.82Z"/><path class="cls-2" d="M277.1963,918.043l3.6523-.5371V895.6191l-3.8135-2.0947v-1.665l7.1436-2.1211,1.208.5371v3.84a15.9065,15.9065,0,0,1,2.2031-1.5439,23.0119,23.0119,0,0,1,2.7383-1.3838,20.5843,20.5843,0,0,1,2.9814-1.0068,14.0256,14.0256,0,0,1,2.9-.4424,10.3019,10.3019,0,0,1,4.1895.6035,5.9487,5.9487,0,0,1,2.7393,2.2295,10.47,10.47,0,0,1,1.5039,3.9609,31.7128,31.7128,0,0,1,.457,5.8008v15.1729l4.3232.5371v2.2832H295.8877V918.043l4.0557-.5635V903.2734a33.5948,33.5948,0,0,0-.2422-4.2969,8.0847,8.0847,0,0,0-.9531-3.0625,4.2573,4.2573,0,0,0-1.9746-1.7715,7.44,7.44,0,0,0-3.3027-.4844,12.3463,12.3463,0,0,0-3.5176.7393,17.1306,17.1306,0,0,0-3.8945,2.0537v21.0283l4.002.5635v2.2832H277.1963Z"/><path class="cls-2" d="M318.07,913.29q0-4.9409.0137-9.8154t.0137-9.8164h-4.1094v-2.0137q1.1821-.2959,1.9736-.47a7.2323,7.2323,0,0,0,1.3164-.4033,2.7882,2.7882,0,0,0,.8721-.5771,3.3182,3.3182,0,0,0,.6445-1.0205q.189-.457.4707-1.3428t.5371-1.8125q.2549-.9272.4434-1.7461t.2412-1.168h2.6592v7.1709H332.17v3.3828h-9.0234v13.5352q0,3.1157.08,5.0625a13.3077,13.3077,0,0,0,.4023,3.0488,2.509,2.509,0,0,0,.94,1.49,3.2143,3.2143,0,0,0,1.7188.3887,9.24,9.24,0,0,0,1.49-.1338q.8188-.1348,1.585-.3223t1.41-.416a4.5479,4.5479,0,0,0,.9668-.4434l.832,2.3633a5.5988,5.5988,0,0,1-1.6387,1.1816,13.2521,13.2521,0,0,1-2.2148.8594,17.606,17.606,0,0,1-2.3906.5234,14.8173,14.8173,0,0,1-2.1074.1748,5.7778,5.7778,0,0,1-4.5391-1.7988Q318.07,917.3716,318.07,913.29Z"/><path class="cls-2" d="M337.1387,918.043l4.3506-.5635v-21.86l-3.8135-2.0947v-1.665l7.09-2.1211,1.2617.5371V894.41a7.6653,7.6653,0,0,1,1.5449-1.584,14.6634,14.6634,0,0,1,2.3223-1.5176,16.169,16.169,0,0,1,2.6855-1.1279,8.7361,8.7361,0,0,1,2.6328-.4424q.8848,0,1.5977.04a3.9438,3.9438,0,0,1,1.0068.1475v5.5059q-.4292-.1611-.8857-.3359a7.1636,7.1636,0,0,0-1.0078-.2959q-.5508-.12-1.248-.2012a14.22,14.22,0,0,0-1.6113-.0811,10.5438,10.5438,0,0,0-3.6523.5508,14.6525,14.6525,0,0,0-2.7129,1.33v21l7.6543.6445v2.2832H337.1387Z"/><path class="cls-2" d="M361.6836,904.6963a17.0809,17.0809,0,0,1,1.249-6.4316,14.8507,14.8507,0,0,1,3.1553-4.7939,13.63,13.63,0,0,1,4.5254-3.0078,14.4061,14.4061,0,0,1,5.3574-1.0742,13.3665,13.3665,0,0,1,5.9355,1.1816,11.5535,11.5535,0,0,1,4.1758,3.3164,14.212,14.212,0,0,1,2.457,4.9551,21.6429,21.6429,0,0,1,.7793,6.0957,18.751,18.751,0,0,1-1.1416,6.5264,15.8526,15.8526,0,0,1-3.0078,5.0625,13.4814,13.4814,0,0,1-4.4307,3.2764,12.8586,12.8586,0,0,1-5.4385,1.168,13.6375,13.6375,0,0,1-6.3115-1.3428,11.8734,11.8734,0,0,1-4.2422-3.5986,14.9216,14.9216,0,0,1-2.377-5.1963A23.4648,23.4648,0,0,1,361.6836,904.6963Zm13.8574,13.2666a7.7406,7.7406,0,0,0,3.8545-.7793,6.5116,6.5116,0,0,0,2.5508-2.457,11.9742,11.9742,0,0,0,1.4238-4.0283,30.7231,30.7231,0,0,0,.4424-5.5186,25.8033,25.8033,0,0,0-.47-5.0625,13.4294,13.4294,0,0,0-1.4766-4.0957,7.9752,7.9752,0,0,0-2.5518-2.752,6.8791,6.8791,0,0,0-3.666-1.0605,8.2,8.2,0,0,0-3.88.792,6.7268,6.7268,0,0,0-2.6182,2.4033,11.2942,11.2942,0,0,0-1.4912,3.8672,25.8329,25.8329,0,0,0-.47,5.1836,24.273,24.273,0,0,0,.51,5.0215A15.6077,15.6077,0,0,0,369.23,913.76a8.9477,8.9477,0,0,0,2.5918,3.0078A6.4374,6.4374,0,0,0,375.541,917.9629Z"/><path class="cls-2" d="M406.3984,920.9707a11.1111,11.1111,0,0,1-4.3779-.8994,10.2283,10.2283,0,0,1-3.7461-2.7666,14.1888,14.1888,0,0,1-2.6182-4.7266,20.6891,20.6891,0,0,1-.9941-6.7812,17.6446,17.6446,0,0,1,1.209-6.6191,15.9111,15.9111,0,0,1,3.3027-5.1973,15.0378,15.0378,0,0,1,4.9277-3.3965,15.199,15.199,0,0,1,6.083-1.2227,19.99,19.99,0,0,1,2.7666.1885,13.1086,13.1086,0,0,1,2.3086.5107v-8.9434l-5.72-.9668v-2.3359l9.668-1.1289,1.208.6182V918.043h3.626v2.0146a6.7987,6.7987,0,0,1-1.1416.4561q-.6841.2153-1.45.377a15.4574,15.4574,0,0,1-3.0479.3223,8.0689,8.0689,0,0,1-1.0068-.0674,2.3481,2.3481,0,0,1-.9541-.3359,1.9939,1.9939,0,0,1-.7109-.833,3.5215,3.5215,0,0,1-.2822-1.5566v-.6719a7.3068,7.3068,0,0,1-1.1816,1.0205,9.6817,9.6817,0,0,1-1.9336,1.0479,15.9059,15.9059,0,0,1-2.6455.8184A14.989,14.989,0,0,1,406.3984,920.9707Zm2.0674-3.68a12.53,12.53,0,0,0,1.5977-.0937,11.8917,11.8917,0,0,0,1.3838-.2549,8.719,8.719,0,0,0,2.2559-.8594,7.3285,7.3285,0,0,0,1.5566-1.1553V894.3838a6.9339,6.9339,0,0,0-.7246-.7256,4.8,4.8,0,0,0-1.1143-.6973,7.5418,7.5418,0,0,0-1.6387-.5244,10.9986,10.9986,0,0,0-2.2422-.2012,9.4061,9.4061,0,0,0-2.1221.2549,8.5222,8.5222,0,0,0-2.1748.8457,9.5265,9.5265,0,0,0-2.041,1.5313,9.8135,9.8135,0,0,0-1.7187,2.2959,13.1326,13.1326,0,0,0-1.208,3.1689,17.925,17.925,0,0,0-.4844,4.1494,18.9542,18.9542,0,0,0,.6719,5.72,12.0836,12.0836,0,0,0,1.9473,3.9883,7.93,7.93,0,0,0,2.8066,2.3369A7.3936,7.3936,0,0,0,408.4658,917.291Z"/><path class="cls-2" d="M431.8037,894.0879l-2.7666-.8047v-2.0684l6.9023-1.4766.9395.4824v18.5039a26.0259,26.0259,0,0,0,.2422,3.8271,6.8986,6.8986,0,0,0,.8867,2.6318,3.8809,3.8809,0,0,0,1.7715,1.53,7.232,7.232,0,0,0,2.9.4971,8.5285,8.5285,0,0,0,2.377-.3359,14.7772,14.7772,0,0,0,2.1758-.8057,11.8178,11.8178,0,0,0,1.7588-.9932,7.0646,7.0646,0,0,0,1.1006-.9V894.33l-3.3564-.8594v-2.2021l7.6807-1.53.752.4561V918.043h3.2227v2.041a6.7853,6.7853,0,0,1-.9941.417q-.59.2007-1.2754.3623t-1.3965.2686a9.1333,9.1333,0,0,1-1.3555.1074,3.3261,3.3261,0,0,1-2.0283-.5508,2.0486,2.0486,0,0,1-.7383-1.7588v-2.2021a17.8059,17.8059,0,0,1-4.9014,3.1016,13.0562,13.0562,0,0,1-5.0078,1.0615,10.3069,10.3069,0,0,1-4.9414-.98,6.2782,6.2782,0,0,1-2.6455-2.7129,11.1266,11.1266,0,0,1-1.0742-4.0957q-.2021-2.3628-.2285-5.1562Z"/><path class="cls-2" d="M463.5742,905.8779a18.3754,18.3754,0,0,1,1.1006-6.6865,15.3935,15.3935,0,0,1,3.1016-5.1035,14.0325,14.0325,0,0,1,4.6465-3.3027,15.8081,15.8081,0,0,1,5.7607-1.3164q1.1279-.0264,2.2959.041a20.3111,20.3111,0,0,1,2.2021.2412,14.5708,14.5708,0,0,1,1.8926.4434,5.6438,5.6438,0,0,1,1.3965.6182v6.4453H483.42l-1.3691-3.3848a4.161,4.161,0,0,0-.9941-.59,8.6892,8.6892,0,0,0-1.1543-.4033,7.9033,7.9033,0,0,0-1.1816-.2285,9.798,9.798,0,0,0-1.0742-.0674,8.9805,8.9805,0,0,0-3.4375.6719,8.1521,8.1521,0,0,0-2.9,2.0273,9.9458,9.9458,0,0,0-2.0146,3.4111,14.4266,14.4266,0,0,0-.7783,4.82,19.0354,19.0354,0,0,0,.8594,6.2568,12.7073,12.7073,0,0,0,2.3086,4.2568,8.917,8.917,0,0,0,3.17,2.417,8.5026,8.5026,0,0,0,3.4375.7656,18.35,18.35,0,0,0,2.1748-.1348q1.1279-.1333,2.1748-.3486a15.0445,15.0445,0,0,0,1.9336-.5234,8.8431,8.8431,0,0,0,1.4512-.6318l.9121,2.3906a7.7822,7.7822,0,0,1-1.9336,1.2354,15.89,15.89,0,0,1-2.5371.9131,22.0888,22.0888,0,0,1-2.9.5771,23.0579,23.0579,0,0,1-3.0488.2021,12.7618,12.7618,0,0,1-5.5049-1.1289,11.5108,11.5108,0,0,1-4.042-3.1416,14.0224,14.0224,0,0,1-2.5107-4.7666A20.5178,20.5178,0,0,1,463.5742,905.8779Z"/><path class="cls-2" d="M495.9082,913.29q0-4.9409.0137-9.8154t.0137-9.8164h-4.1094v-2.0137q1.1821-.2959,1.9736-.47a7.2323,7.2323,0,0,0,1.3164-.4033,2.7882,2.7882,0,0,0,.8721-.5771,3.3182,3.3182,0,0,0,.6445-1.0205q.189-.457.4707-1.3428t.5371-1.8125q.2549-.9272.4434-1.7461t.2412-1.168h2.6592v7.1709h9.0234v3.3828h-9.0234v13.5352q0,3.1157.08,5.0625a13.3077,13.3077,0,0,0,.4023,3.0488,2.509,2.509,0,0,0,.94,1.49,3.2143,3.2143,0,0,0,1.7188.3887,9.24,9.24,0,0,0,1.49-.1338q.8188-.1348,1.585-.3223t1.41-.416a4.5479,4.5479,0,0,0,.9668-.4434l.832,2.3633a5.5988,5.5988,0,0,1-1.6387,1.1816,13.2521,13.2521,0,0,1-2.2148.8594,17.606,17.606,0,0,1-2.3906.5234,14.8173,14.8173,0,0,1-2.1074.1748,5.7778,5.7778,0,0,1-4.5391-1.7988Q495.9082,917.3716,495.9082,913.29Z"/><path class="cls-2" d="M514.9746,918.043l4.5654-.5635V895.4844l-3.7061-1.96v-1.665l7.4395-2.1211,1.208.5371v27.2041l4.3506.5635v2.2832H514.9746ZM520.91,883.4a3.6151,3.6151,0,0,1-1.2627-.2285,3.4062,3.4062,0,0,1-1.0879-.6445,3.0543,3.0543,0,0,1-.752-1.0342,3.3338,3.3338,0,0,1-.2822-1.3965,3.43,3.43,0,0,1,.3633-1.5576,4.34,4.34,0,0,1,.9258-1.249,4.2906,4.2906,0,0,1,1.2764-.8193,3.7261,3.7261,0,0,1,1.4365-.2949,3.1931,3.1931,0,0,1,2.5918.98,3.545,3.545,0,0,1,.8184,2.35,3.67,3.67,0,0,1-.3486,1.6113,3.7982,3.7982,0,0,1-.9131,1.2217,4.272,4.272,0,0,1-1.2891.7793A4.0531,4.0531,0,0,1,520.91,883.4Z"/><path class="cls-2" d="M533.0752,904.6963a17.0809,17.0809,0,0,1,1.249-6.4316,14.8507,14.8507,0,0,1,3.1553-4.7939,13.63,13.63,0,0,1,4.5254-3.0078,14.4061,14.4061,0,0,1,5.3574-1.0742,13.3665,13.3665,0,0,1,5.9355,1.1816,11.5535,11.5535,0,0,1,4.1758,3.3164,14.212,14.212,0,0,1,2.457,4.9551,21.6429,21.6429,0,0,1,.7793,6.0957,18.751,18.751,0,0,1-1.1416,6.5264,15.8526,15.8526,0,0,1-3.0078,5.0625,13.4814,13.4814,0,0,1-4.4307,3.2764,12.8586,12.8586,0,0,1-5.4385,1.168,13.6375,13.6375,0,0,1-6.3115-1.3428,11.8734,11.8734,0,0,1-4.2422-3.5986,14.9216,14.9216,0,0,1-2.377-5.1963A23.4648,23.4648,0,0,1,533.0752,904.6963Zm13.8574,13.2666a7.7406,7.7406,0,0,0,3.8545-.7793,6.5116,6.5116,0,0,0,2.5508-2.457,11.9742,11.9742,0,0,0,1.4238-4.0283,30.7231,30.7231,0,0,0,.4424-5.5186,25.8033,25.8033,0,0,0-.47-5.0625,13.4294,13.4294,0,0,0-1.4766-4.0957,7.9752,7.9752,0,0,0-2.5518-2.752,6.8791,6.8791,0,0,0-3.666-1.0605,8.2,8.2,0,0,0-3.88.792,6.7268,6.7268,0,0,0-2.6182,2.4033,11.2942,11.2942,0,0,0-1.4912,3.8672,25.8329,25.8329,0,0,0-.47,5.1836,24.273,24.273,0,0,0,.51,5.0215,15.6077,15.6077,0,0,0,1.5313,4.2832,8.9477,8.9477,0,0,0,2.5918,3.0078A6.4374,6.4374,0,0,0,546.9326,917.9629Z"/><path class="cls-2" d="M567.0752,918.043l3.6523-.5371V895.6191l-3.8135-2.0947v-1.665l7.1436-2.1211,1.208.5371v3.84a15.9065,15.9065,0,0,1,2.2031-1.5439,23.0119,23.0119,0,0,1,2.7383-1.3838,20.5843,20.5843,0,0,1,2.9814-1.0068,14.0256,14.0256,0,0,1,2.9-.4424,10.3019,10.3019,0,0,1,4.1895.6035,5.9487,5.9487,0,0,1,2.7393,2.2295,10.47,10.47,0,0,1,1.5039,3.9609,31.7128,31.7128,0,0,1,.457,5.8008v15.1729l4.3232.5371v2.2832H585.7666V918.043l4.0557-.5635V903.2734a33.5948,33.5948,0,0,0-.2422-4.2969,8.0847,8.0847,0,0,0-.9531-3.0625,4.2573,4.2573,0,0,0-1.9746-1.7715,7.44,7.44,0,0,0-3.3027-.4844,12.3463,12.3463,0,0,0-3.5176.7393,17.1306,17.1306,0,0,0-3.8945,2.0537v21.0283l4.002.5635v2.2832H567.0752Z"/><path class="cls-2" d="M260.09,979.29q0-4.9409.0137-9.8154t.0137-9.8164h-4.1094v-2.0137q1.1814-.2959,1.9736-.47a7.2323,7.2323,0,0,0,1.3164-.4033,2.7882,2.7882,0,0,0,.8721-.5771,3.3182,3.3182,0,0,0,.6445-1.0205q.189-.457.4707-1.3428t.5371-1.8125q.2549-.9272.4434-1.7461t.2412-1.168h2.6592v7.1709h9.0234v3.3828H265.166v13.5352q0,3.1157.08,5.0625a13.3077,13.3077,0,0,0,.4023,3.0488,2.509,2.509,0,0,0,.94,1.49,3.2143,3.2143,0,0,0,1.7188.3887,9.24,9.24,0,0,0,1.49-.1338q.8188-.1348,1.585-.3223t1.41-.416a4.5479,4.5479,0,0,0,.9668-.4434l.832,2.3633a5.5988,5.5988,0,0,1-1.6387,1.1816,13.2521,13.2521,0,0,1-2.2148.8594,17.606,17.606,0,0,1-2.3906.5234,14.8173,14.8173,0,0,1-2.1074.1748,5.7778,5.7778,0,0,1-4.5391-1.7988Q260.09,983.3716,260.09,979.29Z"/><path class="cls-2" d="M278.915,970.6963a17.0809,17.0809,0,0,1,1.249-6.4316,14.8507,14.8507,0,0,1,3.1553-4.7939,13.63,13.63,0,0,1,4.5254-3.0078,14.4061,14.4061,0,0,1,5.3574-1.0742,13.3665,13.3665,0,0,1,5.9355,1.1816,11.5535,11.5535,0,0,1,4.1758,3.3164,14.212,14.212,0,0,1,2.457,4.9551,21.6429,21.6429,0,0,1,.7793,6.0957,18.751,18.751,0,0,1-1.1416,6.5264,15.8526,15.8526,0,0,1-3.0078,5.0625,13.4814,13.4814,0,0,1-4.4307,3.2764,12.8586,12.8586,0,0,1-5.4385,1.168,13.6375,13.6375,0,0,1-6.3115-1.3428,11.8733,11.8733,0,0,1-4.2422-3.5986,14.9216,14.9216,0,0,1-2.377-5.1963A23.4648,23.4648,0,0,1,278.915,970.6963Zm13.8574,13.2666a7.7406,7.7406,0,0,0,3.8545-.7793,6.5116,6.5116,0,0,0,2.5508-2.457,11.9742,11.9742,0,0,0,1.4238-4.0283,30.7231,30.7231,0,0,0,.4424-5.5186,25.8033,25.8033,0,0,0-.47-5.0625,13.4294,13.4294,0,0,0-1.4766-4.0957,7.9752,7.9752,0,0,0-2.5518-2.752,6.8791,6.8791,0,0,0-3.666-1.0605,8.2,8.2,0,0,0-3.88.792,6.7268,6.7268,0,0,0-2.6182,2.4033,11.2942,11.2942,0,0,0-1.4912,3.8672,25.8329,25.8329,0,0,0-.47,5.1836,24.273,24.273,0,0,0,.51,5.0215,15.6077,15.6077,0,0,0,1.5313,4.2832,8.9477,8.9477,0,0,0,2.5918,3.0078A6.4374,6.4374,0,0,0,292.7725,983.9629Z"/><path class="cls-2" d="M325.5635,984.043l5.0752-.8047V948.0039l-4.4307-.457v-2.9277h7.0635q.6445,0,1.7188-.0527t2.376-.1348q1.3022-.0806,2.7129-.1348t2.7529-.0527a25.3966,25.3966,0,0,1,5.666.59,11.2259,11.2259,0,0,1,4.4316,2.0283,9.512,9.512,0,0,1,2.8867,3.8271,15.2217,15.2217,0,0,1,1.0332,6.0156,13.195,13.195,0,0,1-.6035,4.0547,12.6284,12.6284,0,0,1-1.6787,3.41,13.046,13.046,0,0,1-2.5518,2.7129,15.0189,15.0189,0,0,1-3.1953,1.9609,17.242,17.242,0,0,1-7.52,1.5039q-2.0405-.0542-3.3027-.0273a16.2184,16.2184,0,0,0-2.1221.1611v12.7568l7.1709.8047v2.2832H325.5635Zm10.3125-16.73a26.1391,26.1391,0,0,0,2.833.2549q1.3022.041,2.5117.04a18.9186,18.9186,0,0,0,2.5645-.1738,10.6276,10.6276,0,0,0,2.417-.6182,8.3254,8.3254,0,0,0,2.1211-1.208,6.9229,6.9229,0,0,0,1.6924-1.9746,10.5072,10.5072,0,0,0,1.1143-2.8867,17.127,17.127,0,0,0,.4033-3.9609q0-4.9409-2.78-7.332-2.7788-2.3892-7.9619-2.2285-1.3169.0542-2.5117.1475a15.1461,15.1461,0,0,0-2.4033.39Z"/><path class="cls-2" d="M361.0664,984.043l4.3506-.5635v-21.86l-3.8135-2.0947v-1.665l7.09-2.1211,1.2617.5371V960.41a7.6653,7.6653,0,0,1,1.5449-1.584,14.6634,14.6634,0,0,1,2.3223-1.5176,16.169,16.169,0,0,1,2.6855-1.1279,8.7361,8.7361,0,0,1,2.6328-.4424q.8848,0,1.5977.04a3.9438,3.9438,0,0,1,1.0068.1475v5.5059q-.4292-.1611-.8857-.3359a7.1636,7.1636,0,0,0-1.0078-.2959q-.5508-.12-1.248-.2012a14.22,14.22,0,0,0-1.6113-.0811,10.5438,10.5438,0,0,0-3.6523.5508,14.6525,14.6525,0,0,0-2.7129,1.33v21l7.6543.6445v2.2832H361.0664Z"/><path class="cls-2" d="M385.6113,970.6963a17.0809,17.0809,0,0,1,1.249-6.4316,14.8507,14.8507,0,0,1,3.1553-4.7939,13.63,13.63,0,0,1,4.5254-3.0078,14.4061,14.4061,0,0,1,5.3574-1.0742,13.3665,13.3665,0,0,1,5.9355,1.1816,11.5535,11.5535,0,0,1,4.1758,3.3164,14.212,14.212,0,0,1,2.457,4.9551,21.6429,21.6429,0,0,1,.7793,6.0957,18.751,18.751,0,0,1-1.1416,6.5264,15.8526,15.8526,0,0,1-3.0078,5.0625,13.4814,13.4814,0,0,1-4.4307,3.2764,12.8586,12.8586,0,0,1-5.4385,1.168,13.6375,13.6375,0,0,1-6.3115-1.3428,11.8734,11.8734,0,0,1-4.2422-3.5986,14.9216,14.9216,0,0,1-2.377-5.1963A23.4648,23.4648,0,0,1,385.6113,970.6963Zm13.8574,13.2666a7.7406,7.7406,0,0,0,3.8545-.7793,6.5116,6.5116,0,0,0,2.5508-2.457,11.9742,11.9742,0,0,0,1.4238-4.0283,30.7231,30.7231,0,0,0,.4424-5.5186,25.8033,25.8033,0,0,0-.47-5.0625,13.4294,13.4294,0,0,0-1.4766-4.0957,7.9752,7.9752,0,0,0-2.5518-2.752,6.8791,6.8791,0,0,0-3.666-1.0605,8.2,8.2,0,0,0-3.88.792,6.7268,6.7268,0,0,0-2.6182,2.4033,11.2942,11.2942,0,0,0-1.4912,3.8672,25.8329,25.8329,0,0,0-.47,5.1836,24.273,24.273,0,0,0,.51,5.0215,15.6077,15.6077,0,0,0,1.5313,4.2832,8.9477,8.9477,0,0,0,2.5918,3.0078A6.4374,6.4374,0,0,0,399.4688,983.9629Z"/><path class="cls-2" d="M419.3154,992.584a6.4132,6.4132,0,0,1,.4434-2.3633,9.5512,9.5512,0,0,1,1.1152-2.0684,11.0692,11.0692,0,0,1,1.4629-1.6787,10.3182,10.3182,0,0,1,1.5176-1.1943,5.4,5.4,0,0,1-1.8262-.9941,3.3564,3.3564,0,0,1-.873-1.1816,3.68,3.68,0,0,1-.2812-1.2617q-.0278-.6445-.0273-1.209a4.9686,4.9686,0,0,1,.2148-1.2617,10.6226,10.6226,0,0,1,.6309-1.666,12.6029,12.6029,0,0,1,1.0479-1.7988,9.35,9.35,0,0,1,1.4365-1.6387,8.8908,8.8908,0,0,1-3.1826-3.2354,9.7858,9.7858,0,0,1-1.168-4.9551,10.2966,10.2966,0,0,1,1.0605-4.8076,10.1186,10.1186,0,0,1,2.793-3.3828,12.13,12.13,0,0,1,3.9346-2.0146,16.598,16.598,0,0,1,4.458-.7256,15.4257,15.4257,0,0,1,4.2832.4707,10.0042,10.0042,0,0,1,3.5322,1.6777,3.8168,3.8168,0,0,1,1.57-1.0068,8.0094,8.0094,0,0,1,2.7529-.39h3.249v4.0557h-5.2637a9.1429,9.1429,0,0,1,.873,2.31,12.0865,12.0865,0,0,1,.3086,2.82,10.8256,10.8256,0,0,1-.9795,4.7129,10.2392,10.2392,0,0,1-2.6318,3.4512,11.5264,11.5264,0,0,1-3.8135,2.1211,14.1381,14.1381,0,0,1-4.5254.7246,15.2411,15.2411,0,0,1-5.667-.9932,4.2067,4.2067,0,0,0-.2275.9268,9.0886,9.0886,0,0,0-.0811.9668q-.0132.47,0,.8857c.0088.2783.0137.5059.0137.6846a3.1427,3.1427,0,0,0,.7656,2.2559,4.0958,4.0958,0,0,0,2.6719.9668q1.2085.1084,2.9.1211,1.6919.0146,4.0283.0137a20.1834,20.1834,0,0,1,4.2705.39,11.0125,11.0125,0,0,1,2.94,1.0342,5.91,5.91,0,0,1,1.8389,1.5039,6.7079,6.7079,0,0,1,1.0215,1.7988,7.202,7.202,0,0,1,.43,1.8936q.0791.9521.08,1.8125a9.0223,9.0223,0,0,1-.9668,4.1895,9.2657,9.2657,0,0,1-2.7793,3.2227,13.546,13.546,0,0,1-4.4316,2.0811,21.9425,21.9425,0,0,1-5.9482.7383,29.7013,29.7013,0,0,1-4.74-.375,14.1225,14.1225,0,0,1-4.1494-1.3027,8.1661,8.1661,0,0,1-2.9531-2.4707A6.3622,6.3622,0,0,1,419.3154,992.584Zm4.9961-1.7187a6.388,6.388,0,0,0,.6973,3.1016,5.8131,5.8131,0,0,0,1.8809,2.0674,8.212,8.212,0,0,0,2.7383,1.1553,14.5705,14.5705,0,0,0,3.3037.3623,19.1855,19.1855,0,0,0,3.9072-.3623,9.4769,9.4769,0,0,0,2.9414-1.0879,4.9083,4.9083,0,0,0,2.4971-4.458,8.148,8.148,0,0,0-.2959-2.2959,3.38,3.38,0,0,0-1.1543-1.7051,5.94,5.94,0,0,0-2.4033-1.0615,18.31,18.31,0,0,0-4.042-.3623l-3.3838-.0537q-1.585,0-2.833-.0937t-2.2422-.2549a6.096,6.096,0,0,0-.6045.8457,6.5858,6.5858,0,0,0-.5107,1.0742,7.6064,7.6064,0,0,0-.3623,1.3691A10.2459,10.2459,0,0,0,424.3115,990.8652Zm7.8945-17.6445a7.6824,7.6824,0,0,0,2.82-.457,4.2786,4.2786,0,0,0,1.8662-1.3828,5.9493,5.9493,0,0,0,1.0342-2.31,14.3789,14.3789,0,0,0,.3223-3.2354q0-4.002-1.7187-5.9355a6.5414,6.5414,0,0,0-5.1562-1.9336,8.7017,8.7017,0,0,0-2.5107.35,5.044,5.044,0,0,0-2.041,1.168,5.5293,5.5293,0,0,0-1.37,2.1748,9.9843,9.9843,0,0,0-.4961,3.3975,12.0408,12.0408,0,0,0,.4023,3.1553,7.2274,7.2274,0,0,0,1.2754,2.6055,6.0621,6.0621,0,0,0,2.2559,1.7588A7.7988,7.7988,0,0,0,432.2061,973.2207Z"/><path class="cls-2" d="M451.2207,984.043l4.3506-.5635v-21.86l-3.8135-2.0947v-1.665l7.09-2.1211,1.2617.5371V960.41a7.6653,7.6653,0,0,1,1.5449-1.584,14.6634,14.6634,0,0,1,2.3223-1.5176,16.169,16.169,0,0,1,2.6855-1.1279,8.7361,8.7361,0,0,1,2.6328-.4424q.8848,0,1.5977.04a3.9438,3.9438,0,0,1,1.0068.1475v5.5059q-.4292-.1611-.8857-.3359a7.1636,7.1636,0,0,0-1.0078-.2959q-.5508-.12-1.248-.2012a14.22,14.22,0,0,0-1.6113-.0811,10.5438,10.5438,0,0,0-3.6523.5508,14.6525,14.6525,0,0,0-2.7129,1.33v21l7.6543.6445v2.2832H451.2207Z"/><path class="cls-2" d="M476.1689,977.6787a6.6306,6.6306,0,0,1,1.208-3.29,10.045,10.045,0,0,1,2.5254-2.43,15.1629,15.1629,0,0,1,3.3428-1.6924,28.3955,28.3955,0,0,1,3.6924-1.0742,30.073,30.073,0,0,1,3.5723-.5635q1.7183-.1611,2.98-.1621v-2.3359a8.9381,8.9381,0,0,0-.5635-3.4512,4.9791,4.9791,0,0,0-1.5576-2.0811,5.6468,5.6468,0,0,0-2.3359-1.0205,14.82,14.82,0,0,0-2.9-.2686,11.7714,11.7714,0,0,0-1.7461.1475,20.1067,20.1067,0,0,0-2.001.416q-1.0342.27-2.0811.6445a20.0858,20.0858,0,0,0-1.9873.833l-.9932-2.417a9.98,9.98,0,0,1,2.43-1.41,22.58,22.58,0,0,1,2.9541-1.0068,23.2446,23.2446,0,0,1,2.9541-.5908,19.434,19.434,0,0,1,2.457-.1875,17.9544,17.9544,0,0,1,4.042.4424,8.6594,8.6594,0,0,1,3.37,1.5576,7.6354,7.6354,0,0,1,2.2969,3.0078,11.88,11.88,0,0,1,.8457,4.82L498.62,984.043h3.4375v1.7734a9.3426,9.3426,0,0,1-2.3232.832,12.2094,12.2094,0,0,1-2.7793.3223,8.8455,8.8455,0,0,1-1.0469-.0674,2.7042,2.7042,0,0,1-1.0342-.335,2.0764,2.0764,0,0,1-.7793-.833,3.2684,3.2684,0,0,1-.3086-1.5576v-.752a8.73,8.73,0,0,1-1.4639,1.3965,9.5986,9.5986,0,0,1-1.9336,1.1279,11.4306,11.4306,0,0,1-2.4707.752,16.2082,16.2082,0,0,1-3.0742.2686,9.3276,9.3276,0,0,1-3.8008-.752,8.0483,8.0483,0,0,1-4.5381-4.9814A8.2686,8.2686,0,0,1,476.1689,977.6787Zm5.21.1074a7.4154,7.4154,0,0,0,.43,2.6855,4.3164,4.3164,0,0,0,1.249,1.7861,5.0593,5.0593,0,0,0,2.001.9932,10.5125,10.5125,0,0,0,2.6582.31,6.5764,6.5764,0,0,0,1.6387-.2148,11.6232,11.6232,0,0,0,1.5977-.5371,9.6225,9.6225,0,0,0,1.4229-.7393,6.1578,6.1578,0,0,0,1.0615-.8193q0-2.5239.0127-5.0078t.04-5.0088q-1.1279,0-2.4707.1211a21.306,21.306,0,0,0-2.6855.416,18.288,18.288,0,0,0-2.6045.7783,8.8778,8.8778,0,0,0-2.2295,1.2227,5.8914,5.8914,0,0,0-1.5439,1.7324A4.4587,4.4587,0,0,0,481.3789,977.7861Z"/><path class="cls-2" d="M507.4561,984.043l3.6523-.59v-21.834l-3.8135-2.0947v-1.665l7.1436-2.1211,1.208.5371v3.84a15.2059,15.2059,0,0,1,2.1484-1.5439,21.8057,21.8057,0,0,1,2.6992-1.3838,20.4524,20.4524,0,0,1,2.9414-1.0068,13.6,13.6,0,0,1,2.873-.4424,9.8834,9.8834,0,0,1,4.6865.7646,5.9866,5.9866,0,0,1,2.7793,3.0479,15.847,15.847,0,0,1,2.2822-1.3965,24.0861,24.0861,0,0,1,2.7666-1.1943,23.0573,23.0573,0,0,1,2.9268-.8467,16.1287,16.1287,0,0,1,2.7666-.375,10.3026,10.3026,0,0,1,4.2158.6172,5.9807,5.9807,0,0,1,2.7666,2.2559,10.6423,10.6423,0,0,1,1.5039,4.0283,33.17,33.17,0,0,1,.4561,5.9346v14.9053l4.5391.5635v2.2832H544.65V984.043l3.6523-.5635V969.5146a35.8766,35.8766,0,0,0-.2412-4.4717,8.2712,8.2712,0,0,0-.9531-3.1152,4.2372,4.2372,0,0,0-1.9736-1.7852,7.4469,7.4469,0,0,0-3.3037-.4844,13.1893,13.1893,0,0,0-3.626.6855,20.1,20.1,0,0,0-3.5449,1.5977,23.4072,23.4072,0,0,1,.457,2.94q.1611,1.6523.1611,3.4248v15.1992l4.1084.5371v2.2832h-13.293V984.043l4.0283-.59V969.085a32.2456,32.2456,0,0,0-.2549-4.3779,7.5526,7.5526,0,0,0-.98-2.98,4.03,4.03,0,0,0-2.001-1.6514,8.377,8.377,0,0,0-3.3164-.417,12.2308,12.2308,0,0,0-3.3164.7393,17.0177,17.0177,0,0,0-3.9072,2.0537v4.915q0,4.0547-.0273,8.0566t0,8.0566l4.002.5635v2.2832H507.4561Z"/><path class="cls-2" d="M563.0459,984.043l3.6523-.59v-21.834l-3.8135-2.0947v-1.665l7.1436-2.1211,1.208.5371v3.84a15.2059,15.2059,0,0,1,2.1484-1.5439,21.8057,21.8057,0,0,1,2.6992-1.3838,20.4524,20.4524,0,0,1,2.9414-1.0068,13.6,13.6,0,0,1,2.873-.4424,9.8834,9.8834,0,0,1,4.6865.7646,5.9866,5.9866,0,0,1,2.7793,3.0479,15.847,15.847,0,0,1,2.2822-1.3965,24.0861,24.0861,0,0,1,2.7666-1.1943,23.0573,23.0573,0,0,1,2.9268-.8467,16.1287,16.1287,0,0,1,2.7666-.375,10.3026,10.3026,0,0,1,4.2158.6172,5.9807,5.9807,0,0,1,2.7666,2.2559,10.6423,10.6423,0,0,1,1.5039,4.0283,33.17,33.17,0,0,1,.4561,5.9346v14.9053l4.5391.5635v2.2832H600.24V984.043l3.6523-.5635V969.5146a35.8766,35.8766,0,0,0-.2412-4.4717,8.2712,8.2712,0,0,0-.9531-3.1152,4.2372,4.2372,0,0,0-1.9736-1.7852,7.4469,7.4469,0,0,0-3.3037-.4844,13.1893,13.1893,0,0,0-3.626.6855,20.1,20.1,0,0,0-3.5449,1.5977,23.4072,23.4072,0,0,1,.457,2.94q.1611,1.6523.1611,3.4248v15.1992l4.1084.5371v2.2832h-13.293V984.043l4.0283-.59V969.085a32.2456,32.2456,0,0,0-.2549-4.3779,7.5526,7.5526,0,0,0-.98-2.98,4.03,4.03,0,0,0-2.001-1.6514,8.377,8.377,0,0,0-3.3164-.417,12.2308,12.2308,0,0,0-3.3164.7393,17.0177,17.0177,0,0,0-3.9072,2.0537v4.915q0,4.0547-.0273,8.0566t0,8.0566l4.002.5635v2.2832H563.0459Z"/><path class="cls-2" d="M617.9395,984.043l4.5654-.5635V961.4844l-3.7061-1.96v-1.665l7.4395-2.1211,1.208.5371v27.2041l4.3506.5635v2.2832H617.9395ZM623.875,949.4a3.6151,3.6151,0,0,1-1.2627-.2285,3.4062,3.4062,0,0,1-1.0879-.6445,3.0543,3.0543,0,0,1-.752-1.0342,3.3338,3.3338,0,0,1-.2822-1.3965,3.43,3.43,0,0,1,.3633-1.5576,4.34,4.34,0,0,1,.9258-1.249,4.2906,4.2906,0,0,1,1.2764-.8193,3.7261,3.7261,0,0,1,1.4365-.2949,3.1931,3.1931,0,0,1,2.5918.98,3.545,3.545,0,0,1,.8184,2.35,3.67,3.67,0,0,1-.3486,1.6113,3.7981,3.7981,0,0,1-.9131,1.2217,4.272,4.272,0,0,1-1.2891.7793A4.0531,4.0531,0,0,1,623.875,949.4Z"/><path class="cls-2" d="M636.9795,984.043l3.6523-.5371V961.6191l-3.8135-2.0947v-1.665l7.1436-2.1211,1.208.5371v3.84a15.9065,15.9065,0,0,1,2.2031-1.5439,23.0119,23.0119,0,0,1,2.7383-1.3838,20.5843,20.5843,0,0,1,2.9814-1.0068,14.0256,14.0256,0,0,1,2.9-.4424,10.3019,10.3019,0,0,1,4.1895.6035,5.9487,5.9487,0,0,1,2.7393,2.2295,10.47,10.47,0,0,1,1.5039,3.9609,31.7128,31.7128,0,0,1,.457,5.8008v15.1729l4.3232.5371v2.2832H655.6709V984.043l4.0557-.5635V969.2734a33.5948,33.5948,0,0,0-.2422-4.2969,8.0847,8.0847,0,0,0-.9531-3.0625,4.2573,4.2573,0,0,0-1.9746-1.7715,7.44,7.44,0,0,0-3.3027-.4844,12.3463,12.3463,0,0,0-3.5176.7393,17.1306,17.1306,0,0,0-3.8945,2.0537v21.0283l4.002.5635v2.2832H636.9795Z"/><path class="cls-2" d="M674.1738,992.584a6.4132,6.4132,0,0,1,.4434-2.3633,9.5512,9.5512,0,0,1,1.1152-2.0684,11.0692,11.0692,0,0,1,1.4629-1.6787,10.3182,10.3182,0,0,1,1.5176-1.1943,5.4,5.4,0,0,1-1.8262-.9941,3.3564,3.3564,0,0,1-.873-1.1816,3.68,3.68,0,0,1-.2812-1.2617q-.0278-.6445-.0273-1.209a4.9686,4.9686,0,0,1,.2148-1.2617,10.6226,10.6226,0,0,1,.6309-1.666,12.6029,12.6029,0,0,1,1.0479-1.7988,9.35,9.35,0,0,1,1.4365-1.6387,8.8908,8.8908,0,0,1-3.1826-3.2354,9.7858,9.7858,0,0,1-1.168-4.9551,10.2966,10.2966,0,0,1,1.0605-4.8076,10.1186,10.1186,0,0,1,2.793-3.3828,12.13,12.13,0,0,1,3.9346-2.0146,16.598,16.598,0,0,1,4.458-.7256,15.4257,15.4257,0,0,1,4.2832.4707,10.0042,10.0042,0,0,1,3.5322,1.6777,3.8168,3.8168,0,0,1,1.57-1.0068,8.0094,8.0094,0,0,1,2.7529-.39h3.249v4.0557h-5.2637a9.1429,9.1429,0,0,1,.873,2.31,12.0865,12.0865,0,0,1,.3086,2.82,10.8256,10.8256,0,0,1-.9795,4.7129,10.2392,10.2392,0,0,1-2.6318,3.4512,11.5264,11.5264,0,0,1-3.8135,2.1211,14.1381,14.1381,0,0,1-4.5254.7246,15.2411,15.2411,0,0,1-5.667-.9932,4.2067,4.2067,0,0,0-.2275.9268,9.0885,9.0885,0,0,0-.0811.9668q-.0132.47,0,.8857c.0088.2783.0137.5059.0137.6846a3.1427,3.1427,0,0,0,.7656,2.2559,4.0958,4.0958,0,0,0,2.6719.9668q1.2085.1084,2.9.1211,1.6919.0146,4.0283.0137a20.1834,20.1834,0,0,1,4.2705.39,11.0125,11.0125,0,0,1,2.94,1.0342A5.91,5.91,0,0,1,699.74,984.85a6.7079,6.7079,0,0,1,1.0215,1.7988,7.202,7.202,0,0,1,.43,1.8936q.0791.9521.08,1.8125a9.0223,9.0223,0,0,1-.9668,4.1895,9.2657,9.2657,0,0,1-2.7793,3.2227,13.546,13.546,0,0,1-4.4316,2.0811,21.9425,21.9425,0,0,1-5.9482.7383,29.7013,29.7013,0,0,1-4.74-.375,14.1225,14.1225,0,0,1-4.1494-1.3027,8.1661,8.1661,0,0,1-2.9531-2.4707A6.3622,6.3622,0,0,1,674.1738,992.584Zm4.9961-1.7187a6.388,6.388,0,0,0,.6973,3.1016,5.8131,5.8131,0,0,0,1.8809,2.0674,8.212,8.212,0,0,0,2.7383,1.1553,14.5705,14.5705,0,0,0,3.3037.3623,19.1855,19.1855,0,0,0,3.9072-.3623,9.4769,9.4769,0,0,0,2.9414-1.0879,4.9083,4.9083,0,0,0,2.4971-4.458,8.148,8.148,0,0,0-.2959-2.2959,3.38,3.38,0,0,0-1.1543-1.7051,5.94,5.94,0,0,0-2.4033-1.0615,18.31,18.31,0,0,0-4.042-.3623l-3.3838-.0537q-1.585,0-2.833-.0937t-2.2422-.2549a6.096,6.096,0,0,0-.6045.8457,6.5858,6.5858,0,0,0-.5107,1.0742,7.6065,7.6065,0,0,0-.3623,1.3691A10.2459,10.2459,0,0,0,679.17,990.8652Zm7.8945-17.6445a7.6824,7.6824,0,0,0,2.82-.457,4.2786,4.2786,0,0,0,1.8662-1.3828,5.9493,5.9493,0,0,0,1.0342-2.31,14.3789,14.3789,0,0,0,.3223-3.2354q0-4.002-1.7187-5.9355a6.5414,6.5414,0,0,0-5.1562-1.9336,8.7017,8.7017,0,0,0-2.5107.35,5.044,5.044,0,0,0-2.041,1.168,5.5293,5.5293,0,0,0-1.37,2.1748,9.9843,9.9843,0,0,0-.4961,3.3975,12.0408,12.0408,0,0,0,.4023,3.1553,7.2274,7.2274,0,0,0,1.2754,2.6055,6.0621,6.0621,0,0,0,2.2559,1.7588A7.7988,7.7988,0,0,0,687.0645,973.2207Z"/></g><path class="cls-4" d="M315.3223,531.6777l-50,50A25,25,0,0,1,247.6447,589H168.3553c-22.2726,0-33.4268-26.9285-17.6777-42.6777l50-50A25,25,0,0,1,218.3553,489h79.2893C319.9173,489,331.0715,515.9285,315.3223,531.6777Z"/><path class="cls-4" d="M200.6777,496.3223l-50,50C134.9285,562.0715,108,550.9173,108,528.6447V399.3553c0-22.2726,26.9285-33.4268,42.6777-17.6777l50,50A25,25,0,0,1,208,449.3553v29.2893A25,25,0,0,1,200.6777,496.3223Z"/><path class="cls-4" d="M465.3223,531.6777l-50,50A25,25,0,0,1,397.6447,589H318.3553c-22.2726,0-33.4268-26.9285-17.6777-42.6777l50-50A25,25,0,0,1,368.3553,489h79.2893C469.9173,489,481.0715,515.9285,465.3223,531.6777Z"/><path class="cls-4" d="M165.3223,396.3223l-50-50A25,25,0,0,1,108,328.6447V249.3553c0-22.2726,26.9285-33.4268,42.6777-17.6777l50,50A25,25,0,0,1,208,299.3553v79.2893C208,400.9173,181.0715,412.0715,165.3223,396.3223Z"/><path class="cls-4" d="M200.6777,281.6777l-50-50C134.9285,215.9285,146.0827,189,168.3553,189H297.6447c22.2726,0,33.4268,26.9285,17.6777,42.6777l-50,50A25,25,0,0,1,247.6447,289H218.3553A25,25,0,0,1,200.6777,281.6777Z"/><path class="cls-4" d="M465.3223,231.6777l-50,50A25,25,0,0,1,397.6447,289H318.3553c-22.2726,0-33.4268-26.9285-17.6777-42.6777l50-50A25,25,0,0,1,368.3553,189h79.2893C469.9173,189,481.0715,215.9285,465.3223,231.6777Z"/><path class="cls-4" d="M615.3223,231.6777l-50,50A25,25,0,0,1,547.6447,289H468.3553c-22.2726,0-33.4268-26.9285-17.6777-42.6777l50-50A25,25,0,0,1,518.3553,189h79.2893C619.9173,189,631.0715,215.9285,615.3223,231.6777Z"/><path class="cls-4" d="M765.3223,231.6777l-50,50A25,25,0,0,1,697.6447,289H618.3553c-22.2726,0-33.4268-26.9285-17.6777-42.6777l50-50A25,25,0,0,1,668.3553,189h79.2893C769.9173,189,781.0715,215.9285,765.3223,231.6777Z"/><path class="cls-4" d="M1065.3221,231.6777l-50,50A25,25,0,0,1,997.6444,289H918.3551c-22.2726,0-33.4268-26.9285-17.6777-42.6777l50-50A25,25,0,0,1,968.3551,189h79.2893C1069.9171,189,1081.0712,215.9285,1065.3221,231.6777Z"/><path class="cls-4" d="M1015.3221,281.6777l50-50c15.7491-15.7491,42.6777-4.595,42.6777,17.6777V378.6447c0,22.2726-26.9285,33.4268-42.6777,17.6777l-50-50A25,25,0,0,1,1008,328.6447V299.3553A25,25,0,0,1,1015.3221,281.6777Z"/><path class="cls-4" d="M1065.3221,546.3223l-50-50A25,25,0,0,1,1008,478.6447V399.3553c0-22.2726,26.9285-33.4268,42.6777-17.6777l50,50A25,25,0,0,1,1108,449.3553v79.2893C1108,550.9173,1081.0712,562.0715,1065.3221,546.3223Z"/><path class="cls-4" d="M1065.3221,696.3223l-50-50A25,25,0,0,1,1008,628.6447V549.3553c0-22.2726,26.9285-33.4268,42.6777-17.6777l50,50A25,25,0,0,1,1108,599.3553v79.2893C1108,700.9173,1081.0712,712.0715,1065.3221,696.3223Z"/><path class="cls-4" d="M1065.3221,846.3223l-50-50A25,25,0,0,1,1008,778.6447V699.3553c0-22.2726,26.9285-33.4268,42.6777-17.6777l50,50A25,25,0,0,1,1108,749.3553v79.2893C1108,850.9173,1081.0712,862.0715,1065.3221,846.3223Z"/><path class="cls-4" d="M1065.3221,996.3223l-50-50A25,25,0,0,1,1008,928.6447V849.3553c0-22.2726,26.9285-33.4268,42.6777-17.6777l50,50A25,25,0,0,1,1108,899.3553v79.2893C1108,1000.9173,1081.0712,1012.0715,1065.3221,996.3223Z"/><path class="cls-4" d="M558,489c49.8241-.38,81.4215,31.3529,93.912,66.59A25.0174,25.0174,0,0,1,628.3608,589H468.3553c-22.2726,0-33.4268-26.9285-17.6777-42.6777l50-50A25,25,0,0,1,518.3553,489Z"/><circle class="cls-5" cx="566.5" cy="501.5" r="26"/><circle class="cls-1" cx="566.5" cy="500.5" r="13"/><path class="cls-4" d="M915.0723,231.6777l-50,50A25,25,0,0,1,847.3947,289H768.3921c-22.2424,0-33.41-26.8662-17.7219-42.6333l49.75-50A25,25,0,0,1,818.1421,189h79.2526C919.6673,189,930.8215,215.9285,915.0723,231.6777Z"/><circle class="cls-2" cx="858" cy="539" r="26"/><g id="Page-1"><g id="hac-logo"><g id="hac-logo-dark"><path id="Fill-1" class="cls-2" d="M254.16,408.6967l2.0052-.212c1.7345-.1623,2.3862-.54,2.3862-.9175v-29.76c0-.4306-.3242-.5929-2.7638-.8082l-1.5707-.159-.1638-.8612h15.2295l-.16.8612-2.1155.2153c-1.7345.159-2.3828.5366-2.3828.9108v13.9144h16.1519V377.8075c0-.4306-.3242-.5929-2.7638-.8082l-1.6276-.159-.16-.8612h15.2328l-.1638.8612-2.0587.2153c-1.681.159-2.3327.5366-2.3327.9108V407.73c0,.4306.3275.5929,2.7672.8049l1.5707.1623.1638.8612H276.1675l.1638-.8612,2.1155-.212c1.7345-.1623,2.3294-.4869,2.3294-.9175V393.01H264.6242V407.73c0,.4306.3242.5929,2.7638.8049l1.6777.1623.1638.8612H254Z"/><path id="Fill-3" class="cls-2" d="M306.5178,404.938l.3275-8.1678c-6.4534,1.5037-7.9707,3.6533-7.9707,6.2335a3.6667,3.6667,0,0,0,3.5258,3.8686,5.59,5.59,0,0,0,4.1173-1.9343m.1638,1.02-.11-.053c-2.0587,2.2556-4.2811,4.2429-7.0984,4.2429a5.6758,5.6758,0,0,1-5.8552-5.4783c0-3.8156,3.1983-6.4488,13.2276-8.8136l.0535-1.3944c.1069-4.998-2.0052-7.1476-5.3672-7.1476-1.8983,0-3.74.9142-3.74,1.3977,0,.3776,1.4638,1.5037,1.4638,3.0074a2.7485,2.7485,0,0,1-2.9276,2.58c-1.681,0-2.9276-1.02-2.9276-2.4179,0-3.1167,6.7208-6.3395,11.3294-6.3395,5.6914,0,7.9138,2.15,7.59,9.0786l-.4879,9.8338c-.11,1.825.5949,2.6862,1.7345,2.6862a3.9773,3.9773,0,0,0,2.3828-1.3977l.4879.4836c-1.2466,1.666-3.3052,3.9746-5.6914,3.9746-2.3294,0-3.7932-1.4507-4.0639-4.2429"/><path id="Fill-5" class="cls-2" d="M317.3549,398.5986c0-7.3629,5.31-13.0565,12.6829-13.0565,4.7189,0,8.2948,2.0966,8.2948,5.157a2.98,2.98,0,0,1-3.0345,3.0074,3.0983,3.0983,0,0,1-3.0379-3.544c0-1.1824.8154-1.8813.8154-2.2026-.1638-.6459-1.6276-1.3977-3.0379-1.3977-3.9034,0-6.938,3.8686-6.938,9.8868,0,6.23,3.4155,10.2081,8.1846,10.2081a7.4293,7.4293,0,0,0,6.831-3.9216l.5982.3213c-2.2792,4.62-5.5845,7.3066-10.3,7.3066-6.3431,0-11.0587-5.051-11.0587-11.7648"/><path id="Fill-7" class="cls-2" d="M339.9,408.6967l.9759-.053c1.5173-.159,2.1121-.2683,2.1121-.9142V379.043c0-1.613-.3242-2.0436-1.7345-2.4179l-1.788-.6459.0535-.59,8.89-2.3649v25.3578l4.1742-3.9746c2.7672-2.5272,4.5017-4.4615,4.5017-5.5876,0-.9142-.8154-1.4507-2.8741-1.613l-.7052-.053-.1069-.8612h11.4931l-.1638.8612-1.0293.106c-2.3862.3246-3.85,1.613-8.1879,5.75l-1.2466,1.1824,6.831,11.0129c1.6276,2.58,2.1155,3.2227,3.9569,3.385l.8689.106.16.8612h-8.9432l-1.0861-1.9343-5.6379-9.7775-2.0052,1.825v8.1645c0,.4869.3275.5929,2.4931.8082l.9224.053.11.8612H339.7366Z"/><path id="Fill-9" class="cls-2" d="M382.0686,393.5479c.0535-3.6533-1.14-6.9853-4.1207-6.9853-2.7638,0-5.2035,3.0107-5.7984,7.0383,0,0,9.9725-.053,9.919-.053m-15.8277,4.9947c0-7.36,5.257-13.0532,12.4122-13.0532,5.6379,0,8.9432,3.332,8.9432,7.6809a7.58,7.58,0,0,1-.16,1.5037s-14.7984-.159-15.34-.159a12.9,12.9,0,0,0-.1638,2.0933c.0535,6.0182,3.469,10.0491,8.238,10.0491a7.6986,7.6986,0,0,0,7.0483-3.9216l.5949.3213c-2.2759,4.62-5.6914,7.3066-10.46,7.3066-6.3966,0-11.1121-5.104-11.1121-11.8211"/><path id="Fill-11" class="cls-2" d="M390.3043,408.6967l1.0293-.053c1.5707-.1093,2.1689-.2683,2.1689-.9142V393.1726c0-3.332-.4344-3.8686-2.2759-4.2992l-1.2466-.2683.0535-.6459,8.89-2.3649-.11,8.0055h.1638c1.8414-5.157,4.01-8.0585,7.2655-8.0585a3.4487,3.4487,0,0,1,3.6862,3.332,3.0958,3.0958,0,0,1-3.0913,3.17,3.4231,3.4231,0,0,1-3.4155-3.0107c-1.788.54-3.2518,2.7425-4.6086,6.9323v11.8708c0,.4869.4344.6989,2.6034.8082l1.6275.053.16.8612H390.1405Z"/><path id="Fill-13" class="cls-2" d="M412.0894,409.02l-.381-6.823,1.1931-.053,1.2466,3.1134c1.41,2.4709,3.3086,4.0309,5.9086,4.0309,2.8206,0,4.8793-1.772,4.8793-4.2992,0-2.5769-2.5466-3.8686-5.8017-5.0477-3.6294-1.3414-6.938-2.9014-6.938-7.2536,0-4.19,3.469-7.1443,8.5655-7.1443a14.2524,14.2524,0,0,1,5.2035.9142l1.9517-.5929.2707,6.9853-1.0828.053-2.8207-4.998a6.3264,6.3264,0,0,0-3.6862-1.3414c-2.6569,0-4.1742,1.5567-4.1742,3.7593,0,2.58,2.1689,3.4943,5.5845,4.7827,3.7965,1.4474,7.2655,3.0074,7.2655,7.5186,0,3.9779-3.3086,7.6875-9.5949,7.6875a21.8455,21.8455,0,0,1-7.59-1.2917"/><path id="Fill-15" class="cls-2" d="M451.779,406.0185l.2239-7.0284c-6.28,1.5236-7.7234,3.3585-7.7234,5.73a3.1044,3.1044,0,0,0,3.2083,3.3122,6.2145,6.2145,0,0,0,4.2911-2.0138m0,.8512-.09-.0431c-1.671,1.7024-3.5693,3.2227-5.7382,3.2227a4.6177,4.6177,0,0,1-4.8325-4.478c0-3.18,2.5733-5.2829,10.9317-7.3l.0468-1.5236c.1337-4.5211-1.8983-5.8195-4.4749-5.8195-1.808,0-3.75,1.03-3.75,1.5236,0,.3147,1.0393,1.03,1.0393,2.15a1.8536,1.8536,0,0,1-1.9885,1.7919,1.7938,1.7938,0,0,1-1.9885-1.7488c0-2.1926,5.0163-4.9682,8.5421-4.9682,4.0639,0,6.0056,1.5666,5.7349,7.0714l-.4512,9.539c-.0435,1.3447.4512,1.8382,1.3568,1.8382a3.7094,3.7094,0,0,0,2.1222-1.2553l.3643.4041c-.9525,1.1626-2.306,2.8186-3.977,2.8186-1.5841,0-2.7571-1.1162-2.8474-3.2227"/><path id="Fill-17" class="cls-2" d="M461.6663,405.4816,461.89,392.14l-3.5225-.0927.137-.7585,6.0524-5.0179.5414.1358-.0435,3.9415h6.6873l-.5414,1.6991H465.055s-.3175,12.9439-.3175,12.987a2.7463,2.7463,0,0,0,3.0746,3.1366,6.3048,6.3048,0,0,0,3.84-1.57l.2707.45c-1.671,1.61-3.5693,3.1333-5.785,3.1333-2.5265,0-4.5184-1.2089-4.4716-4.7033"/><path id="Fill-19" class="cls-2" d="M481.3068,393.011c0-10.4233,7.86-17.7829,19.6777-17.7829a22.7052,22.7052,0,0,1,8.726,1.8283l3.74-1.1824.1638,10.9036h-1.19l-4.231-8.648a13.3435,13.3435,0,0,0-7.2087-1.772c-8.2948,0-12.9569,7.1443-12.9569,16.17,0,10.0458,5.4742,16.6535,13.01,16.6535,4.9862,0,7.86-2.2556,10.41-6.0712,0-.053,1.8414-4.2992,1.8414-4.2992h1.2466l-1.681,9.5655-2.1689.053a30.7875,30.7875,0,0,1-10.0828,1.8813c-11.2759,0-19.2967-6.77-19.2967-17.2994"/><path id="Fill-21" class="cls-2" d="M531.277,404.938l.3275-8.1678c-6.4534,1.5037-7.9707,3.6533-7.9707,6.2335a3.6667,3.6667,0,0,0,3.5258,3.8686,5.59,5.59,0,0,0,4.1174-1.9343m.1638,1.02-.107-.053c-2.062,2.2556-4.2844,4.2429-7.1017,4.2429a5.6758,5.6758,0,0,1-5.8552-5.4783c0-3.8156,3.1983-6.4488,13.2276-8.8136l.05-1.3944c.11-4.998-2.0018-7.1476-5.3639-7.1476-1.8983,0-3.74.9142-3.74,1.3977,0,.3776,1.46,1.5037,1.46,3.0074a2.7453,2.7453,0,0,1-2.9243,2.58c-1.681,0-2.9276-1.02-2.9276-2.4179,0-3.1167,6.7208-6.3395,11.3294-6.3395,5.6914,0,7.9138,2.15,7.5863,9.0786l-.4846,9.8338c-.107,1.825.5982,2.6862,1.7311,2.6862a3.9662,3.9662,0,0,0,2.3862-1.3977l.4913.4836c-1.2466,1.666-3.3086,3.9746-5.6914,3.9746-2.3361,0-3.7965-1.4507-4.0672-4.2429"/><path id="Fill-23" class="cls-2" d="M542.06,408.6967l1.0327-.053c1.5707-.1093,2.1656-.2683,2.1656-.9142V393.1726c0-3.332-.4345-3.8686-2.2759-4.2992l-1.2466-.2683.0535-.6459,8.89-2.3649-.1069,4.3522.1069.053c2.2224-2.04,4.9361-4.4582,8.4552-4.4582a5.9925,5.9925,0,0,1,4.3379,1.719,5.1517,5.1517,0,0,1,1.4671,2.9014l.16.053c2.3327-2.3616,5.15-4.6734,8.6725-4.6734a5.8294,5.8294,0,0,1,4.3379,1.666c1.3,1.2884,1.8415,3.491,1.8415,6.2865v14.2919c0,.3743.0535.6426,2.55.8578l.8121.053.1638.8612H571.279l.1638-.8612,1.0828-.053c1.788-.1093,2.0052-.4306,2.0052-.9142V394.461c0-3.8686-1.4638-5.2133-4.4983-5.2133-1.9517,0-4.0672.9671-4.7156,2.15a12.7206,12.7206,0,0,1-.0568,1.3977v15.04c0,.3776.11.5929,2.4932.8082l.8689.053.1638.8612h-12.088l.1638-.8612,1.026-.053c1.7379-.1093,2.0086-.4306,2.0086-.9142V394.461c0-3.8686-1.5173-5.2133-4.5017-5.2133a8.365,8.365,0,0,0-4.8225,1.8283v16.7595c0,.4869.3275.6492,2.4363.8082l1.0327.053.1069.8612H541.9Z"/><path id="Fill-25" class="cls-2" d="M604.0108,398.9189c0-5.4783-2.6569-9.6152-6.8277-9.6152a7.3983,7.3983,0,0,0-5.4207,2.5239V404.4c1.407,2.63,3.8466,4.7827,6.34,4.7827,3.6327,0,5.9087-4.5145,5.9087-10.2644ZM586.4487,378.99c0-1.56-.3275-1.9906-1.788-2.4179l-1.7879-.6459.05-.59,8.84-2.3649v17.3524l.2139.053c2.2224-2.5769,4.99-4.5675,8.2414-4.5675,5.5811,0,9.7052,4.8357,9.7052,11.39a12.717,12.717,0,0,1-12.7965,13.11,20.0535,20.0535,0,0,1-6.8812-1.507h-.0568l-3.2518,1.8846h-.4879Z"/><path id="Fill-27" class="cls-2" d="M612.3528,408.6967l1.0327-.053c1.5707-.1093,2.1656-.2683,2.1656-.9142V393.1726c0-3.332-.4344-3.8686-2.2759-4.2992l-1.2466-.2683.0535-.6459,8.89-2.3649-.1069,8.0055h.1638c1.8415-5.157,4.01-8.0585,7.2655-8.0585a3.4457,3.4457,0,0,1,3.6829,3.332,3.0937,3.0937,0,0,1-3.0913,3.17,3.42,3.42,0,0,1-3.4122-3.0107c-1.788.54-3.2551,2.7425-4.6086,6.9323v11.8708c0,.4869.4344.6989,2.6.8082l1.6309.053.1571.8612H612.1924Z"/><path id="Fill-29" class="cls-2" d="M635.3879,378.0755a3.4423,3.4423,0,0,1,6.8845,0,3.4423,3.4423,0,0,1-6.8845,0Zm-2.0086,30.6209,1.0327-.053c1.5741-.1093,2.1656-.2683,2.1656-.9142v-14.61c0-3.279-.3776-3.8156-2.2726-4.2462l-1.1964-.2683.0568-.6459,8.7828-2.3616v22.2378c0,.4869.3242.6492,2.5466.8082l.8656.053.1638.8612H633.2222Z"/><path id="Fill-31" class="cls-2" d="M665.58,404.4528V391.6149c-1.3568-2.6332-3.7965-4.6768-6.2362-4.6768-3.7932,0-5.9621,4.4615-5.9621,10.1517,0,5.5346,2.71,9.7808,6.938,9.7808a7.2634,7.2634,0,0,0,5.26-2.4179Zm0,1.3414-.1638-.05c-2.1155,2.5769-4.9328,4.5112-8.1846,4.5112-5.4775,0-9.7586-4.8357-9.7586-11.4965A13.1747,13.1747,0,0,1,665.47,386.7228s.11-.053.11,0v-8.2175c0-1.56-.381-2.0966-1.7913-2.3649l-2.2759-.59.1069-.5929,9.2707-1.9343v32.6115c0,1.4507.2707,1.7753,1.0293,1.9873l2.6034.5929-.0568.6426-8.8864,1.56Z"/><path id="Fill-33" class="cls-2" d="M690.7266,393.9228c0-4.4052-1.3034-7.4126-4.4449-7.4126-2.6,0-4.1741,2.5239-4.1741,6.823,0,4.5675,1.6242,7.3066,4.1741,7.3066,2.8207,0,4.4449-2.3649,4.4449-6.717m4.2811,21.3833c0-2.6862-1.8448-4.2462-6.3966-4.4582-1.5741-.0563-3.9536.05-6.176.212a5.2612,5.2612,0,0,0-3.1481,4.6734c0,3.385,3.3052,5.6969,7.9138,5.6969s7.8069-2.7392,7.8069-6.1242m-20.0019,1.825c0-3.06,3.3052-5.104,6.2328-6.2335v-.106c-3.1983-.3743-5.4742-2.2026-5.4742-4.4052,0-2.6828,2.9276-4.73,5.8017-5.4783v-.106a7.2786,7.2786,0,0,1-4.8793-6.9323c0-4.62,4.1174-8.2738,9.6483-8.2738a12.1193,12.1193,0,0,1,6.45,1.8283l7.1017-.8612-.3777,3.0107-5.4207-.8082-.0568.2153a6.2,6.2,0,0,1,1.8982,4.4582c0,4.5675-4.1741,8.1115-9.8121,8.1115a20.3949,20.3949,0,0,1-3.362-.318c-1.5173.318-2.8173,1.2851-2.8173,2.5769,0,1.5567,1.5206,2.2026,4.1742,2.2026,1.7913,0,4.6053-.1623,6.557-.1623,4.9361,0,7.9707,2.5272,7.9707,6.6077,0,5.8559-5.7482,10.37-14.31,10.37-5.912,0-9.3242-2.0966-9.3242-5.6969"/><path id="Fill-35" class="cls-2" d="M716.2518,393.5479c.0568-3.6533-1.14-6.9853-4.1174-6.9853-2.7672,0-5.2068,3.0107-5.8051,7.0383,0,0,9.9792-.053,9.9224-.053m-15.8277,4.9947c0-7.36,5.257-13.0532,12.4155-13.0532,5.6346,0,8.94,3.332,8.94,7.6809a7.1252,7.1252,0,0,1-.1638,1.5037s-14.795-.159-15.3364-.159a12.9,12.9,0,0,0-.1638,2.0933c.0535,6.0182,3.469,10.0491,8.2414,10.0491a7.697,7.697,0,0,0,7.0449-3.9216l.5982.3213c-2.2792,4.62-5.6914,7.3066-10.4638,7.3066-6.3966,0-11.1122-5.104-11.1122-11.8211"/></g></g></g></svg>