<svg xmlns="http://www.w3.org/2000/svg" viewBox="0 0 386.001 309.8618"><defs><style>.cls-1{fill:#fff;}</style></defs><title>squash-fg</title><g id="Layer_2" data-name="Layer 2"><g id="Layer_1-2" data-name="Layer 1"><g id="Page-1"><g id="hac-logo"><g id="hac-logo-light"><path id="Fill-1" class="cls-1" d="M4.06,81.9872l1.62-.1713c1.4015-.1311,1.928-.4362,1.928-.7413V57.0289c0-.3479-.2619-.479-2.2332-.653l-1.2691-.1285-.1323-.6958H16.2785l-.13.6958-1.7093.174c-1.4015.1285-1.9253.4335-1.9253.736V68.4H25.5648V57.0289c0-.3479-.2619-.479-2.2332-.653l-1.3151-.1285-.13-.6958H34.195l-.1323.6958-1.6634.174c-1.3583.1285-1.8848.4335-1.8848.736V81.2057c0,.3479.2646.479,2.2359.65l1.2691.1311.1323.6958H21.8411l.1323-.6958,1.7093-.1713c1.4015-.1311,1.8821-.3934,1.8821-.7413V69.3127H12.5142v11.893c0,.3479.2619.479,2.2332.65l1.3556.1311.1323.6958H3.93Z"/><path id="Fill-3" class="cls-1" d="M46.364,78.95l.2646-6.6c-5.2143,1.215-6.44,2.9518-6.44,5.0366a2.9626,2.9626,0,0,0,2.8488,3.1258A4.5169,4.5169,0,0,0,46.364,78.95m.1323.8243-.0891-.0428c-1.6634,1.8225-3.4591,3.4282-5.7355,3.4282a4.586,4.586,0,0,1-4.7309-4.4264c0-3.083,2.5842-5.2106,10.6878-7.1214l.0432-1.1267c.0864-4.0384-1.62-5.7752-4.3367-5.7752-1.5338,0-3.0217.7386-3.0217,1.1294,0,.3051,1.1827,1.215,1.1827,2.43a2.2208,2.2208,0,0,1-2.3655,2.0848,2.1249,2.1249,0,0,1-2.3655-1.9536c0-2.5183,5.43-5.1222,9.1541-5.1222,4.5986,0,6.3943,1.7369,6.1324,7.3355l-.3942,7.9456c-.0891,1.4746.4807,2.17,1.4015,2.17a3.2136,3.2136,0,0,0,1.9253-1.1294l.3942.3907c-1.0072,1.3461-2.6706,3.2114-4.5986,3.2114-1.8821,0-3.0649-1.1722-3.2836-3.4282"/><path id="Fill-5" class="cls-1" d="M55.12,73.828c0-5.9492,4.2908-10.55,10.2477-10.55,3.8128,0,6.7022,1.694,6.7022,4.1668a2.4077,2.4077,0,0,1-2.4519,2.43,2.5034,2.5034,0,0,1-2.4546-2.8635c0-.9554.6589-1.52.6589-1.78-.1323-.5219-1.3151-1.1294-2.4546-1.1294-3.154,0-5.6058,3.1258-5.6058,7.9885,0,5.0339,2.76,8.248,6.6131,8.248a6.0028,6.0028,0,0,0,5.5194-3.1686l.4834.26c-1.8416,3.7333-4.5122,5.9037-8.3224,5.9037-5.1252,0-8.9353-4.0812-8.9353-9.5059"/><path id="Fill-7" class="cls-1" d="M73.3369,81.9872l.7885-.0428c1.2259-.1285,1.7066-.2168,1.7066-.7386V58.0271c0-1.3033-.2619-1.6512-1.4015-1.9536l-1.4447-.5219.0432-.4764,7.1828-1.9108v20.489l3.3727-3.2114c2.2359-2.0419,3.6373-3.6048,3.6373-4.5147,0-.7386-.6589-1.1722-2.3223-1.3033l-.57-.0428-.0864-.6958H93.53l-.1323.6958-.8317.0856c-1.928.2623-3.1108,1.3033-6.6158,4.6459l-1.0072.9554,5.5194,8.8984c1.3151,2.0848,1.7093,2.6039,3.1972,2.7351l.7021.0856.13.6958h-7.226L86.3875,81.12l-4.5554-7.9-1.62,1.4746v6.5968c0,.3934.2646.479,2.0144.653l.7453.0428.0891.6958H73.2045Z"/><path id="Fill-9" class="cls-1" d="M107.4086,69.747c.0432-2.9518-.9208-5.6441-3.3295-5.6441-2.2332,0-4.2044,2.4327-4.685,5.6869,0,0,8.0577-.0428,8.0145-.0428M94.62,73.7827c0-5.9465,4.2476-10.5469,10.029-10.5469,4.5554,0,7.226,2.6923,7.226,6.2061a6.1243,6.1243,0,0,1-.13,1.215s-11.957-.1285-12.3944-.1285a10.4227,10.4227,0,0,0-.1323,1.6914c.0432,4.8627,2.8029,8.12,6.6563,8.12a6.22,6.22,0,0,0,5.695-3.1686l.4807.26c-1.8389,3.7333-4.5986,5.9037-8.452,5.9037-5.1684,0-8.9785-4.124-8.9785-9.5514"/><path id="Fill-11" class="cls-1" d="M114.063,81.9872l.8317-.0428c1.2691-.0883,1.7525-.2168,1.7525-.7386V69.4438c0-2.6923-.351-3.1258-1.8389-3.4737l-1.0072-.2168.0432-.5219,7.1828-1.9108-.0891,6.4684h.1323c1.4879-4.1668,3.24-6.5112,5.87-6.5112a2.7865,2.7865,0,0,1,2.9784,2.6923,2.5014,2.5014,0,0,1-2.4978,2.5611,2.7658,2.7658,0,0,1-2.76-2.4327c-1.4447.4362-2.6274,2.2159-3.7237,5.6013v9.5915c0,.3934.351.5647,2.1035.653l1.315.0428.13.6958H113.9306Z"/><path id="Fill-13" class="cls-1" d="M131.6652,82.2486l-.3078-5.513.964-.0428,1.0072,2.5156c1.14,1.9964,2.6733,3.2569,4.7742,3.2569,2.2791,0,3.9425-1.4318,3.9425-3.4737,0-2.0821-2.0576-3.1258-4.6877-4.0785-2.9325-1.0839-5.6058-2.3443-5.6058-5.8609,0-3.3854,2.8029-5.7726,6.9209-5.7726a11.5159,11.5159,0,0,1,4.2044.7386l1.577-.479.2187,5.6441-.8749.0428-2.2791-4.0384A5.1117,5.1117,0,0,0,138.54,64.104c-2.1468,0-3.3727,1.2578-3.3727,3.0375,0,2.0848,1.7525,2.8234,4.5122,3.8644,3.0676,1.1695,5.87,2.43,5.87,6.075,0,3.2141-2.6733,6.2115-7.7526,6.2115a17.651,17.651,0,0,1-6.1324-1.0437"/><path id="Fill-15" class="cls-1" d="M163.7341,79.8232l.1809-5.6789c-5.0739,1.2311-6.24,2.7137-6.24,4.63a2.5083,2.5083,0,0,0,2.5923,2.6762,5.0213,5.0213,0,0,0,3.4672-1.6271m0,.6878-.0729-.0348c-1.35,1.3756-2.8839,2.6039-4.6364,2.6039a3.7311,3.7311,0,0,1-3.9046-3.6182c0-2.5692,2.0792-4.2685,8.8327-5.8983l.0378-1.2311c.108-3.653-1.5338-4.7021-3.6157-4.7021-1.4609,0-3.03.8323-3.03,1.2311,0,.2542.84.8323.84,1.7369a1.4977,1.4977,0,0,1-1.6067,1.4478,1.4494,1.4494,0,0,1-1.6067-1.413c0-1.7716,4.0532-4.0143,6.902-4.0143,3.2836,0,4.8525,1.2658,4.6337,5.7137l-.3645,7.7075c-.0351,1.0865.3645,1.4853,1.0963,1.4853a2.9972,2.9972,0,0,0,1.7147-1.0143l.2943.3265c-.77.9393-1.8632,2.2774-3.2134,2.2774-1.28,0-2.2278-.9019-2.3007-2.6039"/><path id="Fill-17" class="cls-1" d="M171.723,79.3894l.1809-10.78-2.8461-.0749.1107-.6128,4.89-4.0544.4375.11-.0351,3.1847h5.4033l-.4375,1.3729h-4.9659s-.2565,10.4586-.2565,10.4934a2.219,2.219,0,0,0,2.4843,2.5344,5.0943,5.0943,0,0,0,3.1027-1.2685l.2187.364c-1.35,1.3006-2.8839,2.5317-4.6742,2.5317-2.0414,0-3.6508-.9768-3.613-3.8"/><path id="Fill-19" class="cls-1" d="M187.5924,69.3132c0-8.422,6.3511-14.3685,15.8994-14.3685a18.3457,18.3457,0,0,1,7.0505,1.4773l3.0217-.9554.1323,8.81h-.9613l-3.4186-6.9876a10.7815,10.7815,0,0,0-5.8246-1.4318c-6.7022,0-10.4691,5.7726-10.4691,13.0652,0,8.1169,4.4231,13.4559,10.5123,13.4559,4.0289,0,6.3511-1.8225,8.4115-4.9055,0-.0428,1.4879-3.4737,1.4879-3.4737h1.0072l-1.3583,7.7289-1.7525.0428a24.8761,24.8761,0,0,1-8.1468,1.52c-9.1109,0-15.5916-5.47-15.5916-13.9778"/><path id="Fill-21" class="cls-1" d="M227.968,78.95l.2646-6.6c-5.2143,1.215-6.44,2.9518-6.44,5.0366a2.9626,2.9626,0,0,0,2.8488,3.1258A4.5169,4.5169,0,0,0,227.968,78.95m.1323.8243-.0864-.0428c-1.6661,1.8225-3.4618,3.4282-5.7382,3.4282a4.586,4.586,0,0,1-4.731-4.4264c0-3.083,2.5842-5.2106,10.6878-7.1214l.04-1.1267c.0891-4.0384-1.6175-5.7752-4.334-5.7752-1.5338,0-3.0216.7386-3.0216,1.1294,0,.3051,1.18,1.215,1.18,2.43a2.2182,2.2182,0,0,1-2.3628,2.0848,2.1249,2.1249,0,0,1-2.3655-1.9536c0-2.5183,5.43-5.1222,9.1541-5.1222,4.5986,0,6.3943,1.7369,6.13,7.3355l-.3915,7.9456c-.0864,1.4746.4833,2.17,1.3987,2.17a3.2047,3.2047,0,0,0,1.928-1.1294l.3969.3907c-1.0072,1.3461-2.6733,3.2114-4.5986,3.2114-1.8875,0-3.0676-1.1722-3.2863-3.4282"/><path id="Fill-23" class="cls-1" d="M236.6806,81.9872l.8344-.0428c1.2691-.0883,1.75-.2168,1.75-.7386V69.4438c0-2.6923-.3511-3.1258-1.8389-3.4737l-1.0072-.2168.0432-.5219,7.1828-1.9108-.0864,3.5165.0864.0428c1.7957-1.6485,3.9884-3.6022,6.8318-3.6022a4.8419,4.8419,0,0,1,3.505,1.3889,4.1625,4.1625,0,0,1,1.1854,2.3444l.13.0428c1.8848-1.9081,4.1612-3.7761,7.0073-3.7761a4.71,4.71,0,0,1,3.505,1.3461c1.05,1.041,1.4879,2.8207,1.4879,5.0794V81.2512c0,.3024.0432.5192,2.06.6931l.6562.0428.1323.6958h-9.8562l.1323-.6958.8749-.0428c1.4447-.0883,1.62-.3479,1.62-.7386V70.4848c0-3.1258-1.1827-4.2123-3.6346-4.2123a4.679,4.679,0,0,0-3.81,1.7369,10.2781,10.2781,0,0,1-.0459,1.1294V81.2913c0,.3051.0891.479,2.0145.653l.7021.0428.1323.6958h-9.767l.1323-.6958.829-.0428c1.4042-.0883,1.6229-.3479,1.6229-.7386V70.4848c0-3.1258-1.2259-4.2123-3.6373-4.2123a6.7588,6.7588,0,0,0-3.8965,1.4773V81.2913c0,.3934.2646.5245,1.9685.653l.8344.0428.0864.6958H236.551Z"/><path id="Fill-25" class="cls-1" d="M286.7365,74.0867c0-4.4264-2.1467-7.769-5.5167-7.769a5.9778,5.9778,0,0,0-4.38,2.0393V78.5159c1.1368,2.1249,3.108,3.8644,5.1225,3.8644,2.9352,0,4.7742-3.6477,4.7742-8.2935Zm-14.19-16.1027c0-1.26-.2647-1.6084-1.4447-1.9536l-1.4447-.5219.04-.4764,7.1423-1.9108V67.142l.1728.0428c1.7957-2.0821,4.0316-3.69,6.659-3.69,4.51,0,7.8417,3.9073,7.8417,9.2034A10.2753,10.2753,0,0,1,281.1739,83.29a16.2031,16.2031,0,0,1-5.56-1.2177h-.0459l-2.6274,1.5228h-.3942Z"/><path id="Fill-27" class="cls-1" d="M293.4768,81.9872l.8344-.0428c1.2691-.0883,1.75-.2168,1.75-.7386V69.4438c0-2.6923-.351-3.1258-1.8389-3.4737l-1.0072-.2168.0432-.5219,7.1828-1.9108-.0864,6.4684h.1323c1.4879-4.1668,3.24-6.5112,5.87-6.5112A2.7841,2.7841,0,0,1,309.333,65.97a2.5,2.5,0,0,1-2.4978,2.5611,2.7632,2.7632,0,0,1-2.757-2.4327c-1.4447.4362-2.63,2.2159-3.7237,5.6013v9.5915c0,.3934.351.5647,2.1008.653l1.3177.0428.1269.6958H293.3472Z"/><path id="Fill-29" class="cls-1" d="M312.089,57.2454a2.7813,2.7813,0,0,1,5.5626,0,2.7813,2.7813,0,0,1-5.5626,0Zm-1.6229,24.7415.8344-.0428c1.2718-.0883,1.75-.2168,1.75-.7386V69.4007c0-2.6494-.3051-3.083-1.8362-3.4309l-.9667-.2168.0459-.5219,7.0964-1.9081v17.968c0,.3934.2619.5245,2.0576.653l.6994.0428.1323.6958h-9.94Z"/><path id="Fill-31" class="cls-1" d="M336.4841,78.5581V68.1852c-1.0963-2.1276-3.0676-3.7788-5.0388-3.7788-3.0648,0-4.8174,3.6048-4.8174,8.2026,0,4.4719,2.19,7.9028,5.6059,7.9028a5.8688,5.8688,0,0,0,4.25-1.9536Zm0,1.0839-.1323-.04c-1.7093,2.0821-3.9857,3.645-6.6131,3.645-4.4258,0-7.8849-3.9072-7.8849-9.2891a10.6451,10.6451,0,0,1,14.5412-9.7253s.0891-.0428.0891,0v-6.64c0-1.26-.3078-1.694-1.4474-1.9108l-1.8389-.4764.0864-.479,7.4907-1.5629v26.35c0,1.1722.2187,1.4344.8317,1.6057l2.1035.479-.0459.5192-7.18,1.26Z"/><path id="Fill-33" class="cls-1" d="M356.8023,70.05c0-3.5593-1.0531-5.9893-3.5914-5.9893-2.1008,0-3.3727,2.0393-3.3727,5.513,0,3.69,1.3123,5.9037,3.3727,5.9037,2.2791,0,3.5914-1.9108,3.5914-5.4273m3.4591,17.2775c0-2.17-1.4906-3.4309-5.1684-3.6022-1.2718-.0455-3.1945.04-4.99.1713a4.251,4.251,0,0,0-2.5437,3.7761c0,2.7351,2.6706,4.6031,6.3943,4.6031s6.3079-2.2132,6.3079-4.9483M344.1,88.8021c0-2.4728,2.6706-4.124,5.0361-5.0366V83.68c-2.5842-.3024-4.4231-1.78-4.4231-3.5593,0-2.1677,2.3655-3.8216,4.6877-4.4264v-.0856a5.8811,5.8811,0,0,1-3.9425-5.6013c0-3.7333,3.3268-6.6851,7.7958-6.6851a9.7924,9.7924,0,0,1,5.2116,1.4773l5.7382-.6958-.3052,2.4327-4.38-.653-.0459.174a5.0094,5.0094,0,0,1,1.5338,3.6022c0,3.69-3.3727,6.554-7.9281,6.554a16.479,16.479,0,0,1-2.7165-.2569c-1.226.2569-2.2764,1.0384-2.2764,2.0821,0,1.2578,1.2286,1.78,3.3727,1.78,1.4474,0,3.721-.1311,5.298-.1311,3.9884,0,6.44,2.0419,6.44,5.339,0,4.7315-4.6445,8.3792-11.5627,8.3792-4.7769,0-7.5339-1.694-7.5339-4.6031"/><path id="Fill-35" class="cls-1" d="M377.4265,69.747c.0459-2.9518-.9208-5.6441-3.3268-5.6441-2.2359,0-4.2071,2.4327-4.69,5.6869,0,0,8.0631-.0428,8.0172-.0428m-12.7887,4.0357c0-5.9465,4.2476-10.5469,10.0317-10.5469,4.5527,0,7.2233,2.6923,7.2233,6.2061a5.7571,5.7571,0,0,1-.1323,1.215s-11.9543-.1285-12.3917-.1285a10.4227,10.4227,0,0,0-.1323,1.6914c.0432,4.8627,2.8029,8.12,6.659,8.12a6.2191,6.2191,0,0,0,5.6923-3.1686l.4833.26c-1.8416,3.7333-4.5986,5.9037-8.4547,5.9037-5.1684,0-8.9786-4.124-8.9786-9.5514"/></g></g></g><path class="cls-1" d="M7.0547,33.1367V.5376h6.5488V33.1367Z"/><path class="cls-1" d="M46.79,33.1367,35.6953,13.88V33.1367H29.1465V.5376H35.793L46.4473,19.11V.5376h6.5986V33.1367Z"/><path class="cls-1" d="M73.9648,33.1367V6.3052H66.7314V.5376H87.7471V6.3052H80.5137V33.1367Z"/><path class="cls-1" d="M116.4854,33.1367,111.5,21.3579h-3.5186V33.1367h-6.5488V.5376h12.1689c5.9629,0,9.9219,4.3013,9.9219,10.3125,0,5.6206-2.9814,8.4551-5.6689,9.335l5.9131,12.9517Zm.3428-22.189c0-2.8345-1.6621-4.6426-4.2031-4.6426h-4.6436v9.2856h4.6436C115.166,15.5908,116.8281,13.7827,116.8281,10.9478Z"/><path class="cls-1" d="M136.8184,16.8618C136.8184,7.1846,141.9014,0,150.4063,0c8.5527,0,13.6357,7.1846,13.6357,16.8618,0,9.7256-5.083,16.8613-13.6357,16.8613C141.9014,33.7231,136.8184,26.5874,136.8184,16.8618Zm20.5273,0c0-6.3047-2.4434-11.0454-6.9395-11.0454-4.4482,0-6.8428,4.7407-6.8428,11.0454,0,6.207,2.3945,11.0454,6.8428,11.0454C154.9023,27.9072,157.3457,23.0688,157.3457,16.8618Z"/><path class="cls-1" d="M178.3145,33.1367V.5376h10.5078c8.9922,0,14.1729,6.7446,14.1729,16.3242s-5.1309,16.2749-14.1729,16.2749ZM196.3,16.8618c0-6.4517-2.541-10.5566-7.4775-10.5566h-3.959V27.37h3.959C193.66,27.37,196.3,23.0688,196.3,16.8618Z"/><path class="cls-1" d="M217.2676,21.8955V.5376h6.5977V21.9448c0,3.8608,1.9551,6.0112,5.4248,6.0112,3.4219,0,5.376-2.15,5.376-6.0112V.5376h6.5986V21.8955c0,7.5269-4.6436,11.8276-11.9746,11.8276C221.91,33.7231,217.2676,29.4224,217.2676,21.8955Z"/><path class="cls-1" d="M255.4883,16.8618C255.4883,6.9893,260.8154,0,269.2705,0c6.2559,0,9.2373,4.0566,10.8984,7.82l-5.4248,2.395c-.9775-2.59-2.8838-4.3984-5.4736-4.3984-4.3994,0-7.0381,4.6426-7.0381,11.0454s2.6387,11.0454,7.0381,11.0454c2.6875,0,4.5938-2.0527,5.5225-4.7407l5.4248,2.3457c-1.6123,3.91-4.5937,8.2109-10.9473,8.2109C260.8154,33.7231,255.4883,26.7344,255.4883,16.8618Z"/><path class="cls-1" d="M293.8555,33.1367V.5376h6.5488V33.1367Z"/><path class="cls-1" d="M333.5908,33.1367,322.4961,13.88V33.1367h-6.5488V.5376h6.6465L333.248,19.11V.5376h6.5986V33.1367Z"/><path class="cls-1" d="M354.0215,16.8618C354.0215,6.6958,359.5439,0,367.8037,0c5.6689,0,9.09,3.47,10.85,7.478l-5.3271,2.4927c-1.0264-2.2974-2.835-4.1543-5.5225-4.1543-4.1543,0-7.0381,4.0562-7.0381,11.0454s2.8838,11.0454,7.0381,11.0454a6.7706,6.7706,0,0,0,4.9355-1.9551v-4.936h-6.1084V15.249h12.3154V28.5425a13.9786,13.9786,0,0,1-11.1426,5.1807C359.5439,33.7231,354.0215,26.9785,354.0215,16.8618Z"/><path class="cls-1" d="M0,236.8965l12.1758-14.8813c5.11,7.3657,14.73,12.1758,24.501,12.1758,8.418,0,13.3779-5.7124,13.3779-12.6265,0-13.228-35.7744-15.6328-35.7744-40.7354,0-17.2861,14.1289-32.6182,35.0225-32.6182,12.3262,0,24.3516,4.66,31.5664,13.0771l-11.7246,14.43c-5.2607-6.4634-13.8291-9.77-21.4951-9.77-7.2148,0-12.0254,5.2607-12.0254,11.123,0,12.4761,35.625,15.6328,35.625,40.8853,0,18.3384-13.6787,33.9712-35.4746,33.9712C20.4424,251.9277,6.7637,245.7651,0,236.8965Z"/><path class="cls-1" d="M56.666,213.5977c0-30.9648,18.6387-65.3867,50.5059-65.3867,22.8477,0,37.5781,15.9331,37.5781,38.48,0,21.7954-9.3193,45.395-26.0039,57.27l2.5557,6.4639-15.6328,5.4111-1.9541-4.96a48.06,48.06,0,0,1-9.47,1.0522C71.3965,251.9277,56.666,236.145,56.666,213.5977ZM96.95,234.0405l-6.3135-16.2339L106.27,212.395l5.1113,12.9272c7.666-9.32,12.4756-24.5015,12.4756-38.18,0-12.7764-7.2148-21.0439-18.0371-21.0439-16.5352,0-28.41,25.2529-28.41,47.0483,0,12.7769,7.0654,20.894,18.0381,20.894Z"/><path class="cls-1" d="M126.7119,221.8647a46.812,46.812,0,0,1,.752-6.6138l14.43-65.3867h20.293l-14.5811,65.9883a30.3036,30.3036,0,0,0-.4512,4.66c0,7.8164,5.5615,13.6787,15.0322,13.6787,10.5215,0,16.083-6.6143,18.6387-18.3384l14.58-65.9883h20.293l-14.5811,65.6875c-4.96,22.998-17.4365,36.376-39.6826,36.376C139.7891,251.9277,126.7119,240.0527,126.7119,221.8647Z"/><path class="cls-1" d="M237.9443,250.124l-.752-17.7373H206.2275l-8.417,17.7373H175.1123l51.8584-100.26h24.3516l7.666,100.26Zm-2.7061-79.0654L214.1943,214.65h22.6973Z"/><path class="cls-1" d="M238.3945,236.8965,250.57,222.0151c5.11,7.3657,14.73,12.1758,24.501,12.1758,8.418,0,13.3779-5.7124,13.3779-12.6265,0-13.228-35.7744-15.6328-35.7744-40.7354,0-17.2861,14.1289-32.6182,35.0225-32.6182,12.3262,0,24.3516,4.66,31.5664,13.0771l-11.7246,14.43c-5.2607-6.4634-13.8291-9.77-21.4951-9.77-7.2148,0-12.0254,5.2607-12.0254,11.123,0,12.4761,35.625,15.6328,35.625,40.8853,0,18.3384-13.6787,33.9712-35.4746,33.9712C258.8369,251.9277,245.1582,245.7651,238.3945,236.8965Z"/><path class="cls-1" d="M343.6123,250.124l9.47-42.6895h-33.22l-9.47,42.6895H290.251l22.0957-100.26h20.1426l-8.7187,39.8335h33.22l8.7178-39.8335h20.293l-22.0967,100.26Z"/><path class="cls-1" d="M157.7935,124.8127l-2.0645-10.6567-2.04,10.6567h-3.36L146.68,108.8034h3.457l2.0635,11.1367,2.28-11.1367h2.5205l2.3047,11.1367,2.04-11.1367h3.4561l-3.6484,16.0093Z"/><path class="cls-1" d="M171.1606,124.8127V108.8034h3.2168v16.0093Z"/><path class="cls-1" d="M184.6724,124.8127V111.6354h-3.5518v-2.832h10.32v2.832h-3.5518v13.1772Z"/><path class="cls-1" d="M206.6812,124.8127v-6.8164h-5.3037v6.8164h-3.2168V108.8034h3.2168v6.36h5.3037v-6.36h3.24v16.0093Z"/><path class="cls-1" d="M235.8169,124.8127l-.7441-2.832h-4.92l-.7441,2.832h-3.48l4.752-16.0093h3.8887l4.752,16.0093Zm-3.1924-12.625-1.8242,6.96h3.6484Z"/><path class="cls-1" d="M86.4538,298.8612c0-6.3124,3.3171-10.9994,8.8641-10.9994,5.5795,0,8.8965,4.687,8.8965,10.9994,0,6.3461-3.3171,11.0006-8.8965,11.0006C89.7708,309.8618,86.4538,305.2073,86.4538,298.8612Zm13.3915,0c0-4.1123-1.5943-7.2049-4.5274-7.2049-2.9006,0-4.4638,3.0926-4.4638,7.2049,0,4.05,1.5632,7.2062,4.4638,7.2062C98.2509,306.0674,99.8452,302.9112,99.8452,298.8612Z"/><path class="cls-1" d="M112.6607,298.8612c0-6.44,3.4753-10.9994,8.9912-10.9994,4.0811,0,6.0257,2.6464,7.1089,5.1021l-3.5389,1.5619a3.9042,3.9042,0,0,0-3.57-2.87c-2.8708,0-4.5923,3.0291-4.5923,7.2049s1.7214,7.2062,4.5923,7.2062c1.7526,0,2.9966-1.3388,3.6025-3.0926l3.5389,1.5308c-1.0521,2.55-2.9966,5.3563-7.1413,5.3563C116.1361,309.8618,112.6607,305.3033,112.6607,298.8612Z"/><path class="cls-1" d="M141.2261,309.4791V291.9754H136.508v-3.762h13.7093v3.762h-4.7181v17.5037Z"/><path class="cls-1" d="M157.74,298.8612c0-6.3124,3.3171-10.9994,8.8641-10.9994,5.5795,0,8.8965,4.687,8.8965,10.9994,0,6.3461-3.3171,11.0006-8.8965,11.0006C161.0571,309.8618,157.74,305.2073,157.74,298.8612Zm13.3915,0c0-4.1123-1.5943-7.2049-4.5274-7.2049-2.9006,0-4.4638,3.0926-4.4638,7.2049,0,4.05,1.5632,7.2062,4.4638,7.2062C169.5372,306.0674,171.1315,302.9112,171.1315,298.8612Z"/><path class="cls-1" d="M184.8071,309.4791V288.2134h8.8005c3.7931,0,5.6106,2.518,5.6106,5.42,0,2.6775-1.4659,4.4-3.41,4.8776,2.1677.35,3.762,2.5828,3.762,5.2292,0,3.2211-1.8174,5.739-5.6755,5.739ZM194.85,294.3662a2.14,2.14,0,0,0-2.2637-2.4233H189.08v4.8789h3.5065A2.1513,2.1513,0,0,0,194.85,294.3662Zm.3516,8.7681a2.37,2.37,0,0,0-2.4557-2.6152H189.08v5.23h3.666A2.2976,2.2976,0,0,0,195.2019,303.1343Z"/><path class="cls-1" d="M208.9735,309.4791V288.2134h12.18v3.762h-7.9067v4.8141H220.93v3.762h-7.6836v5.1656h7.9067v3.762Z"/><path class="cls-1" d="M240.5031,309.4791l-3.2522-7.6836H234.956v7.6836h-4.2731V288.2134h7.9391c3.89,0,6.472,2.8046,6.472,6.7275,0,3.666-1.9446,5.5159-3.6984,6.0893l3.858,8.449Zm.2231-14.476a2.7112,2.7112,0,0,0-2.7411-3.0278H234.956v6.0581h3.0291A2.7127,2.7127,0,0,0,240.7262,295.0032Z"/><path class="cls-1" d="M271.7472,309.4791v-15.75l-3.2211,3.3469-2.4544-2.5815,6.2488-6.2813h3.7309v21.2658Z"/><path class="cls-1" d="M285.7095,309.4791v-3.4442c7.78-7.5552,9.4063-9.2455,9.4063-11.6687a2.6568,2.6568,0,0,0-2.8371-2.6788A5.4718,5.4718,0,0,0,287.75,294.08l-2.55-2.6788a8.6629,8.6629,0,0,1,7.1426-3.5065c4.1123,0,7.11,2.4855,7.11,6.44,0,3.2211-2.169,5.9621-7.4293,11.3833h7.524v3.762Z"/></g></g></svg>