<svg id="Layer_1" data-name="Layer 1" xmlns="http://www.w3.org/2000/svg" viewBox="0 0 1920 1080"><defs><style>.cls-1{fill:#fff;}</style></defs><title>unitybanner</title><path class="cls-1" d="M860.52,725,828,670.3l32.48-54.72L876.2,670.3Zm-72.4-5.24-40.86-40.57h65l32.47,54.71Zm0-98.91,56.57-14.14-32.47,54.71h-65Zm83.11-41.07-74,19.27-10.94,18.78-22.21-.16L710,670.3l54.13,52.63,22.2-.16,11,18.77,73.93,19.27L891,688.92,879.79,670.3,891,651.68Z"/><path class="cls-1" d="M1039,633.11c-9.89,0-16.52,4.09-21.46,11.86h-.43v-9.89H999.8V707.5h17.72V666.42c0-9.88,6.21-16.66,14.68-16.66,8,0,14,4.77,14,13.27V707.5H1064V660.21c0-15.81-10-27.1-25-27.1"/><path class="cls-1" d="M972.85,676.83c0,9.6-5.51,16.38-14.54,16.38-8.19,0-13.34-4.66-13.34-13.13v-45H927.25v48.28c0,15.81,9,26.11,25.13,26.11,10.16,0,15.81-3.81,20.75-10.44h.42v8.47h17V635.05H972.85Z"/><rect class="cls-1" x="1073.25" y="635.08" width="17.72" height="72.42"/><rect class="cls-1" x="1073.25" y="612.5" width="17.72" height="14.56"/><path class="cls-1" d="M1191.11,635.08l-10.53,32.61c-2.26,6.64-4.23,15.81-4.23,15.81h-.45s-2.4-9.17-4.66-15.81l-11.89-32.61h-18.94l19.48,51.53c4.09,11,5.5,15.67,5.5,19.62,0,5.93-3.1,9.88-10.73,9.88h-6.77v15.11h11.29c14.68,0,19.78-5.79,25.28-21.89L1210,635.08Z"/><path class="cls-1" d="M1124,686.18V647.79h11.29V635.08H1124V612.5h-17.6v22.58h-10v12.71h10v42.49c0,13.69,10.31,17.36,19.63,17.36a93,93,0,0,0,9.69-.28v-14s-2.12,0-4.52,0c-4.24,0-7.2-1.83-7.2-7.2"/><path class="cls-1" d="M372.73,483.67c0-29,19.28-45.84,42.62-45.84a37.91,37.91,0,0,1,27.59,11.35l-10.42,12.68c-4.34-4-9-7-16.51-7-13.46,0-23,10.57-23,28.11,0,18,8.14,28.42,24.6,28.42,3.51,0,7.13-.92,9.26-2.6v-15.1H412.37V477.59h32v40.32c-6,5.9-16.65,10.59-28.85,10.59C391.47,528.5,372.73,513.13,372.73,483.67Z"/><path class="cls-1" d="M456.94,493.63c0-21.59,15.41-34.92,31.4-34.92,19,0,28.35,13.78,28.35,32a44.48,44.48,0,0,1-.82,8.72H476.05c1.77,9.65,8.38,14.09,17.26,14.09,5,0,9.57-1.53,14.4-4.36L514.23,521a43.35,43.35,0,0,1-23.62,7.5C471.64,528.5,456.94,515.67,456.94,493.63Zm42.9-7.3c0-7.31-3.18-12.58-11.06-12.58-6.23,0-11.61,4.18-12.95,12.58Z"/><path class="cls-1" d="M531.57,502.69V475.8h-9.09V461.08l10.2-.76,2.3-17.68H551.3v17.68h16V475.8h-16v26.65c0,7.54,3.42,10.57,8.61,10.57a19.78,19.78,0,0,0,6.33-1.26l3.11,14.32a46.87,46.87,0,0,1-14.79,2.42C538.11,528.5,531.57,518.11,531.57,502.69Z"/><path class="cls-1" d="M580.24,502.69V475.8h-9.09V461.08l10.2-.76,2.3-17.68H600v17.68h15.95V475.8H600v26.65c0,7.54,3.42,10.57,8.61,10.57a19.78,19.78,0,0,0,6.33-1.26L618,526.08a46.87,46.87,0,0,1-14.79,2.42C586.78,528.5,580.24,518.11,580.24,502.69Z"/><path class="cls-1" d="M627.4,440.28c0-6,4.8-10.31,11.41-10.31s11.42,4.26,11.42,10.31-4.8,10.31-11.42,10.31S627.4,446.28,627.4,440.28Zm1.53,20h19.72v66.57H628.93Z"/><path class="cls-1" d="M666,460.32H682.1l1.42,8.43H684c5.6-5.38,12.31-10,21.39-10,14.47,0,20.64,10.22,20.64,26.85v41.33H706.32v-38.8c0-9.58-2.57-12.58-8.27-12.58-4.95,0-8,2.31-12.32,6.47v44.91H666Z"/><path class="cls-1" d="M738.68,538.32c0-5.53,3.31-10,9.44-13.4v-.54a12.91,12.91,0,0,1-6.08-11.3c0-4.8,3.19-9.49,7.42-12.47v-.54a21.28,21.28,0,0,1-8.93-17.27c0-16,13.19-24.09,27.53-24.09a32.6,32.6,0,0,1,10.31,1.61h24.34v14.37H792a17.54,17.54,0,0,1,2.25,8.77c0,15.32-11.65,22.37-26.2,22.37a28.72,28.72,0,0,1-8.13-1.29,5.67,5.67,0,0,0-2.32,4.95c0,3.28,2.68,4.88,10,4.88h10.8c16.32,0,25.41,5,25.41,16.92,0,13.83-14.41,23.9-37.26,23.9C751,555.19,738.68,550.15,738.68,538.32Zm46.22-3.67c0-4.19-3.6-5.16-10.15-5.16h-6.91a35.17,35.17,0,0,1-9.33-.85c-2.46,2.08-3.6,4.14-3.6,6.53,0,5.05,5.84,7.64,14.76,7.64S784.9,539.26,784.9,534.65Zm-7.75-51.85c0-7.09-3.85-10.82-9.09-10.82S759,475.68,759,482.8c0,7.29,3.9,11.09,9.09,11.09S777.15,490.09,777.15,482.8Z"/><path class="cls-1" d="M835.41,519.2l8.88-12.28c6,4.56,11.6,7,17.17,7,5.87,0,8.41-2.24,8.41-5.73,0-4.38-6.6-6.37-13.45-9.05-8.16-3.16-17.61-8.58-17.61-19.58,0-12.39,10.07-20.84,25.43-20.84,10.2,0,17.79,4.12,23.46,8.43L878.87,479c-4.74-3.45-9.41-5.69-14-5.69-5.09,0-7.6,2-7.6,5.32,0,4.24,6.23,5.87,13.13,8.38,8.43,3.12,17.93,7.86,17.93,20S878.81,528.5,861,528.5C852.19,528.5,842.15,524.69,835.41,519.2Z"/><path class="cls-1" d="M900.7,502.69V475.8h-9.09V461.08l10.19-.76,2.31-17.68h16.31v17.68h16V475.8h-16v26.65c0,7.54,3.43,10.57,8.62,10.57a19.84,19.84,0,0,0,6.33-1.26l3.11,14.32a47,47,0,0,1-14.79,2.42C907.24,528.5,900.7,518.11,900.7,502.69Z"/><path class="cls-1" d="M943.64,508.43c0-14,11.16-21.62,37.49-24.4-.4-5.82-3.3-9.62-10.53-9.62-5.59,0-11.16,2.35-17.61,6l-7-12.95c8.45-5.16,18-8.76,28.44-8.76,17,0,26.44,9.73,26.44,30.12v38.06H984.76l-1.42-6.82h-.49c-5.61,4.93-11.89,8.43-19.37,8.43C951.34,528.5,943.64,519.64,943.64,508.43Zm37.49-.88V495.92c-14,1.9-18.61,5.9-18.61,10.94,0,4.29,3,6.38,7.64,6.38C974.63,513.24,977.62,511,981.13,507.55Z"/><path class="cls-1" d="M1017.43,460.32h16.09l1.42,11.64h.49c4.85-8.89,12.13-13.25,18.91-13.25a18.58,18.58,0,0,1,8,1.34l-3.29,17a26.85,26.85,0,0,0-7.18-1.08c-5,0-11.11,3.24-14.66,12.31v38.58h-19.73Z"/><path class="cls-1" d="M1073.54,502.69V475.8h-9.09V461.08l10.19-.76,2.31-17.68h16.31v17.68h16V475.8h-16v26.65c0,7.54,3.43,10.57,8.62,10.57a19.89,19.89,0,0,0,6.33-1.26l3.11,14.32a47,47,0,0,1-14.8,2.42C1080.07,528.5,1073.54,518.11,1073.54,502.69Z"/><path class="cls-1" d="M1115.94,493.63c0-21.59,15.41-34.92,31.4-34.92,19,0,28.35,13.78,28.35,32a44.48,44.48,0,0,1-.82,8.72H1135c1.77,9.65,8.39,14.09,17.27,14.09,5,0,9.56-1.53,14.39-4.36l6.53,11.89a43.35,43.35,0,0,1-23.62,7.5C1130.63,528.5,1115.94,515.67,1115.94,493.63Zm42.9-7.3c0-7.31-3.19-12.58-11.06-12.58-6.23,0-11.61,4.18-13,12.58Z"/><path class="cls-1" d="M1185.82,493.63c0-21.77,13.59-34.92,27.61-34.92,7.34,0,11.82,2.73,16.32,7l-.71-10.09V432.89h19.72v94h-16.09l-1.42-6.6h-.49c-4.71,4.71-11.29,8.21-17.71,8.21C1196.51,528.5,1185.82,515.37,1185.82,493.63ZM1229,506.4V479.06a16.16,16.16,0,0,0-11-4.21c-6.39,0-12,5.9-12,18.56,0,13.07,4.51,18.95,12.15,18.95C1222.38,512.36,1225.77,510.77,1229,506.4Z"/><path class="cls-1" d="M1287.49,460.32h19.6l6.37,30.82c1.17,6.57,1.89,13,3,19.78h.54c1.17-6.74,2.34-13.43,4-19.78l7.26-30.82h17.13l7.48,30.82c1.61,6.57,2.78,13,4.16,19.78h.54c1.17-6.74,1.89-13.21,3.06-19.78l6.33-30.82h18.22l-15.91,66.57h-23.1L1340,500.28c-1.21-6.17-2.33-12.29-3.55-19.46h-.53c-1.17,7.17-2.12,13.34-3.38,19.51l-5.84,26.56h-22.56Z"/><path class="cls-1" d="M1395.51,440.28c0-6,4.8-10.31,11.41-10.31s11.42,4.26,11.42,10.31-4.8,10.31-11.42,10.31S1395.51,446.28,1395.51,440.28Zm1.53,20h19.72v66.57H1397Z"/><path class="cls-1" d="M1436.79,502.69V475.8h-9.1V461.08l10.2-.76,2.31-17.68h16.31v17.68h16V475.8h-16v26.65c0,7.54,3.43,10.57,8.62,10.57a19.89,19.89,0,0,0,6.33-1.26l3.11,14.32a47,47,0,0,1-14.8,2.42C1443.32,528.5,1436.79,518.11,1436.79,502.69Z"/><path class="cls-1" d="M1485.47,432.89h19.72v23l-.88,12.05c5-4.54,11.47-9.2,20.55-9.2,14.47,0,20.64,10.22,20.64,26.85v41.33h-19.72v-38.8c0-9.58-2.57-12.58-8.27-12.58-5,0-8,2.31-12.32,6.47v44.91h-19.72Z"/><g id="Page-1"><g id="hac-logo"><g id="hac-logo-light"><path id="Fill-1" class="cls-1" d="M560.27,236.41l3.43-.37c3-.27,4.08-.92,4.08-1.56V183.6c0-.73-.55-1-4.72-1.38l-2.69-.27-.28-1.47h26l-.27,1.47-3.62.37c-3,.27-4.07.92-4.07,1.56v23.78h27.61V183.6c0-.73-.55-1-4.72-1.38l-2.79-.27-.27-1.47h26l-.28,1.47-3.52.37c-2.87.27-4,.92-4,1.56v50.87c0,.74.56,1,4.73,1.38l2.69.28.28,1.47H597.89l.28-1.47,3.62-.37c3-.27,4-.83,4-1.56V209.59H578.16v25.16c0,.74.56,1,4.73,1.38l2.86.28.28,1.47H560Z"/><path id="Fill-3" class="cls-1" d="M649.77,230l.56-14c-11,2.57-13.62,6.24-13.62,10.65,0,4,2.87,6.62,6,6.62,2.59,0,4.72-1,7-3.31m.28,1.74-.18-.09c-3.52,3.86-7.32,7.26-12.14,7.26-5.47,0-10-4.14-10-9.37,0-6.52,5.47-11,22.61-15.06l.1-2.39c.18-8.54-3.43-12.22-9.18-12.22-3.24,0-6.39,1.57-6.39,2.39,0,.65,2.5,2.57,2.5,5.14a4.7,4.7,0,0,1-5,4.42c-2.88,0-5-1.75-5-4.14,0-5.33,11.49-10.83,19.37-10.83,9.73,0,13.53,3.67,13,15.51l-.83,16.81c-.19,3.12,1,4.6,3,4.6,1.48,0,2.78-1.2,4.08-2.39l.83.82C664.6,235,661.08,239,657,239s-6.48-2.48-7-7.26"/><path id="Fill-5" class="cls-1" d="M668.3,219.14c0-12.58,9.08-22.31,21.68-22.31,8.07,0,14.18,3.58,14.18,8.81a5.09,5.09,0,0,1-5.19,5.14,5.29,5.29,0,0,1-5.19-6.06c0-2,1.39-3.21,1.39-3.76-.28-1.11-2.78-2.39-5.19-2.39-6.67,0-11.86,6.61-11.86,16.9,0,10.65,5.84,17.45,14,17.45,4.82,0,8.53-1.74,11.68-6.7l1,.54c-3.9,7.9-9.55,12.49-17.61,12.49-10.84,0-18.9-8.63-18.9-20.11"/><path id="Fill-7" class="cls-1" d="M706.84,236.41l1.67-.09c2.59-.28,3.61-.46,3.61-1.57v-49c0-2.76-.56-3.5-3-4.14l-3-1.1.09-1,15.19-4v43.35l7.14-6.8c4.73-4.32,7.69-7.63,7.69-9.55,0-1.56-1.39-2.48-4.91-2.76l-1.21-.09-.18-1.47h19.65l-.28,1.47-1.76.18c-4.08.56-6.58,2.76-14,9.83l-2.13,2,11.68,18.83c2.78,4.41,3.62,5.51,6.76,5.78l1.49.19.27,1.47H736.3l-1.85-3.31-9.64-16.71L721.38,221v14c0,.84.56,1,4.26,1.39l1.58.09.19,1.47H706.56Z"/><path id="Fill-9" class="cls-1" d="M778.92,210.51c.09-6.24-1.95-11.94-7-11.94-4.73,0-8.9,5.15-9.91,12l16.95-.09m-27.06,8.54c0-12.58,9-22.31,21.22-22.31,9.64,0,15.29,5.69,15.29,13.13a13.22,13.22,0,0,1-.27,2.57l-26.23-.28a23.08,23.08,0,0,0-.28,3.58c.1,10.29,5.93,17.18,14.09,17.18,4.91,0,8.89-1.74,12-6.7l1,.55c-3.89,7.89-9.73,12.49-17.88,12.49-10.93,0-19-8.73-19-20.21"/><path id="Fill-11" class="cls-1" d="M793,236.41l1.76-.09c2.68-.19,3.71-.46,3.71-1.57V209.87c0-5.7-.75-6.61-3.89-7.35l-2.14-.46.1-1.1,15.19-4.05-.19,13.69h.28c3.15-8.82,6.86-13.78,12.42-13.78,3.52,0,6.3,2.39,6.3,5.7a5.29,5.29,0,0,1-5.28,5.42,5.86,5.86,0,0,1-5.84-5.15c-3,.92-5.56,4.69-7.88,11.85v20.29c0,.84.75,1.2,4.45,1.39l2.79.09.27,1.47H792.72Z"/><path id="Fill-13" class="cls-1" d="M830.24,237l-.65-11.66,2-.09,2.13,5.32c2.41,4.22,5.65,6.89,10.1,6.89,4.82,0,8.34-3,8.34-7.35s-4.35-6.61-9.92-8.63c-6.2-2.29-11.86-5-11.86-12.4,0-7.16,5.93-12.21,14.64-12.21a24.48,24.48,0,0,1,8.9,1.56l3.33-1,.47,11.94-1.85.09-4.83-8.54a10.79,10.79,0,0,0-6.3-2.3c-4.54,0-7.13,2.66-7.13,6.43,0,4.41,3.71,6,9.54,8.17,6.49,2.48,12.42,5.14,12.42,12.86,0,6.8-5.65,13.14-16.4,13.14a37.46,37.46,0,0,1-13-2.21"/><path id="Fill-15" class="cls-1" d="M898.08,231.83l.39-12c-10.74,2.61-13.21,5.74-13.21,9.8a5.31,5.31,0,0,0,5.49,5.66c2.77,0,5-1.3,7.33-3.44m0,1.45-.15-.07c-2.86,2.91-6.1,5.51-9.81,5.51-4.63,0-8.26-3.37-8.26-7.66,0-5.43,4.4-9,18.69-12.48l.08-2.6c.22-7.73-3.25-9.95-7.65-9.95-3.09,0-6.41,1.76-6.41,2.61,0,.53,1.77,1.76,1.77,3.67a3.16,3.16,0,0,1-3.4,3.06c-1.93,0-3.39-1.14-3.39-3,0-3.75,8.57-8.5,14.6-8.5,6.94,0,10.26,2.68,9.8,12.09l-.77,16.31c-.07,2.3.77,3.14,2.32,3.14,1.15,0,2.39-1,3.63-2.15l.62.69c-1.63,2-3.94,4.82-6.8,4.82s-4.71-1.91-4.87-5.51"/><path id="Fill-17" class="cls-1" d="M915,230.91l.38-22.81-6-.15.23-1.3,10.35-8.58.92.23-.07,6.74h11.43l-.93,2.91h-10.5s-.54,22.12-.54,22.2c-.08,3.67,1.93,5.36,5.25,5.36,2.7,0,4.71-1.3,6.56-2.69l.47.77c-2.86,2.76-6.1,5.36-9.89,5.36-4.32,0-7.72-2.07-7.64-8"/><path id="Fill-19" class="cls-1" d="M948.56,209.59c0-17.81,13.44-30.4,33.64-30.4a38.78,38.78,0,0,1,14.91,3.13l6.39-2,.28,18.64h-2l-7.23-14.79c-2.6-1.74-6.95-3-12.32-3-14.18,0-22.15,12.21-22.15,27.64,0,17.17,9.35,28.46,22.24,28.46,8.52,0,13.43-3.85,17.79-10.37,0-.1,3.15-7.35,3.15-7.35h2.13l-2.87,16.35-3.71.09a52.73,52.73,0,0,1-17.24,3.21c-19.27,0-33-11.57-33-29.57"/><path id="Fill-21" class="cls-1" d="M1034,230l.56-14c-11,2.57-13.63,6.24-13.63,10.65,0,4,2.88,6.62,6,6.62,2.59,0,4.72-1,7-3.31m.28,1.74-.19-.09c-3.52,3.86-7.32,7.26-12.13,7.26-5.47,0-10-4.14-10-9.37,0-6.52,5.46-11,22.61-15.06l.08-2.39c.19-8.54-3.42-12.22-9.17-12.22-3.24,0-6.39,1.57-6.39,2.39,0,.65,2.5,2.57,2.5,5.14a4.7,4.7,0,0,1-5,4.42c-2.87,0-5-1.75-5-4.14,0-5.33,11.49-10.83,19.37-10.83,9.73,0,13.53,3.67,13,15.51l-.83,16.81c-.18,3.12,1,4.6,3,4.6,1.49,0,2.79-1.2,4.08-2.39l.84.82c-2.13,2.85-5.66,6.8-9.73,6.8s-6.49-2.48-7-7.26"/><path id="Fill-23" class="cls-1" d="M1052.41,236.41l1.77-.09c2.68-.19,3.7-.46,3.7-1.57V209.87c0-5.7-.75-6.61-3.89-7.35l-2.13-.46.09-1.1,15.19-4.05-.18,7.44.18.09c3.8-3.48,8.44-7.62,14.46-7.62a10.25,10.25,0,0,1,7.41,2.94,8.82,8.82,0,0,1,2.51,5l.27.09c4-4,8.81-8,14.83-8a9.94,9.94,0,0,1,7.41,2.85c2.23,2.2,3.15,6,3.15,10.75v24.43c0,.64.09,1.1,4.36,1.47l1.39.09.28,1.47h-20.85l.28-1.47,1.85-.09c3-.19,3.43-.74,3.43-1.57V212.07c0-6.61-2.51-8.91-7.69-8.91-3.34,0-7,1.65-8.06,3.67a22,22,0,0,1-.1,2.39v25.71c0,.65.19,1,4.26,1.39l1.49.09.28,1.47h-20.67l.28-1.47,1.76-.09c3-.19,3.43-.74,3.43-1.57V212.07c0-6.61-2.59-8.91-7.7-8.91-3.33,0-6,1.56-8.24,3.13v28.64c0,.84.56,1.11,4.17,1.39l1.76.09.18,1.47h-20.93Z"/><path id="Fill-25" class="cls-1" d="M1158.31,219.69c0-9.36-4.54-16.43-11.67-16.43a12.64,12.64,0,0,0-9.27,4.31v21.49c2.41,4.5,6.58,8.18,10.84,8.18,6.21,0,10.1-7.72,10.1-17.55Zm-30-34.07c0-2.66-.56-3.4-3.06-4.13l-3-1.1.08-1,15.11-4V205l.37.09c3.8-4.41,8.53-7.81,14.09-7.81,9.54,0,16.59,8.27,16.59,19.47,0,14.15-10.94,22.41-21.88,22.41a34.3,34.3,0,0,1-11.76-2.57h-.1l-5.56,3.22h-.83Z"/><path id="Fill-27" class="cls-1" d="M1172.57,236.41l1.76-.09c2.69-.19,3.71-.46,3.71-1.57V209.87c0-5.7-.75-6.61-3.89-7.35l-2.14-.46.1-1.1,15.19-4.05-.18,13.69h.28c3.15-8.82,6.85-13.78,12.42-13.78,3.52,0,6.29,2.39,6.29,5.7a5.29,5.29,0,0,1-5.28,5.42,5.84,5.84,0,0,1-5.83-5.15c-3.06.92-5.57,4.69-7.88,11.85v20.29c0,.84.74,1.2,4.44,1.39l2.79.09.27,1.47h-22.33Z"/><path id="Fill-29" class="cls-1" d="M1212,184.06a5.88,5.88,0,1,1,11.76,0,5.88,5.88,0,1,1-11.76,0Zm-3.44,52.35,1.77-.1c2.69-.18,3.7-.45,3.7-1.56v-25c0-5.61-.65-6.52-3.89-7.26l-2-.46.1-1.1,15-4v38c0,.84.55,1.11,4.35,1.38l1.48.1.28,1.47h-21Z"/><path id="Fill-31" class="cls-1" d="M1263.56,229.15V207.21c-2.32-4.5-6.49-8-10.66-8-6.49,0-10.2,7.63-10.2,17.36,0,9.46,4.64,16.71,11.86,16.71,3.89,0,6.68-1.84,9-4.13Zm0,2.29-.28-.08c-3.62,4.4-8.44,7.71-14,7.71-9.37,0-16.69-8.27-16.69-19.65,0-14.14,10.94-22.13,22-22.13a21.79,21.79,0,0,1,8.81,1.55s.19-.09.19,0v-14c0-2.67-.66-3.59-3.07-4.05l-3.89-1,.19-1,15.84-3.3v55.74c0,2.48.47,3,1.76,3.4l4.45,1-.09,1.1-15.19,2.67Z"/><path id="Fill-33" class="cls-1" d="M1306.54,211.15c0-7.53-2.23-12.67-7.6-12.67-4.44,0-7.13,4.31-7.13,11.66,0,7.81,2.77,12.49,7.13,12.49,4.82,0,7.6-4,7.6-11.48m7.32,36.55c0-4.59-3.15-7.25-10.94-7.62-2.69-.09-6.75.09-10.55.37a9,9,0,0,0-5.38,8c0,5.79,5.65,9.74,13.52,9.74s13.35-4.68,13.35-10.47m-34.19,3.12c0-5.23,5.65-8.72,10.65-10.65V240c-5.46-.64-9.36-3.77-9.36-7.53,0-4.59,5-8.09,9.92-9.37v-.18a12.44,12.44,0,0,1-8.34-11.85c0-7.9,7-14.14,16.49-14.14a20.7,20.7,0,0,1,11,3.12l12.14-1.47-.65,5.15-9.26-1.38-.1.36a10.63,10.63,0,0,1,3.25,7.62c0,7.81-7.14,13.87-16.78,13.87a35.48,35.48,0,0,1-5.74-.54c-2.6.54-4.82,2.19-4.82,4.4,0,2.66,2.6,3.77,7.14,3.77,3.06,0,7.87-.28,11.2-.28,8.44,0,13.63,4.32,13.63,11.29,0,10-9.83,17.73-24.46,17.73-10.11,0-15.94-3.58-15.94-9.74"/><path id="Fill-35" class="cls-1" d="M1350.17,210.51c.1-6.24-1.94-11.94-7-11.94-4.73,0-8.9,5.15-9.93,12l17-.09m-27.05,8.54c0-12.58,9-22.31,21.22-22.31,9.63,0,15.28,5.69,15.28,13.13a11.87,11.87,0,0,1-.28,2.57l-26.21-.28a21.91,21.91,0,0,0-.28,3.58c.09,10.29,5.93,17.18,14.08,17.18,4.91,0,8.89-1.74,12-6.7l1,.55c-3.9,7.89-9.73,12.49-17.89,12.49-10.93,0-19-8.73-19-20.21"/></g></g></g></svg>