<svg id="Layer_1" data-name="Layer 1" xmlns="http://www.w3.org/2000/svg" viewBox="0 0 1920 1080"><defs><style>.cls-1{fill:#fff;}</style></defs><title>unitybannerfg</title><path class="cls-1" d="M724,594.7,691.5,540,724,485.3,739.67,540Zm-72.4-5.24-40.85-40.57h64.95l32.47,54.71Zm0-98.91,56.57-14.14-32.47,54.71H610.73Zm83.12-41.07-74,19.27-11,18.78-22.21-.16L573.46,540l54.13,52.63,22.2-.16,11,18.77,73.94,19.27,19.81-71.89L743.25,540l11.26-18.62Z"/><path class="cls-1" d="M902.44,502.82c-9.88,0-16.52,4.09-21.46,11.86h-.42v-9.89h-17.3v72.42H881V536.13c0-9.88,6.21-16.65,14.68-16.65,8.05,0,14.05,4.77,14.05,13.26v44.47h17.71V529.92c0-15.81-10-27.1-25-27.1"/><path class="cls-1" d="M836.31,546.55c0,9.6-5.5,16.37-14.54,16.37-8.19,0-13.34-4.66-13.34-13.13v-45H790.72V553c0,15.81,9,26.11,25.12,26.11,10.17,0,15.81-3.81,20.75-10.44H837v8.47h17V504.76H836.31Z"/><rect class="cls-1" x="936.71" y="504.79" width="17.72" height="72.42"/><rect class="cls-1" x="936.71" y="482.21" width="17.72" height="14.56"/><path class="cls-1" d="M1054.57,504.79,1044,537.4c-2.25,6.64-4.23,15.81-4.23,15.81h-.45s-2.4-9.17-4.66-15.81l-11.89-32.61h-18.94l19.48,51.53c4.09,11,5.51,15.67,5.51,19.62,0,5.93-3.11,9.88-10.73,9.88h-6.78v15.11h11.29c14.69,0,19.78-5.79,25.29-21.88l25.53-74.26Z"/><path class="cls-1" d="M987.44,555.9V517.5h11.3V504.79h-11.3V482.21H969.85v22.58h-10V517.5h10V560c0,13.69,10.3,17.36,19.62,17.36a93,93,0,0,0,9.69-.28v-14s-2.12,0-4.52,0c-4.23,0-7.2-1.84-7.2-7.2"/><path class="cls-1" d="M1143.33,563H1162v-49.3h-16V501.43c9.14-1.73,15.17-4.05,21.14-7.75h14.54V563h16v15.92h-54.31Z"/><path class="cls-1" d="M1209.79,535.91c0-29,12.17-43.84,30.48-43.84s30.49,14.95,30.49,43.84-12.18,44.59-30.49,44.59S1209.79,564.9,1209.79,535.91Zm42.3,0c0-23.25-5.17-28.58-11.82-28.58s-11.81,5.33-11.81,28.58,5.17,29.33,11.81,29.33S1252.09,559.16,1252.09,535.91Z"/><path class="cls-1" d="M1285,563h18.63v-49.3h-16V501.43c9.14-1.73,15.17-4.05,21.14-7.75h14.54V563h16v15.92H1285Z"/><g id="Page-1"><g id="hac-logo"><g id="hac-logo-light"><path id="Fill-1" class="cls-1" d="M560.27,358.46l3.43-.37c3-.27,4.08-.92,4.08-1.56V305.65c0-.73-.55-1-4.72-1.38l-2.69-.27-.28-1.47h26l-.27,1.47-3.62.37c-3,.27-4.07.92-4.07,1.56v23.78h27.61V305.65c0-.73-.55-1-4.72-1.38l-2.79-.27-.27-1.47h26l-.28,1.47-3.52.37c-2.87.27-4,.92-4,1.56V356.8c0,.74.56,1,4.73,1.38l2.69.28.28,1.47H597.89l.28-1.47,3.62-.37c3-.27,4-.83,4-1.56V331.64H578.16V356.8c0,.74.56,1,4.73,1.38l2.86.28.28,1.47H560Z"/><path id="Fill-3" class="cls-1" d="M649.77,352l.56-14c-11,2.57-13.62,6.24-13.62,10.65,0,3.95,2.87,6.62,6,6.62,2.59,0,4.72-1,7-3.31m.28,1.75-.18-.1c-3.52,3.86-7.32,7.26-12.14,7.26-5.47,0-10-4.14-10-9.37,0-6.52,5.47-11,22.61-15.06l.1-2.39c.18-8.54-3.43-12.22-9.18-12.22-3.24,0-6.39,1.57-6.39,2.39,0,.65,2.5,2.57,2.5,5.15a4.7,4.7,0,0,1-5,4.41c-2.88,0-5-1.75-5-4.14,0-5.33,11.49-10.83,19.37-10.83,9.73,0,13.53,3.67,13,15.51l-.83,16.81c-.19,3.12,1,4.6,3,4.6,1.48,0,2.78-1.2,4.08-2.39l.83.82c-2.13,2.85-5.65,6.8-9.73,6.8s-6.48-2.48-7-7.25"/><path id="Fill-5" class="cls-1" d="M668.3,341.19c0-12.58,9.08-22.31,21.68-22.31,8.07,0,14.18,3.58,14.18,8.81a5.09,5.09,0,0,1-5.19,5.14,5.29,5.29,0,0,1-5.19-6.06c0-2,1.39-3.21,1.39-3.76-.28-1.11-2.78-2.39-5.19-2.39-6.67,0-11.86,6.61-11.86,16.9,0,10.65,5.84,17.45,14,17.45,4.82,0,8.53-1.74,11.68-6.7l1,.55c-3.9,7.89-9.55,12.49-17.61,12.49-10.84,0-18.9-8.64-18.9-20.12"/><path id="Fill-7" class="cls-1" d="M706.84,358.46l1.67-.09c2.59-.28,3.61-.46,3.61-1.57v-49c0-2.76-.56-3.5-3-4.14l-3-1.1.09-1,15.19-4v43.35l7.14-6.8c4.73-4.32,7.69-7.63,7.69-9.55,0-1.56-1.39-2.48-4.91-2.76l-1.21-.09-.18-1.47h19.65l-.28,1.47-1.76.18c-4.08.56-6.58,2.76-14,9.83l-2.13,2,11.68,18.83c2.78,4.41,3.62,5.51,6.76,5.79l1.49.18.27,1.47H736.3l-1.85-3.31-9.64-16.71L721.38,343v14c0,.84.56,1,4.26,1.39l1.58.09.19,1.47H706.56Z"/><path id="Fill-9" class="cls-1" d="M778.92,332.56c.09-6.24-1.95-11.94-7-11.94-4.73,0-8.9,5.15-9.91,12l16.95-.09m-27.06,8.54c0-12.58,9-22.31,21.22-22.31,9.64,0,15.29,5.69,15.29,13.13a13.22,13.22,0,0,1-.27,2.57l-26.23-.28a23.18,23.18,0,0,0-.28,3.58c.1,10.29,5.93,17.18,14.09,17.18,4.91,0,8.89-1.74,12-6.7l1,.55c-3.89,7.89-9.73,12.49-17.88,12.49-10.93,0-19-8.73-19-20.21"/><path id="Fill-11" class="cls-1" d="M793,358.46l1.76-.09c2.68-.19,3.71-.46,3.71-1.57V331.92c0-5.7-.75-6.61-3.89-7.35l-2.14-.46.1-1.1,15.19-4-.19,13.68h.28c3.15-8.82,6.86-13.78,12.42-13.78,3.52,0,6.3,2.39,6.3,5.7a5.29,5.29,0,0,1-5.28,5.42,5.86,5.86,0,0,1-5.84-5.15c-3,.93-5.56,4.69-7.88,11.85V357c0,.84.75,1.2,4.45,1.39l2.79.09.27,1.47H792.72Z"/><path id="Fill-13" class="cls-1" d="M830.24,359l-.65-11.66,2-.09,2.13,5.32c2.41,4.22,5.65,6.89,10.1,6.89,4.82,0,8.34-3,8.34-7.35s-4.35-6.61-9.92-8.63c-6.2-2.29-11.86-5-11.86-12.4,0-7.16,5.93-12.21,14.64-12.21a24.48,24.48,0,0,1,8.9,1.56l3.33-1,.47,11.94-1.85.09-4.83-8.54a10.79,10.79,0,0,0-6.3-2.3c-4.54,0-7.13,2.66-7.13,6.43,0,4.41,3.71,6,9.54,8.17,6.49,2.48,12.42,5.15,12.42,12.86,0,6.8-5.65,13.14-16.4,13.14a37.46,37.46,0,0,1-13-2.21"/><path id="Fill-15" class="cls-1" d="M898.08,353.88l.39-12c-10.74,2.61-13.21,5.74-13.21,9.8a5.31,5.31,0,0,0,5.49,5.66c2.77,0,5-1.3,7.33-3.44m0,1.45-.15-.07c-2.86,2.91-6.1,5.51-9.81,5.51-4.63,0-8.26-3.37-8.26-7.66,0-5.43,4.4-9,18.69-12.47l.08-2.61c.22-7.73-3.25-9.95-7.65-9.95-3.09,0-6.41,1.76-6.41,2.61,0,.54,1.77,1.76,1.77,3.67a3.17,3.17,0,0,1-3.4,3.07c-1.93,0-3.39-1.15-3.39-3,0-3.75,8.57-8.5,14.6-8.5,6.94,0,10.26,2.68,9.8,12.09l-.77,16.31c-.07,2.3.77,3.14,2.32,3.14,1.15,0,2.39-1,3.63-2.15l.62.69c-1.63,2-3.94,4.82-6.8,4.82s-4.71-1.91-4.87-5.51"/><path id="Fill-17" class="cls-1" d="M915,353l.38-22.81-6-.15.23-1.3,10.35-8.58.92.23-.07,6.74h11.43l-.93,2.91h-10.5s-.54,22.12-.54,22.2c-.08,3.67,1.93,5.36,5.25,5.36,2.7,0,4.71-1.3,6.56-2.69l.47.77c-2.86,2.76-6.1,5.36-9.89,5.36-4.32,0-7.72-2.07-7.64-8"/><path id="Fill-19" class="cls-1" d="M948.56,331.64c0-17.81,13.44-30.4,33.64-30.4a38.78,38.78,0,0,1,14.91,3.13l6.39-2,.28,18.64h-2l-7.23-14.79c-2.6-1.74-6.95-3-12.32-3-14.18,0-22.15,12.21-22.15,27.64,0,17.17,9.35,28.46,22.24,28.46,8.52,0,13.43-3.85,17.79-10.37,0-.09,3.15-7.35,3.15-7.35h2.13l-2.87,16.35-3.71.09a52.73,52.73,0,0,1-17.24,3.21c-19.27,0-33-11.57-33-29.57"/><path id="Fill-21" class="cls-1" d="M1034,352l.56-14c-11,2.57-13.63,6.24-13.63,10.65,0,3.95,2.88,6.62,6,6.62,2.59,0,4.72-1,7-3.31m.28,1.75-.19-.1c-3.52,3.86-7.32,7.26-12.13,7.26-5.47,0-10-4.14-10-9.37,0-6.52,5.46-11,22.61-15.06l.08-2.39c.19-8.54-3.42-12.22-9.17-12.22-3.24,0-6.39,1.57-6.39,2.39,0,.65,2.5,2.57,2.5,5.15a4.7,4.7,0,0,1-5,4.41c-2.87,0-5-1.75-5-4.14,0-5.33,11.49-10.83,19.37-10.83,9.73,0,13.53,3.67,13,15.51l-.83,16.81c-.18,3.12,1,4.6,3,4.6,1.49,0,2.79-1.2,4.08-2.39l.84.82c-2.13,2.85-5.66,6.8-9.73,6.8s-6.49-2.48-7-7.25"/><path id="Fill-23" class="cls-1" d="M1052.41,358.46l1.77-.09c2.68-.19,3.7-.46,3.7-1.57V331.92c0-5.7-.75-6.61-3.89-7.35l-2.13-.46.09-1.1,15.19-4-.18,7.43.18.1c3.8-3.49,8.44-7.63,14.46-7.63a10.25,10.25,0,0,1,7.41,2.94,8.82,8.82,0,0,1,2.51,5l.27.09c4-4,8.81-8,14.83-8a9.94,9.94,0,0,1,7.41,2.85c2.23,2.21,3.15,6,3.15,10.75V356.9c0,.64.09,1.1,4.36,1.47l1.39.09.28,1.47h-20.85l.28-1.47,1.85-.09c3-.19,3.43-.74,3.43-1.57V334.12c0-6.61-2.51-8.91-7.69-8.91-3.34,0-7,1.65-8.06,3.67a22,22,0,0,1-.1,2.39V357c0,.65.19,1,4.26,1.39l1.49.09.28,1.47h-20.67l.28-1.47,1.76-.09c3-.19,3.43-.74,3.43-1.57V334.12c0-6.61-2.59-8.91-7.7-8.91-3.33,0-6,1.56-8.24,3.13V357c0,.84.56,1.11,4.17,1.39l1.76.09.18,1.47h-20.93Z"/><path id="Fill-25" class="cls-1" d="M1158.31,341.74c0-9.36-4.54-16.43-11.67-16.43a12.64,12.64,0,0,0-9.27,4.31v21.49c2.41,4.5,6.58,8.18,10.84,8.18,6.21,0,10.1-7.72,10.1-17.55Zm-30-34.06c0-2.67-.56-3.41-3.06-4.14l-3-1.1.08-1,15.11-4v29.66l.37.09c3.8-4.4,8.53-7.81,14.09-7.81,9.54,0,16.59,8.27,16.59,19.47,0,14.15-10.94,22.41-21.88,22.41a34.3,34.3,0,0,1-11.76-2.57h-.1l-5.56,3.22h-.83Z"/><path id="Fill-27" class="cls-1" d="M1172.57,358.46l1.76-.09c2.69-.19,3.71-.46,3.71-1.57V331.92c0-5.7-.75-6.61-3.89-7.35l-2.14-.46.1-1.1,15.19-4-.18,13.68h.28c3.15-8.82,6.85-13.78,12.42-13.78,3.52,0,6.29,2.39,6.29,5.7a5.29,5.29,0,0,1-5.28,5.42,5.84,5.84,0,0,1-5.83-5.15c-3.06.93-5.57,4.69-7.88,11.85V357c0,.84.74,1.2,4.44,1.39l2.79.09.27,1.47h-22.33Z"/><path id="Fill-29" class="cls-1" d="M1212,306.11a5.88,5.88,0,0,1,11.76,0,5.88,5.88,0,1,1-11.76,0Zm-3.44,52.35,1.77-.09c2.69-.19,3.7-.46,3.7-1.57v-25c0-5.61-.65-6.52-3.89-7.26l-2-.46.1-1.1,15-4v38c0,.84.55,1.11,4.35,1.39l1.48.09.28,1.47h-21Z"/><path id="Fill-31" class="cls-1" d="M1263.56,351.2V329.26c-2.32-4.5-6.49-8-10.66-8-6.49,0-10.2,7.63-10.2,17.36,0,9.46,4.64,16.71,11.86,16.71,3.89,0,6.68-1.84,9-4.13Zm0,2.29-.28-.08c-3.62,4.4-8.44,7.71-14,7.71-9.37,0-16.69-8.26-16.69-19.65,0-14.14,10.94-22.13,22-22.13a21.79,21.79,0,0,1,8.81,1.55s.19-.09.19,0v-14c0-2.67-.66-3.59-3.07-4.05l-3.89-1,.19-1,15.84-3.3v55.74c0,2.48.47,3,1.76,3.4l4.45,1-.09,1.1-15.19,2.67Z"/><path id="Fill-33" class="cls-1" d="M1306.54,333.2c0-7.53-2.23-12.67-7.6-12.67-4.44,0-7.13,4.32-7.13,11.66,0,7.81,2.77,12.49,7.13,12.49,4.82,0,7.6-4,7.6-11.48m7.32,36.55c0-4.59-3.15-7.25-10.94-7.62-2.69-.09-6.75.09-10.55.37a9,9,0,0,0-5.38,8c0,5.79,5.65,9.74,13.52,9.74s13.35-4.68,13.35-10.47m-34.19,3.12c0-5.23,5.65-8.72,10.65-10.65V362c-5.46-.64-9.36-3.77-9.36-7.53,0-4.59,5-8.09,9.92-9.37V345a12.44,12.44,0,0,1-8.34-11.85c0-7.9,7-14.14,16.49-14.14a20.7,20.7,0,0,1,11,3.12l12.14-1.47-.65,5.15-9.26-1.38-.1.36a10.64,10.64,0,0,1,3.25,7.63c0,7.8-7.14,13.86-16.78,13.86a35.48,35.48,0,0,1-5.74-.54c-2.6.54-4.82,2.19-4.82,4.4,0,2.66,2.6,3.77,7.14,3.77,3.06,0,7.87-.28,11.2-.28,8.44,0,13.63,4.32,13.63,11.3,0,10-9.83,17.72-24.46,17.72-10.11,0-15.94-3.58-15.94-9.74"/><path id="Fill-35" class="cls-1" d="M1350.17,332.56c.1-6.24-1.94-11.94-7-11.94-4.73,0-8.9,5.15-9.93,12l17-.09m-27.05,8.54c0-12.58,9-22.31,21.22-22.31,9.63,0,15.28,5.69,15.28,13.13a11.87,11.87,0,0,1-.28,2.57l-26.21-.28a22,22,0,0,0-.28,3.58c.09,10.29,5.93,17.18,14.08,17.18,4.91,0,8.89-1.74,12-6.7l1,.55c-3.9,7.89-9.73,12.49-17.89,12.49-10.93,0-19-8.73-19-20.21"/></g></g></g><path class="cls-1" d="M474.22,760.72l7.28-10c4.16,4,9.21,6.89,14.93,6.89,6.65,0,11.08-2.9,11.08-8.14,0-6-3.49-9.67-18.31-9.67V728.65c12.24,0,16.09-3.72,16.09-9.12,0-4.8-3.05-7.51-8.4-7.51-4.85,0-8.53,2.19-12.74,6l-8-9.62c6.28-5.39,13.14-8.72,21.43-8.72,14.16,0,23.52,6.72,23.52,18.7,0,7-4,12-11.37,15.14v.43c7.88,2.25,13.59,7.8,13.59,16.62,0,12.69-11.63,19.85-25.35,19.85C487,770.38,479.22,766.46,474.22,760.72Z"/><path class="cls-1" d="M536.81,699.13h19.78c21.37,0,35.13,10.63,35.13,34.68S578,769.09,557.48,769.09H536.81Zm18.82,57.22c11.87,0,19.88-5.81,19.88-22.54s-8-21.94-19.88-21.94h-3v44.48Z"/><path class="cls-1" d="M621.81,778.23c0-4.42,2.65-8,7.55-10.72v-.43a10.34,10.34,0,0,1-4.86-9c0-3.84,2.55-7.59,5.94-10v-.43a17,17,0,0,1-7.15-13.81c0-12.78,10.56-19.27,22-19.27a26,26,0,0,1,8.25,1.29H673v11.49h-8.56a13.94,13.94,0,0,1,1.81,7c0,12.25-9.32,17.89-21,17.89a22.76,22.76,0,0,1-6.5-1,4.54,4.54,0,0,0-1.85,4c0,2.63,2.14,3.9,8,3.9h8.64c13.06,0,20.33,4,20.33,13.54,0,11.06-11.53,19.12-29.8,19.12C631.7,791.73,621.81,787.7,621.81,778.23Zm37-2.93c0-3.36-2.88-4.13-8.11-4.13h-5.53a28.32,28.32,0,0,1-7.47-.68c-2,1.67-2.87,3.31-2.87,5.22,0,4,4.67,6.11,11.8,6.11S658.78,779,658.78,775.3Zm-6.2-41.48c0-5.67-3.08-8.66-7.27-8.66s-7.27,3-7.27,8.66,3.12,8.87,7.27,8.87S652.58,739.65,652.58,733.82Z"/><path class="cls-1" d="M678,754.32c0-11.22,8.93-17.29,30-19.52-.32-4.65-2.64-7.69-8.42-7.69-4.47,0-8.93,1.88-14.09,4.81l-5.61-10.36c6.76-4.13,14.37-7,22.74-7,13.62,0,21.16,7.78,21.16,24.1v30.44H710.84l-1.13-5.46h-.39c-4.49,3.94-9.51,6.75-15.5,6.75C684.11,770.38,678,763.29,678,754.32Zm30-.7v-9.3c-11.22,1.51-14.88,4.72-14.88,8.74,0,3.44,2.36,5.11,6.11,5.11C702.74,758.17,705.14,756.41,707.94,753.62Z"/><path class="cls-1" d="M737,715.84h12.87l1.14,6.83h.39c4.37-4.39,9.14-8.12,16.13-8.12,7.49,0,12,3.23,14.7,9,4.69-4.88,9.69-9,16.72-9,11.5,0,16.66,8.17,16.66,21.48v33.06H799.82v-31c0-7.66-2.1-10.06-6.58-10.06-2.67,0-5.7,1.67-9.06,5.18v35.92H768.4v-31c0-7.66-2.09-10.06-6.57-10.06-2.64,0-5.71,1.67-9.07,5.18v35.92H737Z"/><path class="cls-1" d="M825.89,742.48c0-17.27,12.32-27.93,25.11-27.93,15.17,0,22.68,11,22.68,25.56a36,36,0,0,1-.65,7H841.17c1.42,7.73,6.71,11.27,13.81,11.27a22.24,22.24,0,0,0,11.52-3.48l5.21,9.51a34.67,34.67,0,0,1-18.89,6C837.64,770.38,825.89,760.11,825.89,742.48Zm34.32-5.83c0-5.86-2.55-10.07-8.85-10.07-5,0-9.29,3.34-10.37,10.07Z"/><path class="cls-1" d="M879.82,762.94l7.1-9.83c4.82,3.65,9.28,5.59,13.74,5.59,4.69,0,6.72-1.79,6.72-4.58,0-3.5-5.27-5.1-10.75-7.24-6.53-2.53-14.09-6.86-14.09-15.66,0-9.91,8.05-16.67,20.34-16.67a30.36,30.36,0,0,1,18.77,6.74l-7.06,9.48c-3.79-2.75-7.53-4.55-11.22-4.55-4.07,0-6.08,1.6-6.08,4.25,0,3.4,5,4.7,10.51,6.71,6.74,2.49,14.34,6.29,14.34,16s-7.6,17.18-21.87,17.18A34.59,34.59,0,0,1,879.82,762.94Z"/><path class="cls-1" d="M953.53,715.84H966.4l1.14,6.83h.39c4.37-4.39,9.14-8.12,16.14-8.12,7.48,0,12,3.23,14.7,9,4.68-4.88,9.68-9,16.71-9,11.51,0,16.66,8.17,16.66,21.48v33.06h-15.78v-31c0-7.66-2.09-10.06-6.57-10.06-2.68,0-5.71,1.67-9.07,5.18v35.92H985v-31c0-7.66-2.1-10.06-6.58-10.06-2.64,0-5.7,1.67-9.06,5.18v35.92H953.53Z"/><path class="cls-1" d="M1043.07,754.32c0-11.22,8.93-17.29,30-19.52-.31-4.65-2.64-7.69-8.42-7.69-4.47,0-8.92,1.88-14.09,4.81l-5.61-10.36c6.76-4.13,14.37-7,22.75-7,13.61,0,21.15,7.78,21.15,24.1v30.44H1076l-1.14-5.46h-.39c-4.48,3.94-9.51,6.75-15.49,6.75C1049.24,770.38,1043.07,763.29,1043.07,754.32Zm30-.7v-9.3c-11.22,1.51-14.88,4.72-14.88,8.74,0,3.44,2.36,5.11,6.11,5.11C1067.86,758.17,1070.26,756.41,1073.06,753.62Z"/><path class="cls-1" d="M1099.37,742.48c0-17.41,10.87-27.93,22.08-27.93,5.88,0,9.46,2.19,13.06,5.56l-.57-8.07V693.89h15.78v75.2h-12.87l-1.14-5.28h-.39c-3.76,3.76-9,6.57-14.17,6.57C1107.92,770.38,1099.37,759.87,1099.37,742.48Zm34.57,10.22V730.83a12.91,12.91,0,0,0-8.81-3.37c-5.11,0-9.59,4.72-9.59,14.85,0,10.45,3.61,15.16,9.72,15.16C1128.62,757.47,1131.33,756.19,1133.94,752.7Z"/><path class="cls-1" d="M1160.51,742.48c0-17.27,12.33-27.93,25.12-27.93,15.17,0,22.68,11,22.68,25.56a35.08,35.08,0,0,1-.66,7H1175.8c1.41,7.73,6.7,11.27,13.81,11.27a22.18,22.18,0,0,0,11.51-3.48l5.22,9.51a34.72,34.72,0,0,1-18.89,6C1172.27,770.38,1160.51,760.11,1160.51,742.48Zm34.32-5.83c0-5.86-2.55-10.07-8.85-10.07-5,0-9.29,3.34-10.36,10.07Z"/><path class="cls-1" d="M1237.53,742.48c0-17.27,12.33-27.93,25.12-27.93,15.16,0,22.68,11,22.68,25.56a35.86,35.86,0,0,1-.66,7h-31.85c1.41,7.73,6.7,11.27,13.81,11.27a22.21,22.21,0,0,0,11.51-3.48l5.22,9.51a34.72,34.72,0,0,1-18.89,6C1249.29,770.38,1237.53,760.11,1237.53,742.48Zm34.32-5.83c0-5.86-2.55-10.07-8.85-10.07-5,0-9.29,3.34-10.36,10.07Z"/><path class="cls-1" d="M1292.55,754.32c0-11.22,8.92-17.29,30-19.52-.31-4.65-2.63-7.69-8.42-7.69-4.46,0-8.92,1.88-14.09,4.81l-5.6-10.36c6.75-4.13,14.37-7,22.74-7,13.61,0,21.15,7.78,21.15,24.1v30.44h-12.87l-1.14-5.46h-.39c-4.48,3.94-9.51,6.75-15.49,6.75C1298.71,770.38,1292.55,763.29,1292.55,754.32Zm30-.7v-9.3c-11.22,1.51-14.87,4.72-14.87,8.74,0,3.44,2.35,5.11,6.1,5.11C1317.34,758.17,1319.73,756.41,1322.53,753.62Z"/><path class="cls-1" d="M1346.87,762.94l7.1-9.83c4.83,3.65,9.28,5.59,13.74,5.59,4.69,0,6.73-1.79,6.73-4.58,0-3.5-5.28-5.1-10.76-7.24-6.53-2.53-14.09-6.86-14.09-15.66,0-9.91,8.06-16.67,20.34-16.67a30.33,30.33,0,0,1,18.77,6.74l-7.06,9.48c-3.79-2.75-7.53-4.55-11.22-4.55-4.07,0-6.08,1.6-6.08,4.25,0,3.4,5,4.7,10.51,6.71,6.74,2.49,14.34,6.29,14.34,16s-7.6,17.18-21.87,17.18A34.61,34.61,0,0,1,1346.87,762.94Z"/><path class="cls-1" d="M1397.5,788.83l2.81-12a16,16,0,0,0,3.58.68c5.2,0,7.94-2.86,9.32-7l.79-2.78-20.54-51.88h15.85l7.61,22.91c1.54,4.83,2.81,9.88,4.21,15.09h.43c1.18-5,2.37-10.09,3.7-15.09l6.46-22.91h15.11l-18.49,53.83c-5,13.33-10.73,20.24-23.25,20.24A24.27,24.27,0,0,1,1397.5,788.83Z"/></svg>