<svg xmlns="http://www.w3.org/2000/svg" width="1920" height="1080" viewBox="0 0 507.99999 285.75001" id="svg8"><defs id="defs2"><style id="style4736">.a{fill:#f2f2f2;}.b{opacity:0.3;}.c{fill:#e74a99;}.d{fill:#27aae1;}.e{fill:#fff;}</style></defs><g id="layer1"><g id="g1008"><path id="path4742" d="M95.486 110.174h-5.408V88.538h5.408v2.694h2.694v2.694h2.693v-2.694h2.694v-2.694h5.408v21.636H103.6V99.358h-2.694v2.693h-2.693V99.36H95.52z"/><path id="path4744" d="M117.122 110.174h-5.41v-18.93h2.692V88.55h10.82v2.694h2.693v18.93h-5.387v-8.114h-5.408zm5.408-13.522V93.96h-5.408v2.692z"/><path id="path4746" d="M136.052 110.174h-5.408V88.538h5.408v5.412h2.693v-2.694h2.694v-2.694h5.42v5.412h-2.695v2.693h-2.693v5.408h2.693v2.694h2.694v5.407h-5.388v-2.694h-2.694v-2.693h-2.693z"/><path id="path4748" d="M152.28 107.472h-2.694V91.244h2.693V88.55h13.52v5.412h-10.818v2.693h5.41v5.408h-5.41v2.694h10.82v5.408h-13.523z"/><path id="path4750" d="M187.437 91.244h2.693V88.55h13.522v5.412h-10.807v10.816h5.408v-2.694h-2.694v-5.432h8.11v10.82h-2.694v2.693H190.14v-2.693h-2.694z"/><path id="path4752" d="M211.775 110.174h-5.408v-18.93h2.693V88.55h10.826v2.694h2.693v18.93h-5.388v-8.114h-5.417zm5.417-13.522V93.96h-5.417v2.692z"/><path id="path4754" d="M233.41 93.95h-2.693v16.224h-5.42v-18.93h2.693V88.55h16.228v2.694h2.693v18.93h-5.386V93.95h-2.693v16.224h-5.42z"/><path id="path4756" d="M252.343 107.472h-2.693V91.244h2.693V88.55h13.522v5.412h-10.82v2.693h5.41v5.408h-5.41v2.694h10.82v5.408h-13.522z"/><path id="path4758" d="M268.568 91.244h2.693V88.55h13.523v5.412h-10.816v2.693h8.11v2.694h2.694v8.113h-2.692v2.693h-13.522v-5.39h10.82v-2.694h-8.103V99.38h-2.693z"/><path id="path4760" d="M311.84 110.174h-2.694v-2.694h-2.694V91.244h2.694V88.55h10.816v2.694h2.693v16.228h-2.693v2.693h-2.694v2.694h-5.408zm0-5.408h5.407V93.95h-5.408z"/><path id="path4762" d="M325.36 88.538h5.41v16.228h5.41V88.538h5.408v18.934h-2.693v2.693H328.08v-2.693h-2.695z"/><path id="path4764" d="M344.294 88.538h5.408v21.636h-5.408z"/><path id="path4766" d="M355.11 107.472h-2.693V91.244h2.693V88.55h10.83v2.694h2.692v5.408h-5.408V93.96h-5.408v10.815h5.408v-2.694h5.408v5.412h-2.693v2.694H355.12z"/><path id="path4768" d="M376.746 110.174h-5.42V88.538h5.408v5.412h2.694v-2.694h2.693v-2.694h5.41v5.412h-2.694v2.693h-2.694v5.408h2.694v2.694h2.693v5.407h-5.41v-2.694h-2.692v-2.693h-2.694z"/><path id="path4770" d="M392.973 107.472h-2.693V88.538h5.408v16.228h10.82v5.408h-13.523z"/><path id="path4772" d="M403.79 88.538h5.408v8.114h5.41v-8.114h5.41v10.82h-2.694v2.693h-2.694v8.115h-5.41v-8.105h-2.695v-2.693h-2.693z"/><path id="path4774" d="M173.915 133.614h5.408v16.225h2.693v-16.226h5.41v16.225h2.692v-16.226h5.41v18.93h-2.692v2.694h-16.22v-2.694h-2.692z"/><path id="path4776" d="M198.253 133.614h5.408v21.636h-5.407z"/><path id="path4778" d="M206.367 133.614h16.227v5.41h-5.402v16.226h-5.417v-16.227h-5.408z"/><path id="path4780" d="M230.708 155.25h-5.41v-21.636h5.41v8.114h5.408v-8.114h5.408v21.636h-5.408v-8.114h-5.408z"/><path id="path4782" d="M265.865 152.544h-2.693v-18.93h5.408v16.225h10.82v5.41h-13.535z"/><path id="path4784" d="M282.09 136.317h2.693v-2.694h10.823v2.694h2.693v16.227h-2.694v2.694H284.79v-2.694h-2.694zm2.693-8.114h2.694v2.694h-2.694zm2.694 21.636h5.435v-10.817h-5.408zm5.435-21.637h2.694v2.694h-2.694z"/><path id="path4786" d="M309.134 155.25h-8.11v-21.636h5.407v13.522h2.695v-2.693h2.693v-10.83h5.408v13.523h-2.693v2.694h-2.694v2.693h-2.694z"/><path id="path4788" d="M322.658 152.544h-2.693v-16.227h2.693v-2.694h13.522v5.41h-10.82v2.692h5.41v5.408h-5.41v2.694h10.82v5.41h-13.522z"/><path id="path4790" d="M165.777 53.905l.77-.08c.664-.064.915-.208.915-.354V42.054c0-.165-.126-.228-1.062-.3l-.6-.06-.062-.328h5.842l-.06.33-.81.083c-.668.06-.916.203-.916.347v5.34h6.198v-5.388c0-.165-.126-.228-1.063-.3l-.623-.06-.063-.33h5.836l-.063.33-.79.085c-.643.06-.898.203-.898.347v11.384c0 .164.125.227 1.062.3l.598.062.09.356h-5.86l.063-.332.81-.08c.668-.064.9-.187.9-.354v-5.6h-6.202v5.648c0 .164.126.227 1.06.3l.646.062.06.332h-5.842z"/><path id="path4792" d="M185.865 52.456l.126-3.133c-2.474.577-3.058 1.403-3.058 2.394a1.407 1.407 0 0 0 1.353 1.496 2.14 2.14 0 0 0 1.58-.742m.063.393l-.042-.02c-.79.867-1.643 1.627-2.723 1.627a2.18 2.18 0 0 1-2.248-2.095c0-1.463 1.227-2.475 5.088-3.382l.02-.535c.043-1.92-.768-2.742-2.058-2.742-.73 0-1.437.35-1.437.536 0 .186.563.578.563 1.155a1.053 1.053 0 0 1-1.12.988c-.648 0-1.127-.39-1.127-.928 0-1.197 2.58-2.43 4.35-2.43 2.18 0 3.034.823 2.91 3.484l-.188 3.772c-.04.7.23 1.032.668 1.032.332 0 .622-.27.898-.536l.19.186c-.48.637-1.27 1.523-2.185 1.523-.916 0-1.455-.556-1.56-1.628"/><path id="path4794" d="M190.022 50.032c0-2.825 2.04-5.01 4.867-5.01 1.795 0 3.183.802 3.183 1.978a1.143 1.143 0 0 1-1.164 1.152 1.197 1.197 0 0 1-1.168-1.358c0-.455.3-.722.3-.844-.064-.25-.626-.54-1.168-.54-1.496 0-2.66 1.497-2.66 3.796 0 2.394 1.31 3.918 3.14 3.918 1.082 0 1.914-.392 2.62-1.497l.23.123c-.873 1.775-2.142 2.804-3.953 2.804-2.432 0-4.242-1.94-4.242-4.513"/><path id="path4796" d="M198.675 53.905l.374-.02c.58-.06.81-.103.81-.35v-11.01c0-.616-.126-.783-.667-.927l-.686-.245.02-.228 3.413-.898v9.73l1.6-1.526c1.064-.97 1.728-1.71 1.728-2.142 0-.35-.3-.557-1.1-.62l-.273-.02-.042-.33h4.41l-.062.33-.394.04c-.916.127-1.478.62-3.142 2.207l-.48.455 2.623 4.226c.625.988.81 1.236 1.517 1.3l.335.038.06.332h-3.43l-.417-.742-2.164-3.753-.782.692v3.134c0 .185.126.227.955.3l.356.02.04.332h-4.668z"/><path id="path4798" d="M214.854 48.093c.02-1.4-.436-2.68-1.58-2.68-1.062 0-1.996 1.156-2.226 2.695l3.806-.02M208.782 50c0-2.822 2.017-5.007 4.762-5.007 2.163 0 3.432 1.278 3.432 2.948a2.81 2.81 0 0 1-.062.575l-5.884-.06a4.68 4.68 0 0 0-.063.802c.018 2.31 1.33 3.858 3.16 3.858a2.95 2.95 0 0 0 2.694-1.497l.23.124c-.873 1.775-2.184 2.804-4.015 2.804-2.454 0-4.262-1.957-4.262-4.537"/><path id="path4800" d="M218.015 53.905l.395-.02c.6-.043.832-.103.832-.35v-5.586c0-1.28-.168-1.498-.874-1.65l-.48-.105.022-.245 3.412-.898-.042 3.073h.063c.706-1.978 1.538-3.09 2.786-3.09a1.323 1.323 0 0 1 1.415 1.277 1.197 1.197 0 0 1-1.197 1.215 1.31 1.31 0 0 1-1.31-1.155c-.69.206-1.25 1.053-1.77 2.66v4.556c0 .185.165.266 1 .3l.622.02.063.332h-5z"/><path id="path4802" d="M226.374 54.03l-.147-2.618.458-.02.48 1.196c.54.95 1.268 1.547 2.265 1.547 1.083 0 1.873-.68 1.873-1.65 0-.97-.978-1.495-2.226-1.935-1.392-.515-2.66-1.114-2.66-2.784 0-1.607 1.328-2.74 3.29-2.74a5.486 5.486 0 0 1 1.997.35l.75-.228.103 2.693-.416.02-1.082-1.916a2.412 2.412 0 0 0-1.413-.515c-1.02 0-1.6.597-1.6 1.44 0 .99.83 1.342 2.142 1.836 1.455.554 2.786 1.152 2.786 2.885 0 1.528-1.27 2.95-3.68 2.95a8.407 8.407 0 0 1-2.913-.495"/><path id="path4804" d="M241.602 52.878l.087-2.693c-2.41.598-2.964 1.287-2.964 2.196a1.197 1.197 0 0 0 1.23 1.273c.622 0 1.125-.3 1.646-.772m0 .327l-.033-.018c-.644.655-1.372 1.24-2.204 1.24a1.775 1.775 0 0 1-1.855-1.72c0-1.22.988-2.03 4.19-2.8l.02-.6c.05-1.732-.73-2.232-1.72-2.232-.694 0-1.436.395-1.436.6 0 .118.398.394.398.822a.712.712 0 0 1-.763.688.688.688 0 0 1-.764-.67c0-.84 1.924-1.907 3.292-1.907 1.56 0 2.305.6 2.2 2.713l-.174 3.66c0 .518.174.706.52.706a1.42 1.42 0 0 0 .815-.483l.14.156c-.365.446-.883 1.08-1.527 1.08-.643 0-1.056-.427-1.092-1.236"/><path id="path4806" d="M245.397 52.672l.087-5.118-1.356-.036.054-.3 2.32-1.924.21.054-.02 1.512h2.57l-.21.652h-2.36l-.12 4.983c-.017.823.432 1.197 1.18 1.197a2.43 2.43 0 0 0 1.473-.598l.105.17c-.64.62-1.37 1.197-2.22 1.197-.97 0-1.734-.462-1.716-1.794"/><path id="path4808" d="M252.933 47.886c0-3.998 3.017-6.824 7.55-6.824a8.68 8.68 0 0 1 3.347.704l1.437-.455.063 4.19h-.458l-1.622-3.318a5.145 5.145 0 0 0-2.766-.68c-3.184 0-4.97 2.742-4.97 6.204 0 3.855 2.094 6.39 4.99 6.39 1.914 0 3.015-.865 3.994-2.328 0-.02.706-1.65.706-1.65h.473l-.644 3.67-.832.02a11.85 11.85 0 0 1-3.87.722c-4.326 0-7.403-2.598-7.403-6.638"/><path id="path4810" d="M272.105 52.456l.126-3.133c-2.474.577-3.058 1.403-3.058 2.394a1.407 1.407 0 0 0 1.353 1.496 2.14 2.14 0 0 0 1.58-.742m.063.393l-.04-.02c-.792.867-1.645 1.627-2.725 1.627a2.18 2.18 0 0 1-2.248-2.095c0-1.463 1.23-2.475 5.088-3.382l.02-.535c.043-1.92-.768-2.742-2.058-2.742-.727 0-1.434.35-1.434.536 0 .186.56.578.56 1.155a1.053 1.053 0 0 1-1.12.988c-.648 0-1.124-.39-1.124-.928 0-1.197 2.577-2.43 4.346-2.43 2.185 0 3.038.823 2.912 3.484l-.185 3.772c-.043.7.226 1.032.663 1.032.332 0 .626-.27.898-.536l.19.186c-.476.637-1.27 1.523-2.182 1.523-.913 0-1.458-.556-1.563-1.628"/><path id="path4812" d="M276.245 53.905l.395-.02c.598-.043.832-.103.832-.35v-5.586c0-1.28-.168-1.498-.874-1.65l-.48-.105.022-.245 3.412-.898-.042 1.67.042.02c.853-.78 1.894-1.708 3.244-1.708a2.296 2.296 0 0 1 1.664.658 1.984 1.984 0 0 1 .563 1.114l.063.02c.898-.897 1.975-1.795 3.325-1.795a2.24 2.24 0 0 1 1.668.638c.497.494.706 1.34.706 2.413v5.484c0 .143.02.248.98.33l.298.02.063.332h-4.68l.062-.332.416-.02c.685-.043.77-.166.77-.35v-5.09c0-1.496-.564-2-1.728-2-.748 0-1.56.373-1.81.825a4.816 4.816 0 0 1-.02.537v5.77c0 .144.04.228.956.3l.333.02.063.333h-4.64l.064-.332.395-.02c.668-.043.77-.166.77-.35v-5.09c0-1.496-.58-2-1.727-2a3.21 3.21 0 0 0-1.85.702v6.432c0 .185.126.248.934.3l.398.02.042.332h-4.69z"/><path id="path4814" d="M300.014 50.155c0-2.095-1.017-3.69-2.62-3.69a2.834 2.834 0 0 0-2.094.97v4.82c.54 1.012 1.476 1.838 2.434 1.838 1.39 0 2.265-1.733 2.265-3.938zm-6.737-7.647c0-.6-.126-.766-.688-.928l-.687-.248.02-.228 3.392-.898v6.66l.08.02c.854-.99 1.917-1.753 3.165-1.753 2.14 0 3.723 1.855 3.723 4.37a4.878 4.878 0 0 1-4.91 5.03 7.692 7.692 0 0 1-2.64-.577h-.025l-1.248.72h-.186z"/><path id="path4816" d="M303.217 53.905l.395-.02c.598-.043.832-.103.832-.35v-5.586c0-1.28-.168-1.498-.874-1.65l-.48-.105.022-.245 3.412-.898-.042 3.073h.063c.706-1.978 1.538-3.09 2.786-3.09a1.323 1.323 0 0 1 1.417 1.277 1.197 1.197 0 0 1-1.197 1.215 1.31 1.31 0 0 1-1.308-1.155c-.686.206-1.25 1.053-1.77 2.66v4.556c0 .185.168.266.997.3l.625.02.08.344h-5.012z"/><path id="path4818" d="M312.067 42.155a1.323 1.323 0 0 1 2.642 0 1.323 1.323 0 0 1-2.643 0zm-.773 11.75l.398-.02c.6-.043.83-.103.83-.35v-5.607c0-1.257-.144-1.464-.87-1.628l-.46-.105.022-.245 3.37-.898v8.533c0 .185.125.248.975.3l.33.02.067.347h-4.72z"/><path id="path4820" d="M323.64 52.277V47.35c-.52-1.008-1.457-1.795-2.394-1.795-1.455 0-2.287 1.712-2.287 3.89 0 2.125 1.038 3.753 2.66 3.753a2.79 2.79 0 0 0 2.02-.927zm0 .514l-.063-.017c-.814.988-1.894 1.73-3.142 1.73-2.095 0-3.744-1.855-3.744-4.41 0-3.177 2.455-4.97 4.93-4.97a4.88 4.88 0 0 1 1.978.35s.042-.02.042 0v-3.15c0-.6-.147-.806-.688-.9l-.874-.223.042-.228 3.558-.742v12.514c0 .556.102.68.392.763l1 .227-.02.246-3.41.598z"/><path id="path4822" d="M333.29 48.236c0-1.69-.504-2.843-1.707-2.843-1 0-1.6.967-1.6 2.62 0 1.75.622 2.8 1.6 2.8 1.08 0 1.706-.898 1.706-2.577m1.64 8.207c0-1.033-.707-1.63-2.455-1.712-.598-.02-1.514.02-2.367.082a2.02 2.02 0 0 0-1.197 1.795c0 1.3 1.27 2.188 3.038 2.188 1.77 0 2.993-1.05 2.993-2.35m-7.673.7c0-1.175 1.27-1.96 2.395-2.393v-.04c-1.227-.143-2.095-.846-2.095-1.69 0-1.03 1.125-1.814 2.226-2.095v-.042a2.792 2.792 0 0 1-1.87-2.66c0-1.773 1.577-3.173 3.702-3.173a4.66 4.66 0 0 1 2.475.7l2.724-.33-.144 1.156-2.095-.3-.024.085a2.37 2.37 0 0 1 .73 1.71c0 1.752-1.6 3.11-3.764 3.11a7.805 7.805 0 0 1-1.29-.12c-.598.12-1.08.492-1.08.99 0 .598.58.843 1.6.843.687 0 1.767-.063 2.515-.063 1.896 0 3.06.97 3.06 2.535 0 2.248-2.206 3.98-5.49 3.98-2.268 0-3.59-.804-3.59-2.184"/><path id="path4824" d="M343.082 48.093c.02-1.4-.437-2.68-1.58-2.68-1.063 0-1.997 1.156-2.227 2.695l3.807-.02M337.01 50c0-2.822 2.017-5.007 4.764-5.007 2.16 0 3.43 1.278 3.43 2.948a2.81 2.81 0 0 1-.063.575l-5.883-.06a4.68 4.68 0 0 0-.063.802c.018 2.31 1.33 3.858 3.16 3.858a2.95 2.95 0 0 0 2.694-1.497l.23.124c-.873 1.775-2.184 2.804-4.016 2.804-2.454 0-4.262-1.957-4.262-4.537"/><path id="path4826" d="M93.39 105.385h-5.407V83.75h5.408v2.693h2.695v2.694h2.693v-2.694h2.694V83.75h5.408v21.635h-5.375V94.57H98.81v2.693H96.12V94.57h-2.694z" class="a" fill="#f2f2f2"/><path id="path4828" d="M115.027 105.385h-5.412v-18.93h2.694v-2.693h10.818v2.693h2.694v18.93h-5.387v-8.113h-5.408zm5.408-13.52V89.17h-5.408v2.694z" class="a" fill="#f2f2f2"/><path id="path4830" d="M133.957 105.385h-5.408V83.75h5.407v5.41h2.693v-2.693h2.694v-2.693h5.42v5.41h-2.694v2.695h-2.693v5.407h2.693v2.693h2.694v5.408h-5.387v-2.693h-2.694V100h-2.693z" class="a" fill="#f2f2f2"/><path id="path4832" d="M150.184 102.683h-2.693V86.455h2.694v-2.693h13.522v5.41h-10.82v2.695h5.412v5.408h-5.41v2.693h10.818v5.408h-13.522z" class="a" fill="#f2f2f2"/><path id="path4834" d="M185.342 86.455h2.693v-2.693h13.522v5.41H190.75V99.99h5.408v-2.694h-2.694v-5.432h8.11v10.82h-2.693v2.692h-10.836v-2.693h-2.693z" class="a" fill="#f2f2f2"/><path id="path4836" d="M209.68 105.385h-5.408v-18.93h2.693v-2.693h10.826v2.693h2.694v18.93h-5.387v-8.113h-5.417zm5.417-13.52V89.17h-5.417v2.694z" class="a" fill="#f2f2f2"/><path id="path4838" d="M231.315 89.16h-2.693v16.225h-5.42v-18.93h2.693v-2.693h16.228v2.693h2.693v18.93h-5.387V89.16h-2.694v16.225h-5.42z" class="a" fill="#f2f2f2"/><path id="path4840" d="M250.248 102.683h-2.693V86.455h2.693v-2.693h13.522v5.41h-10.82v2.695h5.41v5.408h-5.41v2.693h10.82v5.408h-13.522z" class="a" fill="#f2f2f2"/><path id="path4842" d="M266.473 86.455h2.693v-2.693h13.522v5.41h-10.816v2.695h8.11v2.693h2.694v8.114h-2.693v2.694H266.46v-5.39h10.82v-2.694h-8.102V94.59h-2.693z" class="a" fill="#f2f2f2"/><path id="path4844" d="M309.744 105.385h-2.694v-2.693h-2.693V86.455h2.693v-2.693h10.817v2.693h2.693v16.228h-2.693v2.693h-2.694v2.694h-5.408zm0-5.408h5.408V89.16h-5.408z" class="a" fill="#f2f2f2"/><path id="path4846" d="M323.266 83.75h5.408v16.227h5.41V83.75h5.41v18.933H336.8v2.693h-10.816v-2.693h-2.694z" class="a" fill="#f2f2f2"/><path id="path4848" d="M342.2 83.75h5.407v21.635H342.2z" class="a" fill="#f2f2f2"/><path id="path4850" d="M353.015 102.683h-2.693V86.455h2.693v-2.693h10.83v2.693h2.692v5.41h-5.408V89.17h-5.41v10.816h5.41v-2.693h5.407v5.41h-2.693v2.694h-10.817z" class="a" fill="#f2f2f2"/><path id="path4852" d="M374.65 105.385h-5.42V83.75h5.41v5.41h2.693v-2.693h2.693v-2.693h5.408v5.41h-2.693v2.695h-2.693v5.407h2.694v2.693h2.694v5.408h-5.408v-2.693h-2.693V100h-2.694z" class="a" fill="#f2f2f2"/><path id="path4854" d="M390.878 102.683h-2.693V83.75h5.408v16.227h10.82v5.408H390.89z" class="a" fill="#f2f2f2"/><path id="path4856" d="M401.695 83.75h5.408v8.114h5.41V83.75h5.41v10.82h-2.695v2.693h-2.693v8.113h-5.41v-8.104h-2.695v-2.694h-2.693z" class="a" fill="#f2f2f2"/><path id="path4858" d="M171.82 128.826h5.408v16.224h2.693v-16.224h5.41v16.224h2.693v-16.224h5.41v18.93h-2.692v2.693h-16.218v-2.694h-2.693z" class="a" fill="#f2f2f2"/><path id="path4860" d="M196.158 128.826h5.408v21.635h-5.408z" class="a" fill="#f2f2f2"/><path id="path4862" d="M204.272 128.826H220.5v5.408h-5.403v16.227h-5.417v-16.226h-5.408z" class="a" fill="#f2f2f2"/><path id="path4864" d="M228.613 150.46h-5.41v-21.634h5.41v8.114h5.408v-8.114h5.41v21.635h-5.41v-8.112h-5.407z" class="a" fill="#f2f2f2"/><path id="path4866" d="M263.77 147.756h-2.693v-18.93h5.408v16.224h10.82v5.41H263.77z" class="a" fill="#f2f2f2"/><path id="path4868" d="M279.995 131.528h2.693v-2.693h10.823v2.693h2.694v16.228h-2.693v2.693h-10.816v-2.694H280zm2.693-8.113h2.694v2.693h-2.694zm2.694 21.635h5.435v-10.816h-5.408zm5.435-21.635h2.694v2.693h-2.693z" class="a" fill="#f2f2f2"/><path id="path4870" d="M307.04 150.46h-8.112v-21.634h5.408v13.522h2.694v-2.694h2.693v-10.828h5.408v13.522h-2.692v2.693h-2.694v2.695h-2.694z" class="a" fill="#f2f2f2"/><path id="path4872" d="M320.563 147.756h-2.693v-16.228h2.693v-2.693h13.522v5.408h-10.82v2.694h5.41v5.408h-5.41v2.693h10.82v5.41h-13.522z" class="a" fill="#f2f2f2"/><path id="path4874" d="M164.58 53.007l.77-.08c.664-.064.915-.207.915-.354V41.155c0-.165-.126-.227-1.063-.3l-.598-.06-.063-.328h5.843l-.06.33-.81.083c-.668.06-.917.203-.917.347v5.34h6.2v-5.388c0-.166-.127-.228-1.064-.3l-.622-.06-.063-.33h5.836l-.063.33-.79.084c-.644.06-.898.203-.898.347v11.386c0 .164.126.227 1.063.3l.598.062.09.356h-5.86l.063-.332.81-.08c.668-.064.9-.187.9-.354v-5.6h-6.203v5.648c0 .164.126.227 1.06.3l.646.062.06.332h-5.843z" class="a" fill="#f2f2f2"/><path id="path4876" d="M184.668 51.558l.126-3.133c-2.475.577-3.06 1.403-3.06 2.394a1.407 1.407 0 0 0 1.354 1.496 2.14 2.14 0 0 0 1.58-.743m.063.392l-.04-.02c-.79.867-1.644 1.628-2.724 1.628a2.18 2.18 0 0 1-2.248-2.095c0-1.464 1.227-2.476 5.088-3.382l.02-.536c.043-1.92-.768-2.742-2.058-2.742-.73 0-1.437.35-1.437.536 0 .186.564.578.564 1.155a1.053 1.053 0 0 1-1.123.987c-.645 0-1.124-.39-1.124-.928 0-1.198 2.58-2.43 4.35-2.43 2.18 0 3.034.822 2.91 3.483l-.188 3.77c-.042.7.23 1.033.668 1.033.332 0 .622-.27.898-.535l.188.186c-.48.638-1.27 1.523-2.185 1.523s-1.454-.557-1.56-1.63" class="a" fill="#f2f2f2"/><path id="path4878" d="M188.825 49.134c0-2.825 2.038-5.01 4.867-5.01 1.795 0 3.184.802 3.184 1.978a1.143 1.143 0 0 1-1.164 1.153 1.197 1.197 0 0 1-1.167-1.36c0-.454.3-.72.3-.843-.064-.25-.626-.54-1.168-.54-1.497 0-2.66 1.498-2.66 3.796 0 2.394 1.31 3.918 3.14 3.918 1.082 0 1.914-.392 2.62-1.497l.23.122c-.873 1.775-2.142 2.804-3.953 2.804-2.433 0-4.244-1.94-4.244-4.513" class="a" fill="#f2f2f2"/><path id="path4880" d="M197.478 53.007l.374-.02c.58-.06.81-.103.81-.35v-11.01c0-.616-.125-.783-.666-.927l-.686-.245.02-.228 3.413-.898v9.73l1.6-1.527c1.064-.97 1.728-1.712 1.728-2.143 0-.35-.298-.557-1.1-.62l-.273-.02-.042-.33h4.412l-.063.33-.395.04c-.917.127-1.48.62-3.143 2.207l-.48.455 2.622 4.226c.625.988.81 1.236 1.517 1.3l.335.038.06.332h-3.43l-.416-.742-2.164-3.753-.78.69v3.135c0 .185.125.227.954.3l.356.02.042.332h-4.67z" class="a" fill="#f2f2f2"/><path id="path4882" d="M213.657 47.195c.02-1.4-.437-2.694-1.58-2.694-1.062 0-1.996 1.156-2.227 2.695l3.807-.02m-6.072 1.914c0-2.823 2.017-5.008 4.76-5.008 2.165 0 3.434 1.278 3.434 2.948a2.81 2.81 0 0 1-.064.575l-5.884-.06a4.68 4.68 0 0 0-.062.802c.018 2.31 1.328 3.858 3.16 3.858a2.95 2.95 0 0 0 2.694-1.497l.23.123c-.874 1.776-2.185 2.805-4.016 2.805-2.455 0-4.262-1.957-4.262-4.537" class="a" fill="#f2f2f2"/><path id="path4884" d="M216.818 53.007l.395-.02c.598-.043.832-.103.832-.35V47.05c0-1.277-.168-1.495-.874-1.648l-.478-.105.02-.245 3.413-.898-.042 3.074h.063c.706-1.98 1.538-3.092 2.786-3.092a1.323 1.323 0 0 1 1.416 1.278 1.197 1.197 0 0 1-1.197 1.215 1.31 1.31 0 0 1-1.31-1.156c-.688.206-1.248 1.053-1.77 2.66v4.556c0 .185.166.266 1 .3l.623.02.063.332h-5z" class="a" fill="#f2f2f2"/><path id="path4886" d="M225.177 53.133l-.147-2.62.458-.02.48 1.197c.54.95 1.268 1.547 2.265 1.547 1.083 0 1.873-.68 1.873-1.65 0-.968-.978-1.495-2.226-1.935-1.392-.515-2.66-1.113-2.66-2.784 0-1.607 1.328-2.74 3.29-2.74a5.486 5.486 0 0 1 1.997.35l.75-.228.103 2.693-.416.018-1.083-1.914a2.412 2.412 0 0 0-1.412-.515c-1.02 0-1.6.6-1.6 1.444 0 .987.83 1.34 2.142 1.834 1.454.554 2.786 1.153 2.786 2.885 0 1.527-1.27 2.948-3.68 2.948a8.407 8.407 0 0 1-2.913-.492" class="a" fill="#f2f2f2"/><path id="path4888" d="M240.405 51.98l.087-2.693c-2.41.598-2.963 1.287-2.963 2.197a1.197 1.197 0 0 0 1.23 1.27c.62 0 1.124-.298 1.645-.77m0 .326l-.033-.018c-.644.655-1.37 1.24-2.203 1.24a1.775 1.775 0 0 1-1.856-1.72c0-1.22.987-2.028 4.19-2.8l.018-.6c.05-1.732-.728-2.232-1.718-2.232-.695 0-1.437.395-1.437.6 0 .118.398.394.398.822a.712.712 0 0 1-.763.688.688.688 0 0 1-.763-.67c0-.84 1.923-1.907 3.29-1.907 1.56 0 2.305.6 2.2 2.712l-.173 3.66c0 .518.174.706.52.706a1.42 1.42 0 0 0 .815-.48l.14.155c-.365.446-.882 1.08-1.526 1.08-.643 0-1.056-.427-1.092-1.235" class="a" fill="#f2f2f2"/><path id="path4890" d="M244.2 51.774l.087-5.118-1.356-.036.055-.3 2.32-1.924.21.054-.02 1.497h2.57l-.21.652h-2.36l-.12 4.982c-.017.823.432 1.197 1.18 1.197a2.43 2.43 0 0 0 1.473-.6l.104.17c-.64.62-1.37 1.2-2.22 1.2-.97 0-1.733-.465-1.715-1.797" class="a" fill="#f2f2f2"/><path id="path4892" d="M251.736 46.988c0-3.998 3.017-6.824 7.55-6.824a8.68 8.68 0 0 1 3.347.704l1.437-.455.062 4.19h-.457l-1.623-3.32a5.145 5.145 0 0 0-2.765-.68c-3.184 0-4.97 2.743-4.97 6.206 0 3.853 2.094 6.388 4.99 6.388 1.913 0 3.015-.865 3.993-2.328 0-.02.707-1.65.707-1.65h.473l-.644 3.67-.832.02a11.85 11.85 0 0 1-3.87.722c-4.327 0-7.404-2.597-7.404-6.638" class="a" fill="#f2f2f2"/><path id="path4894" d="M270.908 51.558l.126-3.133c-2.475.577-3.06 1.403-3.06 2.394a1.407 1.407 0 0 0 1.354 1.496 2.14 2.14 0 0 0 1.58-.743m.063.392l-.038-.02c-.793.867-1.646 1.628-2.726 1.628a2.18 2.18 0 0 1-2.248-2.095c0-1.464 1.23-2.476 5.088-3.382l.02-.536c.043-1.92-.768-2.742-2.058-2.742-.727 0-1.434.35-1.434.536 0 .186.56.578.56 1.155a1.053 1.053 0 0 1-1.122.987c-.647 0-1.123-.39-1.123-.928 0-1.198 2.576-2.43 4.345-2.43 2.185 0 3.038.822 2.912 3.483l-.186 3.77c-.04.7.23 1.033.666 1.033.332 0 .625-.27.898-.535l.188.186c-.476.638-1.27 1.523-2.182 1.523-.912 0-1.457-.557-1.562-1.63" class="a" fill="#f2f2f2"/><path id="path4896" d="M275.048 53.007l.395-.02c.598-.043.832-.103.832-.35V47.05c0-1.277-.168-1.495-.874-1.648l-.478-.105.02-.245 3.413-.898-.042 1.67.042.02c.853-.78 1.894-1.708 3.244-1.708a2.296 2.296 0 0 1 1.663.658 1.984 1.984 0 0 1 .563 1.114l.062.02c.898-.897 1.976-1.795 3.326-1.795a2.24 2.24 0 0 1 1.667.637c.497.494.707 1.34.707 2.413v5.483c0 .143.02.248.98.33l.298.02.063.332h-4.68l.062-.332.416-.02c.685-.043.77-.166.77-.35v-5.09c0-1.496-.564-1.998-1.728-1.998-.748 0-1.56.37-1.81.823a4.816 4.816 0 0 1-.022.54v5.77c0 .143.042.227.958.3l.332.02.063.332h-4.64l.063-.332.395-.02c.668-.043.77-.166.77-.35v-5.09c0-1.496-.58-1.998-1.728-1.998a3.21 3.21 0 0 0-1.85.7v6.432c0 .185.126.248.935.3l.398.02.042.332h-4.69z" class="a" fill="#f2f2f2"/><path id="path4898" d="M298.817 49.257c0-2.095-1.018-3.69-2.62-3.69a2.834 2.834 0 0 0-2.094.97v4.82c.54 1.012 1.476 1.838 2.433 1.838 1.392 0 2.266-1.732 2.266-3.938zm-6.737-7.647c0-.6-.126-.766-.688-.928l-.686-.248.02-.228 3.392-.898v6.66l.08.02c.854-.99 1.916-1.753 3.164-1.753 2.14 0 3.724 1.855 3.724 4.37a4.878 4.878 0 0 1-4.91 5.03 7.692 7.692 0 0 1-2.64-.577h-.025l-1.247.72h-.186z" class="a" fill="#f2f2f2"/><path id="path4900" d="M302.02 53.007l.394-.02c.6-.043.833-.103.833-.35V47.05c0-1.277-.168-1.495-.874-1.648l-.48-.105.022-.245 3.412-.898-.042 3.074h.063c.706-1.98 1.538-3.092 2.786-3.092a1.323 1.323 0 0 1 1.416 1.278 1.197 1.197 0 0 1-1.198 1.215 1.31 1.31 0 0 1-1.308-1.156c-.685.206-1.25 1.053-1.768 2.66v4.556c0 .185.167.266.996.3l.626.02.08.344h-5.012z" class="a" fill="#f2f2f2"/><path id="path4902" d="M310.87 41.257a1.323 1.323 0 0 1 2.642 0 1.323 1.323 0 0 1-2.643 0zm-.773 11.75l.398-.02c.6-.043.83-.103.83-.35V47.03c0-1.257-.144-1.463-.872-1.628l-.458-.105.02-.245 3.37-.898v8.533c0 .185.127.248.977.3l.332.02.066.347h-4.72z" class="a" fill="#f2f2f2"/><path id="path4904" d="M322.443 51.38V46.45c-.52-1.008-1.458-1.795-2.394-1.795-1.456 0-2.288 1.712-2.288 3.89 0 2.125 1.04 3.754 2.66 3.754a2.79 2.79 0 0 0 2.02-.927zm0 .514l-.063-.018c-.814.987-1.894 1.73-3.142 1.73-2.095 0-3.745-1.856-3.745-4.412 0-3.175 2.455-4.968 4.93-4.968a4.88 4.88 0 0 1 1.978.35s.043-.02.043 0v-3.152c0-.598-.147-.805-.688-.897l-.874-.225.043-.227 3.558-.743v12.514c0 .556.103.68.393.763l1 .226-.02.246-3.41.598z" class="a" fill="#f2f2f2"/><path id="path4906" d="M332.092 47.338c0-1.69-.503-2.843-1.706-2.843-1 0-1.6.967-1.6 2.62 0 1.75.62 2.8 1.6 2.8 1.08 0 1.706-.898 1.706-2.577m1.64 8.207c0-1.033-.706-1.63-2.454-1.712-.6-.02-1.514.018-2.367.08a2.02 2.02 0 0 0-1.197 1.796c0 1.298 1.27 2.187 3.038 2.187 1.77 0 2.994-1.05 2.994-2.35m-7.674.7c0-1.175 1.27-1.96 2.395-2.393v-.04c-1.227-.143-2.095-.846-2.095-1.69 0-1.03 1.125-1.814 2.226-2.095v-.043a2.792 2.792 0 0 1-1.87-2.66c0-1.772 1.577-3.173 3.702-3.173a4.66 4.66 0 0 1 2.475.7l2.724-.33-.144 1.156-2.095-.3-.024.085a2.37 2.37 0 0 1 .73 1.71c0 1.753-1.6 3.11-3.765 3.11a7.805 7.805 0 0 1-1.29-.12c-.6.12-1.08.492-1.08.99 0 .598.58.843 1.6.843.685 0 1.766-.063 2.514-.063 1.895 0 3.06.97 3.06 2.535 0 2.248-2.207 3.98-5.49 3.98-2.27 0-3.592-.804-3.592-2.184" class="a" fill="#f2f2f2"/><path id="path4908" d="M341.885 47.195c.02-1.4-.437-2.694-1.58-2.694-1.063 0-1.997 1.156-2.227 2.695l3.807-.02m-6.073 1.914c0-2.823 2.017-5.008 4.765-5.008 2.16 0 3.43 1.278 3.43 2.948a2.81 2.81 0 0 1-.063.575l-5.884-.06a4.68 4.68 0 0 0-.063.802c.018 2.31 1.33 3.858 3.16 3.858a2.95 2.95 0 0 0 2.694-1.497l.232.123c-.874 1.776-2.185 2.805-4.017 2.805-2.454 0-4.262-1.957-4.262-4.537" class="a" fill="#f2f2f2"/><g id="g4912" class="b" opacity=".3"><path id="path4910" d="M274.2 194.618l-.023-.017a29.947 29.947 0 0 0-33.204-3.84c-10.83 5.538-16.996 17.88-15.512 29.84a29.57 29.57 0 0 0 12.35 20.4s18.343-16.39 23.213-22.205c4.567-5.456 14.542-22.89 14.542-22.89-.44-.45-.895-.882-1.364-1.287z"/></g><path id="path4914" d="M273.333 193.305l-.024-.018a29.947 29.947 0 0 0-33.204-3.84c-10.832 5.537-16.997 17.88-15.513 29.842a29.57 29.57 0 0 0 12.352 20.395s18.343-16.386 23.213-22.2c4.567-5.46 14.542-22.893 14.542-22.893-.443-.44-.898-.87-1.367-1.287z" class="c" fill="#e74a99"/><g id="g4918" class="b" opacity=".3"><path id="path4916" d="M237.813 240.987a29.944 29.944 0 0 0 10.307 4.687c11.748 2.814 24.413-2.295 31.127-12.27 7.92-11.748 6.177-27.613-3.688-37.52l-18.78 22.447z"/></g><path id="path4920" d="M236.945 239.685a29.944 29.944 0 0 0 10.308 4.687c11.747 2.814 24.413-2.295 31.126-12.27 7.918-11.745 6.176-27.613-3.69-37.52l-18.78 22.447z" class="d" fill="#27aae1"/><path id="path4922" d="M254.816 208.22s-2.814-6.152-8.68-4.752c-5.866 1.4-18.068 13.358 7.746 28.235h-.02c25.813-14.877 13.596-26.834 7.744-28.235-5.85-1.4-8.66 4.753-8.66 4.753z" class="e" fill="#fff"/></g></g></svg>